<?xml version="1.0" encoding="UTF-8" standalone="no"?>
<!DOCTYPE svg PUBLIC "-//W3C//DTD SVG 1.1//EN"
 "http://www.w3.org/Graphics/SVG/1.1/DTD/svg11.dtd">
<!-- Generated by graphviz version 14.1.2 (20260124.0452)
 -->
<!-- Title: power_system Pages: 1 -->
<svg width="1985pt" height="749pt"
 viewBox="0.00 0.00 1985.00 749.00" xmlns="http://www.w3.org/2000/svg" xmlns:xlink="http://www.w3.org/1999/xlink">
<g id="graph0" class="graph" transform="scale(1 1) rotate(0) translate(36 713.04)">
<title>power_system</title>
<polygon fill="#fafafa" stroke="none" points="-36,36 -36,-713.04 1948.72,-713.04 1948.72,36 -36,36"/>
<!-- 1 -->
<g id="node1" class="node">
<title>1</title>
<path fill="#e3f2fd" stroke="#1565c0" stroke-width="2.5" d="M44.55,-357.1C44.55,-357.1 12,-357.1 12,-357.1 6,-357.1 0,-351.1 0,-345.1 0,-345.1 0,-327.7 0,-327.7 0,-321.7 6,-315.7 12,-315.7 12,-315.7 44.55,-315.7 44.55,-315.7 50.55,-315.7 56.55,-321.7 56.55,-327.7 56.55,-327.7 56.55,-345.1 56.55,-345.1 56.55,-351.1 50.55,-357.1 44.55,-357.1"/>
<text xml:space="preserve" text-anchor="middle" x="28.28" y="-339.45" font-family="Arial" font-size="11.00">1</text>
<text xml:space="preserve" text-anchor="middle" x="28.28" y="-325.95" font-family="Arial" font-size="11.00">20 kV</text>
</g>
<!-- 5 -->
<g id="node5" class="node">
<title>5</title>
<path fill="#fff9c4" stroke="#f57f17" stroke-width="2.5" d="M281.23,-518.1C281.23,-518.1 242.68,-518.1 242.68,-518.1 236.68,-518.1 230.68,-512.1 230.68,-506.1 230.68,-506.1 230.68,-488.7 230.68,-488.7 230.68,-482.7 236.68,-476.7 242.68,-476.7 242.68,-476.7 281.23,-476.7 281.23,-476.7 287.23,-476.7 293.23,-482.7 293.23,-488.7 293.23,-488.7 293.23,-506.1 293.23,-506.1 293.23,-512.1 287.23,-518.1 281.23,-518.1"/>
<text xml:space="preserve" text-anchor="middle" x="261.95" y="-500.45" font-family="Arial" font-size="11.00">101</text>
<text xml:space="preserve" text-anchor="middle" x="261.95" y="-486.95" font-family="Arial" font-size="11.00">230 kV</text>
</g>
<!-- 1&#45;&#45;5 -->
<g id="edge26" class="edge">
<title>1&#45;&#45;5</title>
<path fill="none" stroke="#7b1fa2" stroke-width="3" stroke-dasharray="5,2" d="M57.68,-356.14C101.3,-386.45 184.47,-444.25 229.72,-475.7"/>
<text xml:space="preserve" text-anchor="middle" x="133.43" y="-434.18" font-family="Arial" font-size="9.00">X=0.0120</text>
<text xml:space="preserve" text-anchor="middle" x="133.43" y="-423.68" font-family="Arial" font-size="9.00">20→230kV</text>
</g>
<!-- gen_G1 -->
<g id="node11" class="node">
<title>gen_G1</title>
<ellipse fill="#e3f2fd" stroke="#1976d2" stroke-width="2.5" cx="261.95" cy="-173.4" rx="51.65" ry="38.82"/>
<text xml:space="preserve" text-anchor="middle" x="261.95" y="-183.2" font-family="Arial" font-size="11.00">G1</text>
<text xml:space="preserve" text-anchor="middle" x="261.95" y="-169.7" font-family="Arial" font-size="11.00">M=13.0</text>
<text xml:space="preserve" text-anchor="middle" x="261.95" y="-156.2" font-family="Arial" font-size="11.00">900 MVA</text>
</g>
<!-- 1&#45;&#45;gen_G1 -->
<g id="edge1" class="edge">
<title>1&#45;&#45;gen_G1</title>
<path fill="none" stroke="#1976d2" stroke-width="2" d="M57.68,-316.41C99.25,-287.17 176.72,-232.66 223.09,-200.04"/>
</g>
<!-- 2 -->
<g id="node2" class="node">
<title>2</title>
<path fill="#e3f2fd" stroke="#1565c0" stroke-width="2.5" d="M278.23,-364.1C278.23,-364.1 245.68,-364.1 245.68,-364.1 239.68,-364.1 233.68,-358.1 233.68,-352.1 233.68,-352.1 233.68,-334.7 233.68,-334.7 233.68,-328.7 239.68,-322.7 245.68,-322.7 245.68,-322.7 278.23,-322.7 278.23,-322.7 284.23,-322.7 290.23,-328.7 290.23,-334.7 290.23,-334.7 290.23,-352.1 290.23,-352.1 290.23,-358.1 284.23,-364.1 278.23,-364.1"/>
<text xml:space="preserve" text-anchor="middle" x="261.95" y="-346.45" font-family="Arial" font-size="11.00">2</text>
<text xml:space="preserve" text-anchor="middle" x="261.95" y="-332.95" font-family="Arial" font-size="11.00">20 kV</text>
</g>
<!-- 6 -->
<g id="node6" class="node">
<title>6</title>
<path fill="#fff9c4" stroke="#f57f17" stroke-width="2.5" d="M538.29,-518.1C538.29,-518.1 499.74,-518.1 499.74,-518.1 493.74,-518.1 487.74,-512.1 487.74,-506.1 487.74,-506.1 487.74,-488.7 487.74,-488.7 487.74,-482.7 493.74,-476.7 499.74,-476.7 499.74,-476.7 538.29,-476.7 538.29,-476.7 544.29,-476.7 550.29,-482.7 550.29,-488.7 550.29,-488.7 550.29,-506.1 550.29,-506.1 550.29,-512.1 544.29,-518.1 538.29,-518.1"/>
<text xml:space="preserve" text-anchor="middle" x="519.01" y="-500.45" font-family="Arial" font-size="11.00">102</text>
<text xml:space="preserve" text-anchor="middle" x="519.01" y="-486.95" font-family="Arial" font-size="11.00">230 kV</text>
</g>
<!-- 2&#45;&#45;6 -->
<g id="edge27" class="edge">
<title>2&#45;&#45;6</title>
<path fill="none" stroke="#7b1fa2" stroke-width="3" stroke-dasharray="5,2" d="M291.22,-360.47C339.34,-389.52 436.8,-448.37 486.84,-478.58"/>
<text xml:space="preserve" text-anchor="middle" x="390.48" y="-446.64" font-family="Arial" font-size="9.00">X=0.0120</text>
<text xml:space="preserve" text-anchor="middle" x="390.48" y="-436.14" font-family="Arial" font-size="9.00">20→230kV</text>
</g>
<!-- gen_G2 -->
<g id="node12" class="node">
<title>gen_G2</title>
<ellipse fill="#e3f2fd" stroke="#1976d2" stroke-width="2.5" cx="519.01" cy="-298.4" rx="51.65" ry="38.82"/>
<text xml:space="preserve" text-anchor="middle" x="519.01" y="-308.2" font-family="Arial" font-size="11.00">G2</text>
<text xml:space="preserve" text-anchor="middle" x="519.01" y="-294.7" font-family="Arial" font-size="11.00">M=13.0</text>
<text xml:space="preserve" text-anchor="middle" x="519.01" y="-281.2" font-family="Arial" font-size="11.00">900 MVA</text>
</g>
<!-- 2&#45;&#45;gen_G2 -->
<g id="edge2" class="edge">
<title>2&#45;&#45;gen_G2</title>
<path fill="none" stroke="#1976d2" stroke-width="2" d="M291.22,-338.41C333.77,-330.91 414.88,-316.6 467.68,-307.28"/>
</g>
<!-- 3 -->
<g id="node3" class="node">
<title>3</title>
<path fill="#e3f2fd" stroke="#1565c0" stroke-width="2.5" d="M1046.75,-164.1C1046.75,-164.1 1014.2,-164.1 1014.2,-164.1 1008.2,-164.1 1002.2,-158.1 1002.2,-152.1 1002.2,-152.1 1002.2,-134.7 1002.2,-134.7 1002.2,-128.7 1008.2,-122.7 1014.2,-122.7 1014.2,-122.7 1046.75,-122.7 1046.75,-122.7 1052.75,-122.7 1058.75,-128.7 1058.75,-134.7 1058.75,-134.7 1058.75,-152.1 1058.75,-152.1 1058.75,-158.1 1052.75,-164.1 1046.75,-164.1"/>
<text xml:space="preserve" text-anchor="middle" x="1030.47" y="-146.45" font-family="Arial" font-size="11.00">12</text>
<text xml:space="preserve" text-anchor="middle" x="1030.47" y="-132.95" font-family="Arial" font-size="11.00">20 kV</text>
</g>
<!-- 9 -->
<g id="node9" class="node">
<title>9</title>
<path fill="#fff9c4" stroke="#f57f17" stroke-width="2.5" d="M1400.57,-450.1C1400.57,-450.1 1362.02,-450.1 1362.02,-450.1 1356.02,-450.1 1350.02,-444.1 1350.02,-438.1 1350.02,-438.1 1350.02,-420.7 1350.02,-420.7 1350.02,-414.7 1356.02,-408.7 1362.02,-408.7 1362.02,-408.7 1400.57,-408.7 1400.57,-408.7 1406.57,-408.7 1412.57,-414.7 1412.57,-420.7 1412.57,-420.7 1412.57,-438.1 1412.57,-438.1 1412.57,-444.1 1406.57,-450.1 1400.57,-450.1"/>
<text xml:space="preserve" text-anchor="middle" x="1381.29" y="-432.45" font-family="Arial" font-size="11.00">112</text>
<text xml:space="preserve" text-anchor="middle" x="1381.29" y="-418.95" font-family="Arial" font-size="11.00">230 kV</text>
</g>
<!-- 3&#45;&#45;9 -->
<g id="edge28" class="edge">
<title>3&#45;&#45;9</title>
<path fill="none" stroke="#7b1fa2" stroke-width="3" stroke-dasharray="5,2" d="M1059.57,-158.26C1079.46,-169.24 1106.4,-185.05 1128.48,-201.4 1220.43,-269.48 1317.63,-365.31 1359.32,-407.74"/>
<text xml:space="preserve" text-anchor="middle" x="1205.35" y="-290.45" font-family="Arial" font-size="9.00">X=0.0120</text>
<text xml:space="preserve" text-anchor="middle" x="1205.35" y="-279.95" font-family="Arial" font-size="9.00">20→230kV</text>
</g>
<!-- gen_G3 -->
<g id="node13" class="node">
<title>gen_G3</title>
<ellipse fill="#e3f2fd" stroke="#1976d2" stroke-width="2.5" cx="1381.29" cy="-115.4" rx="51.65" ry="38.82"/>
<text xml:space="preserve" text-anchor="middle" x="1381.29" y="-125.2" font-family="Arial" font-size="11.00">G3</text>
<text xml:space="preserve" text-anchor="middle" x="1381.29" y="-111.7" font-family="Arial" font-size="11.00">M=12.3</text>
<text xml:space="preserve" text-anchor="middle" x="1381.29" y="-98.2" font-family="Arial" font-size="11.00">900 MVA</text>
</g>
<!-- 3&#45;&#45;gen_G3 -->
<g id="edge3" class="edge">
<title>3&#45;&#45;gen_G3</title>
<path fill="none" stroke="#1976d2" stroke-width="2" d="M1059.72,-141.13C1118.35,-136.43 1254,-125.54 1328.68,-119.54"/>
</g>
<!-- 4 -->
<g id="node4" class="node">
<title>4</title>
<path fill="#e3f2fd" stroke="#1565c0" stroke-width="2.5" d="M1397.57,-291.1C1397.57,-291.1 1365.02,-291.1 1365.02,-291.1 1359.02,-291.1 1353.02,-285.1 1353.02,-279.1 1353.02,-279.1 1353.02,-261.7 1353.02,-261.7 1353.02,-255.7 1359.02,-249.7 1365.02,-249.7 1365.02,-249.7 1397.57,-249.7 1397.57,-249.7 1403.57,-249.7 1409.57,-255.7 1409.57,-261.7 1409.57,-261.7 1409.57,-279.1 1409.57,-279.1 1409.57,-285.1 1403.57,-291.1 1397.57,-291.1"/>
<text xml:space="preserve" text-anchor="middle" x="1381.29" y="-273.45" font-family="Arial" font-size="11.00">11</text>
<text xml:space="preserve" text-anchor="middle" x="1381.29" y="-259.95" font-family="Arial" font-size="11.00">20 kV</text>
</g>
<!-- 10 -->
<g id="node10" class="node">
<title>10</title>
<path fill="#fff9c4" stroke="#f57f17" stroke-width="2.5" d="M1705.04,-450.1C1705.04,-450.1 1666.49,-450.1 1666.49,-450.1 1660.49,-450.1 1654.49,-444.1 1654.49,-438.1 1654.49,-438.1 1654.49,-420.7 1654.49,-420.7 1654.49,-414.7 1660.49,-408.7 1666.49,-408.7 1666.49,-408.7 1705.04,-408.7 1705.04,-408.7 1711.04,-408.7 1717.04,-414.7 1717.04,-420.7 1717.04,-420.7 1717.04,-438.1 1717.04,-438.1 1717.04,-444.1 1711.04,-450.1 1705.04,-450.1"/>
<text xml:space="preserve" text-anchor="middle" x="1685.76" y="-432.45" font-family="Arial" font-size="11.00">111</text>
<text xml:space="preserve" text-anchor="middle" x="1685.76" y="-418.95" font-family="Arial" font-size="11.00">230 kV</text>
</g>
<!-- 4&#45;&#45;10 -->
<g id="edge29" class="edge">
<title>4&#45;&#45;10</title>
<path fill="none" stroke="#7b1fa2" stroke-width="3" stroke-dasharray="5,2" d="M1410.75,-285.36C1467.51,-315.2 1594.43,-381.91 1653.46,-412.94"/>
<text xml:space="preserve" text-anchor="middle" x="1557.23" y="-385.88" font-family="Arial" font-size="9.00">X=0.0120</text>
<text xml:space="preserve" text-anchor="middle" x="1557.23" y="-375.38" font-family="Arial" font-size="9.00">20→230kV</text>
</g>
<!-- gen_G4 -->
<g id="node14" class="node">
<title>gen_G4</title>
<ellipse fill="#e3f2fd" stroke="#1976d2" stroke-width="2.5" cx="1685.76" cy="-240.4" rx="51.65" ry="38.82"/>
<text xml:space="preserve" text-anchor="middle" x="1685.76" y="-250.2" font-family="Arial" font-size="11.00">G4</text>
<text xml:space="preserve" text-anchor="middle" x="1685.76" y="-236.7" font-family="Arial" font-size="11.00">M=12.3</text>
<text xml:space="preserve" text-anchor="middle" x="1685.76" y="-223.2" font-family="Arial" font-size="11.00">900 MVA</text>
</g>
<!-- 4&#45;&#45;gen_G4 -->
<g id="edge4" class="edge">
<title>4&#45;&#45;gen_G4</title>
<path fill="none" stroke="#1976d2" stroke-width="2" d="M1410.75,-267.58C1461.7,-262.52 1569.19,-251.86 1633.35,-245.5"/>
</g>
<!-- 5&#45;&#45;6 -->
<g id="edge15" class="edge">
<title>5&#45;&#45;6</title>
<path fill="none" stroke="#424242" stroke-width="2.5" d="M294.47,-501.96C315.2,-504.73 342.96,-507.99 367.61,-509.4 408.8,-511.75 456.23,-506.67 486.64,-502.41"/>
<text xml:space="preserve" text-anchor="middle" x="390.48" y="-511.94" font-family="Arial" font-size="9.00">X=0.0500</text>
</g>
<!-- 5&#45;&#45;6 -->
<g id="edge16" class="edge">
<title>5&#45;&#45;6</title>
<path fill="none" stroke="#424242" stroke-width="2.5" d="M294.09,-497.21C314.91,-497.1 342.9,-496.96 367.61,-496.9 408.73,-496.8 456.19,-497.01 486.61,-497.19"/>
<text xml:space="preserve" text-anchor="middle" x="390.48" y="-498.85" font-family="Arial" font-size="9.00">X=0.0500</text>
</g>
<!-- 7 -->
<g id="node7" class="node">
<title>7</title>
<path fill="#fff9c4" stroke="#f57f17" stroke-width="2.5" d="M770.84,-494.1C770.84,-494.1 732.29,-494.1 732.29,-494.1 726.29,-494.1 720.29,-488.1 720.29,-482.1 720.29,-482.1 720.29,-464.7 720.29,-464.7 720.29,-458.7 726.29,-452.7 732.29,-452.7 732.29,-452.7 770.84,-452.7 770.84,-452.7 776.84,-452.7 782.84,-458.7 782.84,-464.7 782.84,-464.7 782.84,-482.1 782.84,-482.1 782.84,-488.1 776.84,-494.1 770.84,-494.1"/>
<text xml:space="preserve" text-anchor="middle" x="751.57" y="-476.45" font-family="Arial" font-size="11.00">3</text>
<text xml:space="preserve" text-anchor="middle" x="751.57" y="-462.95" font-family="Arial" font-size="11.00">230 kV</text>
</g>
<!-- 6&#45;&#45;7 -->
<g id="edge17" class="edge">
<title>6&#45;&#45;7</title>
<path fill="none" stroke="#424242" stroke-width="2.5" d="M551.11,-494.16C595.11,-489.58 675.09,-481.26 719.23,-476.66"/>
<text xml:space="preserve" text-anchor="middle" x="644.54" y="-488.07" font-family="Arial" font-size="9.00">X=0.0200</text>
</g>
<!-- 6&#45;&#45;7 -->
<g id="edge18" class="edge">
<title>6&#45;&#45;7</title>
<path fill="none" stroke="#424242" stroke-width="2.5" d="M551.5,-480.47C571.76,-470.56 599,-459.02 624.67,-453.9 656.66,-447.52 693.58,-454.96 719.13,-462.42"/>
<text xml:space="preserve" text-anchor="middle" x="644.54" y="-455.85" font-family="Arial" font-size="9.00">X=0.0200</text>
</g>
<!-- 8 -->
<g id="node8" class="node">
<title>8</title>
<path fill="#fff9c4" stroke="#f57f17" stroke-width="2.5" d="M1049.75,-538.1C1049.75,-538.1 1011.2,-538.1 1011.2,-538.1 1005.2,-538.1 999.2,-532.1 999.2,-526.1 999.2,-526.1 999.2,-508.7 999.2,-508.7 999.2,-502.7 1005.2,-496.7 1011.2,-496.7 1011.2,-496.7 1049.75,-496.7 1049.75,-496.7 1055.75,-496.7 1061.75,-502.7 1061.75,-508.7 1061.75,-508.7 1061.75,-526.1 1061.75,-526.1 1061.75,-532.1 1055.75,-538.1 1049.75,-538.1"/>
<text xml:space="preserve" text-anchor="middle" x="1030.47" y="-520.45" font-family="Arial" font-size="11.00">13</text>
<text xml:space="preserve" text-anchor="middle" x="1030.47" y="-506.95" font-family="Arial" font-size="11.00">230 kV</text>
</g>
<!-- 7&#45;&#45;8 -->
<g id="edge19" class="edge">
<title>7&#45;&#45;8</title>
<path fill="none" stroke="#424242" stroke-width="2.5" d="M784.06,-478.4C837.36,-486.87 944.73,-503.93 998.01,-512.4"/>
<text xml:space="preserve" text-anchor="middle" x="858.59" y="-494.72" font-family="Arial" font-size="9.00">X=0.2200</text>
</g>
<!-- 7&#45;&#45;8 -->
<g id="edge20" class="edge">
<title>7&#45;&#45;8</title>
<path fill="none" stroke="#424242" stroke-width="2.5" d="M783.91,-466.83C800.18,-463.75 820.43,-460.43 838.72,-458.9 856.32,-457.43 861.1,-455.65 878.47,-458.9 921.58,-466.96 968.22,-486.92 998.08,-501.28"/>
<text xml:space="preserve" text-anchor="middle" x="858.59" y="-460.85" font-family="Arial" font-size="9.00">X=0.2200</text>
</g>
<!-- 7&#45;&#45;8 -->
<g id="edge21" class="edge">
<title>7&#45;&#45;8</title>
<path fill="none" stroke="#424242" stroke-width="2.5" d="M782.84,-495.27C798.66,-505.36 818.83,-516.23 838.72,-521.4 893.38,-535.6 959.84,-529.11 998.14,-523.19"/>
<text xml:space="preserve" text-anchor="middle" x="858.59" y="-529.76" font-family="Arial" font-size="9.00">X=0.2200</text>
</g>
<!-- load_PQ_0 -->
<g id="node23" class="node">
<title>load_PQ_0</title>
<polygon fill="#ffebee" stroke="#d32f2f" stroke-width="2" points="1030.47,-393.04 932.47,-276.58 1128.48,-276.58 1030.47,-393.04"/>
<text xml:space="preserve" text-anchor="middle" x="1030.47" y="-325.2" font-family="Arial" font-size="11.00">Load</text>
<text xml:space="preserve" text-anchor="middle" x="1030.47" y="-311.7" font-family="Arial" font-size="11.00">P=11.59</text>
<text xml:space="preserve" text-anchor="middle" x="1030.47" y="-298.2" font-family="Arial" font-size="11.00">Q=&#45;0.73</text>
</g>
<!-- 7&#45;&#45;load_PQ_0 -->
<g id="edge13" class="edge">
<title>7&#45;&#45;load_PQ_0</title>
<path fill="none" stroke="#d32f2f" stroke-width="2" d="M784.06,-455.43C833.39,-427.28 929.04,-372.71 985.25,-340.63"/>
</g>
<!-- 8&#45;&#45;9 -->
<g id="edge22" class="edge">
<title>8&#45;&#45;9</title>
<path fill="none" stroke="#424242" stroke-width="2.5" d="M1062.73,-509.51C1128.95,-492.81 1282.71,-454.02 1348.97,-437.3"/>
<text xml:space="preserve" text-anchor="middle" x="1205.35" y="-480.62" font-family="Arial" font-size="9.00">X=0.0200</text>
</g>
<!-- 8&#45;&#45;9 -->
<g id="edge23" class="edge">
<title>8&#45;&#45;9</title>
<path fill="none" stroke="#424242" stroke-width="2.5" d="M1062.85,-496.29C1092.32,-477.7 1138.38,-451.8 1182.48,-439.9 1239.59,-424.49 1309.25,-425.05 1348.82,-427.07"/>
<text xml:space="preserve" text-anchor="middle" x="1205.35" y="-441.85" font-family="Arial" font-size="9.00">X=0.0200</text>
</g>
<!-- load_PQ_1 -->
<g id="node24" class="node">
<title>load_PQ_1</title>
<polygon fill="#ffebee" stroke="#d32f2f" stroke-width="2" points="1381.29,-677.04 1282.23,-560.58 1480.36,-560.58 1381.29,-677.04"/>
<text xml:space="preserve" text-anchor="middle" x="1381.29" y="-609.2" font-family="Arial" font-size="11.00">Load</text>
<text xml:space="preserve" text-anchor="middle" x="1381.29" y="-595.7" font-family="Arial" font-size="11.00">P=15.75</text>
<text xml:space="preserve" text-anchor="middle" x="1381.29" y="-582.2" font-family="Arial" font-size="11.00">Q=&#45;0.90</text>
</g>
<!-- 8&#45;&#45;load_PQ_1 -->
<g id="edge14" class="edge">
<title>8&#45;&#45;load_PQ_1</title>
<path fill="none" stroke="#d32f2f" stroke-width="2" d="M1062.73,-524.75C1115.08,-537.05 1222.1,-562.21 1297.39,-579.91"/>
</g>
<!-- 9&#45;&#45;10 -->
<g id="edge24" class="edge">
<title>9&#45;&#45;10</title>
<path fill="none" stroke="#424242" stroke-width="2.5" d="M1413.81,-433.6C1452.84,-438.27 1521.37,-444.76 1580.11,-441.4 1604.76,-439.99 1632.51,-436.73 1653.24,-433.96"/>
<text xml:space="preserve" text-anchor="middle" x="1557.23" y="-444.27" font-family="Arial" font-size="9.00">X=0.0500</text>
</g>
<!-- 9&#45;&#45;10 -->
<g id="edge25" class="edge">
<title>9&#45;&#45;10</title>
<path fill="none" stroke="#424242" stroke-width="2.5" d="M1413.81,-429.22C1452.85,-429.03 1521.38,-428.76 1580.11,-428.9 1604.82,-428.96 1632.81,-429.1 1653.62,-429.21"/>
<text xml:space="preserve" text-anchor="middle" x="1557.23" y="-430.85" font-family="Arial" font-size="9.00">X=0.0500</text>
</g>
<!-- exc_AVR1 -->
<g id="node15" class="node">
<title>exc_AVR1</title>
<path fill="#fff3e0" stroke="#ff6f00" stroke-width="2" d="M542.56,-187.8C542.56,-187.8 495.46,-187.8 495.46,-187.8 490.66,-187.8 485.86,-183 485.86,-178.2 485.86,-178.2 485.86,-168.6 485.86,-168.6 485.86,-163.8 490.66,-159 495.46,-159 495.46,-159 542.56,-159 542.56,-159 547.36,-159 552.16,-163.8 552.16,-168.6 552.16,-168.6 552.16,-178.2 552.16,-178.2 552.16,-183 547.36,-187.8 542.56,-187.8"/>
<text xml:space="preserve" text-anchor="middle" x="519.01" y="-169.7" font-family="Arial" font-size="11.00">EXDC2</text>
</g>
<!-- gen_G1&#45;&#45;exc_AVR1 -->
<g id="edge5" class="edge">
<title>gen_G1&#45;&#45;exc_AVR1</title>
<path fill="none" stroke="#ff6f00" stroke-width="1.5" stroke-dasharray="5,2" d="M314.57,-173.4C365.52,-173.4 441.88,-173.4 485.1,-173.4"/>
</g>
<!-- gov_GOV1 -->
<g id="node19" class="node">
<title>gov_GOV1</title>
<path fill="#e8f5e9" stroke="#2e7d32" stroke-width="2" d="M542.19,-86.8C542.19,-86.8 495.84,-86.8 495.84,-86.8 491.04,-86.8 486.24,-82 486.24,-77.2 486.24,-77.2 486.24,-67.6 486.24,-67.6 486.24,-62.8 491.04,-58 495.84,-58 495.84,-58 542.19,-58 542.19,-58 546.99,-58 551.79,-62.8 551.79,-67.6 551.79,-67.6 551.79,-77.2 551.79,-77.2 551.79,-82 546.99,-86.8 542.19,-86.8"/>
<text xml:space="preserve" text-anchor="middle" x="519.01" y="-68.7" font-family="Arial" font-size="11.00">TGOV1</text>
</g>
<!-- gen_G1&#45;&#45;gov_GOV1 -->
<g id="edge9" class="edge">
<title>gen_G1&#45;&#45;gov_GOV1</title>
<path fill="none" stroke="#2e7d32" stroke-width="1.5" stroke-dasharray="5,2" d="M308.85,-155.23C359.76,-135.06 440.63,-103.04 485.43,-85.3"/>
</g>
<!-- exc_AVR2 -->
<g id="node16" class="node">
<title>exc_AVR2</title>
<path fill="#fff3e0" stroke="#ff6f00" stroke-width="2" d="M775.12,-324.8C775.12,-324.8 728.02,-324.8 728.02,-324.8 723.22,-324.8 718.42,-320 718.42,-315.2 718.42,-315.2 718.42,-305.6 718.42,-305.6 718.42,-300.8 723.22,-296 728.02,-296 728.02,-296 775.12,-296 775.12,-296 779.92,-296 784.72,-300.8 784.72,-305.6 784.72,-305.6 784.72,-315.2 784.72,-315.2 784.72,-320 779.92,-324.8 775.12,-324.8"/>
<text xml:space="preserve" text-anchor="middle" x="751.57" y="-306.7" font-family="Arial" font-size="11.00">EXDC2</text>
</g>
<!-- gen_G2&#45;&#45;exc_AVR2 -->
<g id="edge6" class="edge">
<title>gen_G2&#45;&#45;exc_AVR2</title>
<path fill="none" stroke="#ff6f00" stroke-width="1.5" stroke-dasharray="5,2" d="M571.75,-301.09C616.36,-303.41 679.43,-306.7 717.52,-308.68"/>
</g>
<!-- gov_GOV2 -->
<g id="node20" class="node">
<title>gov_GOV2</title>
<path fill="#e8f5e9" stroke="#2e7d32" stroke-width="2" d="M774.74,-223.8C774.74,-223.8 728.39,-223.8 728.39,-223.8 723.59,-223.8 718.79,-219 718.79,-214.2 718.79,-214.2 718.79,-204.6 718.79,-204.6 718.79,-199.8 723.59,-195 728.39,-195 728.39,-195 774.74,-195 774.74,-195 779.54,-195 784.34,-199.8 784.34,-204.6 784.34,-204.6 784.34,-214.2 784.34,-214.2 784.34,-219 779.54,-223.8 774.74,-223.8"/>
<text xml:space="preserve" text-anchor="middle" x="751.57" y="-205.7" font-family="Arial" font-size="11.00">TGOV1</text>
</g>
<!-- gen_G2&#45;&#45;gov_GOV2 -->
<g id="edge10" class="edge">
<title>gen_G2&#45;&#45;gov_GOV2</title>
<path fill="none" stroke="#2e7d32" stroke-width="1.5" stroke-dasharray="5,2" d="M566.11,-280.6C611.06,-263.25 678.26,-237.31 717.93,-222"/>
</g>
<!-- exc_AVR3 -->
<g id="node17" class="node">
<title>exc_AVR3</title>
<path fill="#fff3e0" stroke="#ff6f00" stroke-width="2" d="M1709.31,-129.8C1709.31,-129.8 1662.21,-129.8 1662.21,-129.8 1657.41,-129.8 1652.61,-125 1652.61,-120.2 1652.61,-120.2 1652.61,-110.6 1652.61,-110.6 1652.61,-105.8 1657.41,-101 1662.21,-101 1662.21,-101 1709.31,-101 1709.31,-101 1714.11,-101 1718.91,-105.8 1718.91,-110.6 1718.91,-110.6 1718.91,-120.2 1718.91,-120.2 1718.91,-125 1714.11,-129.8 1709.31,-129.8"/>
<text xml:space="preserve" text-anchor="middle" x="1685.76" y="-111.7" font-family="Arial" font-size="11.00">EXDC2</text>
</g>
<!-- gen_G3&#45;&#45;exc_AVR3 -->
<g id="edge7" class="edge">
<title>gen_G3&#45;&#45;exc_AVR3</title>
<path fill="none" stroke="#ff6f00" stroke-width="1.5" stroke-dasharray="5,2" d="M1433.94,-115.4C1496.37,-115.4 1599.56,-115.4 1651.99,-115.4"/>
</g>
<!-- gov_GOV3 -->
<g id="node21" class="node">
<title>gov_GOV3</title>
<path fill="#e8f5e9" stroke="#2e7d32" stroke-width="2" d="M1708.94,-28.8C1708.94,-28.8 1662.59,-28.8 1662.59,-28.8 1657.79,-28.8 1652.99,-24 1652.99,-19.2 1652.99,-19.2 1652.99,-9.6 1652.99,-9.6 1652.99,-4.8 1657.79,0 1662.59,0 1662.59,0 1708.94,0 1708.94,0 1713.74,0 1718.54,-4.8 1718.54,-9.6 1718.54,-9.6 1718.54,-19.2 1718.54,-19.2 1718.54,-24 1713.74,-28.8 1708.94,-28.8"/>
<text xml:space="preserve" text-anchor="middle" x="1685.76" y="-10.7" font-family="Arial" font-size="11.00">TGOV1</text>
</g>
<!-- gen_G3&#45;&#45;gov_GOV3 -->
<g id="edge11" class="edge">
<title>gen_G3&#45;&#45;gov_GOV3</title>
<path fill="none" stroke="#2e7d32" stroke-width="1.5" stroke-dasharray="5,2" d="M1429.55,-99.62C1491.53,-78.92 1598.65,-43.15 1652.25,-25.26"/>
</g>
<!-- exc_AVR4 -->
<g id="node18" class="node">
<title>exc_AVR4</title>
<path fill="#fff3e0" stroke="#ff6f00" stroke-width="2" d="M1903.12,-304.8C1903.12,-304.8 1856.02,-304.8 1856.02,-304.8 1851.22,-304.8 1846.42,-300 1846.42,-295.2 1846.42,-295.2 1846.42,-285.6 1846.42,-285.6 1846.42,-280.8 1851.22,-276 1856.02,-276 1856.02,-276 1903.12,-276 1903.12,-276 1907.92,-276 1912.72,-280.8 1912.72,-285.6 1912.72,-285.6 1912.72,-295.2 1912.72,-295.2 1912.72,-300 1907.92,-304.8 1903.12,-304.8"/>
<text xml:space="preserve" text-anchor="middle" x="1879.57" y="-286.7" font-family="Arial" font-size="11.00">EXDC2</text>
</g>
<!-- gen_G4&#45;&#45;exc_AVR4 -->
<g id="edge8" class="edge">
<title>gen_G4&#45;&#45;exc_AVR4</title>
<path fill="none" stroke="#ff6f00" stroke-width="1.5" stroke-dasharray="5,2" d="M1735.66,-253.15C1770.07,-262.12 1815.2,-273.88 1845.45,-281.77"/>
</g>
<!-- gov_GOV4 -->
<g id="node22" class="node">
<title>gov_GOV4</title>
<path fill="#e8f5e9" stroke="#2e7d32" stroke-width="2" d="M1902.74,-203.8C1902.74,-203.8 1856.39,-203.8 1856.39,-203.8 1851.59,-203.8 1846.79,-199 1846.79,-194.2 1846.79,-194.2 1846.79,-184.6 1846.79,-184.6 1846.79,-179.8 1851.59,-175 1856.39,-175 1856.39,-175 1902.74,-175 1902.74,-175 1907.54,-175 1912.34,-179.8 1912.34,-184.6 1912.34,-184.6 1912.34,-194.2 1912.34,-194.2 1912.34,-199 1907.54,-203.8 1902.74,-203.8"/>
<text xml:space="preserve" text-anchor="middle" x="1879.57" y="-185.7" font-family="Arial" font-size="11.00">TGOV1</text>
</g>
<!-- gen_G4&#45;&#45;gov_GOV4 -->
<g id="edge12" class="edge">
<title>gen_G4&#45;&#45;gov_GOV4</title>
<path fill="none" stroke="#2e7d32" stroke-width="1.5" stroke-dasharray="5,2" d="M1735.66,-227.4C1770.29,-218.19 1815.78,-206.09 1846.04,-198.05"/>
</g>
</g>
</svg>
