<?xml version="1.0" encoding="UTF-8" standalone="no"?>
<!DOCTYPE svg PUBLIC "-//W3C//DTD SVG 1.1//EN"
 "http://www.w3.org/Graphics/SVG/1.1/DTD/svg11.dtd">
<!-- Generated by graphviz version 14.1.2 (20260124.0452)
 -->
<!-- Title: power_system Pages: 1 -->
<svg width="770pt" height="1134pt"
 viewBox="0.00 0.00 770.00 1134.00" xmlns="http://www.w3.org/2000/svg" xmlns:xlink="http://www.w3.org/1999/xlink">
<g id="graph0" class="graph" transform="scale(1 1) rotate(0) translate(36 1098.05)">
<title>power_system</title>
<polygon fill="#fafafa" stroke="none" points="-36,36 -36,-1098.05 733.88,-1098.05 733.88,36 -36,36"/>
<!-- 1 -->
<g id="node1" class="node">
<title>1</title>
<path fill="#e3f2fd" stroke="#1565c0" stroke-width="2.5" d="M383.34,-807.62C383.34,-807.62 350.79,-807.62 350.79,-807.62 344.79,-807.62 338.79,-801.62 338.79,-795.62 338.79,-795.62 338.79,-778.22 338.79,-778.22 338.79,-772.22 344.79,-766.22 350.79,-766.22 350.79,-766.22 383.34,-766.22 383.34,-766.22 389.34,-766.22 395.34,-772.22 395.34,-778.22 395.34,-778.22 395.34,-795.62 395.34,-795.62 395.34,-801.62 389.34,-807.62 383.34,-807.62"/>
<text xml:space="preserve" text-anchor="middle" x="367.06" y="-789.97" font-family="Arial" font-size="11.00">1</text>
<text xml:space="preserve" text-anchor="middle" x="367.06" y="-776.47" font-family="Arial" font-size="11.00">20 kV</text>
</g>
<!-- 5 -->
<g id="node5" class="node">
<title>5</title>
<path fill="#fff9c4" stroke="#f57f17" stroke-width="2.5" d="M378.03,-643.12C378.03,-643.12 339.48,-643.12 339.48,-643.12 333.48,-643.12 327.48,-637.12 327.48,-631.12 327.48,-631.12 327.48,-613.72 327.48,-613.72 327.48,-607.72 333.48,-601.72 339.48,-601.72 339.48,-601.72 378.03,-601.72 378.03,-601.72 384.03,-601.72 390.03,-607.72 390.03,-613.72 390.03,-613.72 390.03,-631.12 390.03,-631.12 390.03,-637.12 384.03,-643.12 378.03,-643.12"/>
<text xml:space="preserve" text-anchor="middle" x="358.76" y="-625.47" font-family="Arial" font-size="11.00">101</text>
<text xml:space="preserve" text-anchor="middle" x="358.76" y="-611.97" font-family="Arial" font-size="11.00">230 kV</text>
</g>
<!-- 1&#45;&#45;5 -->
<g id="edge26" class="edge">
<title>1&#45;&#45;5</title>
<path fill="none" stroke="#7b1fa2" stroke-width="3" stroke-dasharray="5,2" d="M365.96,-765.08C364.37,-733.61 361.46,-675.87 359.86,-644.36"/>
<text xml:space="preserve" text-anchor="middle" x="340.04" y="-717.19" font-family="Arial" font-size="9.00">X=0.0120</text>
<text xml:space="preserve" text-anchor="middle" x="340.04" y="-706.69" font-family="Arial" font-size="9.00">20→230kV</text>
</g>
<!-- gen_G1 -->
<g id="node11" class="node">
<title>gen_G1</title>
<ellipse fill="#e3f2fd" stroke="#1976d2" stroke-width="2.5" cx="538.2" cy="-818.85" rx="51.65" ry="38.82"/>
<text xml:space="preserve" text-anchor="middle" x="538.2" y="-828.65" font-family="Arial" font-size="11.00">G1</text>
<text xml:space="preserve" text-anchor="middle" x="538.2" y="-815.15" font-family="Arial" font-size="11.00">M=13.0</text>
<text xml:space="preserve" text-anchor="middle" x="538.2" y="-801.65" font-family="Arial" font-size="11.00">900 MVA</text>
</g>
<!-- 1&#45;&#45;gen_G1 -->
<g id="edge1" class="edge">
<title>1&#45;&#45;gen_G1</title>
<path fill="none" stroke="#1976d2" stroke-width="2" d="M396.48,-792.41C421.33,-797.05 457.49,-803.79 487.06,-809.31"/>
</g>
<!-- 2 -->
<g id="node2" class="node">
<title>2</title>
<path fill="#e3f2fd" stroke="#1565c0" stroke-width="2.5" d="M235.23,-336.14C235.23,-336.14 202.68,-336.14 202.68,-336.14 196.68,-336.14 190.68,-330.14 190.68,-324.14 190.68,-324.14 190.68,-306.74 190.68,-306.74 190.68,-300.74 196.68,-294.74 202.68,-294.74 202.68,-294.74 235.23,-294.74 235.23,-294.74 241.23,-294.74 247.23,-300.74 247.23,-306.74 247.23,-306.74 247.23,-324.14 247.23,-324.14 247.23,-330.14 241.23,-336.14 235.23,-336.14"/>
<text xml:space="preserve" text-anchor="middle" x="218.95" y="-318.49" font-family="Arial" font-size="11.00">2</text>
<text xml:space="preserve" text-anchor="middle" x="218.95" y="-304.99" font-family="Arial" font-size="11.00">20 kV</text>
</g>
<!-- 6 -->
<g id="node6" class="node">
<title>6</title>
<path fill="#fff9c4" stroke="#f57f17" stroke-width="2.5" d="M398.63,-477.83C398.63,-477.83 360.08,-477.83 360.08,-477.83 354.08,-477.83 348.08,-471.83 348.08,-465.83 348.08,-465.83 348.08,-448.43 348.08,-448.43 348.08,-442.43 354.08,-436.43 360.08,-436.43 360.08,-436.43 398.63,-436.43 398.63,-436.43 404.63,-436.43 410.63,-442.43 410.63,-448.43 410.63,-448.43 410.63,-465.83 410.63,-465.83 410.63,-471.83 404.63,-477.83 398.63,-477.83"/>
<text xml:space="preserve" text-anchor="middle" x="379.35" y="-460.18" font-family="Arial" font-size="11.00">102</text>
<text xml:space="preserve" text-anchor="middle" x="379.35" y="-446.68" font-family="Arial" font-size="11.00">230 kV</text>
</g>
<!-- 2&#45;&#45;6 -->
<g id="edge27" class="edge">
<title>2&#45;&#45;6</title>
<path fill="none" stroke="#7b1fa2" stroke-width="3" stroke-dasharray="5,2" d="M243.66,-337.27C273.8,-363.89 324.46,-408.64 354.61,-435.28"/>
<text xml:space="preserve" text-anchor="middle" x="276.26" y="-398.72" font-family="Arial" font-size="9.00">X=0.0120</text>
<text xml:space="preserve" text-anchor="middle" x="276.26" y="-388.22" font-family="Arial" font-size="9.00">20→230kV</text>
</g>
<!-- gen_G2 -->
<g id="node12" class="node">
<title>gen_G2</title>
<ellipse fill="#e3f2fd" stroke="#1976d2" stroke-width="2.5" cx="245.95" cy="-202.22" rx="51.65" ry="38.82"/>
<text xml:space="preserve" text-anchor="middle" x="245.95" y="-212.02" font-family="Arial" font-size="11.00">G2</text>
<text xml:space="preserve" text-anchor="middle" x="245.95" y="-198.52" font-family="Arial" font-size="11.00">M=13.0</text>
<text xml:space="preserve" text-anchor="middle" x="245.95" y="-185.02" font-family="Arial" font-size="11.00">900 MVA</text>
</g>
<!-- 2&#45;&#45;gen_G2 -->
<g id="edge2" class="edge">
<title>2&#45;&#45;gen_G2</title>
<path fill="none" stroke="#1976d2" stroke-width="2" d="M224.16,-293.61C227.68,-278.83 232.44,-258.89 236.61,-241.4"/>
</g>
<!-- 3 -->
<g id="node3" class="node">
<title>3</title>
<path fill="#e3f2fd" stroke="#1565c0" stroke-width="2.5" d="M284.5,-557.94C284.5,-557.94 251.95,-557.94 251.95,-557.94 245.95,-557.94 239.95,-551.94 239.95,-545.94 239.95,-545.94 239.95,-528.54 239.95,-528.54 239.95,-522.54 245.95,-516.54 251.95,-516.54 251.95,-516.54 284.5,-516.54 284.5,-516.54 290.5,-516.54 296.5,-522.54 296.5,-528.54 296.5,-528.54 296.5,-545.94 296.5,-545.94 296.5,-551.94 290.5,-557.94 284.5,-557.94"/>
<text xml:space="preserve" text-anchor="middle" x="268.22" y="-540.29" font-family="Arial" font-size="11.00">12</text>
<text xml:space="preserve" text-anchor="middle" x="268.22" y="-526.79" font-family="Arial" font-size="11.00">20 kV</text>
</g>
<!-- 9 -->
<g id="node9" class="node">
<title>9</title>
<path fill="#fff9c4" stroke="#f57f17" stroke-width="2.5" d="M187.91,-465.4C187.91,-465.4 149.36,-465.4 149.36,-465.4 143.36,-465.4 137.36,-459.4 137.36,-453.4 137.36,-453.4 137.36,-436 137.36,-436 137.36,-430 143.36,-424 149.36,-424 149.36,-424 187.91,-424 187.91,-424 193.91,-424 199.91,-430 199.91,-436 199.91,-436 199.91,-453.4 199.91,-453.4 199.91,-459.4 193.91,-465.4 187.91,-465.4"/>
<text xml:space="preserve" text-anchor="middle" x="168.64" y="-447.75" font-family="Arial" font-size="11.00">112</text>
<text xml:space="preserve" text-anchor="middle" x="168.64" y="-434.25" font-family="Arial" font-size="11.00">230 kV</text>
</g>
<!-- 3&#45;&#45;9 -->
<g id="edge28" class="edge">
<title>3&#45;&#45;9</title>
<path fill="none" stroke="#7b1fa2" stroke-width="3" stroke-dasharray="5,2" d="M244.62,-515.31C228.75,-500.56 207.91,-481.19 192.07,-466.48"/>
<text xml:space="preserve" text-anchor="middle" x="195.46" y="-503.33" font-family="Arial" font-size="9.00">X=0.0120</text>
<text xml:space="preserve" text-anchor="middle" x="195.46" y="-492.83" font-family="Arial" font-size="9.00">20→230kV</text>
</g>
<!-- gen_G3 -->
<g id="node13" class="node">
<title>gen_G3</title>
<ellipse fill="#e3f2fd" stroke="#1976d2" stroke-width="2.5" cx="258.66" cy="-643.33" rx="51.65" ry="38.82"/>
<text xml:space="preserve" text-anchor="middle" x="258.66" y="-653.13" font-family="Arial" font-size="11.00">G3</text>
<text xml:space="preserve" text-anchor="middle" x="258.66" y="-639.63" font-family="Arial" font-size="11.00">M=12.3</text>
<text xml:space="preserve" text-anchor="middle" x="258.66" y="-626.13" font-family="Arial" font-size="11.00">900 MVA</text>
</g>
<!-- 3&#45;&#45;gen_G3 -->
<g id="edge3" class="edge">
<title>3&#45;&#45;gen_G3</title>
<path fill="none" stroke="#1976d2" stroke-width="2" d="M266.27,-558.97C265.11,-571.82 263.61,-588.49 262.24,-603.62"/>
</g>
<!-- 4 -->
<g id="node4" class="node">
<title>4</title>
<path fill="#e3f2fd" stroke="#1565c0" stroke-width="2.5" d="M175.84,-824.01C175.84,-824.01 143.29,-824.01 143.29,-824.01 137.29,-824.01 131.29,-818.01 131.29,-812.01 131.29,-812.01 131.29,-794.61 131.29,-794.61 131.29,-788.61 137.29,-782.61 143.29,-782.61 143.29,-782.61 175.84,-782.61 175.84,-782.61 181.84,-782.61 187.84,-788.61 187.84,-794.61 187.84,-794.61 187.84,-812.01 187.84,-812.01 187.84,-818.01 181.84,-824.01 175.84,-824.01"/>
<text xml:space="preserve" text-anchor="middle" x="159.56" y="-806.36" font-family="Arial" font-size="11.00">11</text>
<text xml:space="preserve" text-anchor="middle" x="159.56" y="-792.86" font-family="Arial" font-size="11.00">20 kV</text>
</g>
<!-- 10 -->
<g id="node10" class="node">
<title>10</title>
<path fill="#fff9c4" stroke="#f57f17" stroke-width="2.5" d="M132.97,-702.31C132.97,-702.31 94.42,-702.31 94.42,-702.31 88.42,-702.31 82.42,-696.31 82.42,-690.31 82.42,-690.31 82.42,-672.91 82.42,-672.91 82.42,-666.91 88.42,-660.91 94.42,-660.91 94.42,-660.91 132.97,-660.91 132.97,-660.91 138.97,-660.91 144.97,-666.91 144.97,-672.91 144.97,-672.91 144.97,-690.31 144.97,-690.31 144.97,-696.31 138.97,-702.31 132.97,-702.31"/>
<text xml:space="preserve" text-anchor="middle" x="113.7" y="-684.66" font-family="Arial" font-size="11.00">111</text>
<text xml:space="preserve" text-anchor="middle" x="113.7" y="-671.16" font-family="Arial" font-size="11.00">230 kV</text>
</g>
<!-- 4&#45;&#45;10 -->
<g id="edge29" class="edge">
<title>4&#45;&#45;10</title>
<path fill="none" stroke="#7b1fa2" stroke-width="3" stroke-dasharray="5,2" d="M151.36,-781.55C143.01,-759.4 130.15,-725.26 121.83,-703.18"/>
<text xml:space="preserve" text-anchor="middle" x="113.71" y="-754.79" font-family="Arial" font-size="9.00">X=0.0120</text>
<text xml:space="preserve" text-anchor="middle" x="113.71" y="-744.29" font-family="Arial" font-size="9.00">20→230kV</text>
</g>
<!-- gen_G4 -->
<g id="node14" class="node">
<title>gen_G4</title>
<ellipse fill="#e3f2fd" stroke="#1976d2" stroke-width="2.5" cx="213.15" cy="-979.3" rx="51.65" ry="38.82"/>
<text xml:space="preserve" text-anchor="middle" x="213.15" y="-989.1" font-family="Arial" font-size="11.00">G4</text>
<text xml:space="preserve" text-anchor="middle" x="213.15" y="-975.6" font-family="Arial" font-size="11.00">M=12.3</text>
<text xml:space="preserve" text-anchor="middle" x="213.15" y="-962.1" font-family="Arial" font-size="11.00">900 MVA</text>
</g>
<!-- 4&#45;&#45;gen_G4 -->
<g id="edge4" class="edge">
<title>4&#45;&#45;gen_G4</title>
<path fill="none" stroke="#1976d2" stroke-width="2" d="M166.24,-825.24C174.99,-853.99 190.5,-904.91 201.27,-940.3"/>
</g>
<!-- 5&#45;&#45;6 -->
<g id="edge15" class="edge">
<title>5&#45;&#45;6</title>
<path fill="none" stroke="#424242" stroke-width="2.5" d="M381.46,-600.48C395.58,-568.77 402.28,-510.6 394.98,-478.95"/>
<text xml:space="preserve" text-anchor="middle" x="376.38" y="-541.64" font-family="Arial" font-size="9.00">X=0.0500</text>
</g>
<!-- 5&#45;&#45;6 -->
<g id="edge16" class="edge">
<title>5&#45;&#45;6</title>
<path fill="none" stroke="#424242" stroke-width="2.5" d="M343.12,-600.56C335.81,-568.82 342.57,-510.46 356.75,-478.82"/>
<text xml:space="preserve" text-anchor="middle" x="322" y="-541.6" font-family="Arial" font-size="9.00">X=0.0500</text>
</g>
<!-- 7 -->
<g id="node7" class="node">
<title>7</title>
<path fill="#fff9c4" stroke="#f57f17" stroke-width="2.5" d="M481.87,-358.5C481.87,-358.5 443.32,-358.5 443.32,-358.5 437.32,-358.5 431.32,-352.5 431.32,-346.5 431.32,-346.5 431.32,-329.1 431.32,-329.1 431.32,-323.1 437.32,-317.1 443.32,-317.1 443.32,-317.1 481.87,-317.1 481.87,-317.1 487.87,-317.1 493.87,-323.1 493.87,-329.1 493.87,-329.1 493.87,-346.5 493.87,-346.5 493.87,-352.5 487.87,-358.5 481.87,-358.5"/>
<text xml:space="preserve" text-anchor="middle" x="462.59" y="-340.85" font-family="Arial" font-size="11.00">3</text>
<text xml:space="preserve" text-anchor="middle" x="462.59" y="-327.35" font-family="Arial" font-size="11.00">230 kV</text>
</g>
<!-- 6&#45;&#45;7 -->
<g id="edge17" class="edge">
<title>6&#45;&#45;7</title>
<path fill="none" stroke="#424242" stroke-width="2.5" d="M411.67,-447.96C436.42,-427.96 463.69,-386.43 468.19,-359.63"/>
<text xml:space="preserve" text-anchor="middle" x="427.65" y="-408.29" font-family="Arial" font-size="9.00">X=0.0200</text>
</g>
<!-- 6&#45;&#45;7 -->
<g id="edge18" class="edge">
<title>6&#45;&#45;7</title>
<path fill="none" stroke="#424242" stroke-width="2.5" d="M373.76,-435.25C378.29,-408.45 405.52,-366.98 430.25,-346.99"/>
<text xml:space="preserve" text-anchor="middle" x="374.56" y="-390.52" font-family="Arial" font-size="9.00">X=0.0200</text>
</g>
<!-- 8 -->
<g id="node8" class="node">
<title>8</title>
<path fill="#fff9c4" stroke="#f57f17" stroke-width="2.5" d="M359.08,-296.71C359.08,-296.71 320.53,-296.71 320.53,-296.71 314.53,-296.71 308.53,-290.71 308.53,-284.71 308.53,-284.71 308.53,-267.31 308.53,-267.31 308.53,-261.31 314.53,-255.31 320.53,-255.31 320.53,-255.31 359.08,-255.31 359.08,-255.31 365.08,-255.31 371.08,-261.31 371.08,-267.31 371.08,-267.31 371.08,-284.71 371.08,-284.71 371.08,-290.71 365.08,-296.71 359.08,-296.71"/>
<text xml:space="preserve" text-anchor="middle" x="339.81" y="-279.06" font-family="Arial" font-size="11.00">13</text>
<text xml:space="preserve" text-anchor="middle" x="339.81" y="-265.56" font-family="Arial" font-size="11.00">230 kV</text>
</g>
<!-- 7&#45;&#45;8 -->
<g id="edge19" class="edge">
<title>7&#45;&#45;8</title>
<path fill="none" stroke="#424242" stroke-width="2.5" d="M467.98,-315.86C467.88,-271.01 401.6,-234.9 361.68,-254.12"/>
<text xml:space="preserve" text-anchor="middle" x="409.89" y="-262.91" font-family="Arial" font-size="9.00">X=0.2200</text>
</g>
<!-- 7&#45;&#45;8 -->
<g id="edge20" class="edge">
<title>7&#45;&#45;8</title>
<path fill="none" stroke="#424242" stroke-width="2.5" d="M440.77,-359.67C400.82,-378.96 334.39,-342.76 334.42,-297.83"/>
<text xml:space="preserve" text-anchor="middle" x="352.73" y="-354.78" font-family="Arial" font-size="9.00">X=0.2200</text>
</g>
<!-- 7&#45;&#45;8 -->
<g id="edge21" class="edge">
<title>7&#45;&#45;8</title>
<path fill="none" stroke="#424242" stroke-width="2.5" d="M430.33,-321.57C412.43,-312.56 390.22,-301.38 372.28,-292.35"/>
<text xml:space="preserve" text-anchor="middle" x="381.44" y="-308.91" font-family="Arial" font-size="9.00">X=0.2200</text>
</g>
<!-- load_PQ_0 -->
<g id="node23" class="node">
<title>load_PQ_0</title>
<polygon fill="#ffebee" stroke="#d32f2f" stroke-width="2" points="599.88,-518.97 501.87,-402.51 697.88,-402.51 599.88,-518.97"/>
<text xml:space="preserve" text-anchor="middle" x="599.88" y="-451.13" font-family="Arial" font-size="11.00">Load</text>
<text xml:space="preserve" text-anchor="middle" x="599.88" y="-437.63" font-family="Arial" font-size="11.00">P=11.59</text>
<text xml:space="preserve" text-anchor="middle" x="599.88" y="-424.13" font-family="Arial" font-size="11.00">Q=&#45;0.73</text>
</g>
<!-- 7&#45;&#45;load_PQ_0 -->
<g id="edge13" class="edge">
<title>7&#45;&#45;load_PQ_0</title>
<path fill="none" stroke="#d32f2f" stroke-width="2" d="M491.37,-359.51C507.57,-371.72 528.3,-387.35 547.29,-401.67"/>
</g>
<!-- 8&#45;&#45;9 -->
<g id="edge22" class="edge">
<title>8&#45;&#45;9</title>
<path fill="none" stroke="#424242" stroke-width="2.5" d="M307.55,-282.56C262.43,-308.61 188.03,-383.6 170.08,-423.03"/>
<text xml:space="preserve" text-anchor="middle" x="208.75" y="-349.72" font-family="Arial" font-size="9.00">X=0.0200</text>
</g>
<!-- 8&#45;&#45;9 -->
<g id="edge23" class="edge">
<title>8&#45;&#45;9</title>
<path fill="none" stroke="#424242" stroke-width="2.5" d="M338.24,-297.95C320.1,-337.41 246.07,-412 201.03,-438.07"/>
<text xml:space="preserve" text-anchor="middle" x="259.85" y="-374.98" font-family="Arial" font-size="9.00">X=0.0200</text>
</g>
<!-- load_PQ_1 -->
<g id="node24" class="node">
<title>load_PQ_1</title>
<polygon fill="#ffebee" stroke="#d32f2f" stroke-width="2" points="319.2,-155.28 220.13,-38.82 418.26,-38.82 319.2,-155.28"/>
<text xml:space="preserve" text-anchor="middle" x="319.2" y="-87.44" font-family="Arial" font-size="11.00">Load</text>
<text xml:space="preserve" text-anchor="middle" x="319.2" y="-73.94" font-family="Arial" font-size="11.00">P=15.75</text>
<text xml:space="preserve" text-anchor="middle" x="319.2" y="-60.44" font-family="Arial" font-size="11.00">Q=&#45;0.90</text>
</g>
<!-- 8&#45;&#45;load_PQ_1 -->
<g id="edge14" class="edge">
<title>8&#45;&#45;load_PQ_1</title>
<path fill="none" stroke="#d32f2f" stroke-width="2" d="M337.56,-254.4C334.92,-229 330.41,-185.54 326.52,-148.07"/>
</g>
<!-- 9&#45;&#45;10 -->
<g id="edge24" class="edge">
<title>9&#45;&#45;10</title>
<path fill="none" stroke="#424242" stroke-width="2.5" d="M145.5,-466.53C121.41,-511.74 98.36,-614.56 103.06,-659.78"/>
<text xml:space="preserve" text-anchor="middle" x="93.61" y="-565.1" font-family="Arial" font-size="9.00">X=0.0500</text>
</g>
<!-- 9&#45;&#45;10 -->
<g id="edge25" class="edge">
<title>9&#45;&#45;10</title>
<path fill="none" stroke="#424242" stroke-width="2.5" d="M179.26,-466.34C184.05,-511.52 160.9,-614.77 136.74,-659.96"/>
<text xml:space="preserve" text-anchor="middle" x="148.98" y="-565.1" font-family="Arial" font-size="9.00">X=0.0500</text>
</g>
<!-- exc_AVR1 -->
<g id="node15" class="node">
<title>exc_AVR1</title>
<path fill="#fff3e0" stroke="#ff6f00" stroke-width="2" d="M677.26,-834.4C677.26,-834.4 630.16,-834.4 630.16,-834.4 625.36,-834.4 620.56,-829.6 620.56,-824.8 620.56,-824.8 620.56,-815.2 620.56,-815.2 620.56,-810.4 625.36,-805.6 630.16,-805.6 630.16,-805.6 677.26,-805.6 677.26,-805.6 682.06,-805.6 686.86,-810.4 686.86,-815.2 686.86,-815.2 686.86,-824.8 686.86,-824.8 686.86,-829.6 682.06,-834.4 677.26,-834.4"/>
<text xml:space="preserve" text-anchor="middle" x="653.71" y="-816.3" font-family="Arial" font-size="11.00">EXDC2</text>
</g>
<!-- gen_G1&#45;&#45;exc_AVR1 -->
<g id="edge5" class="edge">
<title>gen_G1&#45;&#45;exc_AVR1</title>
<path fill="none" stroke="#ff6f00" stroke-width="1.5" stroke-dasharray="5,2" d="M590.88,-819.38C600.64,-819.47 610.6,-819.57 619.62,-819.66"/>
</g>
<!-- gov_GOV1 -->
<g id="node19" class="node">
<title>gov_GOV1</title>
<path fill="#e8f5e9" stroke="#2e7d32" stroke-width="2" d="M557.12,-993.13C557.12,-993.13 510.77,-993.13 510.77,-993.13 505.97,-993.13 501.17,-988.33 501.17,-983.53 501.17,-983.53 501.17,-973.93 501.17,-973.93 501.17,-969.13 505.97,-964.33 510.77,-964.33 510.77,-964.33 557.12,-964.33 557.12,-964.33 561.92,-964.33 566.72,-969.13 566.72,-973.93 566.72,-973.93 566.72,-983.53 566.72,-983.53 566.72,-988.33 561.92,-993.13 557.12,-993.13"/>
<text xml:space="preserve" text-anchor="middle" x="533.95" y="-975.03" font-family="Arial" font-size="11.00">TGOV1</text>
</g>
<!-- gen_G1&#45;&#45;gov_GOV1 -->
<g id="edge9" class="edge">
<title>gen_G1&#45;&#45;gov_GOV1</title>
<path fill="none" stroke="#2e7d32" stroke-width="1.5" stroke-dasharray="5,2" d="M537.14,-858.78C536.23,-892.82 534.98,-939.89 534.35,-963.68"/>
</g>
<!-- exc_AVR2 -->
<g id="node16" class="node">
<title>exc_AVR2</title>
<path fill="#fff3e0" stroke="#ff6f00" stroke-width="2" d="M92.58,-214.25C92.58,-214.25 45.48,-214.25 45.48,-214.25 40.68,-214.25 35.88,-209.45 35.88,-204.65 35.88,-204.65 35.88,-195.05 35.88,-195.05 35.88,-190.25 40.68,-185.45 45.48,-185.45 45.48,-185.45 92.58,-185.45 92.58,-185.45 97.38,-185.45 102.18,-190.25 102.18,-195.05 102.18,-195.05 102.18,-204.65 102.18,-204.65 102.18,-209.45 97.38,-214.25 92.58,-214.25"/>
<text xml:space="preserve" text-anchor="middle" x="69.03" y="-196.15" font-family="Arial" font-size="11.00">EXDC2</text>
</g>
<!-- gen_G2&#45;&#45;exc_AVR2 -->
<g id="edge6" class="edge">
<title>gen_G2&#45;&#45;exc_AVR2</title>
<path fill="none" stroke="#ff6f00" stroke-width="1.5" stroke-dasharray="5,2" d="M193.35,-201.51C164.11,-201.12 128.59,-200.65 103.01,-200.3"/>
</g>
<!-- gov_GOV2 -->
<g id="node20" class="node">
<title>gov_GOV2</title>
<path fill="#e8f5e9" stroke="#2e7d32" stroke-width="2" d="M482.32,-177.49C482.32,-177.49 435.97,-177.49 435.97,-177.49 431.17,-177.49 426.37,-172.69 426.37,-167.89 426.37,-167.89 426.37,-158.29 426.37,-158.29 426.37,-153.49 431.17,-148.69 435.97,-148.69 435.97,-148.69 482.32,-148.69 482.32,-148.69 487.12,-148.69 491.92,-153.49 491.92,-158.29 491.92,-158.29 491.92,-167.89 491.92,-167.89 491.92,-172.69 487.12,-177.49 482.32,-177.49"/>
<text xml:space="preserve" text-anchor="middle" x="459.14" y="-159.39" font-family="Arial" font-size="11.00">TGOV1</text>
</g>
<!-- gen_G2&#45;&#45;gov_GOV2 -->
<g id="edge10" class="edge">
<title>gen_G2&#45;&#45;gov_GOV2</title>
<path fill="none" stroke="#2e7d32" stroke-width="1.5" stroke-dasharray="5,2" d="M297.29,-192.8C337.08,-185.49 391.08,-175.58 425.53,-169.26"/>
</g>
<!-- exc_AVR3 -->
<g id="node17" class="node">
<title>exc_AVR3</title>
<path fill="#fff3e0" stroke="#ff6f00" stroke-width="2" d="M56.7,-554.58C56.7,-554.58 9.6,-554.58 9.6,-554.58 4.8,-554.58 0,-549.78 0,-544.98 0,-544.98 0,-535.38 0,-535.38 0,-530.58 4.8,-525.78 9.6,-525.78 9.6,-525.78 56.7,-525.78 56.7,-525.78 61.5,-525.78 66.3,-530.58 66.3,-535.38 66.3,-535.38 66.3,-544.98 66.3,-544.98 66.3,-549.78 61.5,-554.58 56.7,-554.58"/>
<text xml:space="preserve" text-anchor="middle" x="33.15" y="-536.48" font-family="Arial" font-size="11.00">EXDC2</text>
</g>
<!-- gen_G3&#45;&#45;exc_AVR3 -->
<g id="edge7" class="edge">
<title>gen_G3&#45;&#45;exc_AVR3</title>
<path fill="none" stroke="#ff6f00" stroke-width="1.5" stroke-dasharray="5,2" d="M213.57,-622.7C170.25,-602.89 105.8,-573.41 66.79,-555.57"/>
</g>
<!-- gov_GOV3 -->
<g id="node21" class="node">
<title>gov_GOV3</title>
<path fill="#e8f5e9" stroke="#2e7d32" stroke-width="2" d="M520.13,-611.8C520.13,-611.8 473.78,-611.8 473.78,-611.8 468.98,-611.8 464.18,-607 464.18,-602.2 464.18,-602.2 464.18,-592.6 464.18,-592.6 464.18,-587.8 468.98,-583 473.78,-583 473.78,-583 520.13,-583 520.13,-583 524.93,-583 529.73,-587.8 529.73,-592.6 529.73,-592.6 529.73,-602.2 529.73,-602.2 529.73,-607 524.93,-611.8 520.13,-611.8"/>
<text xml:space="preserve" text-anchor="middle" x="496.95" y="-593.7" font-family="Arial" font-size="11.00">TGOV1</text>
</g>
<!-- gen_G3&#45;&#45;gov_GOV3 -->
<g id="edge11" class="edge">
<title>gen_G3&#45;&#45;gov_GOV3</title>
<path fill="none" stroke="#2e7d32" stroke-width="1.5" stroke-dasharray="5,2" d="M310.55,-651.15C336.13,-653.44 367.25,-653.88 394.48,-647.57 423.43,-640.87 453.63,-624.79 473.68,-612.63"/>
</g>
<!-- exc_AVR4 -->
<g id="node18" class="node">
<title>exc_AVR4</title>
<path fill="#fff3e0" stroke="#ff6f00" stroke-width="2" d="M122.11,-1048.96C122.11,-1048.96 75.01,-1048.96 75.01,-1048.96 70.21,-1048.96 65.41,-1044.16 65.41,-1039.36 65.41,-1039.36 65.41,-1029.76 65.41,-1029.76 65.41,-1024.96 70.21,-1020.16 75.01,-1020.16 75.01,-1020.16 122.11,-1020.16 122.11,-1020.16 126.91,-1020.16 131.71,-1024.96 131.71,-1029.76 131.71,-1029.76 131.71,-1039.36 131.71,-1039.36 131.71,-1044.16 126.91,-1048.96 122.11,-1048.96"/>
<text xml:space="preserve" text-anchor="middle" x="98.56" y="-1030.86" font-family="Arial" font-size="11.00">EXDC2</text>
</g>
<!-- gen_G4&#45;&#45;exc_AVR4 -->
<g id="edge8" class="edge">
<title>gen_G4&#45;&#45;exc_AVR4</title>
<path fill="none" stroke="#ff6f00" stroke-width="1.5" stroke-dasharray="5,2" d="M168.84,-1000.66C156,-1006.86 142.23,-1013.5 130.32,-1019.25"/>
</g>
<!-- gov_GOV4 -->
<g id="node22" class="node">
<title>gov_GOV4</title>
<path fill="#e8f5e9" stroke="#2e7d32" stroke-width="2" d="M340.13,-1062.05C340.13,-1062.05 293.78,-1062.05 293.78,-1062.05 288.98,-1062.05 284.18,-1057.25 284.18,-1052.45 284.18,-1052.45 284.18,-1042.85 284.18,-1042.85 284.18,-1038.05 288.98,-1033.25 293.78,-1033.25 293.78,-1033.25 340.13,-1033.25 340.13,-1033.25 344.93,-1033.25 349.73,-1038.05 349.73,-1042.85 349.73,-1042.85 349.73,-1052.45 349.73,-1052.45 349.73,-1057.25 344.93,-1062.05 340.13,-1062.05"/>
<text xml:space="preserve" text-anchor="middle" x="316.95" y="-1043.95" font-family="Arial" font-size="11.00">TGOV1</text>
</g>
<!-- gen_G4&#45;&#45;gov_GOV4 -->
<g id="edge12" class="edge">
<title>gen_G4&#45;&#45;gov_GOV4</title>
<path fill="none" stroke="#2e7d32" stroke-width="1.5" stroke-dasharray="5,2" d="M252.98,-1005.53C266.71,-1014.56 281.62,-1024.38 293.59,-1032.27"/>
</g>
</g>
</svg>
