<?xml version="1.0" encoding="UTF-8" standalone="no"?>
<!DOCTYPE svg PUBLIC "-//W3C//DTD SVG 1.1//EN"
 "http://www.w3.org/Graphics/SVG/1.1/DTD/svg11.dtd">
<!-- Generated by graphviz version 14.1.2 (20260124.0452)
 -->
<!-- Title: power_system Pages: 1 -->
<svg width="1049pt" height="851pt"
 viewBox="0.00 0.00 1049.00 851.00" xmlns="http://www.w3.org/2000/svg" xmlns:xlink="http://www.w3.org/1999/xlink">
<g id="graph0" class="graph" transform="scale(1 1) rotate(0) translate(36 815.29)">
<title>power_system</title>
<polygon fill="#fafafa" stroke="none" points="-36,36 -36,-815.29 1013.29,-815.29 1013.29,36 -36,36"/>
<!-- 1 -->
<g id="node1" class="node">
<title>1</title>
<path fill="#e3f2fd" stroke="#1565c0" stroke-width="2.5" d="M780.03,-422.65C780.03,-422.65 747.48,-422.65 747.48,-422.65 741.48,-422.65 735.48,-416.65 735.48,-410.65 735.48,-410.65 735.48,-393.25 735.48,-393.25 735.48,-387.25 741.48,-381.25 747.48,-381.25 747.48,-381.25 780.03,-381.25 780.03,-381.25 786.03,-381.25 792.03,-387.25 792.03,-393.25 792.03,-393.25 792.03,-410.65 792.03,-410.65 792.03,-416.65 786.03,-422.65 780.03,-422.65"/>
<text xml:space="preserve" text-anchor="middle" x="763.76" y="-405" font-family="Arial" font-size="11.00">1</text>
<text xml:space="preserve" text-anchor="middle" x="763.76" y="-391.5" font-family="Arial" font-size="11.00">20 kV</text>
</g>
<!-- 5 -->
<g id="node5" class="node">
<title>5</title>
<path fill="#fff9c4" stroke="#f57f17" stroke-width="2.5" d="M719.96,-372.75C719.96,-372.75 681.41,-372.75 681.41,-372.75 675.41,-372.75 669.41,-366.75 669.41,-360.75 669.41,-360.75 669.41,-343.35 669.41,-343.35 669.41,-337.35 675.41,-331.35 681.41,-331.35 681.41,-331.35 719.96,-331.35 719.96,-331.35 725.96,-331.35 731.96,-337.35 731.96,-343.35 731.96,-343.35 731.96,-360.75 731.96,-360.75 731.96,-366.75 725.96,-372.75 719.96,-372.75"/>
<text xml:space="preserve" text-anchor="middle" x="700.68" y="-355.1" font-family="Arial" font-size="11.00">101</text>
<text xml:space="preserve" text-anchor="middle" x="700.68" y="-341.6" font-family="Arial" font-size="11.00">230 kV</text>
</g>
<!-- 1&#45;&#45;5 -->
<g id="edge26" class="edge">
<title>1&#45;&#45;5</title>
<path fill="none" stroke="#7b1fa2" stroke-width="3" stroke-dasharray="5,2" d="M736.28,-380.21C733.62,-378.11 730.92,-375.98 728.27,-373.88"/>
<text xml:space="preserve" text-anchor="middle" x="709.4" y="-389.49" font-family="Arial" font-size="9.00">X=0.0120</text>
<text xml:space="preserve" text-anchor="middle" x="709.4" y="-378.99" font-family="Arial" font-size="9.00">20→230kV</text>
</g>
<!-- gen_G1 -->
<g id="node11" class="node">
<title>gen_G1</title>
<ellipse fill="#e3f2fd" stroke="#1976d2" stroke-width="2.5" cx="851.76" cy="-440.8" rx="51.65" ry="38.82"/>
<text xml:space="preserve" text-anchor="middle" x="851.76" y="-450.6" font-family="Arial" font-size="11.00">G1</text>
<text xml:space="preserve" text-anchor="middle" x="851.76" y="-437.1" font-family="Arial" font-size="11.00">M=13.0</text>
<text xml:space="preserve" text-anchor="middle" x="851.76" y="-423.6" font-family="Arial" font-size="11.00">900 MVA</text>
</g>
<!-- 1&#45;&#45;gen_G1 -->
<g id="edge1" class="edge">
<title>1&#45;&#45;gen_G1</title>
<path fill="none" stroke="#1976d2" stroke-width="2" d="M793.06,-414.89C797.26,-416.74 801.66,-418.68 806.09,-420.64"/>
</g>
<!-- 2 -->
<g id="node2" class="node">
<title>2</title>
<path fill="#e3f2fd" stroke="#1565c0" stroke-width="2.5" d="M724.41,-213.99C724.41,-213.99 691.86,-213.99 691.86,-213.99 685.86,-213.99 679.86,-207.99 679.86,-201.99 679.86,-201.99 679.86,-184.59 679.86,-184.59 679.86,-178.59 685.86,-172.59 691.86,-172.59 691.86,-172.59 724.41,-172.59 724.41,-172.59 730.41,-172.59 736.41,-178.59 736.41,-184.59 736.41,-184.59 736.41,-201.99 736.41,-201.99 736.41,-207.99 730.41,-213.99 724.41,-213.99"/>
<text xml:space="preserve" text-anchor="middle" x="708.14" y="-196.34" font-family="Arial" font-size="11.00">2</text>
<text xml:space="preserve" text-anchor="middle" x="708.14" y="-182.84" font-family="Arial" font-size="11.00">20 kV</text>
</g>
<!-- 6 -->
<g id="node6" class="node">
<title>6</title>
<path fill="#fff9c4" stroke="#f57f17" stroke-width="2.5" d="M711.27,-314.81C711.27,-314.81 672.72,-314.81 672.72,-314.81 666.72,-314.81 660.72,-308.81 660.72,-302.81 660.72,-302.81 660.72,-285.41 660.72,-285.41 660.72,-279.41 666.72,-273.41 672.72,-273.41 672.72,-273.41 711.27,-273.41 711.27,-273.41 717.27,-273.41 723.27,-279.41 723.27,-285.41 723.27,-285.41 723.27,-302.81 723.27,-302.81 723.27,-308.81 717.27,-314.81 711.27,-314.81"/>
<text xml:space="preserve" text-anchor="middle" x="691.99" y="-297.16" font-family="Arial" font-size="11.00">102</text>
<text xml:space="preserve" text-anchor="middle" x="691.99" y="-283.66" font-family="Arial" font-size="11.00">230 kV</text>
</g>
<!-- 2&#45;&#45;6 -->
<g id="edge27" class="edge">
<title>2&#45;&#45;6</title>
<path fill="none" stroke="#7b1fa2" stroke-width="3" stroke-dasharray="5,2" d="M704.63,-215.16C701.93,-232.08 698.2,-255.38 695.49,-272.28"/>
<text xml:space="preserve" text-anchor="middle" x="677.19" y="-256.17" font-family="Arial" font-size="9.00">X=0.0120</text>
<text xml:space="preserve" text-anchor="middle" x="677.19" y="-245.67" font-family="Arial" font-size="9.00">20→230kV</text>
</g>
<!-- gen_G2 -->
<g id="node12" class="node">
<title>gen_G2</title>
<ellipse fill="#e3f2fd" stroke="#1976d2" stroke-width="2.5" cx="707.94" cy="-103.63" rx="51.65" ry="38.82"/>
<text xml:space="preserve" text-anchor="middle" x="707.94" y="-113.43" font-family="Arial" font-size="11.00">G2</text>
<text xml:space="preserve" text-anchor="middle" x="707.94" y="-99.93" font-family="Arial" font-size="11.00">M=13.0</text>
<text xml:space="preserve" text-anchor="middle" x="707.94" y="-86.43" font-family="Arial" font-size="11.00">900 MVA</text>
</g>
<!-- 2&#45;&#45;gen_G2 -->
<g id="edge2" class="edge">
<title>2&#45;&#45;gen_G2</title>
<path fill="none" stroke="#1976d2" stroke-width="2" d="M708.09,-171.58C708.07,-163.08 708.05,-153.06 708.03,-143.36"/>
</g>
<!-- 3 -->
<g id="node3" class="node">
<title>3</title>
<path fill="#e3f2fd" stroke="#1565c0" stroke-width="2.5" d="M230.28,-410.79C230.28,-410.79 197.73,-410.79 197.73,-410.79 191.73,-410.79 185.73,-404.79 185.73,-398.79 185.73,-398.79 185.73,-381.39 185.73,-381.39 185.73,-375.39 191.73,-369.39 197.73,-369.39 197.73,-369.39 230.28,-369.39 230.28,-369.39 236.28,-369.39 242.28,-375.39 242.28,-381.39 242.28,-381.39 242.28,-398.79 242.28,-398.79 242.28,-404.79 236.28,-410.79 230.28,-410.79"/>
<text xml:space="preserve" text-anchor="middle" x="214.01" y="-393.14" font-family="Arial" font-size="11.00">12</text>
<text xml:space="preserve" text-anchor="middle" x="214.01" y="-379.64" font-family="Arial" font-size="11.00">20 kV</text>
</g>
<!-- 9 -->
<g id="node9" class="node">
<title>9</title>
<path fill="#fff9c4" stroke="#f57f17" stroke-width="2.5" d="M332.15,-462.78C332.15,-462.78 293.6,-462.78 293.6,-462.78 287.6,-462.78 281.6,-456.78 281.6,-450.78 281.6,-450.78 281.6,-433.38 281.6,-433.38 281.6,-427.38 287.6,-421.38 293.6,-421.38 293.6,-421.38 332.15,-421.38 332.15,-421.38 338.15,-421.38 344.15,-427.38 344.15,-433.38 344.15,-433.38 344.15,-450.78 344.15,-450.78 344.15,-456.78 338.15,-462.78 332.15,-462.78"/>
<text xml:space="preserve" text-anchor="middle" x="312.88" y="-445.13" font-family="Arial" font-size="11.00">112</text>
<text xml:space="preserve" text-anchor="middle" x="312.88" y="-431.63" font-family="Arial" font-size="11.00">230 kV</text>
</g>
<!-- 3&#45;&#45;9 -->
<g id="edge28" class="edge">
<title>3&#45;&#45;9</title>
<path fill="none" stroke="#7b1fa2" stroke-width="3" stroke-dasharray="5,2" d="M243.41,-405.55C255.13,-411.71 268.67,-418.83 280.66,-425.14"/>
<text xml:space="preserve" text-anchor="middle" x="239.06" y="-427.74" font-family="Arial" font-size="9.00">X=0.0120</text>
<text xml:space="preserve" text-anchor="middle" x="239.06" y="-417.24" font-family="Arial" font-size="9.00">20→230kV</text>
</g>
<!-- gen_G3 -->
<g id="node13" class="node">
<title>gen_G3</title>
<ellipse fill="#e3f2fd" stroke="#1976d2" stroke-width="2.5" cx="126" cy="-334.75" rx="51.65" ry="38.82"/>
<text xml:space="preserve" text-anchor="middle" x="126" y="-344.55" font-family="Arial" font-size="11.00">G3</text>
<text xml:space="preserve" text-anchor="middle" x="126" y="-331.05" font-family="Arial" font-size="11.00">M=12.3</text>
<text xml:space="preserve" text-anchor="middle" x="126" y="-317.55" font-family="Arial" font-size="11.00">900 MVA</text>
</g>
<!-- 3&#45;&#45;gen_G3 -->
<g id="edge3" class="edge">
<title>3&#45;&#45;gen_G3</title>
<path fill="none" stroke="#1976d2" stroke-width="2" d="M184.7,-371.66C178.9,-368.02 172.72,-364.13 166.62,-360.29"/>
</g>
<!-- 4 -->
<g id="node4" class="node">
<title>4</title>
<path fill="#e3f2fd" stroke="#1565c0" stroke-width="2.5" d="M318.48,-625.59C318.48,-625.59 285.93,-625.59 285.93,-625.59 279.93,-625.59 273.93,-619.59 273.93,-613.59 273.93,-613.59 273.93,-596.19 273.93,-596.19 273.93,-590.19 279.93,-584.19 285.93,-584.19 285.93,-584.19 318.48,-584.19 318.48,-584.19 324.48,-584.19 330.48,-590.19 330.48,-596.19 330.48,-596.19 330.48,-613.59 330.48,-613.59 330.48,-619.59 324.48,-625.59 318.48,-625.59"/>
<text xml:space="preserve" text-anchor="middle" x="302.21" y="-607.94" font-family="Arial" font-size="11.00">11</text>
<text xml:space="preserve" text-anchor="middle" x="302.21" y="-594.44" font-family="Arial" font-size="11.00">20 kV</text>
</g>
<!-- 10 -->
<g id="node10" class="node">
<title>10</title>
<path fill="#fff9c4" stroke="#f57f17" stroke-width="2.5" d="M334.93,-549.72C334.93,-549.72 296.38,-549.72 296.38,-549.72 290.38,-549.72 284.38,-543.72 284.38,-537.72 284.38,-537.72 284.38,-520.32 284.38,-520.32 284.38,-514.32 290.38,-508.32 296.38,-508.32 296.38,-508.32 334.93,-508.32 334.93,-508.32 340.93,-508.32 346.93,-514.32 346.93,-520.32 346.93,-520.32 346.93,-537.72 346.93,-537.72 346.93,-543.72 340.93,-549.72 334.93,-549.72"/>
<text xml:space="preserve" text-anchor="middle" x="315.66" y="-532.07" font-family="Arial" font-size="11.00">111</text>
<text xml:space="preserve" text-anchor="middle" x="315.66" y="-518.57" font-family="Arial" font-size="11.00">230 kV</text>
</g>
<!-- 4&#45;&#45;10 -->
<g id="edge29" class="edge">
<title>4&#45;&#45;10</title>
<path fill="none" stroke="#7b1fa2" stroke-width="3" stroke-dasharray="5,2" d="M306.1,-582.94C307.88,-572.88 309.99,-560.98 311.77,-550.92"/>
<text xml:space="preserve" text-anchor="middle" x="331.81" y="-579.38" font-family="Arial" font-size="9.00">X=0.0120</text>
<text xml:space="preserve" text-anchor="middle" x="331.81" y="-568.88" font-family="Arial" font-size="9.00">20→230kV</text>
</g>
<!-- gen_G4 -->
<g id="node14" class="node">
<title>gen_G4</title>
<ellipse fill="#e3f2fd" stroke="#1976d2" stroke-width="2.5" cx="277.14" cy="-679.97" rx="51.65" ry="38.82"/>
<text xml:space="preserve" text-anchor="middle" x="277.14" y="-689.77" font-family="Arial" font-size="11.00">G4</text>
<text xml:space="preserve" text-anchor="middle" x="277.14" y="-676.27" font-family="Arial" font-size="11.00">M=12.3</text>
<text xml:space="preserve" text-anchor="middle" x="277.14" y="-662.77" font-family="Arial" font-size="11.00">900 MVA</text>
</g>
<!-- 4&#45;&#45;gen_G4 -->
<g id="edge4" class="edge">
<title>4&#45;&#45;gen_G4</title>
<path fill="none" stroke="#1976d2" stroke-width="2" d="M294.96,-626.6C293.42,-631.2 291.76,-636.17 290.09,-641.18"/>
</g>
<!-- 5&#45;&#45;6 -->
<g id="edge15" class="edge">
<title>5&#45;&#45;6</title>
<path fill="none" stroke="#424242" stroke-width="2.5" d="M722.91,-330.3C723.76,-325.55 723.56,-320.54 722.39,-315.79"/>
<text xml:space="preserve" text-anchor="middle" x="743.28" y="-314.5" font-family="Arial" font-size="9.00">X=0.0500</text>
</g>
<!-- 5&#45;&#45;6 -->
<g id="edge16" class="edge">
<title>5&#45;&#45;6</title>
<path fill="none" stroke="#424242" stroke-width="2.5" d="M670.22,-330.12C669.11,-325.48 668.93,-320.59 669.75,-315.95"/>
<text xml:space="preserve" text-anchor="middle" x="649.39" y="-324.98" font-family="Arial" font-size="9.00">X=0.0500</text>
</g>
<!-- 7 -->
<g id="node7" class="node">
<title>7</title>
<path fill="#fff9c4" stroke="#f57f17" stroke-width="2.5" d="M595.86,-361.59C595.86,-361.59 557.31,-361.59 557.31,-361.59 551.31,-361.59 545.31,-355.59 545.31,-349.59 545.31,-349.59 545.31,-332.19 545.31,-332.19 545.31,-326.19 551.31,-320.19 557.31,-320.19 557.31,-320.19 595.86,-320.19 595.86,-320.19 601.86,-320.19 607.86,-326.19 607.86,-332.19 607.86,-332.19 607.86,-349.59 607.86,-349.59 607.86,-355.59 601.86,-361.59 595.86,-361.59"/>
<text xml:space="preserve" text-anchor="middle" x="576.59" y="-343.94" font-family="Arial" font-size="11.00">3</text>
<text xml:space="preserve" text-anchor="middle" x="576.59" y="-330.44" font-family="Arial" font-size="11.00">230 kV</text>
</g>
<!-- 6&#45;&#45;7 -->
<g id="edge17" class="edge">
<title>6&#45;&#45;7</title>
<path fill="none" stroke="#424242" stroke-width="2.5" d="M659.68,-283.07C633.13,-285.84 598.11,-301.63 582.98,-318.97"/>
<text xml:space="preserve" text-anchor="middle" x="636.92" y="-297.51" font-family="Arial" font-size="9.00">X=0.0200</text>
</g>
<!-- 6&#45;&#45;7 -->
<g id="edge18" class="edge">
<title>6&#45;&#45;7</title>
<path fill="none" stroke="#424242" stroke-width="2.5" d="M685.86,-315.73C670.92,-333.14 635.79,-349.06 609.11,-351.91"/>
<text xml:space="preserve" text-anchor="middle" x="632.01" y="-341.23" font-family="Arial" font-size="9.00">X=0.0200</text>
</g>
<!-- 8 -->
<g id="node8" class="node">
<title>8</title>
<path fill="#fff9c4" stroke="#f57f17" stroke-width="2.5" d="M433.31,-436C433.31,-436 394.76,-436 394.76,-436 388.76,-436 382.76,-430 382.76,-424 382.76,-424 382.76,-406.6 382.76,-406.6 382.76,-400.6 388.76,-394.6 394.76,-394.6 394.76,-394.6 433.31,-394.6 433.31,-394.6 439.31,-394.6 445.31,-400.6 445.31,-406.6 445.31,-406.6 445.31,-424 445.31,-424 445.31,-430 439.31,-436 433.31,-436"/>
<text xml:space="preserve" text-anchor="middle" x="414.04" y="-418.35" font-family="Arial" font-size="11.00">13</text>
<text xml:space="preserve" text-anchor="middle" x="414.04" y="-404.85" font-family="Arial" font-size="11.00">230 kV</text>
</g>
<!-- 7&#45;&#45;8 -->
<g id="edge19" class="edge">
<title>7&#45;&#45;8</title>
<path fill="none" stroke="#424242" stroke-width="2.5" d="M551.8,-319.03C504.66,-302.67 416.93,-346.12 410.72,-393.47"/>
<text xml:space="preserve" text-anchor="middle" x="485.79" y="-334.31" font-family="Arial" font-size="9.00">X=0.2200</text>
</g>
<!-- 7&#45;&#45;8 -->
<g id="edge20" class="edge">
<title>7&#45;&#45;8</title>
<path fill="none" stroke="#424242" stroke-width="2.5" d="M579.94,-362.49C573.98,-409.88 486.22,-453.45 438.97,-437.21"/>
<text xml:space="preserve" text-anchor="middle" x="505.06" y="-425.66" font-family="Arial" font-size="9.00">X=0.2200</text>
</g>
<!-- 7&#45;&#45;8 -->
<g id="edge21" class="edge">
<title>7&#45;&#45;8</title>
<path fill="none" stroke="#424242" stroke-width="2.5" d="M544.08,-355.77C515.73,-368.74 474.82,-387.47 446.48,-400.45"/>
<text xml:space="preserve" text-anchor="middle" x="475.4" y="-380.06" font-family="Arial" font-size="9.00">X=0.2200</text>
</g>
<!-- load_PQ_0 -->
<g id="node23" class="node">
<title>load_PQ_0</title>
<polygon fill="#ffebee" stroke="#d32f2f" stroke-width="2" points="554.58,-305.83 456.58,-189.37 652.59,-189.37 554.58,-305.83"/>
<text xml:space="preserve" text-anchor="middle" x="554.58" y="-237.99" font-family="Arial" font-size="11.00">Load</text>
<text xml:space="preserve" text-anchor="middle" x="554.58" y="-224.49" font-family="Arial" font-size="11.00">P=11.59</text>
<text xml:space="preserve" text-anchor="middle" x="554.58" y="-210.99" font-family="Arial" font-size="11.00">Q=&#45;0.73</text>
</g>
<!-- 7&#45;&#45;load_PQ_0 -->
<g id="edge13" class="edge">
<title>7&#45;&#45;load_PQ_0</title>
<path fill="none" stroke="#d32f2f" stroke-width="2" d="M572.34,-319.16C570.8,-311.23 568.95,-301.8 567.05,-292.07"/>
</g>
<!-- 8&#45;&#45;9 -->
<g id="edge22" class="edge">
<title>8&#45;&#45;9</title>
<path fill="none" stroke="#424242" stroke-width="2.5" d="M381.57,-399.04C360.32,-399.2 334.29,-407.91 321,-420.52"/>
<text xml:space="preserve" text-anchor="middle" x="328.43" y="-407.06" font-family="Arial" font-size="9.00">X=0.0200</text>
</g>
<!-- 8&#45;&#45;9 -->
<g id="edge23" class="edge">
<title>8&#45;&#45;9</title>
<path fill="none" stroke="#424242" stroke-width="2.5" d="M405.66,-437.1C392.24,-449.63 366.27,-458.24 345.1,-458.34"/>
<text xml:space="preserve" text-anchor="middle" x="398.16" y="-454.33" font-family="Arial" font-size="9.00">X=0.0200</text>
</g>
<!-- load_PQ_1 -->
<g id="node24" class="node">
<title>load_PQ_1</title>
<polygon fill="#ffebee" stroke="#d32f2f" stroke-width="2" points="349.36,-385.04 250.29,-268.58 448.42,-268.58 349.36,-385.04"/>
<text xml:space="preserve" text-anchor="middle" x="349.36" y="-317.2" font-family="Arial" font-size="11.00">Load</text>
<text xml:space="preserve" text-anchor="middle" x="349.36" y="-303.7" font-family="Arial" font-size="11.00">P=15.75</text>
<text xml:space="preserve" text-anchor="middle" x="349.36" y="-290.2" font-family="Arial" font-size="11.00">Q=&#45;0.90</text>
</g>
<!-- 8&#45;&#45;load_PQ_1 -->
<g id="edge14" class="edge">
<title>8&#45;&#45;load_PQ_1</title>
<path fill="none" stroke="#d32f2f" stroke-width="2" d="M400.95,-393.46C394.08,-382.01 385.4,-367.52 377.12,-353.71"/>
</g>
<!-- 9&#45;&#45;10 -->
<g id="edge24" class="edge">
<title>9&#45;&#45;10</title>
<path fill="none" stroke="#424242" stroke-width="2.5" d="M290.05,-463.88C286,-477.09 286.36,-493.88 290.9,-507.11"/>
<text xml:space="preserve" text-anchor="middle" x="267.38" y="-487.43" font-family="Arial" font-size="9.00">X=0.0500</text>
</g>
<!-- 9&#45;&#45;10 -->
<g id="edge25" class="edge">
<title>9&#45;&#45;10</title>
<path fill="none" stroke="#424242" stroke-width="2.5" d="M337.53,-463.7C342.16,-476.95 342.56,-493.86 338.51,-507.15"/>
<text xml:space="preserve" text-anchor="middle" x="321.4" y="-487.36" font-family="Arial" font-size="9.00">X=0.0500</text>
</g>
<!-- exc_AVR1 -->
<g id="node15" class="node">
<title>exc_AVR1</title>
<path fill="#fff3e0" stroke="#ff6f00" stroke-width="2" d="M919.77,-535.75C919.77,-535.75 872.67,-535.75 872.67,-535.75 867.87,-535.75 863.07,-530.95 863.07,-526.15 863.07,-526.15 863.07,-516.55 863.07,-516.55 863.07,-511.75 867.87,-506.95 872.67,-506.95 872.67,-506.95 919.77,-506.95 919.77,-506.95 924.57,-506.95 929.37,-511.75 929.37,-516.55 929.37,-516.55 929.37,-526.15 929.37,-526.15 929.37,-530.95 924.57,-535.75 919.77,-535.75"/>
<text xml:space="preserve" text-anchor="middle" x="896.22" y="-517.65" font-family="Arial" font-size="11.00">EXDC2</text>
</g>
<!-- gen_G1&#45;&#45;exc_AVR1 -->
<g id="edge5" class="edge">
<title>gen_G1&#45;&#45;exc_AVR1</title>
<path fill="none" stroke="#ff6f00" stroke-width="1.5" stroke-dasharray="5,2" d="M871.91,-477.31C877.51,-487.46 883.3,-497.94 887.82,-506.13"/>
</g>
<!-- gov_GOV1 -->
<g id="node19" class="node">
<title>gov_GOV1</title>
<path fill="#e8f5e9" stroke="#2e7d32" stroke-width="2" d="M967.69,-418.78C967.69,-418.78 921.34,-418.78 921.34,-418.78 916.54,-418.78 911.74,-413.98 911.74,-409.18 911.74,-409.18 911.74,-399.58 911.74,-399.58 911.74,-394.78 916.54,-389.98 921.34,-389.98 921.34,-389.98 967.69,-389.98 967.69,-389.98 972.49,-389.98 977.29,-394.78 977.29,-399.58 977.29,-399.58 977.29,-409.18 977.29,-409.18 977.29,-413.98 972.49,-418.78 967.69,-418.78"/>
<text xml:space="preserve" text-anchor="middle" x="944.52" y="-400.68" font-family="Arial" font-size="11.00">TGOV1</text>
</g>
<!-- gen_G1&#45;&#45;gov_GOV1 -->
<g id="edge9" class="edge">
<title>gen_G1&#45;&#45;gov_GOV1</title>
<path fill="none" stroke="#2e7d32" stroke-width="1.5" stroke-dasharray="5,2" d="M898.68,-422.38C902.81,-420.76 906.94,-419.14 910.93,-417.57"/>
</g>
<!-- exc_AVR2 -->
<g id="node16" class="node">
<title>exc_AVR2</title>
<path fill="#fff3e0" stroke="#ff6f00" stroke-width="2" d="M710.23,-28.8C710.23,-28.8 663.13,-28.8 663.13,-28.8 658.33,-28.8 653.53,-24 653.53,-19.2 653.53,-19.2 653.53,-9.6 653.53,-9.6 653.53,-4.8 658.33,0 663.13,0 663.13,0 710.23,0 710.23,0 715.03,0 719.83,-4.8 719.83,-9.6 719.83,-9.6 719.83,-19.2 719.83,-19.2 719.83,-24 715.03,-28.8 710.23,-28.8"/>
<text xml:space="preserve" text-anchor="middle" x="686.68" y="-10.7" font-family="Arial" font-size="11.00">EXDC2</text>
</g>
<!-- gen_G2&#45;&#45;exc_AVR2 -->
<g id="edge6" class="edge">
<title>gen_G2&#45;&#45;exc_AVR2</title>
<path fill="none" stroke="#ff6f00" stroke-width="1.5" stroke-dasharray="5,2" d="M698.55,-64.23C695.62,-51.91 692.55,-39.04 690.27,-29.47"/>
</g>
<!-- gov_GOV2 -->
<g id="node20" class="node">
<title>gov_GOV2</title>
<path fill="#e8f5e9" stroke="#2e7d32" stroke-width="2" d="M823.71,-60.85C823.71,-60.85 777.36,-60.85 777.36,-60.85 772.56,-60.85 767.76,-56.05 767.76,-51.25 767.76,-51.25 767.76,-41.65 767.76,-41.65 767.76,-36.85 772.56,-32.05 777.36,-32.05 777.36,-32.05 823.71,-32.05 823.71,-32.05 828.51,-32.05 833.31,-36.85 833.31,-41.65 833.31,-41.65 833.31,-51.25 833.31,-51.25 833.31,-56.05 828.51,-60.85 823.71,-60.85"/>
<text xml:space="preserve" text-anchor="middle" x="800.54" y="-42.75" font-family="Arial" font-size="11.00">TGOV1</text>
</g>
<!-- gen_G2&#45;&#45;gov_GOV2 -->
<g id="edge10" class="edge">
<title>gen_G2&#45;&#45;gov_GOV2</title>
<path fill="none" stroke="#2e7d32" stroke-width="1.5" stroke-dasharray="5,2" d="M748.83,-78.38C758.03,-72.7 767.53,-66.83 775.83,-61.71"/>
</g>
<!-- exc_AVR3 -->
<g id="node17" class="node">
<title>exc_AVR3</title>
<path fill="#fff3e0" stroke="#ff6f00" stroke-width="2" d="M56.7,-375.78C56.7,-375.78 9.6,-375.78 9.6,-375.78 4.8,-375.78 0,-370.98 0,-366.18 0,-366.18 0,-356.58 0,-356.58 0,-351.78 4.8,-346.98 9.6,-346.98 9.6,-346.98 56.7,-346.98 56.7,-346.98 61.5,-346.98 66.3,-351.78 66.3,-356.58 66.3,-356.58 66.3,-366.18 66.3,-366.18 66.3,-370.98 61.5,-375.78 56.7,-375.78"/>
<text xml:space="preserve" text-anchor="middle" x="33.15" y="-357.68" font-family="Arial" font-size="11.00">EXDC2</text>
</g>
<!-- gen_G3&#45;&#45;exc_AVR3 -->
<g id="edge7" class="edge">
<title>gen_G3&#45;&#45;exc_AVR3</title>
<path fill="none" stroke="#ff6f00" stroke-width="1.5" stroke-dasharray="5,2" d="M76.58,-348.92C73.38,-349.84 70.19,-350.76 67.09,-351.65"/>
</g>
<!-- gov_GOV3 -->
<g id="node21" class="node">
<title>gov_GOV3</title>
<path fill="#e8f5e9" stroke="#2e7d32" stroke-width="2" d="M104.17,-269.25C104.17,-269.25 57.82,-269.25 57.82,-269.25 53.02,-269.25 48.22,-264.45 48.22,-259.65 48.22,-259.65 48.22,-250.05 48.22,-250.05 48.22,-245.25 53.02,-240.45 57.82,-240.45 57.82,-240.45 104.17,-240.45 104.17,-240.45 108.97,-240.45 113.77,-245.25 113.77,-250.05 113.77,-250.05 113.77,-259.65 113.77,-259.65 113.77,-264.45 108.97,-269.25 104.17,-269.25"/>
<text xml:space="preserve" text-anchor="middle" x="81" y="-251.15" font-family="Arial" font-size="11.00">TGOV1</text>
</g>
<!-- gen_G3&#45;&#45;gov_GOV3 -->
<g id="edge11" class="edge">
<title>gen_G3&#45;&#45;gov_GOV3</title>
<path fill="none" stroke="#2e7d32" stroke-width="1.5" stroke-dasharray="5,2" d="M105.34,-298.07C99.8,-288.23 94.1,-278.11 89.62,-270.15"/>
</g>
<!-- exc_AVR4 -->
<g id="node18" class="node">
<title>exc_AVR4</title>
<path fill="#fff3e0" stroke="#ff6f00" stroke-width="2" d="M207.8,-737.36C207.8,-737.36 160.7,-737.36 160.7,-737.36 155.9,-737.36 151.1,-732.56 151.1,-727.76 151.1,-727.76 151.1,-718.16 151.1,-718.16 151.1,-713.36 155.9,-708.56 160.7,-708.56 160.7,-708.56 207.8,-708.56 207.8,-708.56 212.6,-708.56 217.4,-713.36 217.4,-718.16 217.4,-718.16 217.4,-727.76 217.4,-727.76 217.4,-732.56 212.6,-737.36 207.8,-737.36"/>
<text xml:space="preserve" text-anchor="middle" x="184.25" y="-719.26" font-family="Arial" font-size="11.00">EXDC2</text>
</g>
<!-- gen_G4&#45;&#45;exc_AVR4 -->
<g id="edge8" class="edge">
<title>gen_G4&#45;&#45;exc_AVR4</title>
<path fill="none" stroke="#ff6f00" stroke-width="1.5" stroke-dasharray="5,2" d="M232.06,-700.83C227.16,-703.1 222.24,-705.38 217.51,-707.56"/>
</g>
<!-- gov_GOV4 -->
<g id="node22" class="node">
<title>gov_GOV4</title>
<path fill="#e8f5e9" stroke="#2e7d32" stroke-width="2" d="M329.58,-779.29C329.58,-779.29 283.23,-779.29 283.23,-779.29 278.43,-779.29 273.63,-774.49 273.63,-769.69 273.63,-769.69 273.63,-760.09 273.63,-760.09 273.63,-755.29 278.43,-750.49 283.23,-750.49 283.23,-750.49 329.58,-750.49 329.58,-750.49 334.38,-750.49 339.18,-755.29 339.18,-760.09 339.18,-760.09 339.18,-769.69 339.18,-769.69 339.18,-774.49 334.38,-779.29 329.58,-779.29"/>
<text xml:space="preserve" text-anchor="middle" x="306.4" y="-761.19" font-family="Arial" font-size="11.00">TGOV1</text>
</g>
<!-- gen_G4&#45;&#45;gov_GOV4 -->
<g id="edge12" class="edge">
<title>gen_G4&#45;&#45;gov_GOV4</title>
<path fill="none" stroke="#2e7d32" stroke-width="1.5" stroke-dasharray="5,2" d="M290.4,-718.45C294.21,-729.51 298.15,-740.93 301.16,-749.68"/>
</g>
</g>
</svg>
