<svg width="1600" height="1000" xmlns="http://www.w3.org/2000/svg">
<defs>
<marker id="arrowhead" markerWidth="10" markerHeight="7" refX="9" refY="3.5" orient="auto">
<polygon points="0 0, 10 3.5, 0 7" fill="#666"/>
</marker>
</defs>
<rect width="100%" height="100%" fill="#fafafa"/>
<text x="50" y="35" font-family="Arial" font-size="20" font-weight="bold" fill="#1a237e">Auto-Layout Power System Visualization (force_directed)</text>
<text x="50" y="55" font-family="Arial" font-size="12" fill="#666">Positions computed from electrical distances (impedance-based)</text>
<rect x="50" y="930" width="1500" height="55" fill="#f5f5f5" stroke="#bdbdbd" rx="5"/>
<text x="70" y="950" font-family="Arial" font-size="12" font-weight="bold">Legend:</text>
<circle cx="170" cy="955" r="12" fill="#e3f2fd" stroke="#1976d2" stroke-width="2"/>
<text x="165" y="960" font-family="Arial" font-size="10" font-weight="bold" fill="#1976d2">G</text>
<text x="190" y="960" font-family="Arial" font-size="11">Generator</text>
<rect x="270" y="945" width="20" height="20" fill="#fff3e0" stroke="#ff6f00" stroke-width="2" rx="3"/>
<text x="300" y="960" font-family="Arial" font-size="11">Exciter</text>
<rect x="380" y="945" width="20" height="20" fill="#e8f5e9" stroke="#2e7d32" stroke-width="2" rx="3"/>
<text x="410" y="960" font-family="Arial" font-size="11">Governor</text>
<circle cx="510" cy="950" r="8" fill="#f3e5f5" stroke="#7b1fa2" stroke-width="2"/>
<circle cx="520" cy="960" r="8" fill="#f3e5f5" stroke="#7b1fa2" stroke-width="2"/>
<text x="540" y="960" font-family="Arial" font-size="11">Transformer</text>
<line x1="640" y1="955" x2="690" y2="955" stroke="#424242" stroke-width="3"/>
<text x="700" y="960" font-family="Arial" font-size="11">Transmission Line</text>
<rect x="830" y="942" width="8" height="26" fill="#212121" rx="2"/>
<text x="850" y="960" font-family="Arial" font-size="11">Bus</text>
<polygon points="920,965 935,945 950,965" fill="#ffebee" stroke="#d32f2f" stroke-width="2"/>
<text x="960" y="960" font-family="Arial" font-size="11">Load</text>
<line x1="1368.5" y1="799.8" x2="1304.5" y2="715.8" stroke="#424242" stroke-width="2"/>
<text x="1336.5" y="742.8" font-family="Arial" font-size="9" fill="#616161" text-anchor="middle" transform="rotate(52.7 1336.5 742.8)">X=0.059</text>
<line x1="1368.5" y1="799.8" x2="1039.6" y2="669.7" stroke="#424242" stroke-width="2"/>
<text x="1204.1" y="719.8" font-family="Arial" font-size="9" fill="#616161" text-anchor="middle" transform="rotate(21.6 1204.1 719.8)">X=0.223</text>
<line x1="1304.5" y1="715.8" x2="1172.0" y2="781.8" stroke="#424242" stroke-width="2"/>
<text x="1238.2" y="733.8" font-family="Arial" font-size="9" fill="#616161" text-anchor="middle" transform="rotate(-26.5 1238.2 733.8)">X=0.198</text>
<line x1="1304.5" y1="715.8" x2="1152.7" y2="581.1" stroke="#424242" stroke-width="2"/>
<text x="1228.6" y="633.5" font-family="Arial" font-size="9" fill="#616161" text-anchor="middle" transform="rotate(41.6 1228.6 633.5)">X=0.176</text>
<line x1="1304.5" y1="715.8" x2="1039.6" y2="669.7" stroke="#424242" stroke-width="2"/>
<text x="1172.0" y="677.8" font-family="Arial" font-size="9" fill="#616161" text-anchor="middle" transform="rotate(9.9 1172.0 677.8)">X=0.174</text>
<line x1="1172.0" y1="781.8" x2="1152.7" y2="581.1" stroke="#424242" stroke-width="2"/>
<text x="1162.3" y="666.4" font-family="Arial" font-size="9" fill="#616161" text-anchor="middle" transform="rotate(84.5 1162.3 666.4)">X=0.171</text>
<line x1="1152.7" y1="581.1" x2="1039.6" y2="669.7" stroke="#424242" stroke-width="2"/>
<text x="1096.2" y="610.4" font-family="Arial" font-size="9" fill="#616161" text-anchor="middle" transform="rotate(-38.1 1096.2 610.4)">X=0.042</text>
<line x1="509.4" y1="609.0" x2="529.2" y2="416.8" stroke="#424242" stroke-width="2"/>
<text x="519.3" y="497.9" font-family="Arial" font-size="9" fill="#616161" text-anchor="middle" transform="rotate(-84.1 519.3 497.9)">X=0.199</text>
<line x1="509.4" y1="609.0" x2="150.0" y2="679.9" stroke="#424242" stroke-width="2"/>
<text x="329.7" y="629.4" font-family="Arial" font-size="9" fill="#616161" text-anchor="middle" transform="rotate(-11.2 329.7 629.4)">X=0.256</text>
<line x1="509.4" y1="609.0" x2="253.2" y2="531.0" stroke="#424242" stroke-width="2"/>
<text x="381.3" y="555.0" font-family="Arial" font-size="9" fill="#616161" text-anchor="middle" transform="rotate(16.9 381.3 555.0)">X=0.130</text>
<line x1="1200.2" y1="334.3" x2="905.2" y2="306.4" stroke="#424242" stroke-width="2"/>
<text x="1052.7" y="335.4" font-family="Arial" font-size="9" fill="#616161" text-anchor="middle" transform="rotate(5.4 1052.7 335.4)">X=0.110</text>
<line x1="905.2" y1="306.4" x2="711.3" y2="257.0" stroke="#424242" stroke-width="2"/>
<text x="808.2" y="266.7" font-family="Arial" font-size="9" fill="#616161" text-anchor="middle" transform="rotate(14.3 808.2 266.7)">X=0.085</text>
<line x1="905.2" y1="306.4" x2="434.8" y2="291.1" stroke="#424242" stroke-width="2"/>
<text x="670.0" y="283.8" font-family="Arial" font-size="9" fill="#616161" text-anchor="middle" transform="rotate(1.9 670.0 283.8)">X=0.270</text>
<line x1="711.3" y1="257.0" x2="529.2" y2="416.8" stroke="#424242" stroke-width="2"/>
<text x="620.2" y="321.9" font-family="Arial" font-size="9" fill="#616161" text-anchor="middle" transform="rotate(-41.3 620.2 321.9)">X=0.192</text>
<line x1="150.0" y1="679.9" x2="253.2" y2="531.0" stroke="#424242" stroke-width="2"/>
<text x="201.6" y="590.4" font-family="Arial" font-size="9" fill="#616161" text-anchor="middle" transform="rotate(-55.3 201.6 590.4)">X=0.200</text>
<line x1="253.2" y1="531.0" x2="434.8" y2="291.1" stroke="#424242" stroke-width="2"/>
<text x="344.0" y="396.1" font-family="Arial" font-size="9" fill="#616161" text-anchor="middle" transform="rotate(-52.9 344.0 396.1)">X=0.348</text>
<line x1="1152.7" y1="581.1" x2="1173.6" y2="472.4" stroke="#7b1fa2" stroke-width="3"/>
<line x1="1179.3" y1="443.0" x2="1200.2" y2="334.3" stroke="#7b1fa2" stroke-width="3"/>
<circle cx="1174.9" cy="465.6" r="10" fill="#f3e5f5" stroke="#7b1fa2" stroke-width="2"/>
<circle cx="1177.9" cy="449.8" r="10" fill="#f3e5f5" stroke="#7b1fa2" stroke-width="2"/>
<text x="1176.4" y="482.7" font-family="Arial" font-size="8" fill="#7b1fa2" text-anchor="middle">X=0.20912</text>
<line x1="1152.7" y1="581.1" x2="1039.0" y2="454.9" stroke="#7b1fa2" stroke-width="3"/>
<line x1="1018.9" y1="432.6" x2="905.2" y2="306.4" stroke="#7b1fa2" stroke-width="3"/>
<circle cx="1034.3" cy="449.7" r="10" fill="#f3e5f5" stroke="#7b1fa2" stroke-width="2"/>
<circle cx="1023.6" cy="437.8" r="10" fill="#f3e5f5" stroke="#7b1fa2" stroke-width="2"/>
<text x="1028.9" y="468.8" font-family="Arial" font-size="8" fill="#7b1fa2" text-anchor="middle">X=0.55618</text>
<line x1="509.4" y1="609.0" x2="759.6" y2="637.7" stroke="#7b1fa2" stroke-width="3"/>
<line x1="789.4" y1="641.1" x2="1039.6" y2="669.7" stroke="#7b1fa2" stroke-width="3"/>
<circle cx="766.6" cy="638.5" r="10" fill="#f3e5f5" stroke="#7b1fa2" stroke-width="2"/>
<circle cx="782.5" cy="640.3" r="10" fill="#f3e5f5" stroke="#7b1fa2" stroke-width="2"/>
<text x="774.5" y="664.4" font-family="Arial" font-size="8" fill="#7b1fa2" text-anchor="middle">X=0.25202</text>
<line x1="1449.7" y1="200.0" x2="1338.1" y2="260.0" stroke="#7b1fa2" stroke-width="3"/>
<line x1="1311.7" y1="274.2" x2="1200.2" y2="334.3" stroke="#7b1fa2" stroke-width="3"/>
<circle cx="1332.0" cy="263.3" r="10" fill="#f3e5f5" stroke="#7b1fa2" stroke-width="2"/>
<circle cx="1317.9" cy="270.9" r="10" fill="#f3e5f5" stroke="#7b1fa2" stroke-width="2"/>
<text x="1324.9" y="292.1" font-family="Arial" font-size="8" fill="#7b1fa2" text-anchor="middle">X=0.17615</text>
<line x1="1368.5" y1="799.8" x2="1503.5" y2="799.8" stroke="#1976d2" stroke-width="2.0"/>
<circle cx="1503.5" cy="799.8" r="20.0" fill="#e3f2fd" stroke="#1976d2" stroke-width="3.0"/>
<text x="1503.5" y="804.8" font-family="Arial" font-size="12" font-weight="bold" fill="#1976d2" text-anchor="middle">GGENROU_1</text>
<text x="1563.5" y="791.8" font-family="Arial" font-size="8" fill="#1565c0" text-anchor="middle">M=8.0</text>
<text x="1563.5" y="802.8" font-family="Arial" font-size="8" fill="#1565c0" text-anchor="middle">100MVA</text>
<line x1="1304.5" y1="715.8" x2="1439.5" y2="715.8" stroke="#1976d2" stroke-width="2.0"/>
<circle cx="1439.5" cy="715.8" r="20.0" fill="#e3f2fd" stroke="#1976d2" stroke-width="3.0"/>
<text x="1439.5" y="720.8" font-family="Arial" font-size="12" font-weight="bold" fill="#1976d2" text-anchor="middle">GGENROU_2</text>
<text x="1499.5" y="707.8" font-family="Arial" font-size="8" fill="#1565c0" text-anchor="middle">M=13.0</text>
<text x="1499.5" y="718.8" font-family="Arial" font-size="8" fill="#1565c0" text-anchor="middle">100MVA</text>
<line x1="1172.0" y1="781.8" x2="1307.0" y2="781.8" stroke="#1976d2" stroke-width="2.0"/>
<circle cx="1307.0" cy="781.8" r="20.0" fill="#e3f2fd" stroke="#1976d2" stroke-width="3.0"/>
<text x="1307.0" y="786.8" font-family="Arial" font-size="12" font-weight="bold" fill="#1976d2" text-anchor="middle">GGENROU_3</text>
<text x="1367.0" y="773.8" font-family="Arial" font-size="8" fill="#1565c0" text-anchor="middle">M=10.0</text>
<text x="1367.0" y="784.8" font-family="Arial" font-size="8" fill="#1565c0" text-anchor="middle">100MVA</text>
<line x1="509.4" y1="609.0" x2="374.4" y2="609.0" stroke="#1976d2" stroke-width="2.0"/>
<circle cx="374.4" cy="609.0" r="20.0" fill="#e3f2fd" stroke="#1976d2" stroke-width="3.0"/>
<text x="374.4" y="614.0" font-family="Arial" font-size="12" font-weight="bold" fill="#1976d2" text-anchor="middle">GGENROU_4</text>
<text x="314.4" y="601.0" font-family="Arial" font-size="8" fill="#1565c0" text-anchor="middle">M=10.0</text>
<text x="314.4" y="612.0" font-family="Arial" font-size="8" fill="#1565c0" text-anchor="middle">100MVA</text>
<line x1="1449.7" y1="200.0" x2="1584.7" y2="200.0" stroke="#1976d2" stroke-width="2.0"/>
<circle cx="1584.7" cy="200.0" r="20.0" fill="#e3f2fd" stroke="#1976d2" stroke-width="3.0"/>
<text x="1584.7" y="205.0" font-family="Arial" font-size="12" font-weight="bold" fill="#1976d2" text-anchor="middle">GGENROU_5</text>
<text x="1644.7" y="192.0" font-family="Arial" font-size="8" fill="#1565c0" text-anchor="middle">M=10.0</text>
<text x="1644.7" y="203.0" font-family="Arial" font-size="8" fill="#1565c0" text-anchor="middle">100MVA</text>
<line x1="1439.5" y1="695.8" x2="1480.7" y2="654.4" stroke="#ff6f00" stroke-width="1.5" stroke-dasharray="3,2"/>
<rect x="1462.7" y="634.4" width="36.0" height="20.0" fill="#fff3e0" stroke="#ff6f00" stroke-width="2.0" rx="3"/>
<text x="1480.7" y="648.4" font-family="Arial" font-size="7" font-weight="bold" fill="#e65100" text-anchor="middle">EXST1</text>
<line x1="1503.5" y1="779.8" x2="1544.7" y2="693.4" stroke="#ff6f00" stroke-width="1.5" stroke-dasharray="3,2"/>
<rect x="1526.7" y="673.4" width="36.0" height="20.0" fill="#fff3e0" stroke="#ff6f00" stroke-width="2.0" rx="3"/>
<text x="1544.7" y="687.4" font-family="Arial" font-size="7" font-weight="bold" fill="#e65100" text-anchor="middle">ESST3A</text>
<line x1="1307.0" y1="761.8" x2="1348.2" y2="720.3" stroke="#ff6f00" stroke-width="1.5" stroke-dasharray="3,2"/>
<rect x="1330.2" y="700.3" width="36.0" height="20.0" fill="#fff3e0" stroke="#ff6f00" stroke-width="2.0" rx="3"/>
<text x="1348.2" y="714.3" font-family="Arial" font-size="7" font-weight="bold" fill="#e65100" text-anchor="middle">ESST3A</text>
<line x1="374.4" y1="589.0" x2="333.2" y2="690.4" stroke="#ff6f00" stroke-width="1.5" stroke-dasharray="3,2"/>
<rect x="315.2" y="670.4" width="36.0" height="20.0" fill="#fff3e0" stroke="#ff6f00" stroke-width="2.0" rx="3"/>
<text x="333.2" y="684.4" font-family="Arial" font-size="7" font-weight="bold" fill="#e65100" text-anchor="middle">ESST3A</text>
<line x1="1584.7" y1="180.0" x2="1625.9" y2="138.6" stroke="#ff6f00" stroke-width="1.5" stroke-dasharray="3,2"/>
<rect x="1607.9" y="118.6" width="36.0" height="20.0" fill="#fff3e0" stroke="#ff6f00" stroke-width="2.0" rx="3"/>
<text x="1625.9" y="132.6" font-family="Arial" font-size="7" font-weight="bold" fill="#e65100" text-anchor="middle">ESST3A</text>
<line x1="1503.5" y1="819.8" x2="1544.7" y2="861.2" stroke="#2e7d32" stroke-width="1.5" stroke-dasharray="3,2"/>
<rect x="1526.7" y="861.2" width="36.0" height="20.0" fill="#e8f5e9" stroke="#2e7d32" stroke-width="2.0" rx="3"/>
<text x="1544.7" y="875.2" font-family="Arial" font-size="7" font-weight="bold" fill="#1b5e20" text-anchor="middle">TGOV1</text>
<line x1="374.4" y1="629.0" x2="333.2" y2="527.5" stroke="#2e7d32" stroke-width="1.5" stroke-dasharray="3,2"/>
<rect x="315.2" y="527.5" width="36.0" height="20.0" fill="#e8f5e9" stroke="#2e7d32" stroke-width="2.0" rx="3"/>
<text x="333.2" y="541.5" font-family="Arial" font-size="7" font-weight="bold" fill="#1b5e20" text-anchor="middle">TGOV1</text>
<line x1="1584.7" y1="220.0" x2="1625.9" y2="261.4" stroke="#2e7d32" stroke-width="1.5" stroke-dasharray="3,2"/>
<rect x="1607.9" y="261.4" width="36.0" height="20.0" fill="#e8f5e9" stroke="#2e7d32" stroke-width="2.0" rx="3"/>
<text x="1625.9" y="275.4" font-family="Arial" font-size="7" font-weight="bold" fill="#1b5e20" text-anchor="middle">TGOV1</text>
<line x1="1439.5" y1="735.8" x2="1420.7" y2="822.3" stroke="#2e7d32" stroke-width="1.5" stroke-dasharray="3,2"/>
<rect x="1402.7" y="822.3" width="36.0" height="20.0" fill="#e8f5e9" stroke="#2e7d32" stroke-width="2.0" rx="3"/>
<text x="1420.7" y="836.3" font-family="Arial" font-size="7" font-weight="bold" fill="#1b5e20" text-anchor="middle">IEEEG1</text>
<line x1="1307.0" y1="801.8" x2="1348.2" y2="843.2" stroke="#2e7d32" stroke-width="1.5" stroke-dasharray="3,2"/>
<rect x="1330.2" y="843.2" width="36.0" height="20.0" fill="#e8f5e9" stroke="#2e7d32" stroke-width="2.0" rx="3"/>
<text x="1348.2" y="857.2" font-family="Arial" font-size="7" font-weight="bold" fill="#1b5e20" text-anchor="middle">IEEEG1</text>
<line x1="1304.5" y1="715.8" x2="1304.5" y2="853.8" stroke="#d32f2f" stroke-width="2.0"/>
<polygon points="1304.5,877.8 1292.5,857.8 1316.5,857.8" fill="#ffebee" stroke="#d32f2f" stroke-width="2.0"/>
<text x="1304.5" y="890.8" font-family="Arial" font-size="8" fill="#c62828" text-anchor="middle">P=0.217</text>
<line x1="1172.0" y1="781.8" x2="1172.0" y2="919.8" stroke="#d32f2f" stroke-width="2.0"/>
<polygon points="1172.0,943.8 1160.0,923.8 1184.0,923.8" fill="#ffebee" stroke="#d32f2f" stroke-width="2.0"/>
<text x="1172.0" y="956.8" font-family="Arial" font-size="8" fill="#c62828" text-anchor="middle">P=0.5</text>
<line x1="1152.7" y1="581.1" x2="1152.7" y2="659.1" stroke="#d32f2f" stroke-width="2.0"/>
<polygon points="1152.7,683.1 1140.7,663.1 1164.7,663.1" fill="#ffebee" stroke="#d32f2f" stroke-width="2.0"/>
<text x="1152.7" y="696.1" font-family="Arial" font-size="8" fill="#c62828" text-anchor="middle">P=0.478</text>
<line x1="1039.6" y1="669.7" x2="1039.6" y2="747.7" stroke="#d32f2f" stroke-width="2.0"/>
<polygon points="1039.6,771.7 1027.6,751.7 1051.6,751.7" fill="#ffebee" stroke="#d32f2f" stroke-width="2.0"/>
<text x="1039.6" y="784.7" font-family="Arial" font-size="8" fill="#c62828" text-anchor="middle">P=0.076</text>
<line x1="509.4" y1="609.0" x2="509.4" y2="747.0" stroke="#d32f2f" stroke-width="2.0"/>
<polygon points="509.4,771.0 497.4,751.0 521.4,751.0" fill="#ffebee" stroke="#d32f2f" stroke-width="2.0"/>
<text x="509.4" y="784.0" font-family="Arial" font-size="8" fill="#c62828" text-anchor="middle">P=0.15</text>
<line x1="905.2" y1="306.4" x2="905.2" y2="384.4" stroke="#d32f2f" stroke-width="2.0"/>
<polygon points="905.2,408.4 893.2,388.4 917.2,388.4" fill="#ffebee" stroke="#d32f2f" stroke-width="2.0"/>
<text x="905.2" y="421.4" font-family="Arial" font-size="8" fill="#c62828" text-anchor="middle">P=0.295</text>
<line x1="711.3" y1="257.0" x2="711.3" y2="335.0" stroke="#d32f2f" stroke-width="2.0"/>
<polygon points="711.3,359.0 699.3,339.0 723.3,339.0" fill="#ffebee" stroke="#d32f2f" stroke-width="2.0"/>
<text x="711.3" y="372.0" font-family="Arial" font-size="8" fill="#c62828" text-anchor="middle">P=0.09</text>
<line x1="529.2" y1="416.8" x2="529.2" y2="494.8" stroke="#d32f2f" stroke-width="2.0"/>
<polygon points="529.2,518.8 517.2,498.8 541.2,498.8" fill="#ffebee" stroke="#d32f2f" stroke-width="2.0"/>
<text x="529.2" y="531.8" font-family="Arial" font-size="8" fill="#c62828" text-anchor="middle">P=0.035</text>
<line x1="150.0" y1="679.9" x2="150.0" y2="757.9" stroke="#d32f2f" stroke-width="2.0"/>
<polygon points="150.0,781.9 138.0,761.9 162.0,761.9" fill="#ffebee" stroke="#d32f2f" stroke-width="2.0"/>
<text x="150.0" y="794.9" font-family="Arial" font-size="8" fill="#c62828" text-anchor="middle">P=0.061</text>
<line x1="253.2" y1="531.0" x2="253.2" y2="609.0" stroke="#d32f2f" stroke-width="2.0"/>
<polygon points="253.2,633.0 241.2,613.0 265.2,613.0" fill="#ffebee" stroke="#d32f2f" stroke-width="2.0"/>
<text x="253.2" y="646.0" font-family="Arial" font-size="8" fill="#c62828" text-anchor="middle">P=0.135</text>
<line x1="434.8" y1="291.1" x2="434.8" y2="369.1" stroke="#d32f2f" stroke-width="2.0"/>
<polygon points="434.8,393.1 422.8,373.1 446.8,373.1" fill="#ffebee" stroke="#d32f2f" stroke-width="2.0"/>
<text x="434.8" y="406.1" font-family="Arial" font-size="8" fill="#c62828" text-anchor="middle">P=0.2</text>
<rect x="1364.5" y="774.8" width="8.0" height="50.0" fill="#1565c0" rx="2"/>
<text x="1368.5" y="767.8" font-family="Arial" font-size="11" font-weight="bold" text-anchor="middle">BUS1</text>
<text x="1368.5" y="839.8" font-family="Arial" font-size="9" fill="#757575" text-anchor="middle">69kV</text>
<rect x="1300.5" y="690.8" width="8.0" height="50.0" fill="#1565c0" rx="2"/>
<text x="1304.5" y="683.8" font-family="Arial" font-size="11" font-weight="bold" text-anchor="middle">BUS2</text>
<text x="1304.5" y="755.8" font-family="Arial" font-size="9" fill="#757575" text-anchor="middle">69kV</text>
<rect x="1168.0" y="756.8" width="8.0" height="50.0" fill="#1565c0" rx="2"/>
<text x="1172.0" y="749.8" font-family="Arial" font-size="11" font-weight="bold" text-anchor="middle">BUS3</text>
<text x="1172.0" y="821.8" font-family="Arial" font-size="9" fill="#757575" text-anchor="middle">69kV</text>
<rect x="1148.7" y="556.1" width="8.0" height="50.0" fill="#1565c0" rx="2"/>
<text x="1152.7" y="549.1" font-family="Arial" font-size="11" font-weight="bold" text-anchor="middle">BUS4</text>
<text x="1152.7" y="621.1" font-family="Arial" font-size="9" fill="#757575" text-anchor="middle">69kV</text>
<rect x="1035.6" y="644.7" width="8.0" height="50.0" fill="#1565c0" rx="2"/>
<text x="1039.6" y="637.7" font-family="Arial" font-size="11" font-weight="bold" text-anchor="middle">BUS5</text>
<text x="1039.6" y="709.7" font-family="Arial" font-size="9" fill="#757575" text-anchor="middle">69kV</text>
<rect x="505.4" y="584.0" width="8.0" height="50.0" fill="#212121" rx="2"/>
<text x="509.4" y="577.0" font-family="Arial" font-size="11" font-weight="bold" text-anchor="middle">BUS6</text>
<text x="509.4" y="649.0" font-family="Arial" font-size="9" fill="#757575" text-anchor="middle">138kV</text>
<rect x="1196.2" y="309.3" width="8.0" height="50.0" fill="#212121" rx="2"/>
<text x="1200.2" y="302.3" font-family="Arial" font-size="11" font-weight="bold" text-anchor="middle">BUS7</text>
<text x="1200.2" y="374.3" font-family="Arial" font-size="9" fill="#757575" text-anchor="middle">138kV</text>
<rect x="1445.7" y="175.0" width="8.0" height="50.0" fill="#1565c0" rx="2"/>
<text x="1449.7" y="168.0" font-family="Arial" font-size="11" font-weight="bold" text-anchor="middle">BUS8</text>
<text x="1449.7" y="240.0" font-family="Arial" font-size="9" fill="#757575" text-anchor="middle">69kV</text>
<rect x="901.2" y="281.4" width="8.0" height="50.0" fill="#212121" rx="2"/>
<text x="905.2" y="274.4" font-family="Arial" font-size="11" font-weight="bold" text-anchor="middle">BUS9</text>
<text x="905.2" y="346.4" font-family="Arial" font-size="9" fill="#757575" text-anchor="middle">138kV</text>
<rect x="707.3" y="232.0" width="8.0" height="50.0" fill="#212121" rx="2"/>
<text x="711.3" y="225.0" font-family="Arial" font-size="11" font-weight="bold" text-anchor="middle">BUS10</text>
<text x="711.3" y="297.0" font-family="Arial" font-size="9" fill="#757575" text-anchor="middle">138kV</text>
<rect x="525.2" y="391.8" width="8.0" height="50.0" fill="#212121" rx="2"/>
<text x="529.2" y="384.8" font-family="Arial" font-size="11" font-weight="bold" text-anchor="middle">BUS11</text>
<text x="529.2" y="456.8" font-family="Arial" font-size="9" fill="#757575" text-anchor="middle">138kV</text>
<rect x="146.0" y="654.9" width="8.0" height="50.0" fill="#212121" rx="2"/>
<text x="150.0" y="647.9" font-family="Arial" font-size="11" font-weight="bold" text-anchor="middle">BUS12</text>
<text x="150.0" y="719.9" font-family="Arial" font-size="9" fill="#757575" text-anchor="middle">138kV</text>
<rect x="249.2" y="506.0" width="8.0" height="50.0" fill="#212121" rx="2"/>
<text x="253.2" y="499.0" font-family="Arial" font-size="11" font-weight="bold" text-anchor="middle">BUS13</text>
<text x="253.2" y="571.0" font-family="Arial" font-size="9" fill="#757575" text-anchor="middle">138kV</text>
<rect x="430.8" y="266.1" width="8.0" height="50.0" fill="#212121" rx="2"/>
<text x="434.8" y="259.1" font-family="Arial" font-size="11" font-weight="bold" text-anchor="middle">BUS14</text>
<text x="434.8" y="331.1" font-family="Arial" font-size="9" fill="#757575" text-anchor="middle">138kV</text>
</svg>