<svg width="1400" height="900" xmlns="http://www.w3.org/2000/svg">
<defs>
<linearGradient id="zGradient" x1="0%" y1="0%" x2="100%" y2="0%">
<stop offset="0%" style="stop-color:#2e7d32;stop-opacity:1" />
<stop offset="50%" style="stop-color:#f9a825;stop-opacity:1" />
<stop offset="100%" style="stop-color:#c62828;stop-opacity:1" />
</linearGradient>
<marker id="arrowhead2" markerWidth="10" markerHeight="7" refX="9" refY="3.5" orient="auto">
<polygon points="0 0, 10 3.5, 0 7" fill="#666"/>
</marker>
</defs>
<rect width="100%" height="100%" fill="#f5f5f5"/>
<text x="50" y="35" font-family="Arial" font-size="20" font-weight="bold" fill="#1a237e">Electrical Distance Map (14-Bus System)</text>
<text x="50" y="55" font-family="Arial" font-size="12" fill="#666">Bus positions from MDS on impedance matrix | Line color = impedance magnitude |Z|</text>
<rect x="1040" y="15" width="280" height="46" fill="white" stroke="#bdbdbd" rx="4" opacity="0.9"/>
<text x="1050" y="30" font-family="Arial" font-size="10" font-weight="bold" fill="#333">|Z| (pu):</text>
<rect x="1110" y="20" width="140" height="16" fill="url(#zGradient)" stroke="#999" rx="2"/>
<text x="1110" y="48" font-family="Arial" font-size="9" fill="#333" text-anchor="middle">0.0442</text>
<text x="1250" y="48" font-family="Arial" font-size="9" fill="#333" text-anchor="middle">0.5562</text>
<text x="1105" y="30" font-family="Arial" font-size="8" fill="#2e7d32" text-anchor="end">Low</text>
<text x="1255" y="30" font-family="Arial" font-size="8" fill="#c62828">High</text>
<line x1="624.9" y1="700.0" x2="717.3" y2="667.1" stroke="#3c8031" stroke-width="5.8" opacity="0.8"/>
<text x="671.1" y="677.6" font-family="Arial" font-size="8" fill="#3c8031" text-anchor="middle" font-weight="bold" transform="rotate(-19.6 671.1 677.6)">|Z|=0.0623</text>
<line x1="624.9" y1="700.0" x2="626.3" y2="633.7" stroke="#c09c28" stroke-width="4.4" opacity="0.8"/>
<text x="625.6" y="660.8" font-family="Arial" font-size="8" fill="#c09c28" text-anchor="middle" font-weight="bold" transform="rotate(-88.7 625.6 660.8)">|Z|=0.2295</text>
<line x1="717.3" y1="667.1" x2="761.0" y2="665.2" stroke="#ac9729" stroke-width="4.6" opacity="0.8"/>
<text x="739.1" y="660.2" font-family="Arial" font-size="8" fill="#ac9729" text-anchor="middle" font-weight="bold" transform="rotate(-2.5 739.1 660.2)">|Z|=0.2035</text>
<line x1="717.3" y1="667.1" x2="782.4" y2="516.4" stroke="#9e942a" stroke-width="4.8" opacity="0.8"/>
<text x="749.9" y="585.8" font-family="Arial" font-size="8" fill="#9e942a" text-anchor="middle" font-weight="bold" transform="rotate(-66.6 749.9 585.8)">|Z|=0.1856</text>
<line x1="717.3" y1="667.1" x2="626.3" y2="633.7" stroke="#9c942a" stroke-width="4.8" opacity="0.8"/>
<text x="671.8" y="644.4" font-family="Arial" font-size="8" fill="#9c942a" text-anchor="middle" font-weight="bold" transform="rotate(20.2 671.8 644.4)">|Z|=0.1830</text>
<line x1="761.0" y1="665.2" x2="782.4" y2="516.4" stroke="#9c942a" stroke-width="4.8" opacity="0.8"/>
<text x="771.7" y="584.8" font-family="Arial" font-size="8" fill="#9c942a" text-anchor="middle" font-weight="bold" transform="rotate(-81.8 771.7 584.8)">|Z|=0.1837</text>
<line x1="782.4" y1="516.4" x2="626.3" y2="633.7" stroke="#2e7d32" stroke-width="6.0" opacity="0.8"/>
<text x="704.4" y="569.0" font-family="Arial" font-size="8" fill="#2e7d32" text-anchor="middle" font-weight="bold" transform="rotate(-36.9 704.4 569.0)">|Z|=0.0442</text>
<line x1="558.0" y1="401.5" x2="516.1" y2="222.9" stroke="#b99a29" stroke-width="4.5" opacity="0.8"/>
<text x="537.0" y="306.2" font-family="Arial" font-size="8" fill="#b99a29" text-anchor="middle" font-weight="bold" transform="rotate(76.8 537.0 306.2)">|Z|=0.2204</text>
<line x1="558.0" y1="401.5" x2="554.0" y2="369.8" stroke="#eca525" stroke-width="3.9" opacity="0.8"/>
<text x="556.0" y="379.6" font-family="Arial" font-size="8" fill="#eca525" text-anchor="middle" font-weight="bold" transform="rotate(82.8 556.0 379.6)">|Z|=0.2838</text>
<line x1="558.0" y1="401.5" x2="590.0" y2="373.4" stroke="#7e8e2c" stroke-width="5.1" opacity="0.8"/>
<text x="574.0" y="381.4" font-family="Arial" font-size="8" fill="#7e8e2c" text-anchor="middle" font-weight="bold" transform="rotate(-41.3 574.0 381.4)">|Z|=0.1461</text>
<line x1="955.0" y1="397.9" x2="746.8" y2="437.2" stroke="#62882e" stroke-width="5.4" opacity="0.8"/>
<text x="850.9" y="411.6" font-family="Arial" font-size="8" fill="#62882e" text-anchor="middle" font-weight="bold" transform="rotate(-10.7 850.9 411.6)">|Z|=0.1100</text>
<line x1="746.8" y1="437.2" x2="543.2" y2="200.0" stroke="#52842f" stroke-width="5.6" opacity="0.8"/>
<text x="645.0" y="312.6" font-family="Arial" font-size="8" fill="#52842f" text-anchor="middle" font-weight="bold" transform="rotate(49.4 645.0 312.6)">|Z|=0.0903</text>
<line x1="746.8" y1="437.2" x2="652.6" y2="390.3" stroke="#f7a725" stroke-width="3.8" opacity="0.8"/>
<text x="699.7" y="407.8" font-family="Arial" font-size="8" fill="#f7a725" text-anchor="middle" font-weight="bold" transform="rotate(26.5 699.7 407.8)">|Z|=0.2988</text>
<line x1="543.2" y1="200.0" x2="516.1" y2="222.9" stroke="#b09829" stroke-width="4.6" opacity="0.8"/>
<text x="529.6" y="205.5" font-family="Arial" font-size="8" fill="#b09829" text-anchor="middle" font-weight="bold" transform="rotate(-40.2 529.6 205.5)">|Z|=0.2089</text>
<line x1="554.0" y1="369.8" x2="590.0" y2="373.4" stroke="#f7a725" stroke-width="3.8" opacity="0.8"/>
<text x="572.0" y="365.6" font-family="Arial" font-size="8" fill="#f7a725" text-anchor="middle" font-weight="bold" transform="rotate(5.7 572.0 365.6)">|Z|=0.2979</text>
<line x1="590.0" y1="373.4" x2="652.6" y2="390.3" stroke="#e77c26" stroke-width="3.0" opacity="0.8"/>
<text x="621.3" y="375.8" font-family="Arial" font-size="8" fill="#e77c26" text-anchor="middle" font-weight="bold" transform="rotate(15.1 621.3 375.8)">|Z|=0.3877</text>
<line x1="782.4" y1="516.4" x2="955.0" y2="397.9" stroke="#b09829" stroke-width="4.6" stroke-dasharray="8,4" opacity="0.8"/>
<circle cx="863.7" cy="452.1" r="6" fill="none" stroke="#b09829" stroke-width="2"/>
<circle cx="873.7" cy="462.1" r="6" fill="none" stroke="#b09829" stroke-width="2"/>
<text x="868.7" y="451.1" font-family="Arial" font-size="8" fill="#b09829" text-anchor="middle" font-weight="bold" transform="rotate(-34.5 868.7 451.1)">|Z|=0.2091</text>
<line x1="782.4" y1="516.4" x2="746.8" y2="437.2" stroke="#c62827" stroke-width="1.5" stroke-dasharray="8,4" opacity="0.8"/>
<circle cx="759.6" cy="471.8" r="6" fill="none" stroke="#c62827" stroke-width="2"/>
<circle cx="769.6" cy="481.8" r="6" fill="none" stroke="#c62827" stroke-width="2"/>
<text x="764.6" y="470.8" font-family="Arial" font-size="8" fill="#c62827" text-anchor="middle" font-weight="bold" transform="rotate(65.8 764.6 470.8)">|Z|=0.5562</text>
<line x1="558.0" y1="401.5" x2="626.3" y2="633.7" stroke="#d29f27" stroke-width="4.2" stroke-dasharray="8,4" opacity="0.8"/>
<circle cx="587.2" cy="512.6" r="6" fill="none" stroke="#d29f27" stroke-width="2"/>
<circle cx="597.2" cy="522.6" r="6" fill="none" stroke="#d29f27" stroke-width="2"/>
<text x="592.2" y="511.6" font-family="Arial" font-size="8" fill="#d29f27" text-anchor="middle" font-weight="bold" transform="rotate(73.6 592.2 511.6)">|Z|=0.2520</text>
<line x1="1172.5" y1="269.6" x2="955.0" y2="397.9" stroke="#96932b" stroke-width="4.8" stroke-dasharray="8,4" opacity="0.8"/>
<circle cx="1058.8" cy="328.7" r="6" fill="none" stroke="#96932b" stroke-width="2"/>
<circle cx="1068.8" cy="338.7" r="6" fill="none" stroke="#96932b" stroke-width="2"/>
<text x="1063.8" y="327.7" font-family="Arial" font-size="8" fill="#96932b" text-anchor="middle" font-weight="bold" transform="rotate(-30.5 1063.8 327.7)">|Z|=0.1762</text>
<line x1="624.9" y1="700.0" x2="489.9" y2="700.0" stroke="#1976d2" stroke-width="2.0"/>
<circle cx="489.9" cy="700.0" r="20.0" fill="#e3f2fd" stroke="#1976d2" stroke-width="3.0"/>
<text x="489.9" y="705.0" font-family="Arial" font-size="12" font-weight="bold" fill="#1976d2" text-anchor="middle">GGENROU_1</text>
<text x="429.9" y="692.0" font-family="Arial" font-size="8" fill="#1565c0" text-anchor="middle">M=8.0</text>
<text x="429.9" y="703.0" font-family="Arial" font-size="8" fill="#1565c0" text-anchor="middle">100MVA</text>
<line x1="717.3" y1="667.1" x2="852.3" y2="667.1" stroke="#1976d2" stroke-width="2.0"/>
<circle cx="852.3" cy="667.1" r="20.0" fill="#e3f2fd" stroke="#1976d2" stroke-width="3.0"/>
<text x="852.3" y="672.1" font-family="Arial" font-size="12" font-weight="bold" fill="#1976d2" text-anchor="middle">GGENROU_2</text>
<text x="912.3" y="659.1" font-family="Arial" font-size="8" fill="#1565c0" text-anchor="middle">M=13.0</text>
<text x="912.3" y="670.1" font-family="Arial" font-size="8" fill="#1565c0" text-anchor="middle">100MVA</text>
<line x1="761.0" y1="665.2" x2="896.0" y2="745.2" stroke="#1976d2" stroke-width="2.0"/>
<circle cx="896.0" cy="745.2" r="20.0" fill="#e3f2fd" stroke="#1976d2" stroke-width="3.0"/>
<text x="896.0" y="750.2" font-family="Arial" font-size="12" font-weight="bold" fill="#1976d2" text-anchor="middle">GGENROU_3</text>
<text x="956.0" y="737.2" font-family="Arial" font-size="8" fill="#1565c0" text-anchor="middle">M=10.0</text>
<text x="956.0" y="748.2" font-family="Arial" font-size="8" fill="#1565c0" text-anchor="middle">100MVA</text>
<line x1="558.0" y1="401.5" x2="423.0" y2="401.5" stroke="#1976d2" stroke-width="2.0"/>
<circle cx="423.0" cy="401.5" r="20.0" fill="#e3f2fd" stroke="#1976d2" stroke-width="3.0"/>
<text x="423.0" y="406.5" font-family="Arial" font-size="12" font-weight="bold" fill="#1976d2" text-anchor="middle">GGENROU_4</text>
<text x="363.0" y="393.5" font-family="Arial" font-size="8" fill="#1565c0" text-anchor="middle">M=10.0</text>
<text x="363.0" y="404.5" font-family="Arial" font-size="8" fill="#1565c0" text-anchor="middle">100MVA</text>
<line x1="1172.5" y1="269.6" x2="1307.5" y2="269.6" stroke="#1976d2" stroke-width="2.0"/>
<circle cx="1307.5" cy="269.6" r="20.0" fill="#e3f2fd" stroke="#1976d2" stroke-width="3.0"/>
<text x="1307.5" y="274.6" font-family="Arial" font-size="12" font-weight="bold" fill="#1976d2" text-anchor="middle">GGENROU_5</text>
<text x="1367.5" y="261.6" font-family="Arial" font-size="8" fill="#1565c0" text-anchor="middle">M=10.0</text>
<text x="1367.5" y="272.6" font-family="Arial" font-size="8" fill="#1565c0" text-anchor="middle">100MVA</text>
<line x1="852.3" y1="647.1" x2="893.5" y2="605.7" stroke="#ff6f00" stroke-width="1.5" stroke-dasharray="3,2"/>
<rect x="875.5" y="585.7" width="36.0" height="20.0" fill="#fff3e0" stroke="#ff6f00" stroke-width="2.0" rx="3"/>
<text x="893.5" y="599.7" font-family="Arial" font-size="7" font-weight="bold" fill="#e65100" text-anchor="middle">EXST1</text>
<line x1="489.9" y1="680.0" x2="448.6" y2="781.4" stroke="#ff6f00" stroke-width="1.5" stroke-dasharray="3,2"/>
<rect x="430.6" y="761.4" width="36.0" height="20.0" fill="#fff3e0" stroke="#ff6f00" stroke-width="2.0" rx="3"/>
<text x="448.6" y="775.4" font-family="Arial" font-size="7" font-weight="bold" fill="#e65100" text-anchor="middle">ESST3A</text>
<line x1="896.0" y1="725.2" x2="967.9" y2="714.8" stroke="#ff6f00" stroke-width="1.5" stroke-dasharray="3,2"/>
<rect x="949.9" y="694.8" width="36.0" height="20.0" fill="#fff3e0" stroke="#ff6f00" stroke-width="2.0" rx="3"/>
<text x="967.9" y="708.8" font-family="Arial" font-size="7" font-weight="bold" fill="#e65100" text-anchor="middle">ESST3A</text>
<line x1="423.0" y1="381.5" x2="381.7" y2="482.9" stroke="#ff6f00" stroke-width="1.5" stroke-dasharray="3,2"/>
<rect x="363.7" y="462.9" width="36.0" height="20.0" fill="#fff3e0" stroke="#ff6f00" stroke-width="2.0" rx="3"/>
<text x="381.7" y="476.9" font-family="Arial" font-size="7" font-weight="bold" fill="#e65100" text-anchor="middle">ESST3A</text>
<line x1="1307.5" y1="249.6" x2="1348.8" y2="208.2" stroke="#ff6f00" stroke-width="1.5" stroke-dasharray="3,2"/>
<rect x="1330.8" y="188.2" width="36.0" height="20.0" fill="#fff3e0" stroke="#ff6f00" stroke-width="2.0" rx="3"/>
<text x="1348.8" y="202.2" font-family="Arial" font-size="7" font-weight="bold" fill="#e65100" text-anchor="middle">ESST3A</text>
<line x1="489.9" y1="720.0" x2="448.6" y2="618.6" stroke="#2e7d32" stroke-width="1.5" stroke-dasharray="3,2"/>
<rect x="430.6" y="618.6" width="36.0" height="20.0" fill="#e8f5e9" stroke="#2e7d32" stroke-width="2.0" rx="3"/>
<text x="448.6" y="632.6" font-family="Arial" font-size="7" font-weight="bold" fill="#1b5e20" text-anchor="middle">TGOV1</text>
<line x1="423.0" y1="421.5" x2="381.7" y2="320.0" stroke="#2e7d32" stroke-width="1.5" stroke-dasharray="3,2"/>
<rect x="363.7" y="320.0" width="36.0" height="20.0" fill="#e8f5e9" stroke="#2e7d32" stroke-width="2.0" rx="3"/>
<text x="381.7" y="334.0" font-family="Arial" font-size="7" font-weight="bold" fill="#1b5e20" text-anchor="middle">TGOV1</text>
<line x1="1307.5" y1="289.6" x2="1348.8" y2="331.1" stroke="#2e7d32" stroke-width="1.5" stroke-dasharray="3,2"/>
<rect x="1330.8" y="331.1" width="36.0" height="20.0" fill="#e8f5e9" stroke="#2e7d32" stroke-width="2.0" rx="3"/>
<text x="1348.8" y="345.1" font-family="Arial" font-size="7" font-weight="bold" fill="#1b5e20" text-anchor="middle">TGOV1</text>
<line x1="852.3" y1="687.1" x2="833.5" y2="728.6" stroke="#2e7d32" stroke-width="1.5" stroke-dasharray="3,2"/>
<rect x="815.5" y="728.6" width="36.0" height="20.0" fill="#e8f5e9" stroke="#2e7d32" stroke-width="2.0" rx="3"/>
<text x="833.5" y="742.6" font-family="Arial" font-size="7" font-weight="bold" fill="#1b5e20" text-anchor="middle">IEEEG1</text>
<line x1="896.0" y1="765.2" x2="895.0" y2="817.7" stroke="#2e7d32" stroke-width="1.5" stroke-dasharray="3,2"/>
<rect x="877.0" y="817.7" width="36.0" height="20.0" fill="#e8f5e9" stroke="#2e7d32" stroke-width="2.0" rx="3"/>
<text x="895.0" y="831.7" font-family="Arial" font-size="7" font-weight="bold" fill="#1b5e20" text-anchor="middle">IEEEG1</text>
<line x1="717.3" y1="667.1" x2="717.3" y2="805.1" stroke="#d32f2f" stroke-width="2.0"/>
<polygon points="717.3,829.1 705.3,809.1 729.3,809.1" fill="#ffebee" stroke="#d32f2f" stroke-width="2.0"/>
<text x="717.3" y="842.1" font-family="Arial" font-size="8" fill="#c62828" text-anchor="middle">P=0.217</text>
<line x1="761.0" y1="665.2" x2="761.0" y2="803.2" stroke="#d32f2f" stroke-width="2.0"/>
<polygon points="761.0,827.2 749.0,807.2 773.0,807.2" fill="#ffebee" stroke="#d32f2f" stroke-width="2.0"/>
<text x="761.0" y="840.2" font-family="Arial" font-size="8" fill="#c62828" text-anchor="middle">P=0.5</text>
<line x1="782.4" y1="516.4" x2="782.4" y2="594.4" stroke="#d32f2f" stroke-width="2.0"/>
<polygon points="782.4,618.4 770.4,598.4 794.4,598.4" fill="#ffebee" stroke="#d32f2f" stroke-width="2.0"/>
<text x="782.4" y="631.4" font-family="Arial" font-size="8" fill="#c62828" text-anchor="middle">P=0.478</text>
<line x1="626.3" y1="633.7" x2="626.3" y2="711.7" stroke="#d32f2f" stroke-width="2.0"/>
<polygon points="626.3,735.7 614.3,715.7 638.3,715.7" fill="#ffebee" stroke="#d32f2f" stroke-width="2.0"/>
<text x="626.3" y="748.7" font-family="Arial" font-size="8" fill="#c62828" text-anchor="middle">P=0.076</text>
<line x1="558.0" y1="401.5" x2="558.0" y2="539.5" stroke="#d32f2f" stroke-width="2.0"/>
<polygon points="558.0,563.5 546.0,543.5 570.0,543.5" fill="#ffebee" stroke="#d32f2f" stroke-width="2.0"/>
<text x="558.0" y="576.5" font-family="Arial" font-size="8" fill="#c62828" text-anchor="middle">P=0.15</text>
<line x1="746.8" y1="437.2" x2="746.8" y2="515.2" stroke="#d32f2f" stroke-width="2.0"/>
<polygon points="746.8,539.2 734.8,519.2 758.8,519.2" fill="#ffebee" stroke="#d32f2f" stroke-width="2.0"/>
<text x="746.8" y="552.2" font-family="Arial" font-size="8" fill="#c62828" text-anchor="middle">P=0.295</text>
<line x1="543.2" y1="200.0" x2="543.2" y2="278.0" stroke="#d32f2f" stroke-width="2.0"/>
<polygon points="543.2,302.0 531.2,282.0 555.2,282.0" fill="#ffebee" stroke="#d32f2f" stroke-width="2.0"/>
<text x="543.2" y="315.0" font-family="Arial" font-size="8" fill="#c62828" text-anchor="middle">P=0.09</text>
<line x1="516.1" y1="222.9" x2="516.1" y2="360.9" stroke="#d32f2f" stroke-width="2.0"/>
<polygon points="516.1,384.9 504.1,364.9 528.1,364.9" fill="#ffebee" stroke="#d32f2f" stroke-width="2.0"/>
<text x="516.1" y="397.9" font-family="Arial" font-size="8" fill="#c62828" text-anchor="middle">P=0.035</text>
<line x1="554.0" y1="369.8" x2="554.0" y2="447.8" stroke="#d32f2f" stroke-width="2.0"/>
<polygon points="554.0,471.8 542.0,451.8 566.0,451.8" fill="#ffebee" stroke="#d32f2f" stroke-width="2.0"/>
<text x="554.0" y="484.8" font-family="Arial" font-size="8" fill="#c62828" text-anchor="middle">P=0.061</text>
<line x1="590.0" y1="373.4" x2="590.0" y2="451.4" stroke="#d32f2f" stroke-width="2.0"/>
<polygon points="590.0,475.4 578.0,455.4 602.0,455.4" fill="#ffebee" stroke="#d32f2f" stroke-width="2.0"/>
<text x="590.0" y="488.4" font-family="Arial" font-size="8" fill="#c62828" text-anchor="middle">P=0.135</text>
<line x1="652.6" y1="390.3" x2="652.6" y2="468.3" stroke="#d32f2f" stroke-width="2.0"/>
<polygon points="652.6,492.3 640.6,472.3 664.6,472.3" fill="#ffebee" stroke="#d32f2f" stroke-width="2.0"/>
<text x="652.6" y="505.3" font-family="Arial" font-size="8" fill="#c62828" text-anchor="middle">P=0.2</text>
<circle cx="624.9" cy="700.0" r="16.0" fill="#e3f2fd" stroke="#1565c0" stroke-width="2.5"/>
<text x="624.9" y="704.0" font-family="Arial" font-size="9" font-weight="bold" text-anchor="middle" fill="#1565c0">BUS1</text>
<text x="624.9" y="728.0" font-family="Arial" font-size="8" fill="#757575" text-anchor="middle">69kV</text>
<circle cx="717.3" cy="667.1" r="16.0" fill="#e3f2fd" stroke="#1565c0" stroke-width="2.5"/>
<text x="717.3" y="671.1" font-family="Arial" font-size="9" font-weight="bold" text-anchor="middle" fill="#1565c0">BUS2</text>
<text x="717.3" y="695.1" font-family="Arial" font-size="8" fill="#757575" text-anchor="middle">69kV</text>
<circle cx="761.0" cy="665.2" r="16.0" fill="#e3f2fd" stroke="#1565c0" stroke-width="2.5"/>
<text x="761.0" y="669.2" font-family="Arial" font-size="9" font-weight="bold" text-anchor="middle" fill="#1565c0">BUS3</text>
<text x="761.0" y="693.2" font-family="Arial" font-size="8" fill="#757575" text-anchor="middle">69kV</text>
<circle cx="782.4" cy="516.4" r="16.0" fill="#e3f2fd" stroke="#1565c0" stroke-width="2.5"/>
<text x="782.4" y="520.4" font-family="Arial" font-size="9" font-weight="bold" text-anchor="middle" fill="#1565c0">BUS4</text>
<text x="782.4" y="544.4" font-family="Arial" font-size="8" fill="#757575" text-anchor="middle">69kV</text>
<circle cx="626.3" cy="633.7" r="16.0" fill="#e3f2fd" stroke="#1565c0" stroke-width="2.5"/>
<text x="626.3" y="637.7" font-family="Arial" font-size="9" font-weight="bold" text-anchor="middle" fill="#1565c0">BUS5</text>
<text x="626.3" y="661.7" font-family="Arial" font-size="8" fill="#757575" text-anchor="middle">69kV</text>
<circle cx="558.0" cy="401.5" r="16.0" fill="#fff9c4" stroke="#f57f17" stroke-width="2.5"/>
<text x="558.0" y="405.5" font-family="Arial" font-size="9" font-weight="bold" text-anchor="middle" fill="#f57f17">BUS6</text>
<text x="558.0" y="429.5" font-family="Arial" font-size="8" fill="#757575" text-anchor="middle">138kV</text>
<circle cx="955.0" cy="397.9" r="16.0" fill="#fff9c4" stroke="#f57f17" stroke-width="2.5"/>
<text x="955.0" y="401.9" font-family="Arial" font-size="9" font-weight="bold" text-anchor="middle" fill="#f57f17">BUS7</text>
<text x="955.0" y="425.9" font-family="Arial" font-size="8" fill="#757575" text-anchor="middle">138kV</text>
<circle cx="1172.5" cy="269.6" r="16.0" fill="#e3f2fd" stroke="#1565c0" stroke-width="2.5"/>
<text x="1172.5" y="273.6" font-family="Arial" font-size="9" font-weight="bold" text-anchor="middle" fill="#1565c0">BUS8</text>
<text x="1172.5" y="297.6" font-family="Arial" font-size="8" fill="#757575" text-anchor="middle">69kV</text>
<circle cx="746.8" cy="437.2" r="16.0" fill="#fff9c4" stroke="#f57f17" stroke-width="2.5"/>
<text x="746.8" y="441.2" font-family="Arial" font-size="9" font-weight="bold" text-anchor="middle" fill="#f57f17">BUS9</text>
<text x="746.8" y="465.2" font-family="Arial" font-size="8" fill="#757575" text-anchor="middle">138kV</text>
<circle cx="543.2" cy="200.0" r="16.0" fill="#fff9c4" stroke="#f57f17" stroke-width="2.5"/>
<text x="543.2" y="204.0" font-family="Arial" font-size="9" font-weight="bold" text-anchor="middle" fill="#f57f17">BUS10</text>
<text x="543.2" y="228.0" font-family="Arial" font-size="8" fill="#757575" text-anchor="middle">138kV</text>
<circle cx="516.1" cy="222.9" r="16.0" fill="#fff9c4" stroke="#f57f17" stroke-width="2.5"/>
<text x="516.1" y="226.9" font-family="Arial" font-size="9" font-weight="bold" text-anchor="middle" fill="#f57f17">BUS11</text>
<text x="516.1" y="250.9" font-family="Arial" font-size="8" fill="#757575" text-anchor="middle">138kV</text>
<circle cx="554.0" cy="369.8" r="16.0" fill="#fff9c4" stroke="#f57f17" stroke-width="2.5"/>
<text x="554.0" y="373.8" font-family="Arial" font-size="9" font-weight="bold" text-anchor="middle" fill="#f57f17">BUS12</text>
<text x="554.0" y="397.8" font-family="Arial" font-size="8" fill="#757575" text-anchor="middle">138kV</text>
<circle cx="590.0" cy="373.4" r="16.0" fill="#fff9c4" stroke="#f57f17" stroke-width="2.5"/>
<text x="590.0" y="377.4" font-family="Arial" font-size="9" font-weight="bold" text-anchor="middle" fill="#f57f17">BUS13</text>
<text x="590.0" y="401.4" font-family="Arial" font-size="8" fill="#757575" text-anchor="middle">138kV</text>
<circle cx="652.6" cy="390.3" r="16.0" fill="#fff9c4" stroke="#f57f17" stroke-width="2.5"/>
<text x="652.6" y="394.3" font-family="Arial" font-size="9" font-weight="bold" text-anchor="middle" fill="#f57f17">BUS14</text>
<text x="652.6" y="418.3" font-family="Arial" font-size="8" fill="#757575" text-anchor="middle">138kV</text>
<rect x="50" y="830" width="1300" height="55" fill="#f5f5f5" stroke="#bdbdbd" rx="5"/>
<text x="70" y="850" font-family="Arial" font-size="12" font-weight="bold">Legend:</text>
<circle cx="170" cy="855" r="12" fill="#e3f2fd" stroke="#1976d2" stroke-width="2"/>
<text x="165" y="860" font-family="Arial" font-size="10" font-weight="bold" fill="#1976d2">G</text>
<text x="190" y="860" font-family="Arial" font-size="11">Generator</text>
<rect x="270" y="845" width="20" height="20" fill="#fff3e0" stroke="#ff6f00" stroke-width="2" rx="3"/>
<text x="300" y="860" font-family="Arial" font-size="11">Exciter</text>
<rect x="380" y="845" width="20" height="20" fill="#e8f5e9" stroke="#2e7d32" stroke-width="2" rx="3"/>
<text x="410" y="860" font-family="Arial" font-size="11">Governor</text>
<circle cx="510" cy="850" r="8" fill="#f3e5f5" stroke="#7b1fa2" stroke-width="2"/>
<circle cx="520" cy="860" r="8" fill="#f3e5f5" stroke="#7b1fa2" stroke-width="2"/>
<text x="540" y="860" font-family="Arial" font-size="11">Transformer</text>
<line x1="640" y1="855" x2="690" y2="855" stroke="#424242" stroke-width="3"/>
<text x="700" y="860" font-family="Arial" font-size="11">Transmission Line</text>
<rect x="830" y="842" width="8" height="26" fill="#212121" rx="2"/>
<text x="850" y="860" font-family="Arial" font-size="11">Bus</text>
<polygon points="920,865 935,845 950,865" fill="#ffebee" stroke="#d32f2f" stroke-width="2"/>
<text x="960" y="860" font-family="Arial" font-size="11">Load</text>
</svg>