<svg width="1800" height="1200" xmlns="http://www.w3.org/2000/svg">
<defs>
<linearGradient id="zGradient" x1="0%" y1="0%" x2="100%" y2="0%">
<stop offset="0%" style="stop-color:#2e7d32;stop-opacity:1" />
<stop offset="50%" style="stop-color:#f9a825;stop-opacity:1" />
<stop offset="100%" style="stop-color:#c62828;stop-opacity:1" />
</linearGradient>
<marker id="arrowhead2" markerWidth="10" markerHeight="7" refX="9" refY="3.5" orient="auto">
<polygon points="0 0, 10 3.5, 0 7" fill="#666"/>
</marker>
</defs>
<rect width="100%" height="100%" fill="#f5f5f5"/>
<text x="50" y="35" font-family="Arial" font-size="20" font-weight="bold" fill="#1a237e">Electrical Distance Map (39-Bus System)</text>
<text x="50" y="55" font-family="Arial" font-size="12" fill="#666">Bus positions from MDS on impedance matrix | Line color = impedance magnitude |Z|</text>
<rect x="1440" y="15" width="280" height="46" fill="white" stroke="#bdbdbd" rx="4" opacity="0.9"/>
<text x="1450" y="30" font-family="Arial" font-size="10" font-weight="bold" fill="#333">|Z| (pu):</text>
<rect x="1510" y="20" width="140" height="16" fill="url(#zGradient)" stroke="#999" rx="2"/>
<text x="1510" y="48" font-family="Arial" font-size="9" fill="#333" text-anchor="middle">0.0026</text>
<text x="1650" y="48" font-family="Arial" font-size="9" fill="#333" text-anchor="middle">0.0628</text>
<text x="1505" y="30" font-family="Arial" font-size="8" fill="#2e7d32" text-anchor="end">Low</text>
<text x="1655" y="30" font-family="Arial" font-size="8" fill="#c62828">High</text>
<line x1="221.4" y1="564.5" x2="679.7" y2="-193.5" stroke="#ea8325" stroke-width="3.1" opacity="0.8"/>
<text x="450.6" y="179.5" font-family="Arial" font-size="8" fill="#ea8325" text-anchor="middle" font-weight="bold" transform="rotate(-58.8 450.6 179.5)">|Z|=0.0412</text>
<line x1="221.4" y1="564.5" x2="806.8" y2="201.0" stroke="#c59d28" stroke-width="4.3" opacity="0.8"/>
<text x="514.1" y="376.8" font-family="Arial" font-size="8" fill="#c59d28" text-anchor="middle" font-weight="bold" transform="rotate(-31.8 514.1 376.8)">|Z|=0.0250</text>
<line x1="679.7" y1="-193.5" x2="1266.5" y2="184.1" stroke="#828e2c" stroke-width="5.1" opacity="0.8"/>
<text x="973.1" y="-10.7" font-family="Arial" font-size="8" fill="#828e2c" text-anchor="middle" font-weight="bold" transform="rotate(32.8 973.1 -10.7)">|Z|=0.0152</text>
<line x1="679.7" y1="-193.5" x2="859.4" y2="-33.7" stroke="#67892e" stroke-width="5.4" opacity="0.8"/>
<text x="769.6" y="-119.6" font-family="Arial" font-size="8" fill="#67892e" text-anchor="middle" font-weight="bold" transform="rotate(41.6 769.6 -119.6)">|Z|=0.0111</text>
<line x1="1266.5" y1="184.1" x2="1090.7" y2="1326.4" stroke="#ac9729" stroke-width="4.6" opacity="0.8"/>
<text x="1178.6" y="749.2" font-family="Arial" font-size="8" fill="#ac9729" text-anchor="middle" font-weight="bold" transform="rotate(-81.3 1178.6 749.2)">|Z|=0.0213</text>
<line x1="1266.5" y1="184.1" x2="908.7" y2="464.6" stroke="#768c2d" stroke-width="5.2" opacity="0.8"/>
<text x="1087.6" y="318.3" font-family="Arial" font-size="8" fill="#768c2d" text-anchor="middle" font-weight="bold" transform="rotate(-38.1 1087.6 318.3)">|Z|=0.0133</text>
<line x1="1090.7" y1="1326.4" x2="1139.3" y2="-220.7" stroke="#728b2d" stroke-width="5.2" opacity="0.8"/>
<text x="1115.0" y="546.9" font-family="Arial" font-size="8" fill="#728b2d" text-anchor="middle" font-weight="bold" transform="rotate(-88.2 1115.0 546.9)">|Z|=0.0128</text>
<line x1="1090.7" y1="1326.4" x2="496.5" y2="243.2" stroke="#738b2d" stroke-width="5.2" opacity="0.8"/>
<text x="793.6" y="778.8" font-family="Arial" font-size="8" fill="#738b2d" text-anchor="middle" font-weight="bold" transform="rotate(61.3 793.6 778.8)">|Z|=0.0129</text>
<line x1="1139.3" y1="-220.7" x2="204.6" y2="882.2" stroke="#2e7d32" stroke-width="6.0" opacity="0.8"/>
<text x="672.0" y="324.8" font-family="Arial" font-size="8" fill="#2e7d32" text-anchor="middle" font-weight="bold" transform="rotate(-49.7 672.0 324.8)">|Z|=0.0026</text>
<line x1="1139.3" y1="-220.7" x2="870.8" y2="725.8" stroke="#68892e" stroke-width="5.4" opacity="0.8"/>
<text x="1005.1" y="246.6" font-family="Arial" font-size="8" fill="#68892e" text-anchor="middle" font-weight="bold" transform="rotate(-74.2 1005.1 246.6)">|Z|=0.0112</text>
<line x1="204.6" y1="882.2" x2="452.0" y2="495.7" stroke="#5a862f" stroke-width="5.5" opacity="0.8"/>
<text x="328.3" y="682.9" font-family="Arial" font-size="8" fill="#5a862f" text-anchor="middle" font-weight="bold" transform="rotate(-57.4 328.3 682.9)">|Z|=0.0092</text>
<line x1="204.6" y1="882.2" x2="1145.2" y2="1092.2" stroke="#53852f" stroke-width="5.6" opacity="0.8"/>
<text x="674.9" y="981.2" font-family="Arial" font-size="8" fill="#53852f" text-anchor="middle" font-weight="bold" transform="rotate(12.6 674.9 981.2)">|Z|=0.0082</text>
<line x1="452.0" y1="495.7" x2="870.8" y2="725.8" stroke="#3b7f31" stroke-width="5.8" opacity="0.8"/>
<text x="661.4" y="604.7" font-family="Arial" font-size="8" fill="#3b7f31" text-anchor="middle" font-weight="bold" transform="rotate(28.8 661.4 604.7)">|Z|=0.0046</text>
<line x1="870.8" y1="725.8" x2="272.0" y2="329.4" stroke="#f29825" stroke-width="3.5" opacity="0.8"/>
<text x="571.4" y="521.6" font-family="Arial" font-size="8" fill="#f29825" text-anchor="middle" font-weight="bold" transform="rotate(33.5 571.4 521.6)">|Z|=0.0364</text>
<line x1="272.0" y1="329.4" x2="806.8" y2="201.0" stroke="#c59d28" stroke-width="4.3" opacity="0.8"/>
<text x="539.4" y="259.2" font-family="Arial" font-size="8" fill="#c59d28" text-anchor="middle" font-weight="bold" transform="rotate(-13.5 539.4 259.2)">|Z|=0.0250</text>
<line x1="662.1" y1="1361.5" x2="1145.2" y2="1092.2" stroke="#397f31" stroke-width="5.9" opacity="0.8"/>
<text x="903.7" y="1220.9" font-family="Arial" font-size="8" fill="#397f31" text-anchor="middle" font-weight="bold" transform="rotate(-29.1 903.7 1220.9)">|Z|=0.0043</text>
<line x1="662.1" y1="1361.5" x2="879.9" y2="1209.3" stroke="#397f31" stroke-width="5.9" opacity="0.8"/>
<text x="771.0" y="1279.4" font-family="Arial" font-size="8" fill="#397f31" text-anchor="middle" font-weight="bold" transform="rotate(-34.9 771.0 1279.4)">|Z|=0.0043</text>
<line x1="879.9" y1="1209.3" x2="496.5" y2="243.2" stroke="#60872e" stroke-width="5.4" opacity="0.8"/>
<text x="688.2" y="720.2" font-family="Arial" font-size="8" fill="#60872e" text-anchor="middle" font-weight="bold" transform="rotate(68.4 688.2 720.2)">|Z|=0.0101</text>
<line x1="496.5" y1="243.2" x2="420.2" y2="988.6" stroke="#af9829" stroke-width="4.6" opacity="0.8"/>
<text x="458.4" y="609.9" font-family="Arial" font-size="8" fill="#af9829" text-anchor="middle" font-weight="bold" transform="rotate(-84.2 458.4 609.9)">|Z|=0.0218</text>
<line x1="420.2" y1="988.6" x2="1671.9" y2="407.8" stroke="#5c862f" stroke-width="5.5" opacity="0.8"/>
<text x="1046.1" y="692.2" font-family="Arial" font-size="8" fill="#5c862f" text-anchor="middle" font-weight="bold" transform="rotate(-24.9 1046.1 692.2)">|Z|=0.0094</text>
<line x1="1671.9" y1="407.8" x2="1312.6" y2="713.9" stroke="#58862f" stroke-width="5.5" opacity="0.8"/>
<text x="1492.2" y="554.9" font-family="Arial" font-size="8" fill="#58862f" text-anchor="middle" font-weight="bold" transform="rotate(-40.4 1492.2 554.9)">|Z|=0.0089</text>
<line x1="1671.9" y1="407.8" x2="859.3" y2="969.7" stroke="#a0952a" stroke-width="4.7" opacity="0.8"/>
<text x="1265.6" y="682.8" font-family="Arial" font-size="8" fill="#a0952a" text-anchor="middle" font-weight="bold" transform="rotate(-34.7 1265.6 682.8)">|Z|=0.0196</text>
<line x1="1671.9" y1="407.8" x2="676.2" y2="402.9" stroke="#778c2d" stroke-width="5.2" opacity="0.8"/>
<text x="1174.1" y="399.4" font-family="Arial" font-size="8" fill="#778c2d" text-anchor="middle" font-weight="bold" transform="rotate(0.3 1174.1 399.4)">|Z|=0.0135</text>
<line x1="1671.9" y1="407.8" x2="1074.5" y2="862.3" stroke="#448130" stroke-width="5.8" opacity="0.8"/>
<text x="1373.2" y="629.1" font-family="Arial" font-size="8" fill="#448130" text-anchor="middle" font-weight="bold" transform="rotate(-37.3 1373.2 629.1)">|Z|=0.0059</text>
<line x1="1312.6" y1="713.9" x2="908.7" y2="464.6" stroke="#53852f" stroke-width="5.6" opacity="0.8"/>
<text x="1110.6" y="583.3" font-family="Arial" font-size="8" fill="#53852f" text-anchor="middle" font-weight="bold" transform="rotate(31.7 1110.6 583.3)">|Z|=0.0082</text>
<line x1="1312.6" y1="713.9" x2="1090.2" y2="622.3" stroke="#91922b" stroke-width="4.9" opacity="0.8"/>
<text x="1201.4" y="662.1" font-family="Arial" font-size="8" fill="#91922b" text-anchor="middle" font-weight="bold" transform="rotate(22.4 1201.4 662.1)">|Z|=0.0173</text>
<line x1="676.2" y1="402.9" x2="1408.1" y2="1185.6" stroke="#7b8d2d" stroke-width="5.1" opacity="0.8"/>
<text x="1042.1" y="788.2" font-family="Arial" font-size="8" fill="#7b8d2d" text-anchor="middle" font-weight="bold" transform="rotate(46.9 1042.1 788.2)">|Z|=0.0140</text>
<line x1="1408.1" y1="1185.6" x2="1500.7" y2="239.0" stroke="#5d872e" stroke-width="5.5" opacity="0.8"/>
<text x="1454.4" y="706.3" font-family="Arial" font-size="8" fill="#5d872e" text-anchor="middle" font-weight="bold" transform="rotate(-84.4 1454.4 706.3)">|Z|=0.0096</text>
<line x1="1500.7" y1="239.0" x2="1074.5" y2="862.3" stroke="#f49d25" stroke-width="3.6" opacity="0.8"/>
<text x="1287.6" y="544.6" font-family="Arial" font-size="8" fill="#f49d25" text-anchor="middle" font-weight="bold" transform="rotate(-55.6 1287.6 544.6)">|Z|=0.0351</text>
<line x1="859.4" y1="-33.7" x2="405.8" y2="740.5" stroke="#f7a725" stroke-width="3.8" opacity="0.8"/>
<text x="632.6" y="347.4" font-family="Arial" font-size="8" fill="#f7a725" text-anchor="middle" font-weight="bold" transform="rotate(-59.6 632.6 347.4)">|Z|=0.0325</text>
<line x1="405.8" y1="740.5" x2="1090.2" y2="622.3" stroke="#808e2c" stroke-width="5.1" opacity="0.8"/>
<text x="748.0" y="675.4" font-family="Arial" font-size="8" fill="#808e2c" text-anchor="middle" font-weight="bold" transform="rotate(-9.8 748.0 675.4)">|Z|=0.0148</text>
<line x1="405.8" y1="740.5" x2="357.7" y2="46.7" stroke="#df6826" stroke-width="2.6" opacity="0.8"/>
<text x="381.7" y="387.6" font-family="Arial" font-size="8" fill="#df6826" text-anchor="middle" font-weight="bold" transform="rotate(86.0 381.7 387.6)">|Z|=0.0476</text>
<line x1="405.8" y1="740.5" x2="1094.8" y2="15.7" stroke="#c62827" stroke-width="1.5" opacity="0.8"/>
<text x="750.3" y="372.1" font-family="Arial" font-size="8" fill="#c62827" text-anchor="middle" font-weight="bold" transform="rotate(-46.4 750.3 372.1)">|Z|=0.0628</text>
<line x1="357.7" y1="46.7" x2="1094.8" y2="15.7" stroke="#828e2c" stroke-width="5.1" opacity="0.8"/>
<text x="726.3" y="25.2" font-family="Arial" font-size="8" fill="#828e2c" text-anchor="middle" font-weight="bold" transform="rotate(-2.4 726.3 25.2)">|Z|=0.0152</text>
<line x1="679.7" y1="-193.5" x2="643.5" y2="641.2" stroke="#96932b" stroke-width="4.8" stroke-dasharray="8,4" opacity="0.8"/>
<circle cx="656.6" cy="218.8" r="6" fill="none" stroke="#96932b" stroke-width="2"/>
<circle cx="666.6" cy="228.8" r="6" fill="none" stroke="#96932b" stroke-width="2"/>
<text x="661.6" y="217.8" font-family="Arial" font-size="8" fill="#96932b" text-anchor="middle" font-weight="bold" transform="rotate(-87.5 661.6 217.8)">|Z|=0.0181</text>
<line x1="635.5" y1="881.5" x2="204.6" y2="882.2" stroke="#c59d28" stroke-width="4.3" stroke-dasharray="8,4" opacity="0.8"/>
<circle cx="415.1" cy="876.9" r="6" fill="none" stroke="#c59d28" stroke-width="2"/>
<circle cx="425.1" cy="886.9" r="6" fill="none" stroke="#c59d28" stroke-width="2"/>
<text x="420.1" y="875.9" font-family="Arial" font-size="8" fill="#c59d28" text-anchor="middle" font-weight="bold" transform="rotate(-0.1 420.1 875.9)">|Z|=0.0250</text>
<line x1="662.1" y1="1361.5" x2="656.2" y2="1121.1" stroke="#a3952a" stroke-width="4.7" stroke-dasharray="8,4" opacity="0.8"/>
<circle cx="654.1" cy="1236.3" r="6" fill="none" stroke="#a3952a" stroke-width="2"/>
<circle cx="664.1" cy="1246.3" r="6" fill="none" stroke="#a3952a" stroke-width="2"/>
<text x="659.1" y="1235.3" font-family="Arial" font-size="8" fill="#a3952a" text-anchor="middle" font-weight="bold" transform="rotate(88.6 659.1 1235.3)">|Z|=0.0200</text>
<line x1="377.2" y1="1225.3" x2="1145.2" y2="1092.2" stroke="#e67926" stroke-width="2.9" stroke-dasharray="8,4" opacity="0.8"/>
<circle cx="756.2" cy="1153.7" r="6" fill="none" stroke="#e67926" stroke-width="2"/>
<circle cx="766.2" cy="1163.7" r="6" fill="none" stroke="#e67926" stroke-width="2"/>
<text x="761.2" y="1152.7" font-family="Arial" font-size="8" fill="#e67926" text-anchor="middle" font-weight="bold" transform="rotate(-9.8 761.2 1152.7)">|Z|=0.0435</text>
<line x1="377.2" y1="1225.3" x2="879.9" y2="1209.3" stroke="#e67926" stroke-width="2.9" stroke-dasharray="8,4" opacity="0.8"/>
<circle cx="623.6" cy="1212.3" r="6" fill="none" stroke="#e67926" stroke-width="2"/>
<circle cx="633.6" cy="1222.3" r="6" fill="none" stroke="#e67926" stroke-width="2"/>
<text x="628.6" y="1211.3" font-family="Arial" font-size="8" fill="#e67926" text-anchor="middle" font-weight="bold" transform="rotate(-1.8 628.6 1211.3)">|Z|=0.0435</text>
<line x1="859.3" y1="969.7" x2="1739.8" y2="681.2" stroke="#798d2d" stroke-width="5.2" stroke-dasharray="8,4" opacity="0.8"/>
<circle cx="1294.6" cy="820.5" r="6" fill="none" stroke="#798d2d" stroke-width="2"/>
<circle cx="1304.6" cy="830.5" r="6" fill="none" stroke="#798d2d" stroke-width="2"/>
<text x="1299.6" y="819.5" font-family="Arial" font-size="8" fill="#798d2d" text-anchor="middle" font-weight="bold" transform="rotate(-18.1 1299.6 819.5)">|Z|=0.0138</text>
<line x1="859.3" y1="969.7" x2="1227.0" y2="424.5" stroke="#7c8d2c" stroke-width="5.1" stroke-dasharray="8,4" opacity="0.8"/>
<circle cx="1038.2" cy="692.1" r="6" fill="none" stroke="#7c8d2c" stroke-width="2"/>
<circle cx="1048.2" cy="702.1" r="6" fill="none" stroke="#7c8d2c" stroke-width="2"/>
<text x="1043.2" y="691.1" font-family="Arial" font-size="8" fill="#7c8d2c" text-anchor="middle" font-weight="bold" transform="rotate(-56.0 1043.2 691.1)">|Z|=0.0142</text>
<line x1="1739.8" y1="681.2" x2="1342.0" y2="953.9" stroke="#96932b" stroke-width="4.8" stroke-dasharray="8,4" opacity="0.8"/>
<circle cx="1535.9" cy="812.6" r="6" fill="none" stroke="#96932b" stroke-width="2"/>
<circle cx="1545.9" cy="822.6" r="6" fill="none" stroke="#96932b" stroke-width="2"/>
<text x="1540.9" y="811.6" font-family="Arial" font-size="8" fill="#96932b" text-anchor="middle" font-weight="bold" transform="rotate(-34.4 1540.9 811.6)">|Z|=0.0180</text>
<line x1="1408.1" y1="1185.6" x2="1450.4" y2="513.8" stroke="#7c8d2c" stroke-width="5.1" stroke-dasharray="8,4" opacity="0.8"/>
<circle cx="1424.2" cy="844.7" r="6" fill="none" stroke="#7c8d2c" stroke-width="2"/>
<circle cx="1434.2" cy="854.7" r="6" fill="none" stroke="#7c8d2c" stroke-width="2"/>
<text x="1429.2" y="843.7" font-family="Arial" font-size="8" fill="#7c8d2c" text-anchor="middle" font-weight="bold" transform="rotate(-86.4 1429.2 843.7)">|Z|=0.0143</text>
<line x1="1500.7" y1="239.0" x2="1534.6" y2="806.5" stroke="#d4a027" stroke-width="4.2" stroke-dasharray="8,4" opacity="0.8"/>
<circle cx="1512.6" cy="517.7" r="6" fill="none" stroke="#d4a027" stroke-width="2"/>
<circle cx="1522.6" cy="527.7" r="6" fill="none" stroke="#d4a027" stroke-width="2"/>
<text x="1517.6" y="516.7" font-family="Arial" font-size="8" fill="#d4a027" text-anchor="middle" font-weight="bold" transform="rotate(86.6 1517.6 516.7)">|Z|=0.0272</text>
<line x1="859.4" y1="-33.7" x2="627.0" y2="41.2" stroke="#b99a29" stroke-width="4.5" stroke-dasharray="8,4" opacity="0.8"/>
<circle cx="738.2" cy="-1.3" r="6" fill="none" stroke="#b99a29" stroke-width="2"/>
<circle cx="748.2" cy="8.7" r="6" fill="none" stroke="#b99a29" stroke-width="2"/>
<text x="743.2" y="-2.3" font-family="Arial" font-size="8" fill="#b99a29" text-anchor="middle" font-weight="bold" transform="rotate(-17.9 743.2 -2.3)">|Z|=0.0232</text>
<line x1="1094.8" y1="15.7" x2="1039.2" y2="262.7" stroke="#858f2c" stroke-width="5.0" stroke-dasharray="8,4" opacity="0.8"/>
<circle cx="1062.0" cy="134.2" r="6" fill="none" stroke="#858f2c" stroke-width="2"/>
<circle cx="1072.0" cy="144.2" r="6" fill="none" stroke="#858f2c" stroke-width="2"/>
<text x="1067.0" y="133.2" font-family="Arial" font-size="8" fill="#858f2c" text-anchor="middle" font-weight="bold" transform="rotate(-77.3 1067.0 133.2)">|Z|=0.0156</text>
<line x1="643.5" y1="641.2" x2="553.5" y2="641.2" stroke="#1976d2" stroke-width="2.0"/>
<circle cx="553.5" cy="641.2" r="20.0" fill="#e3f2fd" stroke="#1976d2" stroke-width="3.0"/>
<text x="553.5" y="646.2" font-family="Arial" font-size="12" font-weight="bold" fill="#1976d2" text-anchor="middle">GGENROU_1</text>
<text x="513.5" y="633.2" font-family="Arial" font-size="8" fill="#1565c0" text-anchor="middle">M=8.4</text>
<text x="513.5" y="644.2" font-family="Arial" font-size="8" fill="#1565c0" text-anchor="middle">1040MVA</text>
<line x1="635.5" y1="881.5" x2="545.5" y2="881.5" stroke="#1976d2" stroke-width="2.0"/>
<circle cx="545.5" cy="881.5" r="20.0" fill="#e3f2fd" stroke="#1976d2" stroke-width="3.0"/>
<text x="545.5" y="886.5" font-family="Arial" font-size="12" font-weight="bold" fill="#1976d2" text-anchor="middle">GGENROU_2</text>
<text x="505.5" y="873.5" font-family="Arial" font-size="8" fill="#1565c0" text-anchor="middle">M=6.06</text>
<text x="505.5" y="884.5" font-family="Arial" font-size="8" fill="#1565c0" text-anchor="middle">836MVA</text>
<line x1="656.2" y1="1121.1" x2="566.2" y2="1121.1" stroke="#1976d2" stroke-width="2.0"/>
<circle cx="566.2" cy="1121.1" r="20.0" fill="#e3f2fd" stroke="#1976d2" stroke-width="3.0"/>
<text x="566.2" y="1126.1" font-family="Arial" font-size="12" font-weight="bold" fill="#1976d2" text-anchor="middle">GGENROU_3</text>
<text x="526.2" y="1113.1" font-family="Arial" font-size="8" fill="#1565c0" text-anchor="middle">M=7.16</text>
<text x="526.2" y="1124.1" font-family="Arial" font-size="8" fill="#1565c0" text-anchor="middle">844MVA</text>
<line x1="1227.0" y1="424.5" x2="1317.0" y2="424.5" stroke="#1976d2" stroke-width="2.0"/>
<circle cx="1317.0" cy="424.5" r="20.0" fill="#e3f2fd" stroke="#1976d2" stroke-width="3.0"/>
<text x="1317.0" y="429.5" font-family="Arial" font-size="12" font-weight="bold" fill="#1976d2" text-anchor="middle">GGENROU_4</text>
<text x="1357.0" y="416.5" font-family="Arial" font-size="8" fill="#1565c0" text-anchor="middle">M=5.72</text>
<text x="1357.0" y="427.5" font-family="Arial" font-size="8" fill="#1565c0" text-anchor="middle">1175MVA</text>
<line x1="1342.0" y1="953.9" x2="1432.0" y2="953.9" stroke="#1976d2" stroke-width="2.0"/>
<circle cx="1432.0" cy="953.9" r="20.0" fill="#e3f2fd" stroke="#1976d2" stroke-width="3.0"/>
<text x="1432.0" y="958.9" font-family="Arial" font-size="12" font-weight="bold" fill="#1976d2" text-anchor="middle">GGENROU_5</text>
<text x="1472.0" y="945.9" font-family="Arial" font-size="8" fill="#1565c0" text-anchor="middle">M=5.2</text>
<text x="1472.0" y="956.9" font-family="Arial" font-size="8" fill="#1565c0" text-anchor="middle">1080MVA</text>
<line x1="1450.4" y1="513.8" x2="1540.4" y2="513.8" stroke="#1976d2" stroke-width="2.0"/>
<circle cx="1540.4" cy="513.8" r="20.0" fill="#e3f2fd" stroke="#1976d2" stroke-width="3.0"/>
<text x="1540.4" y="518.8" font-family="Arial" font-size="12" font-weight="bold" fill="#1976d2" text-anchor="middle">GGENROU_6</text>
<text x="1580.4" y="505.8" font-family="Arial" font-size="8" fill="#1565c0" text-anchor="middle">M=6.96</text>
<text x="1580.4" y="516.8" font-family="Arial" font-size="8" fill="#1565c0" text-anchor="middle">1086MVA</text>
<line x1="1534.6" y1="806.5" x2="1624.6" y2="806.5" stroke="#1976d2" stroke-width="2.0"/>
<circle cx="1624.6" cy="806.5" r="20.0" fill="#e3f2fd" stroke="#1976d2" stroke-width="3.0"/>
<text x="1624.6" y="811.5" font-family="Arial" font-size="12" font-weight="bold" fill="#1976d2" text-anchor="middle">GGENROU_7</text>
<text x="1664.6" y="798.5" font-family="Arial" font-size="8" fill="#1565c0" text-anchor="middle">M=5.28</text>
<text x="1664.6" y="809.5" font-family="Arial" font-size="8" fill="#1565c0" text-anchor="middle">1025MVA</text>
<line x1="627.0" y1="41.2" x2="537.0" y2="41.2" stroke="#1976d2" stroke-width="2.0"/>
<circle cx="537.0" cy="41.2" r="20.0" fill="#e3f2fd" stroke="#1976d2" stroke-width="3.0"/>
<text x="537.0" y="46.2" font-family="Arial" font-size="12" font-weight="bold" fill="#1976d2" text-anchor="middle">GGENROU_8</text>
<text x="497.0" y="33.2" font-family="Arial" font-size="8" fill="#1565c0" text-anchor="middle">M=4.86</text>
<text x="497.0" y="44.2" font-family="Arial" font-size="8" fill="#1565c0" text-anchor="middle">970MVA</text>
<line x1="1039.2" y1="262.7" x2="1129.2" y2="262.7" stroke="#1976d2" stroke-width="2.0"/>
<circle cx="1129.2" cy="262.7" r="20.0" fill="#e3f2fd" stroke="#1976d2" stroke-width="3.0"/>
<text x="1129.2" y="267.7" font-family="Arial" font-size="12" font-weight="bold" fill="#1976d2" text-anchor="middle">GGENROU_9</text>
<text x="1169.2" y="254.7" font-family="Arial" font-size="8" fill="#1565c0" text-anchor="middle">M=6.9</text>
<text x="1169.2" y="265.7" font-family="Arial" font-size="8" fill="#1565c0" text-anchor="middle">1684MVA</text>
<line x1="806.8" y1="201.0" x2="716.8" y2="201.0" stroke="#1976d2" stroke-width="2.0"/>
<circle cx="716.8" cy="201.0" r="20.0" fill="#e3f2fd" stroke="#1976d2" stroke-width="3.0"/>
<text x="716.8" y="206.0" font-family="Arial" font-size="12" font-weight="bold" fill="#1976d2" text-anchor="middle">GGENROU_10</text>
<text x="676.8" y="193.0" font-family="Arial" font-size="8" fill="#1565c0" text-anchor="middle">M=100.0</text>
<text x="676.8" y="204.0" font-family="Arial" font-size="8" fill="#1565c0" text-anchor="middle">1199MVA</text>
<line x1="553.5" y1="621.2" x2="526.0" y2="698.8" stroke="#ff6f00" stroke-width="1.5" stroke-dasharray="3,2"/>
<rect x="508.0" y="678.8" width="36.0" height="20.0" fill="#fff3e0" stroke="#ff6f00" stroke-width="2.0" rx="3"/>
<text x="526.0" y="692.8" font-family="Arial" font-size="7" font-weight="bold" fill="#e65100" text-anchor="middle">IEEEX1</text>
<line x1="545.5" y1="861.5" x2="518.0" y2="939.1" stroke="#ff6f00" stroke-width="1.5" stroke-dasharray="3,2"/>
<rect x="500.0" y="919.1" width="36.0" height="20.0" fill="#fff3e0" stroke="#ff6f00" stroke-width="2.0" rx="3"/>
<text x="518.0" y="933.1" font-family="Arial" font-size="7" font-weight="bold" fill="#e65100" text-anchor="middle">IEEEX1</text>
<line x1="566.2" y1="1101.1" x2="538.7" y2="1178.8" stroke="#ff6f00" stroke-width="1.5" stroke-dasharray="3,2"/>
<rect x="520.7" y="1158.8" width="36.0" height="20.0" fill="#fff3e0" stroke="#ff6f00" stroke-width="2.0" rx="3"/>
<text x="538.7" y="1172.8" font-family="Arial" font-size="7" font-weight="bold" fill="#e65100" text-anchor="middle">IEEEX1</text>
<line x1="1317.0" y1="404.5" x2="1344.5" y2="386.9" stroke="#ff6f00" stroke-width="1.5" stroke-dasharray="3,2"/>
<rect x="1326.5" y="366.9" width="36.0" height="20.0" fill="#fff3e0" stroke="#ff6f00" stroke-width="2.0" rx="3"/>
<text x="1344.5" y="380.9" font-family="Arial" font-size="7" font-weight="bold" fill="#e65100" text-anchor="middle">IEEEX1</text>
<line x1="1432.0" y1="933.9" x2="1459.5" y2="916.3" stroke="#ff6f00" stroke-width="1.5" stroke-dasharray="3,2"/>
<rect x="1441.5" y="896.3" width="36.0" height="20.0" fill="#fff3e0" stroke="#ff6f00" stroke-width="2.0" rx="3"/>
<text x="1459.5" y="910.3" font-family="Arial" font-size="7" font-weight="bold" fill="#e65100" text-anchor="middle">IEEEX1</text>
<line x1="1540.4" y1="493.8" x2="1567.9" y2="476.1" stroke="#ff6f00" stroke-width="1.5" stroke-dasharray="3,2"/>
<rect x="1549.9" y="456.1" width="36.0" height="20.0" fill="#fff3e0" stroke="#ff6f00" stroke-width="2.0" rx="3"/>
<text x="1567.9" y="470.1" font-family="Arial" font-size="7" font-weight="bold" fill="#e65100" text-anchor="middle">IEEEX1</text>
<line x1="1624.6" y1="786.5" x2="1652.1" y2="768.9" stroke="#ff6f00" stroke-width="1.5" stroke-dasharray="3,2"/>
<rect x="1634.1" y="748.9" width="36.0" height="20.0" fill="#fff3e0" stroke="#ff6f00" stroke-width="2.0" rx="3"/>
<text x="1652.1" y="762.9" font-family="Arial" font-size="7" font-weight="bold" fill="#e65100" text-anchor="middle">IEEEX1</text>
<line x1="537.0" y1="21.2" x2="509.5" y2="98.8" stroke="#ff6f00" stroke-width="1.5" stroke-dasharray="3,2"/>
<rect x="491.5" y="78.8" width="36.0" height="20.0" fill="#fff3e0" stroke="#ff6f00" stroke-width="2.0" rx="3"/>
<text x="509.5" y="92.8" font-family="Arial" font-size="7" font-weight="bold" fill="#e65100" text-anchor="middle">IEEEX1</text>
<line x1="1129.2" y1="242.7" x2="1156.7" y2="225.0" stroke="#ff6f00" stroke-width="1.5" stroke-dasharray="3,2"/>
<rect x="1138.7" y="205.0" width="36.0" height="20.0" fill="#fff3e0" stroke="#ff6f00" stroke-width="2.0" rx="3"/>
<text x="1156.7" y="219.0" font-family="Arial" font-size="7" font-weight="bold" fill="#e65100" text-anchor="middle">IEEEX1</text>
<line x1="716.8" y1="181.0" x2="689.3" y2="258.6" stroke="#ff6f00" stroke-width="1.5" stroke-dasharray="3,2"/>
<rect x="671.3" y="238.6" width="36.0" height="20.0" fill="#fff3e0" stroke="#ff6f00" stroke-width="2.0" rx="3"/>
<text x="689.3" y="252.6" font-family="Arial" font-size="7" font-weight="bold" fill="#e65100" text-anchor="middle">IEEEX1</text>
<line x1="553.5" y1="661.2" x2="526.0" y2="583.5" stroke="#2e7d32" stroke-width="1.5" stroke-dasharray="3,2"/>
<rect x="508.0" y="583.5" width="36.0" height="20.0" fill="#e8f5e9" stroke="#2e7d32" stroke-width="2.0" rx="3"/>
<text x="526.0" y="597.5" font-family="Arial" font-size="7" font-weight="bold" fill="#1b5e20" text-anchor="middle">TGOV1</text>
<line x1="545.5" y1="901.5" x2="518.0" y2="823.9" stroke="#2e7d32" stroke-width="1.5" stroke-dasharray="3,2"/>
<rect x="500.0" y="823.9" width="36.0" height="20.0" fill="#e8f5e9" stroke="#2e7d32" stroke-width="2.0" rx="3"/>
<text x="518.0" y="837.9" font-family="Arial" font-size="7" font-weight="bold" fill="#1b5e20" text-anchor="middle">TGOV1</text>
<line x1="566.2" y1="1141.1" x2="538.7" y2="1063.5" stroke="#2e7d32" stroke-width="1.5" stroke-dasharray="3,2"/>
<rect x="520.7" y="1063.5" width="36.0" height="20.0" fill="#e8f5e9" stroke="#2e7d32" stroke-width="2.0" rx="3"/>
<text x="538.7" y="1077.5" font-family="Arial" font-size="7" font-weight="bold" fill="#1b5e20" text-anchor="middle">TGOV1</text>
<line x1="1317.0" y1="444.5" x2="1344.5" y2="462.2" stroke="#2e7d32" stroke-width="1.5" stroke-dasharray="3,2"/>
<rect x="1326.5" y="462.2" width="36.0" height="20.0" fill="#e8f5e9" stroke="#2e7d32" stroke-width="2.0" rx="3"/>
<text x="1344.5" y="476.2" font-family="Arial" font-size="7" font-weight="bold" fill="#1b5e20" text-anchor="middle">TGOV1</text>
<line x1="1432.0" y1="973.9" x2="1459.5" y2="991.5" stroke="#2e7d32" stroke-width="1.5" stroke-dasharray="3,2"/>
<rect x="1441.5" y="991.5" width="36.0" height="20.0" fill="#e8f5e9" stroke="#2e7d32" stroke-width="2.0" rx="3"/>
<text x="1459.5" y="1005.5" font-family="Arial" font-size="7" font-weight="bold" fill="#1b5e20" text-anchor="middle">TGOV1</text>
<line x1="1540.4" y1="533.8" x2="1567.9" y2="551.4" stroke="#2e7d32" stroke-width="1.5" stroke-dasharray="3,2"/>
<rect x="1549.9" y="551.4" width="36.0" height="20.0" fill="#e8f5e9" stroke="#2e7d32" stroke-width="2.0" rx="3"/>
<text x="1567.9" y="565.4" font-family="Arial" font-size="7" font-weight="bold" fill="#1b5e20" text-anchor="middle">TGOV1</text>
<line x1="1624.6" y1="826.5" x2="1652.1" y2="844.2" stroke="#2e7d32" stroke-width="1.5" stroke-dasharray="3,2"/>
<rect x="1634.1" y="844.2" width="36.0" height="20.0" fill="#e8f5e9" stroke="#2e7d32" stroke-width="2.0" rx="3"/>
<text x="1652.1" y="858.2" font-family="Arial" font-size="7" font-weight="bold" fill="#1b5e20" text-anchor="middle">TGOV1</text>
<line x1="537.0" y1="61.2" x2="509.5" y2="-16.5" stroke="#2e7d32" stroke-width="1.5" stroke-dasharray="3,2"/>
<rect x="491.5" y="-16.5" width="36.0" height="20.0" fill="#e8f5e9" stroke="#2e7d32" stroke-width="2.0" rx="3"/>
<text x="509.5" y="-2.5" font-family="Arial" font-size="7" font-weight="bold" fill="#1b5e20" text-anchor="middle">TGOV1</text>
<line x1="1129.2" y1="282.7" x2="1156.7" y2="300.3" stroke="#2e7d32" stroke-width="1.5" stroke-dasharray="3,2"/>
<rect x="1138.7" y="300.3" width="36.0" height="20.0" fill="#e8f5e9" stroke="#2e7d32" stroke-width="2.0" rx="3"/>
<text x="1156.7" y="314.3" font-family="Arial" font-size="7" font-weight="bold" fill="#1b5e20" text-anchor="middle">TGOV1</text>
<line x1="716.8" y1="221.0" x2="689.3" y2="143.3" stroke="#2e7d32" stroke-width="1.5" stroke-dasharray="3,2"/>
<rect x="671.3" y="143.3" width="36.0" height="20.0" fill="#e8f5e9" stroke="#2e7d32" stroke-width="2.0" rx="3"/>
<text x="689.3" y="157.3" font-family="Arial" font-size="7" font-weight="bold" fill="#1b5e20" text-anchor="middle">TGOV1</text>
<line x1="1266.5" y1="184.1" x2="1266.5" y2="232.1" stroke="#d32f2f" stroke-width="2.0"/>
<polygon points="1266.5,256.1 1254.5,236.1 1278.5,236.1" fill="#ffebee" stroke="#d32f2f" stroke-width="2.0"/>
<text x="1266.5" y="269.1" font-family="Arial" font-size="8" fill="#c62828" text-anchor="middle">P=6.0</text>
<line x1="1090.7" y1="1326.4" x2="1090.7" y2="1374.4" stroke="#d32f2f" stroke-width="2.0"/>
<polygon points="1090.7,1398.4 1078.7,1378.4 1102.7,1378.4" fill="#ffebee" stroke="#d32f2f" stroke-width="2.0"/>
<text x="1090.7" y="1411.4" font-family="Arial" font-size="8" fill="#c62828" text-anchor="middle">P=4.5</text>
<line x1="452.0" y1="495.7" x2="452.0" y2="543.7" stroke="#d32f2f" stroke-width="2.0"/>
<polygon points="452.0,567.7 440.0,547.7 464.0,547.7" fill="#ffebee" stroke="#d32f2f" stroke-width="2.0"/>
<text x="452.0" y="580.7" font-family="Arial" font-size="8" fill="#c62828" text-anchor="middle">P=2.338</text>
<line x1="870.8" y1="725.8" x2="870.8" y2="773.8" stroke="#d32f2f" stroke-width="2.0"/>
<polygon points="870.8,797.8 858.8,777.8 882.8,777.8" fill="#ffebee" stroke="#d32f2f" stroke-width="2.0"/>
<text x="870.8" y="810.8" font-family="Arial" font-size="8" fill="#c62828" text-anchor="middle">P=5.22</text>
<line x1="377.2" y1="1225.3" x2="377.2" y2="1273.3" stroke="#d32f2f" stroke-width="2.0"/>
<polygon points="377.2,1297.3 365.2,1277.3 389.2,1277.3" fill="#ffebee" stroke="#d32f2f" stroke-width="2.0"/>
<text x="377.2" y="1310.3" font-family="Arial" font-size="8" fill="#c62828" text-anchor="middle">P=1.2</text>
<line x1="420.2" y1="988.6" x2="420.2" y2="1036.6" stroke="#d32f2f" stroke-width="2.0"/>
<polygon points="420.2,1060.6 408.2,1040.6 432.2,1040.6" fill="#ffebee" stroke="#d32f2f" stroke-width="2.0"/>
<text x="420.2" y="1073.6" font-family="Arial" font-size="8" fill="#c62828" text-anchor="middle">P=3.2</text>
<line x1="1671.9" y1="407.8" x2="1671.9" y2="455.8" stroke="#d32f2f" stroke-width="2.0"/>
<polygon points="1671.9,479.8 1659.9,459.8 1683.9,459.8" fill="#ffebee" stroke="#d32f2f" stroke-width="2.0"/>
<text x="1671.9" y="492.8" font-family="Arial" font-size="8" fill="#c62828" text-anchor="middle">P=3.29</text>
<line x1="908.7" y1="464.6" x2="908.7" y2="512.6" stroke="#d32f2f" stroke-width="2.0"/>
<polygon points="908.7,536.6 896.7,516.6 920.7,516.6" fill="#ffebee" stroke="#d32f2f" stroke-width="2.0"/>
<text x="908.7" y="549.6" font-family="Arial" font-size="8" fill="#c62828" text-anchor="middle">P=1.58</text>
<line x1="1739.8" y1="681.2" x2="1739.8" y2="729.2" stroke="#d32f2f" stroke-width="2.0"/>
<polygon points="1739.8,753.2 1727.8,733.2 1751.8,733.2" fill="#ffebee" stroke="#d32f2f" stroke-width="2.0"/>
<text x="1739.8" y="766.2" font-family="Arial" font-size="8" fill="#c62828" text-anchor="middle">P=6.8</text>
<line x1="676.2" y1="402.9" x2="676.2" y2="450.9" stroke="#d32f2f" stroke-width="2.0"/>
<polygon points="676.2,474.9 664.2,454.9 688.2,454.9" fill="#ffebee" stroke="#d32f2f" stroke-width="2.0"/>
<text x="676.2" y="487.9" font-family="Arial" font-size="8" fill="#c62828" text-anchor="middle">P=2.74</text>
<line x1="1500.7" y1="239.0" x2="1500.7" y2="287.0" stroke="#d32f2f" stroke-width="2.0"/>
<polygon points="1500.7,311.0 1488.7,291.0 1512.7,291.0" fill="#ffebee" stroke="#d32f2f" stroke-width="2.0"/>
<text x="1500.7" y="324.0" font-family="Arial" font-size="8" fill="#c62828" text-anchor="middle">P=2.475</text>
<line x1="1074.5" y1="862.3" x2="1074.5" y2="910.3" stroke="#d32f2f" stroke-width="2.0"/>
<polygon points="1074.5,934.3 1062.5,914.3 1086.5,914.3" fill="#ffebee" stroke="#d32f2f" stroke-width="2.0"/>
<text x="1074.5" y="947.3" font-family="Arial" font-size="8" fill="#c62828" text-anchor="middle">P=3.0860000000000003</text>
<line x1="859.4" y1="-33.7" x2="859.4" y2="14.3" stroke="#d32f2f" stroke-width="2.0"/>
<polygon points="859.4,38.3 847.4,18.3 871.4,18.3" fill="#ffebee" stroke="#d32f2f" stroke-width="2.0"/>
<text x="859.4" y="51.3" font-family="Arial" font-size="8" fill="#c62828" text-anchor="middle">P=2.24</text>
<line x1="405.8" y1="740.5" x2="405.8" y2="788.5" stroke="#d32f2f" stroke-width="2.0"/>
<polygon points="405.8,812.5 393.8,792.5 417.8,792.5" fill="#ffebee" stroke="#d32f2f" stroke-width="2.0"/>
<text x="405.8" y="825.5" font-family="Arial" font-size="8" fill="#c62828" text-anchor="middle">P=1.39</text>
<line x1="1090.2" y1="622.3" x2="1090.2" y2="670.3" stroke="#d32f2f" stroke-width="2.0"/>
<polygon points="1090.2,694.3 1078.2,674.3 1102.2,674.3" fill="#ffebee" stroke="#d32f2f" stroke-width="2.0"/>
<text x="1090.2" y="707.3" font-family="Arial" font-size="8" fill="#c62828" text-anchor="middle">P=2.81</text>
<line x1="357.7" y1="46.7" x2="357.7" y2="94.7" stroke="#d32f2f" stroke-width="2.0"/>
<polygon points="357.7,118.7 345.7,98.7 369.7,98.7" fill="#ffebee" stroke="#d32f2f" stroke-width="2.0"/>
<text x="357.7" y="131.7" font-family="Arial" font-size="8" fill="#c62828" text-anchor="middle">P=2.06</text>
<line x1="1094.8" y1="15.7" x2="1094.8" y2="63.7" stroke="#d32f2f" stroke-width="2.0"/>
<polygon points="1094.8,87.7 1082.8,67.7 1106.8,67.7" fill="#ffebee" stroke="#d32f2f" stroke-width="2.0"/>
<text x="1094.8" y="100.7" font-family="Arial" font-size="8" fill="#c62828" text-anchor="middle">P=2.835</text>
<line x1="635.5" y1="881.5" x2="635.5" y2="969.5" stroke="#d32f2f" stroke-width="2.0"/>
<polygon points="635.5,993.5 623.5,973.5 647.5,973.5" fill="#ffebee" stroke="#d32f2f" stroke-width="2.0"/>
<text x="635.5" y="1006.5" font-family="Arial" font-size="8" fill="#c62828" text-anchor="middle">P=0.8</text>
<line x1="806.8" y1="201.0" x2="806.8" y2="289.0" stroke="#d32f2f" stroke-width="2.0"/>
<polygon points="806.8,313.0 794.8,293.0 818.8,293.0" fill="#ffebee" stroke="#d32f2f" stroke-width="2.0"/>
<text x="806.8" y="326.0" font-family="Arial" font-size="8" fill="#c62828" text-anchor="middle">P=4.0</text>
<circle cx="221.4" cy="564.5" r="16.0" fill="#fff9c4" stroke="#f57f17" stroke-width="2.5"/>
<text x="221.4" y="568.5" font-family="Arial" font-size="9" font-weight="bold" text-anchor="middle" fill="#f57f17">BUS1</text>
<text x="221.4" y="592.5" font-family="Arial" font-size="8" fill="#757575" text-anchor="middle">345kV</text>
<circle cx="679.7" cy="-193.5" r="16.0" fill="#fff9c4" stroke="#f57f17" stroke-width="2.5"/>
<text x="679.7" y="-189.5" font-family="Arial" font-size="9" font-weight="bold" text-anchor="middle" fill="#f57f17">BUS2</text>
<text x="679.7" y="-165.5" font-family="Arial" font-size="8" fill="#757575" text-anchor="middle">345kV</text>
<circle cx="1266.5" cy="184.1" r="16.0" fill="#fff9c4" stroke="#f57f17" stroke-width="2.5"/>
<text x="1266.5" y="188.1" font-family="Arial" font-size="9" font-weight="bold" text-anchor="middle" fill="#f57f17">LOAD3</text>
<text x="1266.5" y="212.1" font-family="Arial" font-size="8" fill="#757575" text-anchor="middle">345kV</text>
<circle cx="1090.7" cy="1326.4" r="16.0" fill="#fff9c4" stroke="#f57f17" stroke-width="2.5"/>
<text x="1090.7" y="1330.4" font-family="Arial" font-size="9" font-weight="bold" text-anchor="middle" fill="#f57f17">LOAD4</text>
<text x="1090.7" y="1354.4" font-family="Arial" font-size="8" fill="#757575" text-anchor="middle">345kV</text>
<circle cx="1139.3" cy="-220.7" r="16.0" fill="#fff9c4" stroke="#f57f17" stroke-width="2.5"/>
<text x="1139.3" y="-216.7" font-family="Arial" font-size="9" font-weight="bold" text-anchor="middle" fill="#f57f17">BUS5</text>
<text x="1139.3" y="-192.7" font-family="Arial" font-size="8" fill="#757575" text-anchor="middle">345kV</text>
<circle cx="204.6" cy="882.2" r="16.0" fill="#fff9c4" stroke="#f57f17" stroke-width="2.5"/>
<text x="204.6" y="886.2" font-family="Arial" font-size="9" font-weight="bold" text-anchor="middle" fill="#f57f17">BUS6</text>
<text x="204.6" y="910.2" font-family="Arial" font-size="8" fill="#757575" text-anchor="middle">345kV</text>
<circle cx="452.0" cy="495.7" r="16.0" fill="#fff9c4" stroke="#f57f17" stroke-width="2.5"/>
<text x="452.0" y="499.7" font-family="Arial" font-size="9" font-weight="bold" text-anchor="middle" fill="#f57f17">LOAD7</text>
<text x="452.0" y="523.7" font-family="Arial" font-size="8" fill="#757575" text-anchor="middle">345kV</text>
<circle cx="870.8" cy="725.8" r="16.0" fill="#fff9c4" stroke="#f57f17" stroke-width="2.5"/>
<text x="870.8" y="729.8" font-family="Arial" font-size="9" font-weight="bold" text-anchor="middle" fill="#f57f17">LOAD8</text>
<text x="870.8" y="753.8" font-family="Arial" font-size="8" fill="#757575" text-anchor="middle">345kV</text>
<circle cx="272.0" cy="329.4" r="16.0" fill="#fff9c4" stroke="#f57f17" stroke-width="2.5"/>
<text x="272.0" y="333.4" font-family="Arial" font-size="9" font-weight="bold" text-anchor="middle" fill="#f57f17">BUS9</text>
<text x="272.0" y="357.4" font-family="Arial" font-size="8" fill="#757575" text-anchor="middle">345kV</text>
<circle cx="662.1" cy="1361.5" r="16.0" fill="#fff9c4" stroke="#f57f17" stroke-width="2.5"/>
<text x="662.1" y="1365.5" font-family="Arial" font-size="9" font-weight="bold" text-anchor="middle" fill="#f57f17">BUS10</text>
<text x="662.1" y="1389.5" font-family="Arial" font-size="8" fill="#757575" text-anchor="middle">345kV</text>
<circle cx="1145.2" cy="1092.2" r="16.0" fill="#fff9c4" stroke="#f57f17" stroke-width="2.5"/>
<text x="1145.2" y="1096.2" font-family="Arial" font-size="9" font-weight="bold" text-anchor="middle" fill="#f57f17">BUS11</text>
<text x="1145.2" y="1120.2" font-family="Arial" font-size="8" fill="#757575" text-anchor="middle">345kV</text>
<circle cx="377.2" cy="1225.3" r="16.0" fill="#fff9c4" stroke="#f57f17" stroke-width="2.5"/>
<text x="377.2" y="1229.3" font-family="Arial" font-size="9" font-weight="bold" text-anchor="middle" fill="#f57f17">LOAD12</text>
<text x="377.2" y="1253.3" font-family="Arial" font-size="8" fill="#757575" text-anchor="middle">138kV</text>
<circle cx="879.9" cy="1209.3" r="16.0" fill="#fff9c4" stroke="#f57f17" stroke-width="2.5"/>
<text x="879.9" y="1213.3" font-family="Arial" font-size="9" font-weight="bold" text-anchor="middle" fill="#f57f17">BUS13</text>
<text x="879.9" y="1237.3" font-family="Arial" font-size="8" fill="#757575" text-anchor="middle">345kV</text>
<circle cx="496.5" cy="243.2" r="16.0" fill="#fff9c4" stroke="#f57f17" stroke-width="2.5"/>
<text x="496.5" y="247.2" font-family="Arial" font-size="9" font-weight="bold" text-anchor="middle" fill="#f57f17">BUS14</text>
<text x="496.5" y="271.2" font-family="Arial" font-size="8" fill="#757575" text-anchor="middle">345kV</text>
<circle cx="420.2" cy="988.6" r="16.0" fill="#fff9c4" stroke="#f57f17" stroke-width="2.5"/>
<text x="420.2" y="992.6" font-family="Arial" font-size="9" font-weight="bold" text-anchor="middle" fill="#f57f17">LOAD15</text>
<text x="420.2" y="1016.6" font-family="Arial" font-size="8" fill="#757575" text-anchor="middle">345kV</text>
<circle cx="1671.9" cy="407.8" r="16.0" fill="#fff9c4" stroke="#f57f17" stroke-width="2.5"/>
<text x="1671.9" y="411.8" font-family="Arial" font-size="9" font-weight="bold" text-anchor="middle" fill="#f57f17">LOAD16</text>
<text x="1671.9" y="435.8" font-family="Arial" font-size="8" fill="#757575" text-anchor="middle">345kV</text>
<circle cx="1312.6" cy="713.9" r="16.0" fill="#fff9c4" stroke="#f57f17" stroke-width="2.5"/>
<text x="1312.6" y="717.9" font-family="Arial" font-size="9" font-weight="bold" text-anchor="middle" fill="#f57f17">BUS17</text>
<text x="1312.6" y="741.9" font-family="Arial" font-size="8" fill="#757575" text-anchor="middle">345kV</text>
<circle cx="908.7" cy="464.6" r="16.0" fill="#fff9c4" stroke="#f57f17" stroke-width="2.5"/>
<text x="908.7" y="468.6" font-family="Arial" font-size="9" font-weight="bold" text-anchor="middle" fill="#f57f17">LOAD18</text>
<text x="908.7" y="492.6" font-family="Arial" font-size="8" fill="#757575" text-anchor="middle">345kV</text>
<circle cx="859.3" cy="969.7" r="16.0" fill="#fff9c4" stroke="#f57f17" stroke-width="2.5"/>
<text x="859.3" y="973.7" font-family="Arial" font-size="9" font-weight="bold" text-anchor="middle" fill="#f57f17">BUS19</text>
<text x="859.3" y="997.7" font-family="Arial" font-size="8" fill="#757575" text-anchor="middle">345kV</text>
<circle cx="1739.8" cy="681.2" r="16.0" fill="#fff9c4" stroke="#f57f17" stroke-width="2.5"/>
<text x="1739.8" y="685.2" font-family="Arial" font-size="9" font-weight="bold" text-anchor="middle" fill="#f57f17">LOAD20</text>
<text x="1739.8" y="709.2" font-family="Arial" font-size="8" fill="#757575" text-anchor="middle">138kV</text>
<circle cx="676.2" cy="402.9" r="16.0" fill="#fff9c4" stroke="#f57f17" stroke-width="2.5"/>
<text x="676.2" y="406.9" font-family="Arial" font-size="9" font-weight="bold" text-anchor="middle" fill="#f57f17">LOAD21</text>
<text x="676.2" y="430.9" font-family="Arial" font-size="8" fill="#757575" text-anchor="middle">345kV</text>
<circle cx="1408.1" cy="1185.6" r="16.0" fill="#fff9c4" stroke="#f57f17" stroke-width="2.5"/>
<text x="1408.1" y="1189.6" font-family="Arial" font-size="9" font-weight="bold" text-anchor="middle" fill="#f57f17">BUS22</text>
<text x="1408.1" y="1213.6" font-family="Arial" font-size="8" fill="#757575" text-anchor="middle">345kV</text>
<circle cx="1500.7" cy="239.0" r="16.0" fill="#fff9c4" stroke="#f57f17" stroke-width="2.5"/>
<text x="1500.7" y="243.0" font-family="Arial" font-size="9" font-weight="bold" text-anchor="middle" fill="#f57f17">LOAD23</text>
<text x="1500.7" y="267.0" font-family="Arial" font-size="8" fill="#757575" text-anchor="middle">345kV</text>
<circle cx="1074.5" cy="862.3" r="16.0" fill="#fff9c4" stroke="#f57f17" stroke-width="2.5"/>
<text x="1074.5" y="866.3" font-family="Arial" font-size="9" font-weight="bold" text-anchor="middle" fill="#f57f17">LOAD24</text>
<text x="1074.5" y="890.3" font-family="Arial" font-size="8" fill="#757575" text-anchor="middle">345kV</text>
<circle cx="859.4" cy="-33.7" r="16.0" fill="#fff9c4" stroke="#f57f17" stroke-width="2.5"/>
<text x="859.4" y="-29.7" font-family="Arial" font-size="9" font-weight="bold" text-anchor="middle" fill="#f57f17">LOAD25</text>
<text x="859.4" y="-5.7" font-family="Arial" font-size="8" fill="#757575" text-anchor="middle">345kV</text>
<circle cx="405.8" cy="740.5" r="16.0" fill="#fff9c4" stroke="#f57f17" stroke-width="2.5"/>
<text x="405.8" y="744.5" font-family="Arial" font-size="9" font-weight="bold" text-anchor="middle" fill="#f57f17">LOAD26</text>
<text x="405.8" y="768.5" font-family="Arial" font-size="8" fill="#757575" text-anchor="middle">345kV</text>
<circle cx="1090.2" cy="622.3" r="16.0" fill="#fff9c4" stroke="#f57f17" stroke-width="2.5"/>
<text x="1090.2" y="626.3" font-family="Arial" font-size="9" font-weight="bold" text-anchor="middle" fill="#f57f17">LOAD27</text>
<text x="1090.2" y="650.3" font-family="Arial" font-size="8" fill="#757575" text-anchor="middle">345kV</text>
<circle cx="357.7" cy="46.7" r="16.0" fill="#fff9c4" stroke="#f57f17" stroke-width="2.5"/>
<text x="357.7" y="50.7" font-family="Arial" font-size="9" font-weight="bold" text-anchor="middle" fill="#f57f17">LOAD28</text>
<text x="357.7" y="74.7" font-family="Arial" font-size="8" fill="#757575" text-anchor="middle">345kV</text>
<circle cx="1094.8" cy="15.7" r="16.0" fill="#fff9c4" stroke="#f57f17" stroke-width="2.5"/>
<text x="1094.8" y="19.7" font-family="Arial" font-size="9" font-weight="bold" text-anchor="middle" fill="#f57f17">LOAD29</text>
<text x="1094.8" y="43.7" font-family="Arial" font-size="8" fill="#757575" text-anchor="middle">345kV</text>
<circle cx="643.5" cy="641.2" r="16.0" fill="#e3f2fd" stroke="#1565c0" stroke-width="2.5"/>
<text x="643.5" y="645.2" font-family="Arial" font-size="9" font-weight="bold" text-anchor="middle" fill="#1565c0">GEN30</text>
<text x="643.5" y="669.2" font-family="Arial" font-size="8" fill="#757575" text-anchor="middle">34kV</text>
<circle cx="635.5" cy="881.5" r="16.0" fill="#e3f2fd" stroke="#1565c0" stroke-width="2.5"/>
<text x="635.5" y="885.5" font-family="Arial" font-size="9" font-weight="bold" text-anchor="middle" fill="#1565c0">GEN31</text>
<text x="635.5" y="909.5" font-family="Arial" font-size="8" fill="#757575" text-anchor="middle">34kV</text>
<circle cx="656.2" cy="1121.1" r="16.0" fill="#e3f2fd" stroke="#1565c0" stroke-width="2.5"/>
<text x="656.2" y="1125.1" font-family="Arial" font-size="9" font-weight="bold" text-anchor="middle" fill="#1565c0">GEN32</text>
<text x="656.2" y="1149.1" font-family="Arial" font-size="8" fill="#757575" text-anchor="middle">21kV</text>
<circle cx="1227.0" cy="424.5" r="16.0" fill="#e3f2fd" stroke="#1565c0" stroke-width="2.5"/>
<text x="1227.0" y="428.5" font-family="Arial" font-size="9" font-weight="bold" text-anchor="middle" fill="#1565c0">GEN33</text>
<text x="1227.0" y="452.5" font-family="Arial" font-size="8" fill="#757575" text-anchor="middle">21kV</text>
<circle cx="1342.0" cy="953.9" r="16.0" fill="#e3f2fd" stroke="#1565c0" stroke-width="2.5"/>
<text x="1342.0" y="957.9" font-family="Arial" font-size="9" font-weight="bold" text-anchor="middle" fill="#1565c0">GEN34</text>
<text x="1342.0" y="981.9" font-family="Arial" font-size="8" fill="#757575" text-anchor="middle">16kV</text>
<circle cx="1450.4" cy="513.8" r="16.0" fill="#e3f2fd" stroke="#1565c0" stroke-width="2.5"/>
<text x="1450.4" y="517.8" font-family="Arial" font-size="9" font-weight="bold" text-anchor="middle" fill="#1565c0">GEN35</text>
<text x="1450.4" y="541.8" font-family="Arial" font-size="8" fill="#757575" text-anchor="middle">16kV</text>
<circle cx="1534.6" cy="806.5" r="16.0" fill="#e3f2fd" stroke="#1565c0" stroke-width="2.5"/>
<text x="1534.6" y="810.5" font-family="Arial" font-size="9" font-weight="bold" text-anchor="middle" fill="#1565c0">GEN36</text>
<text x="1534.6" y="834.5" font-family="Arial" font-size="8" fill="#757575" text-anchor="middle">12kV</text>
<circle cx="627.0" cy="41.2" r="16.0" fill="#e3f2fd" stroke="#1565c0" stroke-width="2.5"/>
<text x="627.0" y="45.2" font-family="Arial" font-size="9" font-weight="bold" text-anchor="middle" fill="#1565c0">GEN37</text>
<text x="627.0" y="69.2" font-family="Arial" font-size="8" fill="#757575" text-anchor="middle">12kV</text>
<circle cx="1039.2" cy="262.7" r="16.0" fill="#e3f2fd" stroke="#1565c0" stroke-width="2.5"/>
<text x="1039.2" y="266.7" font-family="Arial" font-size="9" font-weight="bold" text-anchor="middle" fill="#1565c0">GEN38</text>
<text x="1039.2" y="290.7" font-family="Arial" font-size="8" fill="#757575" text-anchor="middle">34kV</text>
<circle cx="806.8" cy="201.0" r="16.0" fill="#fff9c4" stroke="#f57f17" stroke-width="2.5"/>
<text x="806.8" y="205.0" font-family="Arial" font-size="9" font-weight="bold" text-anchor="middle" fill="#f57f17">GEN39</text>
<text x="806.8" y="229.0" font-family="Arial" font-size="8" fill="#757575" text-anchor="middle">345kV</text>
<rect x="50" y="1130" width="1700" height="55" fill="#f5f5f5" stroke="#bdbdbd" rx="5"/>
<text x="70" y="1150" font-family="Arial" font-size="12" font-weight="bold">Legend:</text>
<circle cx="170" cy="1155" r="12" fill="#e3f2fd" stroke="#1976d2" stroke-width="2"/>
<text x="165" y="1160" font-family="Arial" font-size="10" font-weight="bold" fill="#1976d2">G</text>
<text x="190" y="1160" font-family="Arial" font-size="11">Generator</text>
<rect x="270" y="1145" width="20" height="20" fill="#fff3e0" stroke="#ff6f00" stroke-width="2" rx="3"/>
<text x="300" y="1160" font-family="Arial" font-size="11">Exciter</text>
<rect x="380" y="1145" width="20" height="20" fill="#e8f5e9" stroke="#2e7d32" stroke-width="2" rx="3"/>
<text x="410" y="1160" font-family="Arial" font-size="11">Governor</text>
<circle cx="510" cy="1150" r="8" fill="#f3e5f5" stroke="#7b1fa2" stroke-width="2"/>
<circle cx="520" cy="1160" r="8" fill="#f3e5f5" stroke="#7b1fa2" stroke-width="2"/>
<text x="540" y="1160" font-family="Arial" font-size="11">Transformer</text>
<line x1="640" y1="1155" x2="690" y2="1155" stroke="#424242" stroke-width="3"/>
<text x="700" y="1160" font-family="Arial" font-size="11">Transmission Line</text>
<rect x="830" y="1142" width="8" height="26" fill="#212121" rx="2"/>
<text x="850" y="1160" font-family="Arial" font-size="11">Bus</text>
<polygon points="920,1165 935,1145 950,1165" fill="#ffebee" stroke="#d32f2f" stroke-width="2"/>
<text x="960" y="1160" font-family="Arial" font-size="11">Load</text>
</svg>