<svg width="1800" height="1000" xmlns="http://www.w3.org/2000/svg">
<defs>
<marker id="arrowhead" markerWidth="10" markerHeight="7" refX="9" refY="3.5" orient="auto">
<polygon points="0 0, 10 3.5, 0 7" fill="#666"/>
</marker>
</defs>
<rect width="100%" height="100%" fill="#fafafa"/>
<text x="50" y="35" font-family="Arial" font-size="20" font-weight="bold" fill="#1a237e">Auto-Layout Power System Visualization (hierarchical)</text>
<text x="50" y="55" font-family="Arial" font-size="12" fill="#666">Positions computed from electrical distances (impedance-based)</text>
<rect x="50" y="930" width="1700" height="55" fill="#f5f5f5" stroke="#bdbdbd" rx="5"/>
<text x="70" y="950" font-family="Arial" font-size="12" font-weight="bold">Legend:</text>
<circle cx="170" cy="955" r="12" fill="#e3f2fd" stroke="#1976d2" stroke-width="2"/>
<text x="165" y="960" font-family="Arial" font-size="10" font-weight="bold" fill="#1976d2">G</text>
<text x="190" y="960" font-family="Arial" font-size="11">Generator</text>
<rect x="270" y="945" width="20" height="20" fill="#fff3e0" stroke="#ff6f00" stroke-width="2" rx="3"/>
<text x="300" y="960" font-family="Arial" font-size="11">Exciter</text>
<rect x="380" y="945" width="20" height="20" fill="#e8f5e9" stroke="#2e7d32" stroke-width="2" rx="3"/>
<text x="410" y="960" font-family="Arial" font-size="11">Governor</text>
<circle cx="510" cy="950" r="8" fill="#f3e5f5" stroke="#7b1fa2" stroke-width="2"/>
<circle cx="520" cy="960" r="8" fill="#f3e5f5" stroke="#7b1fa2" stroke-width="2"/>
<text x="540" y="960" font-family="Arial" font-size="11">Transformer</text>
<line x1="640" y1="955" x2="690" y2="955" stroke="#424242" stroke-width="3"/>
<text x="700" y="960" font-family="Arial" font-size="11">Transmission Line</text>
<rect x="830" y="942" width="8" height="26" fill="#212121" rx="2"/>
<text x="850" y="960" font-family="Arial" font-size="11">Bus</text>
<polygon points="920,965 935,945 950,965" fill="#ffebee" stroke="#d32f2f" stroke-width="2"/>
<text x="960" y="960" font-family="Arial" font-size="11">Load</text>
<line x1="150.0" y1="499.4" x2="205.6" y2="499.4" stroke="#424242" stroke-width="2"/>
<text x="177.8" y="484.4" font-family="Arial" font-size="9" fill="#616161" text-anchor="middle" transform="rotate(0.0 177.8 484.4)">X=0.041</text>
<line x1="150.0" y1="499.4" x2="1650.0" y2="499.4" stroke="#424242" stroke-width="2"/>
<text x="900.0" y="484.4" font-family="Arial" font-size="9" fill="#616161" text-anchor="middle" transform="rotate(0.0 900.0 484.4)">X=0.025</text>
<line x1="205.6" y1="499.4" x2="261.1" y2="499.4" stroke="#424242" stroke-width="2"/>
<text x="233.3" y="484.4" font-family="Arial" font-size="9" fill="#616161" text-anchor="middle" transform="rotate(0.0 233.3 484.4)">X=0.015</text>
<line x1="205.6" y1="499.4" x2="1372.2" y2="499.4" stroke="#424242" stroke-width="2"/>
<text x="788.9" y="484.4" font-family="Arial" font-size="9" fill="#616161" text-anchor="middle" transform="rotate(0.0 788.9 484.4)">X=0.009</text>
<line x1="261.1" y1="499.4" x2="316.7" y2="499.4" stroke="#424242" stroke-width="2"/>
<text x="288.9" y="484.4" font-family="Arial" font-size="9" fill="#616161" text-anchor="middle" transform="rotate(0.0 288.9 484.4)">X=0.021</text>
<line x1="261.1" y1="499.4" x2="1038.9" y2="499.4" stroke="#424242" stroke-width="2"/>
<text x="650.0" y="484.4" font-family="Arial" font-size="9" fill="#616161" text-anchor="middle" transform="rotate(0.0 650.0 484.4)">X=0.013</text>
<line x1="316.7" y1="499.4" x2="372.2" y2="499.4" stroke="#424242" stroke-width="2"/>
<text x="344.4" y="484.4" font-family="Arial" font-size="9" fill="#616161" text-anchor="middle" transform="rotate(0.0 344.4 484.4)">X=0.013</text>
<line x1="316.7" y1="499.4" x2="816.7" y2="499.4" stroke="#424242" stroke-width="2"/>
<text x="566.7" y="484.4" font-family="Arial" font-size="9" fill="#616161" text-anchor="middle" transform="rotate(0.0 566.7 484.4)">X=0.013</text>
<line x1="372.2" y1="499.4" x2="427.8" y2="499.4" stroke="#424242" stroke-width="2"/>
<text x="400.0" y="484.4" font-family="Arial" font-size="9" fill="#616161" text-anchor="middle" transform="rotate(0.0 400.0 484.4)">X=0.003</text>
<line x1="372.2" y1="499.4" x2="538.9" y2="499.4" stroke="#424242" stroke-width="2"/>
<text x="455.6" y="484.4" font-family="Arial" font-size="9" fill="#616161" text-anchor="middle" transform="rotate(0.0 455.6 484.4)">X=0.011</text>
<line x1="427.8" y1="499.4" x2="483.3" y2="499.4" stroke="#424242" stroke-width="2"/>
<text x="455.6" y="484.4" font-family="Arial" font-size="9" fill="#616161" text-anchor="middle" transform="rotate(0.0 455.6 484.4)">X=0.009</text>
<line x1="427.8" y1="499.4" x2="705.6" y2="499.4" stroke="#424242" stroke-width="2"/>
<text x="566.7" y="484.4" font-family="Arial" font-size="9" fill="#616161" text-anchor="middle" transform="rotate(0.0 566.7 484.4)">X=0.008</text>
<line x1="483.3" y1="499.4" x2="538.9" y2="499.4" stroke="#424242" stroke-width="2"/>
<text x="511.1" y="484.4" font-family="Arial" font-size="9" fill="#616161" text-anchor="middle" transform="rotate(0.0 511.1 484.4)">X=0.005</text>
<line x1="538.9" y1="499.4" x2="594.4" y2="499.4" stroke="#424242" stroke-width="2"/>
<text x="566.7" y="484.4" font-family="Arial" font-size="9" fill="#616161" text-anchor="middle" transform="rotate(0.0 566.7 484.4)">X=0.036</text>
<line x1="594.4" y1="499.4" x2="1650.0" y2="499.4" stroke="#424242" stroke-width="2"/>
<text x="1122.2" y="484.4" font-family="Arial" font-size="9" fill="#616161" text-anchor="middle" transform="rotate(0.0 1122.2 484.4)">X=0.025</text>
<line x1="650.0" y1="499.4" x2="705.6" y2="499.4" stroke="#424242" stroke-width="2"/>
<text x="677.8" y="484.4" font-family="Arial" font-size="9" fill="#616161" text-anchor="middle" transform="rotate(0.0 677.8 484.4)">X=0.004</text>
<line x1="650.0" y1="499.4" x2="761.1" y2="499.4" stroke="#424242" stroke-width="2"/>
<text x="705.6" y="484.4" font-family="Arial" font-size="9" fill="#616161" text-anchor="middle" transform="rotate(0.0 705.6 484.4)">X=0.004</text>
<line x1="761.1" y1="499.4" x2="816.7" y2="499.4" stroke="#424242" stroke-width="2"/>
<text x="788.9" y="484.4" font-family="Arial" font-size="9" fill="#616161" text-anchor="middle" transform="rotate(0.0 788.9 484.4)">X=0.010</text>
<line x1="816.7" y1="499.4" x2="872.2" y2="499.4" stroke="#424242" stroke-width="2"/>
<text x="844.4" y="484.4" font-family="Arial" font-size="9" fill="#616161" text-anchor="middle" transform="rotate(0.0 844.4 484.4)">X=0.022</text>
<line x1="872.2" y1="499.4" x2="927.8" y2="499.4" stroke="#424242" stroke-width="2"/>
<text x="900.0" y="484.4" font-family="Arial" font-size="9" fill="#616161" text-anchor="middle" transform="rotate(0.0 900.0 484.4)">X=0.009</text>
<line x1="927.8" y1="499.4" x2="983.3" y2="499.4" stroke="#424242" stroke-width="2"/>
<text x="955.6" y="484.4" font-family="Arial" font-size="9" fill="#616161" text-anchor="middle" transform="rotate(0.0 955.6 484.4)">X=0.009</text>
<line x1="927.8" y1="499.4" x2="1094.4" y2="499.4" stroke="#424242" stroke-width="2"/>
<text x="1011.1" y="484.4" font-family="Arial" font-size="9" fill="#616161" text-anchor="middle" transform="rotate(0.0 1011.1 484.4)">X=0.019</text>
<line x1="927.8" y1="499.4" x2="1150.0" y2="499.4" stroke="#424242" stroke-width="2"/>
<text x="1038.9" y="484.4" font-family="Arial" font-size="9" fill="#616161" text-anchor="middle" transform="rotate(0.0 1038.9 484.4)">X=0.013</text>
<line x1="927.8" y1="499.4" x2="1316.7" y2="499.4" stroke="#424242" stroke-width="2"/>
<text x="1122.2" y="484.4" font-family="Arial" font-size="9" fill="#616161" text-anchor="middle" transform="rotate(0.0 1122.2 484.4)">X=0.006</text>
<line x1="983.3" y1="499.4" x2="1038.9" y2="499.4" stroke="#424242" stroke-width="2"/>
<text x="1011.1" y="484.4" font-family="Arial" font-size="9" fill="#616161" text-anchor="middle" transform="rotate(0.0 1011.1 484.4)">X=0.008</text>
<line x1="983.3" y1="499.4" x2="1483.3" y2="499.4" stroke="#424242" stroke-width="2"/>
<text x="1233.3" y="484.4" font-family="Arial" font-size="9" fill="#616161" text-anchor="middle" transform="rotate(0.0 1233.3 484.4)">X=0.017</text>
<line x1="1150.0" y1="499.4" x2="1205.6" y2="499.4" stroke="#424242" stroke-width="2"/>
<text x="1177.8" y="484.4" font-family="Arial" font-size="9" fill="#616161" text-anchor="middle" transform="rotate(0.0 1177.8 484.4)">X=0.014</text>
<line x1="1205.6" y1="499.4" x2="1261.1" y2="499.4" stroke="#424242" stroke-width="2"/>
<text x="1233.3" y="484.4" font-family="Arial" font-size="9" fill="#616161" text-anchor="middle" transform="rotate(0.0 1233.3 484.4)">X=0.010</text>
<line x1="1261.1" y1="499.4" x2="1316.7" y2="499.4" stroke="#424242" stroke-width="2"/>
<text x="1288.9" y="484.4" font-family="Arial" font-size="9" fill="#616161" text-anchor="middle" transform="rotate(0.0 1288.9 484.4)">X=0.035</text>
<line x1="1372.2" y1="499.4" x2="1427.8" y2="499.4" stroke="#424242" stroke-width="2"/>
<text x="1400.0" y="484.4" font-family="Arial" font-size="9" fill="#616161" text-anchor="middle" transform="rotate(0.0 1400.0 484.4)">X=0.032</text>
<line x1="1427.8" y1="499.4" x2="1483.3" y2="499.4" stroke="#424242" stroke-width="2"/>
<text x="1455.6" y="484.4" font-family="Arial" font-size="9" fill="#616161" text-anchor="middle" transform="rotate(0.0 1455.6 484.4)">X=0.015</text>
<line x1="1427.8" y1="499.4" x2="1538.9" y2="499.4" stroke="#424242" stroke-width="2"/>
<text x="1483.3" y="484.4" font-family="Arial" font-size="9" fill="#616161" text-anchor="middle" transform="rotate(0.0 1483.3 484.4)">X=0.047</text>
<line x1="1427.8" y1="499.4" x2="1594.4" y2="499.4" stroke="#424242" stroke-width="2"/>
<text x="1511.1" y="484.4" font-family="Arial" font-size="9" fill="#616161" text-anchor="middle" transform="rotate(0.0 1511.1 484.4)">X=0.062</text>
<line x1="1538.9" y1="499.4" x2="1594.4" y2="499.4" stroke="#424242" stroke-width="2"/>
<text x="1566.7" y="484.4" font-family="Arial" font-size="9" fill="#616161" text-anchor="middle" transform="rotate(0.0 1566.7 484.4)">X=0.015</text>
<line x1="205.6" y1="499.4" x2="621.9" y2="354.6" stroke="#7b1fa2" stroke-width="3"/>
<line x1="650.3" y1="344.8" x2="1066.7" y2="200.0" stroke="#7b1fa2" stroke-width="3"/>
<circle cx="628.6" cy="352.3" r="10" fill="#f3e5f5" stroke="#7b1fa2" stroke-width="2"/>
<circle cx="643.7" cy="347.1" r="10" fill="#f3e5f5" stroke="#7b1fa2" stroke-width="2"/>
<text x="636.1" y="374.7" font-family="Arial" font-size="8" fill="#7b1fa2" text-anchor="middle">X=0.0181</text>
<line x1="1122.2" y1="200.0" x2="788.8" y2="343.8" stroke="#7b1fa2" stroke-width="3"/>
<line x1="761.2" y1="355.7" x2="427.8" y2="499.4" stroke="#7b1fa2" stroke-width="3"/>
<circle cx="782.3" cy="346.6" r="10" fill="#f3e5f5" stroke="#7b1fa2" stroke-width="2"/>
<circle cx="767.7" cy="352.9" r="10" fill="#f3e5f5" stroke="#7b1fa2" stroke-width="2"/>
<text x="775.0" y="374.7" font-family="Arial" font-size="8" fill="#7b1fa2" text-anchor="middle">X=0.025</text>
<line x1="650.0" y1="499.4" x2="662.5" y2="364.7" stroke="#7b1fa2" stroke-width="3"/>
<line x1="665.3" y1="334.8" x2="677.8" y2="200.0" stroke="#7b1fa2" stroke-width="3"/>
<circle cx="663.1" cy="357.7" r="10" fill="#f3e5f5" stroke="#7b1fa2" stroke-width="2"/>
<circle cx="664.6" cy="341.8" r="10" fill="#f3e5f5" stroke="#7b1fa2" stroke-width="2"/>
<text x="663.9" y="374.7" font-family="Arial" font-size="8" fill="#7b1fa2" text-anchor="middle">X=0.02</text>
<line x1="872.2" y1="798.9" x2="796.2" y2="662.3" stroke="#7b1fa2" stroke-width="3"/>
<line x1="781.6" y1="636.1" x2="705.6" y2="499.4" stroke="#7b1fa2" stroke-width="3"/>
<circle cx="792.8" cy="656.1" r="10" fill="#f3e5f5" stroke="#7b1fa2" stroke-width="2"/>
<circle cx="785.0" cy="642.2" r="10" fill="#f3e5f5" stroke="#7b1fa2" stroke-width="2"/>
<text x="788.9" y="674.2" font-family="Arial" font-size="8" fill="#7b1fa2" text-anchor="middle">X=0.0435</text>
<line x1="872.2" y1="798.9" x2="821.9" y2="663.2" stroke="#7b1fa2" stroke-width="3"/>
<line x1="811.4" y1="635.1" x2="761.1" y2="499.4" stroke="#7b1fa2" stroke-width="3"/>
<circle cx="819.4" cy="656.7" r="10" fill="#f3e5f5" stroke="#7b1fa2" stroke-width="2"/>
<circle cx="813.9" cy="641.7" r="10" fill="#f3e5f5" stroke="#7b1fa2" stroke-width="2"/>
<text x="816.7" y="674.2" font-family="Arial" font-size="8" fill="#7b1fa2" text-anchor="middle">X=0.0435</text>
<line x1="1094.4" y1="499.4" x2="1018.4" y2="636.1" stroke="#7b1fa2" stroke-width="3"/>
<line x1="1003.8" y1="662.3" x2="927.8" y2="798.9" stroke="#7b1fa2" stroke-width="3"/>
<circle cx="1015.0" cy="642.2" r="10" fill="#f3e5f5" stroke="#7b1fa2" stroke-width="2"/>
<circle cx="1007.2" cy="656.1" r="10" fill="#f3e5f5" stroke="#7b1fa2" stroke-width="2"/>
<text x="1011.1" y="674.2" font-family="Arial" font-size="8" fill="#7b1fa2" text-anchor="middle">X=0.0138</text>
<line x1="1094.4" y1="499.4" x2="925.4" y2="359.3" stroke="#7b1fa2" stroke-width="3"/>
<line x1="902.3" y1="340.1" x2="733.3" y2="200.0" stroke="#7b1fa2" stroke-width="3"/>
<circle cx="920.0" cy="354.8" r="10" fill="#f3e5f5" stroke="#7b1fa2" stroke-width="2"/>
<circle cx="907.7" cy="344.6" r="10" fill="#f3e5f5" stroke="#7b1fa2" stroke-width="2"/>
<text x="913.9" y="374.7" font-family="Arial" font-size="8" fill="#7b1fa2" text-anchor="middle">X=0.0142</text>
<line x1="927.8" y1="798.9" x2="861.7" y2="514.1" stroke="#7b1fa2" stroke-width="3"/>
<line x1="854.9" y1="484.8" x2="788.9" y2="200.0" stroke="#7b1fa2" stroke-width="3"/>
<circle cx="860.1" cy="507.2" r="10" fill="#f3e5f5" stroke="#7b1fa2" stroke-width="2"/>
<circle cx="856.5" cy="491.6" r="10" fill="#f3e5f5" stroke="#7b1fa2" stroke-width="2"/>
<text x="858.3" y="524.4" font-family="Arial" font-size="8" fill="#7b1fa2" text-anchor="middle">X=0.018</text>
<line x1="1205.6" y1="499.4" x2="1036.5" y2="359.3" stroke="#7b1fa2" stroke-width="3"/>
<line x1="1013.5" y1="340.1" x2="844.4" y2="200.0" stroke="#7b1fa2" stroke-width="3"/>
<circle cx="1031.2" cy="354.8" r="10" fill="#f3e5f5" stroke="#7b1fa2" stroke-width="2"/>
<circle cx="1018.8" cy="344.6" r="10" fill="#f3e5f5" stroke="#7b1fa2" stroke-width="2"/>
<text x="1025.0" y="374.7" font-family="Arial" font-size="8" fill="#7b1fa2" text-anchor="middle">X=0.0143</text>
<line x1="1261.1" y1="499.4" x2="1092.1" y2="359.3" stroke="#7b1fa2" stroke-width="3"/>
<line x1="1069.0" y1="340.1" x2="900.0" y2="200.0" stroke="#7b1fa2" stroke-width="3"/>
<circle cx="1086.7" cy="354.8" r="10" fill="#f3e5f5" stroke="#7b1fa2" stroke-width="2"/>
<circle cx="1074.4" cy="344.6" r="10" fill="#f3e5f5" stroke="#7b1fa2" stroke-width="2"/>
<text x="1080.6" y="374.7" font-family="Arial" font-size="8" fill="#7b1fa2" text-anchor="middle">X=0.0272</text>
<line x1="1372.2" y1="499.4" x2="1176.1" y2="358.5" stroke="#7b1fa2" stroke-width="3"/>
<line x1="1151.7" y1="341.0" x2="955.6" y2="200.0" stroke="#7b1fa2" stroke-width="3"/>
<circle cx="1170.4" cy="354.4" r="10" fill="#f3e5f5" stroke="#7b1fa2" stroke-width="2"/>
<circle cx="1157.4" cy="345.1" r="10" fill="#f3e5f5" stroke="#7b1fa2" stroke-width="2"/>
<text x="1163.9" y="374.7" font-family="Arial" font-size="8" fill="#7b1fa2" text-anchor="middle">X=0.0232</text>
<line x1="1594.4" y1="499.4" x2="1316.1" y2="356.6" stroke="#7b1fa2" stroke-width="3"/>
<line x1="1289.4" y1="342.9" x2="1011.1" y2="200.0" stroke="#7b1fa2" stroke-width="3"/>
<circle cx="1309.9" cy="353.4" r="10" fill="#f3e5f5" stroke="#7b1fa2" stroke-width="2"/>
<circle cx="1295.7" cy="346.1" r="10" fill="#f3e5f5" stroke="#7b1fa2" stroke-width="2"/>
<text x="1302.8" y="374.7" font-family="Arial" font-size="8" fill="#7b1fa2" text-anchor="middle">X=0.0156</text>
<line x1="1066.7" y1="200.0" x2="1156.7" y2="200.0" stroke="#1976d2" stroke-width="2.0"/>
<circle cx="1156.7" cy="200.0" r="20.0" fill="#e3f2fd" stroke="#1976d2" stroke-width="3.0"/>
<text x="1156.7" y="205.0" font-family="Arial" font-size="12" font-weight="bold" fill="#1976d2" text-anchor="middle">GGENROU_1</text>
<text x="1196.7" y="192.0" font-family="Arial" font-size="8" fill="#1565c0" text-anchor="middle">M=8.4</text>
<text x="1196.7" y="203.0" font-family="Arial" font-size="8" fill="#1565c0" text-anchor="middle">1040MVA</text>
<line x1="1122.2" y1="200.0" x2="1212.2" y2="280.0" stroke="#1976d2" stroke-width="2.0"/>
<circle cx="1212.2" cy="280.0" r="20.0" fill="#e3f2fd" stroke="#1976d2" stroke-width="3.0"/>
<text x="1212.2" y="285.0" font-family="Arial" font-size="12" font-weight="bold" fill="#1976d2" text-anchor="middle">GGENROU_2</text>
<text x="1252.2" y="272.0" font-family="Arial" font-size="8" fill="#1565c0" text-anchor="middle">M=6.06</text>
<text x="1252.2" y="283.0" font-family="Arial" font-size="8" fill="#1565c0" text-anchor="middle">836MVA</text>
<line x1="677.8" y1="200.0" x2="587.8" y2="200.0" stroke="#1976d2" stroke-width="2.0"/>
<circle cx="587.8" cy="200.0" r="20.0" fill="#e3f2fd" stroke="#1976d2" stroke-width="3.0"/>
<text x="587.8" y="205.0" font-family="Arial" font-size="12" font-weight="bold" fill="#1976d2" text-anchor="middle">GGENROU_3</text>
<text x="547.8" y="192.0" font-family="Arial" font-size="8" fill="#1565c0" text-anchor="middle">M=7.16</text>
<text x="547.8" y="203.0" font-family="Arial" font-size="8" fill="#1565c0" text-anchor="middle">844MVA</text>
<line x1="733.3" y1="200.0" x2="643.3" y2="280.0" stroke="#1976d2" stroke-width="2.0"/>
<circle cx="643.3" cy="280.0" r="20.0" fill="#e3f2fd" stroke="#1976d2" stroke-width="3.0"/>
<text x="643.3" y="285.0" font-family="Arial" font-size="12" font-weight="bold" fill="#1976d2" text-anchor="middle">GGENROU_4</text>
<text x="603.3" y="272.0" font-family="Arial" font-size="8" fill="#1565c0" text-anchor="middle">M=5.72</text>
<text x="603.3" y="283.0" font-family="Arial" font-size="8" fill="#1565c0" text-anchor="middle">1175MVA</text>
<line x1="788.9" y1="200.0" x2="698.9" y2="200.0" stroke="#1976d2" stroke-width="2.0"/>
<circle cx="698.9" cy="200.0" r="20.0" fill="#e3f2fd" stroke="#1976d2" stroke-width="3.0"/>
<text x="698.9" y="205.0" font-family="Arial" font-size="12" font-weight="bold" fill="#1976d2" text-anchor="middle">GGENROU_5</text>
<text x="658.9" y="192.0" font-family="Arial" font-size="8" fill="#1565c0" text-anchor="middle">M=5.2</text>
<text x="658.9" y="203.0" font-family="Arial" font-size="8" fill="#1565c0" text-anchor="middle">1080MVA</text>
<line x1="844.4" y1="200.0" x2="754.4" y2="280.0" stroke="#1976d2" stroke-width="2.0"/>
<circle cx="754.4" cy="280.0" r="20.0" fill="#e3f2fd" stroke="#1976d2" stroke-width="3.0"/>
<text x="754.4" y="285.0" font-family="Arial" font-size="12" font-weight="bold" fill="#1976d2" text-anchor="middle">GGENROU_6</text>
<text x="714.4" y="272.0" font-family="Arial" font-size="8" fill="#1565c0" text-anchor="middle">M=6.96</text>
<text x="714.4" y="283.0" font-family="Arial" font-size="8" fill="#1565c0" text-anchor="middle">1086MVA</text>
<line x1="900.0" y1="200.0" x2="810.0" y2="200.0" stroke="#1976d2" stroke-width="2.0"/>
<circle cx="810.0" cy="200.0" r="20.0" fill="#e3f2fd" stroke="#1976d2" stroke-width="3.0"/>
<text x="810.0" y="205.0" font-family="Arial" font-size="12" font-weight="bold" fill="#1976d2" text-anchor="middle">GGENROU_7</text>
<text x="770.0" y="192.0" font-family="Arial" font-size="8" fill="#1565c0" text-anchor="middle">M=5.28</text>
<text x="770.0" y="203.0" font-family="Arial" font-size="8" fill="#1565c0" text-anchor="middle">1025MVA</text>
<line x1="955.6" y1="200.0" x2="1045.6" y2="200.0" stroke="#1976d2" stroke-width="2.0"/>
<circle cx="1045.6" cy="200.0" r="20.0" fill="#e3f2fd" stroke="#1976d2" stroke-width="3.0"/>
<text x="1045.6" y="205.0" font-family="Arial" font-size="12" font-weight="bold" fill="#1976d2" text-anchor="middle">GGENROU_8</text>
<text x="1085.6" y="192.0" font-family="Arial" font-size="8" fill="#1565c0" text-anchor="middle">M=4.86</text>
<text x="1085.6" y="203.0" font-family="Arial" font-size="8" fill="#1565c0" text-anchor="middle">970MVA</text>
<line x1="1011.1" y1="200.0" x2="1101.1" y2="280.0" stroke="#1976d2" stroke-width="2.0"/>
<circle cx="1101.1" cy="280.0" r="20.0" fill="#e3f2fd" stroke="#1976d2" stroke-width="3.0"/>
<text x="1101.1" y="285.0" font-family="Arial" font-size="12" font-weight="bold" fill="#1976d2" text-anchor="middle">GGENROU_9</text>
<text x="1141.1" y="272.0" font-family="Arial" font-size="8" fill="#1565c0" text-anchor="middle">M=6.9</text>
<text x="1141.1" y="283.0" font-family="Arial" font-size="8" fill="#1565c0" text-anchor="middle">1684MVA</text>
<line x1="1650.0" y1="499.4" x2="1740.0" y2="499.4" stroke="#1976d2" stroke-width="2.0"/>
<circle cx="1740.0" cy="499.4" r="20.0" fill="#e3f2fd" stroke="#1976d2" stroke-width="3.0"/>
<text x="1740.0" y="504.4" font-family="Arial" font-size="12" font-weight="bold" fill="#1976d2" text-anchor="middle">GGENROU_10</text>
<text x="1780.0" y="491.4" font-family="Arial" font-size="8" fill="#1565c0" text-anchor="middle">M=100.0</text>
<text x="1780.0" y="502.4" font-family="Arial" font-size="8" fill="#1565c0" text-anchor="middle">1199MVA</text>
<line x1="1156.7" y1="180.0" x2="1184.2" y2="162.4" stroke="#ff6f00" stroke-width="1.5" stroke-dasharray="3,2"/>
<rect x="1166.2" y="142.4" width="36.0" height="20.0" fill="#fff3e0" stroke="#ff6f00" stroke-width="2.0" rx="3"/>
<text x="1184.2" y="156.4" font-family="Arial" font-size="7" font-weight="bold" fill="#e65100" text-anchor="middle">IEEEX1</text>
<line x1="1212.2" y1="260.0" x2="1264.4" y2="317.7" stroke="#ff6f00" stroke-width="1.5" stroke-dasharray="3,2"/>
<rect x="1246.4" y="297.7" width="36.0" height="20.0" fill="#fff3e0" stroke="#ff6f00" stroke-width="2.0" rx="3"/>
<text x="1264.4" y="311.7" font-family="Arial" font-size="7" font-weight="bold" fill="#e65100" text-anchor="middle">IEEEX1</text>
<line x1="587.8" y1="180.0" x2="560.3" y2="257.6" stroke="#ff6f00" stroke-width="1.5" stroke-dasharray="3,2"/>
<rect x="542.3" y="237.6" width="36.0" height="20.0" fill="#fff3e0" stroke="#ff6f00" stroke-width="2.0" rx="3"/>
<text x="560.3" y="251.6" font-family="Arial" font-size="7" font-weight="bold" fill="#e65100" text-anchor="middle">IEEEX1</text>
<line x1="643.3" y1="260.0" x2="654.4" y2="343.9" stroke="#ff6f00" stroke-width="1.5" stroke-dasharray="3,2"/>
<rect x="636.4" y="323.9" width="36.0" height="20.0" fill="#fff3e0" stroke="#ff6f00" stroke-width="2.0" rx="3"/>
<text x="654.4" y="337.9" font-family="Arial" font-size="7" font-weight="bold" fill="#e65100" text-anchor="middle">IEEEX1</text>
<line x1="698.9" y1="180.0" x2="751.4" y2="257.6" stroke="#ff6f00" stroke-width="1.5" stroke-dasharray="3,2"/>
<rect x="733.4" y="237.6" width="36.0" height="20.0" fill="#fff3e0" stroke="#ff6f00" stroke-width="2.0" rx="3"/>
<text x="751.4" y="251.6" font-family="Arial" font-size="7" font-weight="bold" fill="#e65100" text-anchor="middle">IEEEX1</text>
<line x1="754.4" y1="260.0" x2="765.5" y2="343.9" stroke="#ff6f00" stroke-width="1.5" stroke-dasharray="3,2"/>
<rect x="747.5" y="323.9" width="36.0" height="20.0" fill="#fff3e0" stroke="#ff6f00" stroke-width="2.0" rx="3"/>
<text x="765.5" y="337.9" font-family="Arial" font-size="7" font-weight="bold" fill="#e65100" text-anchor="middle">IEEEX1</text>
<line x1="810.0" y1="180.0" x2="842.5" y2="257.6" stroke="#ff6f00" stroke-width="1.5" stroke-dasharray="3,2"/>
<rect x="824.5" y="237.6" width="36.0" height="20.0" fill="#fff3e0" stroke="#ff6f00" stroke-width="2.0" rx="3"/>
<text x="842.5" y="251.6" font-family="Arial" font-size="7" font-weight="bold" fill="#e65100" text-anchor="middle">IEEEX1</text>
<line x1="1045.6" y1="180.0" x2="1073.1" y2="162.4" stroke="#ff6f00" stroke-width="1.5" stroke-dasharray="3,2"/>
<rect x="1055.1" y="142.4" width="36.0" height="20.0" fill="#fff3e0" stroke="#ff6f00" stroke-width="2.0" rx="3"/>
<text x="1073.1" y="156.4" font-family="Arial" font-size="7" font-weight="bold" fill="#e65100" text-anchor="middle">IEEEX1</text>
<line x1="1101.1" y1="260.0" x2="1153.3" y2="317.7" stroke="#ff6f00" stroke-width="1.5" stroke-dasharray="3,2"/>
<rect x="1135.3" y="297.7" width="36.0" height="20.0" fill="#fff3e0" stroke="#ff6f00" stroke-width="2.0" rx="3"/>
<text x="1153.3" y="311.7" font-family="Arial" font-size="7" font-weight="bold" fill="#e65100" text-anchor="middle">IEEEX1</text>
<line x1="1740.0" y1="479.4" x2="1767.5" y2="461.8" stroke="#ff6f00" stroke-width="1.5" stroke-dasharray="3,2"/>
<rect x="1749.5" y="441.8" width="36.0" height="20.0" fill="#fff3e0" stroke="#ff6f00" stroke-width="2.0" rx="3"/>
<text x="1767.5" y="455.8" font-family="Arial" font-size="7" font-weight="bold" fill="#e65100" text-anchor="middle">IEEEX1</text>
<line x1="1156.7" y1="220.0" x2="1244.2" y2="192.6" stroke="#2e7d32" stroke-width="1.5" stroke-dasharray="3,2"/>
<rect x="1226.2" y="192.6" width="36.0" height="20.0" fill="#e8f5e9" stroke="#2e7d32" stroke-width="2.0" rx="3"/>
<text x="1244.2" y="206.6" font-family="Arial" font-size="7" font-weight="bold" fill="#1b5e20" text-anchor="middle">TGOV1</text>
<line x1="1212.2" y1="300.0" x2="1201.1" y2="323.9" stroke="#2e7d32" stroke-width="1.5" stroke-dasharray="3,2"/>
<rect x="1183.1" y="323.9" width="36.0" height="20.0" fill="#e8f5e9" stroke="#2e7d32" stroke-width="2.0" rx="3"/>
<text x="1201.1" y="337.9" font-family="Arial" font-size="7" font-weight="bold" fill="#1b5e20" text-anchor="middle">TGOV1</text>
<line x1="587.8" y1="220.0" x2="560.3" y2="142.4" stroke="#2e7d32" stroke-width="1.5" stroke-dasharray="3,2"/>
<rect x="542.3" y="142.4" width="36.0" height="20.0" fill="#e8f5e9" stroke="#2e7d32" stroke-width="2.0" rx="3"/>
<text x="560.3" y="156.4" font-family="Arial" font-size="7" font-weight="bold" fill="#1b5e20" text-anchor="middle">TGOV1</text>
<line x1="643.3" y1="300.0" x2="591.1" y2="297.7" stroke="#2e7d32" stroke-width="1.5" stroke-dasharray="3,2"/>
<rect x="573.1" y="297.7" width="36.0" height="20.0" fill="#e8f5e9" stroke="#2e7d32" stroke-width="2.0" rx="3"/>
<text x="591.1" y="311.7" font-family="Arial" font-size="7" font-weight="bold" fill="#1b5e20" text-anchor="middle">TGOV1</text>
<line x1="698.9" y1="220.0" x2="671.4" y2="142.4" stroke="#2e7d32" stroke-width="1.5" stroke-dasharray="3,2"/>
<rect x="653.4" y="142.4" width="36.0" height="20.0" fill="#e8f5e9" stroke="#2e7d32" stroke-width="2.0" rx="3"/>
<text x="671.4" y="156.4" font-family="Arial" font-size="7" font-weight="bold" fill="#1b5e20" text-anchor="middle">TGOV1</text>
<line x1="754.4" y1="300.0" x2="702.2" y2="297.7" stroke="#2e7d32" stroke-width="1.5" stroke-dasharray="3,2"/>
<rect x="684.2" y="297.7" width="36.0" height="20.0" fill="#e8f5e9" stroke="#2e7d32" stroke-width="2.0" rx="3"/>
<text x="702.2" y="311.7" font-family="Arial" font-size="7" font-weight="bold" fill="#1b5e20" text-anchor="middle">TGOV1</text>
<line x1="810.0" y1="220.0" x2="782.5" y2="142.4" stroke="#2e7d32" stroke-width="1.5" stroke-dasharray="3,2"/>
<rect x="764.5" y="142.4" width="36.0" height="20.0" fill="#e8f5e9" stroke="#2e7d32" stroke-width="2.0" rx="3"/>
<text x="782.5" y="156.4" font-family="Arial" font-size="7" font-weight="bold" fill="#1b5e20" text-anchor="middle">TGOV1</text>
<line x1="1045.6" y1="220.0" x2="1013.1" y2="237.6" stroke="#2e7d32" stroke-width="1.5" stroke-dasharray="3,2"/>
<rect x="995.1" y="237.6" width="36.0" height="20.0" fill="#e8f5e9" stroke="#2e7d32" stroke-width="2.0" rx="3"/>
<text x="1013.1" y="251.6" font-family="Arial" font-size="7" font-weight="bold" fill="#1b5e20" text-anchor="middle">TGOV1</text>
<line x1="1101.1" y1="300.0" x2="1090.0" y2="323.9" stroke="#2e7d32" stroke-width="1.5" stroke-dasharray="3,2"/>
<rect x="1072.0" y="323.9" width="36.0" height="20.0" fill="#e8f5e9" stroke="#2e7d32" stroke-width="2.0" rx="3"/>
<text x="1090.0" y="337.9" font-family="Arial" font-size="7" font-weight="bold" fill="#1b5e20" text-anchor="middle">TGOV1</text>
<line x1="1740.0" y1="519.4" x2="1767.5" y2="537.1" stroke="#2e7d32" stroke-width="1.5" stroke-dasharray="3,2"/>
<rect x="1749.5" y="537.1" width="36.0" height="20.0" fill="#e8f5e9" stroke="#2e7d32" stroke-width="2.0" rx="3"/>
<text x="1767.5" y="551.1" font-family="Arial" font-size="7" font-weight="bold" fill="#1b5e20" text-anchor="middle">TGOV1</text>
<line x1="261.1" y1="499.4" x2="261.1" y2="547.4" stroke="#d32f2f" stroke-width="2.0"/>
<polygon points="261.1,571.4 249.1,551.4 273.1,551.4" fill="#ffebee" stroke="#d32f2f" stroke-width="2.0"/>
<text x="261.1" y="584.4" font-family="Arial" font-size="8" fill="#c62828" text-anchor="middle">P=6.0</text>
<line x1="316.7" y1="499.4" x2="316.7" y2="547.4" stroke="#d32f2f" stroke-width="2.0"/>
<polygon points="316.7,571.4 304.7,551.4 328.7,551.4" fill="#ffebee" stroke="#d32f2f" stroke-width="2.0"/>
<text x="316.7" y="584.4" font-family="Arial" font-size="8" fill="#c62828" text-anchor="middle">P=4.5</text>
<line x1="483.3" y1="499.4" x2="483.3" y2="547.4" stroke="#d32f2f" stroke-width="2.0"/>
<polygon points="483.3,571.4 471.3,551.4 495.3,551.4" fill="#ffebee" stroke="#d32f2f" stroke-width="2.0"/>
<text x="483.3" y="584.4" font-family="Arial" font-size="8" fill="#c62828" text-anchor="middle">P=2.338</text>
<line x1="538.9" y1="499.4" x2="538.9" y2="547.4" stroke="#d32f2f" stroke-width="2.0"/>
<polygon points="538.9,571.4 526.9,551.4 550.9,551.4" fill="#ffebee" stroke="#d32f2f" stroke-width="2.0"/>
<text x="538.9" y="584.4" font-family="Arial" font-size="8" fill="#c62828" text-anchor="middle">P=5.22</text>
<line x1="872.2" y1="798.9" x2="872.2" y2="846.9" stroke="#d32f2f" stroke-width="2.0"/>
<polygon points="872.2,870.9 860.2,850.9 884.2,850.9" fill="#ffebee" stroke="#d32f2f" stroke-width="2.0"/>
<text x="872.2" y="883.9" font-family="Arial" font-size="8" fill="#c62828" text-anchor="middle">P=1.2</text>
<line x1="872.2" y1="499.4" x2="872.2" y2="547.4" stroke="#d32f2f" stroke-width="2.0"/>
<polygon points="872.2,571.4 860.2,551.4 884.2,551.4" fill="#ffebee" stroke="#d32f2f" stroke-width="2.0"/>
<text x="872.2" y="584.4" font-family="Arial" font-size="8" fill="#c62828" text-anchor="middle">P=3.2</text>
<line x1="927.8" y1="499.4" x2="927.8" y2="547.4" stroke="#d32f2f" stroke-width="2.0"/>
<polygon points="927.8,571.4 915.8,551.4 939.8,551.4" fill="#ffebee" stroke="#d32f2f" stroke-width="2.0"/>
<text x="927.8" y="584.4" font-family="Arial" font-size="8" fill="#c62828" text-anchor="middle">P=3.29</text>
<line x1="1038.9" y1="499.4" x2="1038.9" y2="547.4" stroke="#d32f2f" stroke-width="2.0"/>
<polygon points="1038.9,571.4 1026.9,551.4 1050.9,551.4" fill="#ffebee" stroke="#d32f2f" stroke-width="2.0"/>
<text x="1038.9" y="584.4" font-family="Arial" font-size="8" fill="#c62828" text-anchor="middle">P=1.58</text>
<line x1="927.8" y1="798.9" x2="927.8" y2="846.9" stroke="#d32f2f" stroke-width="2.0"/>
<polygon points="927.8,870.9 915.8,850.9 939.8,850.9" fill="#ffebee" stroke="#d32f2f" stroke-width="2.0"/>
<text x="927.8" y="883.9" font-family="Arial" font-size="8" fill="#c62828" text-anchor="middle">P=6.8</text>
<line x1="1150.0" y1="499.4" x2="1150.0" y2="547.4" stroke="#d32f2f" stroke-width="2.0"/>
<polygon points="1150.0,571.4 1138.0,551.4 1162.0,551.4" fill="#ffebee" stroke="#d32f2f" stroke-width="2.0"/>
<text x="1150.0" y="584.4" font-family="Arial" font-size="8" fill="#c62828" text-anchor="middle">P=2.74</text>
<line x1="1261.1" y1="499.4" x2="1261.1" y2="547.4" stroke="#d32f2f" stroke-width="2.0"/>
<polygon points="1261.1,571.4 1249.1,551.4 1273.1,551.4" fill="#ffebee" stroke="#d32f2f" stroke-width="2.0"/>
<text x="1261.1" y="584.4" font-family="Arial" font-size="8" fill="#c62828" text-anchor="middle">P=2.475</text>
<line x1="1316.7" y1="499.4" x2="1316.7" y2="547.4" stroke="#d32f2f" stroke-width="2.0"/>
<polygon points="1316.7,571.4 1304.7,551.4 1328.7,551.4" fill="#ffebee" stroke="#d32f2f" stroke-width="2.0"/>
<text x="1316.7" y="584.4" font-family="Arial" font-size="8" fill="#c62828" text-anchor="middle">P=3.0860000000000003</text>
<line x1="1372.2" y1="499.4" x2="1372.2" y2="547.4" stroke="#d32f2f" stroke-width="2.0"/>
<polygon points="1372.2,571.4 1360.2,551.4 1384.2,551.4" fill="#ffebee" stroke="#d32f2f" stroke-width="2.0"/>
<text x="1372.2" y="584.4" font-family="Arial" font-size="8" fill="#c62828" text-anchor="middle">P=2.24</text>
<line x1="1427.8" y1="499.4" x2="1427.8" y2="547.4" stroke="#d32f2f" stroke-width="2.0"/>
<polygon points="1427.8,571.4 1415.8,551.4 1439.8,551.4" fill="#ffebee" stroke="#d32f2f" stroke-width="2.0"/>
<text x="1427.8" y="584.4" font-family="Arial" font-size="8" fill="#c62828" text-anchor="middle">P=1.39</text>
<line x1="1483.3" y1="499.4" x2="1483.3" y2="547.4" stroke="#d32f2f" stroke-width="2.0"/>
<polygon points="1483.3,571.4 1471.3,551.4 1495.3,551.4" fill="#ffebee" stroke="#d32f2f" stroke-width="2.0"/>
<text x="1483.3" y="584.4" font-family="Arial" font-size="8" fill="#c62828" text-anchor="middle">P=2.81</text>
<line x1="1538.9" y1="499.4" x2="1538.9" y2="547.4" stroke="#d32f2f" stroke-width="2.0"/>
<polygon points="1538.9,571.4 1526.9,551.4 1550.9,551.4" fill="#ffebee" stroke="#d32f2f" stroke-width="2.0"/>
<text x="1538.9" y="584.4" font-family="Arial" font-size="8" fill="#c62828" text-anchor="middle">P=2.06</text>
<line x1="1594.4" y1="499.4" x2="1594.4" y2="547.4" stroke="#d32f2f" stroke-width="2.0"/>
<polygon points="1594.4,571.4 1582.4,551.4 1606.4,551.4" fill="#ffebee" stroke="#d32f2f" stroke-width="2.0"/>
<text x="1594.4" y="584.4" font-family="Arial" font-size="8" fill="#c62828" text-anchor="middle">P=2.835</text>
<line x1="1122.2" y1="200.0" x2="1192.2" y2="288.0" stroke="#d32f2f" stroke-width="2.0"/>
<polygon points="1192.2,312.0 1180.2,292.0 1204.2,292.0" fill="#ffebee" stroke="#d32f2f" stroke-width="2.0"/>
<text x="1192.2" y="325.0" font-family="Arial" font-size="8" fill="#c62828" text-anchor="middle">P=0.8</text>
<line x1="1650.0" y1="499.4" x2="1650.0" y2="587.4" stroke="#d32f2f" stroke-width="2.0"/>
<polygon points="1650.0,611.4 1638.0,591.4 1662.0,591.4" fill="#ffebee" stroke="#d32f2f" stroke-width="2.0"/>
<text x="1650.0" y="624.4" font-family="Arial" font-size="8" fill="#c62828" text-anchor="middle">P=4.0</text>
<rect x="146.0" y="474.4" width="8.0" height="50.0" fill="#212121" rx="2"/>
<text x="150.0" y="467.4" font-family="Arial" font-size="11" font-weight="bold" text-anchor="middle">BUS1</text>
<text x="150.0" y="539.4" font-family="Arial" font-size="9" fill="#757575" text-anchor="middle">345kV</text>
<rect x="201.6" y="474.4" width="8.0" height="50.0" fill="#212121" rx="2"/>
<text x="205.6" y="467.4" font-family="Arial" font-size="11" font-weight="bold" text-anchor="middle">BUS2</text>
<text x="205.6" y="539.4" font-family="Arial" font-size="9" fill="#757575" text-anchor="middle">345kV</text>
<rect x="257.1" y="474.4" width="8.0" height="50.0" fill="#212121" rx="2"/>
<text x="261.1" y="467.4" font-family="Arial" font-size="11" font-weight="bold" text-anchor="middle">LOAD3</text>
<text x="261.1" y="539.4" font-family="Arial" font-size="9" fill="#757575" text-anchor="middle">345kV</text>
<rect x="312.7" y="474.4" width="8.0" height="50.0" fill="#212121" rx="2"/>
<text x="316.7" y="467.4" font-family="Arial" font-size="11" font-weight="bold" text-anchor="middle">LOAD4</text>
<text x="316.7" y="539.4" font-family="Arial" font-size="9" fill="#757575" text-anchor="middle">345kV</text>
<rect x="368.2" y="474.4" width="8.0" height="50.0" fill="#212121" rx="2"/>
<text x="372.2" y="467.4" font-family="Arial" font-size="11" font-weight="bold" text-anchor="middle">BUS5</text>
<text x="372.2" y="539.4" font-family="Arial" font-size="9" fill="#757575" text-anchor="middle">345kV</text>
<rect x="423.8" y="474.4" width="8.0" height="50.0" fill="#212121" rx="2"/>
<text x="427.8" y="467.4" font-family="Arial" font-size="11" font-weight="bold" text-anchor="middle">BUS6</text>
<text x="427.8" y="539.4" font-family="Arial" font-size="9" fill="#757575" text-anchor="middle">345kV</text>
<rect x="479.3" y="474.4" width="8.0" height="50.0" fill="#212121" rx="2"/>
<text x="483.3" y="467.4" font-family="Arial" font-size="11" font-weight="bold" text-anchor="middle">LOAD7</text>
<text x="483.3" y="539.4" font-family="Arial" font-size="9" fill="#757575" text-anchor="middle">345kV</text>
<rect x="534.9" y="474.4" width="8.0" height="50.0" fill="#212121" rx="2"/>
<text x="538.9" y="467.4" font-family="Arial" font-size="11" font-weight="bold" text-anchor="middle">LOAD8</text>
<text x="538.9" y="539.4" font-family="Arial" font-size="9" fill="#757575" text-anchor="middle">345kV</text>
<rect x="590.4" y="474.4" width="8.0" height="50.0" fill="#212121" rx="2"/>
<text x="594.4" y="467.4" font-family="Arial" font-size="11" font-weight="bold" text-anchor="middle">BUS9</text>
<text x="594.4" y="539.4" font-family="Arial" font-size="9" fill="#757575" text-anchor="middle">345kV</text>
<rect x="646.0" y="474.4" width="8.0" height="50.0" fill="#212121" rx="2"/>
<text x="650.0" y="467.4" font-family="Arial" font-size="11" font-weight="bold" text-anchor="middle">BUS10</text>
<text x="650.0" y="539.4" font-family="Arial" font-size="9" fill="#757575" text-anchor="middle">345kV</text>
<rect x="701.6" y="474.4" width="8.0" height="50.0" fill="#212121" rx="2"/>
<text x="705.6" y="467.4" font-family="Arial" font-size="11" font-weight="bold" text-anchor="middle">BUS11</text>
<text x="705.6" y="539.4" font-family="Arial" font-size="9" fill="#757575" text-anchor="middle">345kV</text>
<rect x="868.2" y="773.9" width="8.0" height="50.0" fill="#212121" rx="2"/>
<text x="872.2" y="766.9" font-family="Arial" font-size="11" font-weight="bold" text-anchor="middle">LOAD12</text>
<text x="872.2" y="838.9" font-family="Arial" font-size="9" fill="#757575" text-anchor="middle">138kV</text>
<rect x="757.1" y="474.4" width="8.0" height="50.0" fill="#212121" rx="2"/>
<text x="761.1" y="467.4" font-family="Arial" font-size="11" font-weight="bold" text-anchor="middle">BUS13</text>
<text x="761.1" y="539.4" font-family="Arial" font-size="9" fill="#757575" text-anchor="middle">345kV</text>
<rect x="812.7" y="474.4" width="8.0" height="50.0" fill="#212121" rx="2"/>
<text x="816.7" y="467.4" font-family="Arial" font-size="11" font-weight="bold" text-anchor="middle">BUS14</text>
<text x="816.7" y="539.4" font-family="Arial" font-size="9" fill="#757575" text-anchor="middle">345kV</text>
<rect x="868.2" y="474.4" width="8.0" height="50.0" fill="#212121" rx="2"/>
<text x="872.2" y="467.4" font-family="Arial" font-size="11" font-weight="bold" text-anchor="middle">LOAD15</text>
<text x="872.2" y="539.4" font-family="Arial" font-size="9" fill="#757575" text-anchor="middle">345kV</text>
<rect x="923.8" y="474.4" width="8.0" height="50.0" fill="#212121" rx="2"/>
<text x="927.8" y="467.4" font-family="Arial" font-size="11" font-weight="bold" text-anchor="middle">LOAD16</text>
<text x="927.8" y="539.4" font-family="Arial" font-size="9" fill="#757575" text-anchor="middle">345kV</text>
<rect x="979.3" y="474.4" width="8.0" height="50.0" fill="#212121" rx="2"/>
<text x="983.3" y="467.4" font-family="Arial" font-size="11" font-weight="bold" text-anchor="middle">BUS17</text>
<text x="983.3" y="539.4" font-family="Arial" font-size="9" fill="#757575" text-anchor="middle">345kV</text>
<rect x="1034.9" y="474.4" width="8.0" height="50.0" fill="#212121" rx="2"/>
<text x="1038.9" y="467.4" font-family="Arial" font-size="11" font-weight="bold" text-anchor="middle">LOAD18</text>
<text x="1038.9" y="539.4" font-family="Arial" font-size="9" fill="#757575" text-anchor="middle">345kV</text>
<rect x="1090.4" y="474.4" width="8.0" height="50.0" fill="#212121" rx="2"/>
<text x="1094.4" y="467.4" font-family="Arial" font-size="11" font-weight="bold" text-anchor="middle">BUS19</text>
<text x="1094.4" y="539.4" font-family="Arial" font-size="9" fill="#757575" text-anchor="middle">345kV</text>
<rect x="923.8" y="773.9" width="8.0" height="50.0" fill="#212121" rx="2"/>
<text x="927.8" y="766.9" font-family="Arial" font-size="11" font-weight="bold" text-anchor="middle">LOAD20</text>
<text x="927.8" y="838.9" font-family="Arial" font-size="9" fill="#757575" text-anchor="middle">138kV</text>
<rect x="1146.0" y="474.4" width="8.0" height="50.0" fill="#212121" rx="2"/>
<text x="1150.0" y="467.4" font-family="Arial" font-size="11" font-weight="bold" text-anchor="middle">LOAD21</text>
<text x="1150.0" y="539.4" font-family="Arial" font-size="9" fill="#757575" text-anchor="middle">345kV</text>
<rect x="1201.6" y="474.4" width="8.0" height="50.0" fill="#212121" rx="2"/>
<text x="1205.6" y="467.4" font-family="Arial" font-size="11" font-weight="bold" text-anchor="middle">BUS22</text>
<text x="1205.6" y="539.4" font-family="Arial" font-size="9" fill="#757575" text-anchor="middle">345kV</text>
<rect x="1257.1" y="474.4" width="8.0" height="50.0" fill="#212121" rx="2"/>
<text x="1261.1" y="467.4" font-family="Arial" font-size="11" font-weight="bold" text-anchor="middle">LOAD23</text>
<text x="1261.1" y="539.4" font-family="Arial" font-size="9" fill="#757575" text-anchor="middle">345kV</text>
<rect x="1312.7" y="474.4" width="8.0" height="50.0" fill="#212121" rx="2"/>
<text x="1316.7" y="467.4" font-family="Arial" font-size="11" font-weight="bold" text-anchor="middle">LOAD24</text>
<text x="1316.7" y="539.4" font-family="Arial" font-size="9" fill="#757575" text-anchor="middle">345kV</text>
<rect x="1368.2" y="474.4" width="8.0" height="50.0" fill="#212121" rx="2"/>
<text x="1372.2" y="467.4" font-family="Arial" font-size="11" font-weight="bold" text-anchor="middle">LOAD25</text>
<text x="1372.2" y="539.4" font-family="Arial" font-size="9" fill="#757575" text-anchor="middle">345kV</text>
<rect x="1423.8" y="474.4" width="8.0" height="50.0" fill="#212121" rx="2"/>
<text x="1427.8" y="467.4" font-family="Arial" font-size="11" font-weight="bold" text-anchor="middle">LOAD26</text>
<text x="1427.8" y="539.4" font-family="Arial" font-size="9" fill="#757575" text-anchor="middle">345kV</text>
<rect x="1479.3" y="474.4" width="8.0" height="50.0" fill="#212121" rx="2"/>
<text x="1483.3" y="467.4" font-family="Arial" font-size="11" font-weight="bold" text-anchor="middle">LOAD27</text>
<text x="1483.3" y="539.4" font-family="Arial" font-size="9" fill="#757575" text-anchor="middle">345kV</text>
<rect x="1534.9" y="474.4" width="8.0" height="50.0" fill="#212121" rx="2"/>
<text x="1538.9" y="467.4" font-family="Arial" font-size="11" font-weight="bold" text-anchor="middle">LOAD28</text>
<text x="1538.9" y="539.4" font-family="Arial" font-size="9" fill="#757575" text-anchor="middle">345kV</text>
<rect x="1590.4" y="474.4" width="8.0" height="50.0" fill="#212121" rx="2"/>
<text x="1594.4" y="467.4" font-family="Arial" font-size="11" font-weight="bold" text-anchor="middle">LOAD29</text>
<text x="1594.4" y="539.4" font-family="Arial" font-size="9" fill="#757575" text-anchor="middle">345kV</text>
<rect x="1062.7" y="175.0" width="8.0" height="50.0" fill="#1565c0" rx="2"/>
<text x="1066.7" y="168.0" font-family="Arial" font-size="11" font-weight="bold" text-anchor="middle">GEN30</text>
<text x="1066.7" y="240.0" font-family="Arial" font-size="9" fill="#757575" text-anchor="middle">34kV</text>
<rect x="1118.2" y="175.0" width="8.0" height="50.0" fill="#1565c0" rx="2"/>
<text x="1122.2" y="168.0" font-family="Arial" font-size="11" font-weight="bold" text-anchor="middle">GEN31</text>
<text x="1122.2" y="240.0" font-family="Arial" font-size="9" fill="#757575" text-anchor="middle">34kV</text>
<rect x="673.8" y="175.0" width="8.0" height="50.0" fill="#1565c0" rx="2"/>
<text x="677.8" y="168.0" font-family="Arial" font-size="11" font-weight="bold" text-anchor="middle">GEN32</text>
<text x="677.8" y="240.0" font-family="Arial" font-size="9" fill="#757575" text-anchor="middle">21kV</text>
<rect x="729.3" y="175.0" width="8.0" height="50.0" fill="#1565c0" rx="2"/>
<text x="733.3" y="168.0" font-family="Arial" font-size="11" font-weight="bold" text-anchor="middle">GEN33</text>
<text x="733.3" y="240.0" font-family="Arial" font-size="9" fill="#757575" text-anchor="middle">21kV</text>
<rect x="784.9" y="175.0" width="8.0" height="50.0" fill="#1565c0" rx="2"/>
<text x="788.9" y="168.0" font-family="Arial" font-size="11" font-weight="bold" text-anchor="middle">GEN34</text>
<text x="788.9" y="240.0" font-family="Arial" font-size="9" fill="#757575" text-anchor="middle">16kV</text>
<rect x="840.4" y="175.0" width="8.0" height="50.0" fill="#1565c0" rx="2"/>
<text x="844.4" y="168.0" font-family="Arial" font-size="11" font-weight="bold" text-anchor="middle">GEN35</text>
<text x="844.4" y="240.0" font-family="Arial" font-size="9" fill="#757575" text-anchor="middle">16kV</text>
<rect x="896.0" y="175.0" width="8.0" height="50.0" fill="#1565c0" rx="2"/>
<text x="900.0" y="168.0" font-family="Arial" font-size="11" font-weight="bold" text-anchor="middle">GEN36</text>
<text x="900.0" y="240.0" font-family="Arial" font-size="9" fill="#757575" text-anchor="middle">12kV</text>
<rect x="951.6" y="175.0" width="8.0" height="50.0" fill="#1565c0" rx="2"/>
<text x="955.6" y="168.0" font-family="Arial" font-size="11" font-weight="bold" text-anchor="middle">GEN37</text>
<text x="955.6" y="240.0" font-family="Arial" font-size="9" fill="#757575" text-anchor="middle">12kV</text>
<rect x="1007.1" y="175.0" width="8.0" height="50.0" fill="#1565c0" rx="2"/>
<text x="1011.1" y="168.0" font-family="Arial" font-size="11" font-weight="bold" text-anchor="middle">GEN38</text>
<text x="1011.1" y="240.0" font-family="Arial" font-size="9" fill="#757575" text-anchor="middle">34kV</text>
<rect x="1646.0" y="474.4" width="8.0" height="50.0" fill="#212121" rx="2"/>
<text x="1650.0" y="467.4" font-family="Arial" font-size="11" font-weight="bold" text-anchor="middle">GEN39</text>
<text x="1650.0" y="539.4" font-family="Arial" font-size="9" fill="#757575" text-anchor="middle">345kV</text>
</svg>