<?xml version="1.0" encoding="UTF-8" standalone="no"?>
<!DOCTYPE svg PUBLIC "-//W3C//DTD SVG 1.1//EN"
 "http://www.w3.org/Graphics/SVG/1.1/DTD/svg11.dtd">
<!-- Generated by graphviz version 14.1.2 (20260124.0452)
 -->
<!-- Title: power_system Pages: 1 -->
<svg width="1040pt" height="997pt"
 viewBox="0.00 0.00 1040.00 997.00" xmlns="http://www.w3.org/2000/svg" xmlns:xlink="http://www.w3.org/1999/xlink">
<g id="graph0" class="graph" transform="scale(1 1) rotate(0) translate(36 961.45)">
<title>power_system</title>
<polygon fill="#fafafa" stroke="none" points="-36,36 -36,-961.45 1004.25,-961.45 1004.25,36 -36,36"/>
<!-- 1 -->
<g id="node1" class="node">
<title>1</title>
<path fill="#e3f2fd" stroke="#1565c0" stroke-width="2.5" d="M521.62,-707.84C521.62,-707.84 487.57,-707.84 487.57,-707.84 481.57,-707.84 475.57,-701.84 475.57,-695.84 475.57,-695.84 475.57,-678.44 475.57,-678.44 475.57,-672.44 481.57,-666.44 487.57,-666.44 487.57,-666.44 521.62,-666.44 521.62,-666.44 527.62,-666.44 533.62,-672.44 533.62,-678.44 533.62,-678.44 533.62,-695.84 533.62,-695.84 533.62,-701.84 527.62,-707.84 521.62,-707.84"/>
<text xml:space="preserve" text-anchor="middle" x="504.6" y="-690.19" font-family="Arial" font-size="11.00">BUS1</text>
<text xml:space="preserve" text-anchor="middle" x="504.6" y="-676.69" font-family="Arial" font-size="11.00">69 kV</text>
</g>
<!-- 2 -->
<g id="node2" class="node">
<title>2</title>
<path fill="#e3f2fd" stroke="#1565c0" stroke-width="2.5" d="M568.01,-624.28C568.01,-624.28 533.96,-624.28 533.96,-624.28 527.96,-624.28 521.96,-618.28 521.96,-612.28 521.96,-612.28 521.96,-594.88 521.96,-594.88 521.96,-588.88 527.96,-582.88 533.96,-582.88 533.96,-582.88 568.01,-582.88 568.01,-582.88 574.01,-582.88 580.01,-588.88 580.01,-594.88 580.01,-594.88 580.01,-612.28 580.01,-612.28 580.01,-618.28 574.01,-624.28 568.01,-624.28"/>
<text xml:space="preserve" text-anchor="middle" x="550.99" y="-606.63" font-family="Arial" font-size="11.00">BUS2</text>
<text xml:space="preserve" text-anchor="middle" x="550.99" y="-593.13" font-family="Arial" font-size="11.00">69 kV</text>
</g>
<!-- 1&#45;&#45;2 -->
<g id="edge27" class="edge">
<title>1&#45;&#45;2</title>
<path fill="none" stroke="#424242" stroke-width="2.5" d="M516.54,-665.62C523.42,-653.24 532.03,-637.73 538.92,-625.32"/>
<text xml:space="preserve" text-anchor="middle" x="547.6" y="-647.43" font-family="Arial" font-size="9.00">X=0.0592</text>
</g>
<!-- 5 -->
<g id="node5" class="node">
<title>5</title>
<path fill="#e3f2fd" stroke="#1565c0" stroke-width="2.5" d="M462.79,-589.07C462.79,-589.07 428.74,-589.07 428.74,-589.07 422.74,-589.07 416.74,-583.07 416.74,-577.07 416.74,-577.07 416.74,-559.67 416.74,-559.67 416.74,-553.67 422.74,-547.67 428.74,-547.67 428.74,-547.67 462.79,-547.67 462.79,-547.67 468.79,-547.67 474.79,-553.67 474.79,-559.67 474.79,-559.67 474.79,-577.07 474.79,-577.07 474.79,-583.07 468.79,-589.07 462.79,-589.07"/>
<text xml:space="preserve" text-anchor="middle" x="445.77" y="-571.42" font-family="Arial" font-size="11.00">BUS5</text>
<text xml:space="preserve" text-anchor="middle" x="445.77" y="-557.92" font-family="Arial" font-size="11.00">69 kV</text>
</g>
<!-- 1&#45;&#45;5 -->
<g id="edge28" class="edge">
<title>1&#45;&#45;5</title>
<path fill="none" stroke="#424242" stroke-width="2.5" d="M493.81,-665.36C483.19,-643.93 467.08,-611.4 456.49,-590.02"/>
<text xml:space="preserve" text-anchor="middle" x="455.26" y="-629.62" font-family="Arial" font-size="9.00">X=0.2230</text>
</g>
<!-- gen_GGENROU_1 -->
<g id="node15" class="node">
<title>gen_GGENROU_1</title>
<ellipse fill="#e3f2fd" stroke="#1976d2" stroke-width="1.5" cx="541.4" cy="-800.24" rx="32.4" ry="27"/>
<text xml:space="preserve" text-anchor="middle" x="541.4" y="-807.44" font-family="Arial" font-size="9.00">GGENROU_1</text>
<text xml:space="preserve" text-anchor="middle" x="541.4" y="-796.94" font-family="Arial" font-size="9.00">M=8.0</text>
<text xml:space="preserve" text-anchor="middle" x="541.4" y="-786.44" font-family="Arial" font-size="9.00">100 MVA</text>
</g>
<!-- 1&#45;&#45;gen_GGENROU_1 -->
<g id="edge1" class="edge">
<title>1&#45;&#45;gen_GGENROU_1</title>
<path fill="none" stroke="#1976d2" stroke-width="1.5" d="M511.69,-708.95C517.71,-727.43 526.36,-754.01 532.77,-773.72"/>
</g>
<!-- 3 -->
<g id="node3" class="node">
<title>3</title>
<path fill="#e3f2fd" stroke="#1565c0" stroke-width="2.5" d="M501.91,-658.43C501.91,-658.43 467.86,-658.43 467.86,-658.43 461.86,-658.43 455.86,-652.43 455.86,-646.43 455.86,-646.43 455.86,-629.03 455.86,-629.03 455.86,-623.03 461.86,-617.03 467.86,-617.03 467.86,-617.03 501.91,-617.03 501.91,-617.03 507.91,-617.03 513.91,-623.03 513.91,-629.03 513.91,-629.03 513.91,-646.43 513.91,-646.43 513.91,-652.43 507.91,-658.43 501.91,-658.43"/>
<text xml:space="preserve" text-anchor="middle" x="484.89" y="-640.78" font-family="Arial" font-size="11.00">BUS3</text>
<text xml:space="preserve" text-anchor="middle" x="484.89" y="-627.28" font-family="Arial" font-size="11.00">69 kV</text>
</g>
<!-- 2&#45;&#45;3 -->
<g id="edge29" class="edge">
<title>2&#45;&#45;3</title>
<path fill="none" stroke="#424242" stroke-width="2.5" d="M521.03,-619.06C518.98,-620.12 516.92,-621.18 514.87,-622.24"/>
<text xml:space="preserve" text-anchor="middle" x="537.82" y="-622.6" font-family="Arial" font-size="9.00">X=0.1980</text>
</g>
<!-- 4 -->
<g id="node4" class="node">
<title>4</title>
<path fill="#e3f2fd" stroke="#1565c0" stroke-width="2.5" d="M541.8,-541.33C541.8,-541.33 507.75,-541.33 507.75,-541.33 501.75,-541.33 495.75,-535.33 495.75,-529.33 495.75,-529.33 495.75,-511.93 495.75,-511.93 495.75,-505.93 501.75,-499.93 507.75,-499.93 507.75,-499.93 541.8,-499.93 541.8,-499.93 547.8,-499.93 553.8,-505.93 553.8,-511.93 553.8,-511.93 553.8,-529.33 553.8,-529.33 553.8,-535.33 547.8,-541.33 541.8,-541.33"/>
<text xml:space="preserve" text-anchor="middle" x="524.78" y="-523.68" font-family="Arial" font-size="11.00">BUS4</text>
<text xml:space="preserve" text-anchor="middle" x="524.78" y="-510.18" font-family="Arial" font-size="11.00">69 kV</text>
</g>
<!-- 2&#45;&#45;4 -->
<g id="edge30" class="edge">
<title>2&#45;&#45;4</title>
<path fill="none" stroke="#424242" stroke-width="2.5" d="M544.1,-581.79C540.28,-569.69 535.54,-554.69 531.71,-542.57"/>
<text xml:space="preserve" text-anchor="middle" x="518.03" y="-564.14" font-family="Arial" font-size="9.00">X=0.1763</text>
</g>
<!-- 2&#45;&#45;5 -->
<g id="edge31" class="edge">
<title>2&#45;&#45;5</title>
<path fill="none" stroke="#424242" stroke-width="2.5" d="M520.84,-593.49C506.75,-588.78 490.01,-583.18 475.92,-578.46"/>
<text xml:space="preserve" text-anchor="middle" x="498.38" y="-577.43" font-family="Arial" font-size="9.00">X=0.1739</text>
</g>
<!-- gen_GGENROU_2 -->
<g id="node16" class="node">
<title>gen_GGENROU_2</title>
<ellipse fill="#e3f2fd" stroke="#1976d2" stroke-width="1.5" cx="660.28" cy="-657.56" rx="32.4" ry="27"/>
<text xml:space="preserve" text-anchor="middle" x="660.28" y="-664.76" font-family="Arial" font-size="9.00">GGENROU_2</text>
<text xml:space="preserve" text-anchor="middle" x="660.28" y="-654.26" font-family="Arial" font-size="9.00">M=13.0</text>
<text xml:space="preserve" text-anchor="middle" x="660.28" y="-643.76" font-family="Arial" font-size="9.00">100 MVA</text>
</g>
<!-- 2&#45;&#45;gen_GGENROU_2 -->
<g id="edge2" class="edge">
<title>2&#45;&#45;gen_GGENROU_2</title>
<path fill="none" stroke="#1976d2" stroke-width="1.5" d="M581.14,-618.48C597.06,-626.34 616.48,-635.93 632.1,-643.64"/>
</g>
<!-- load_PQ_1 -->
<g id="node30" class="node">
<title>load_PQ_1</title>
<polygon fill="#ffebee" stroke="#d32f2f" points="636.39,-622.51 614.07,-589.03 658.71,-589.03 636.39,-622.51"/>
<text xml:space="preserve" text-anchor="middle" x="636.39" y="-602.34" font-family="Arial" font-size="8.00">L</text>
<text xml:space="preserve" text-anchor="middle" x="636.39" y="-592.59" font-family="Arial" font-size="8.00">0.2</text>
</g>
<!-- 2&#45;&#45;load_PQ_1 -->
<g id="edge16" class="edge">
<title>2&#45;&#45;load_PQ_1</title>
<path fill="none" stroke="#d32f2f" d="M580.86,-602.4C594.71,-601.85 610.55,-601.22 621.75,-600.77"/>
</g>
<!-- 3&#45;&#45;4 -->
<g id="edge32" class="edge">
<title>3&#45;&#45;4</title>
<path fill="none" stroke="#424242" stroke-width="2.5" d="M492.3,-615.98C499.46,-594.94 510.26,-563.26 517.41,-542.26"/>
<text xml:space="preserve" text-anchor="middle" x="504.86" y="-570.56" font-family="Arial" font-size="9.00">X=0.1710</text>
</g>
<!-- gen_GGENROU_3 -->
<g id="node17" class="node">
<title>gen_GGENROU_3</title>
<ellipse fill="#e3f2fd" stroke="#1976d2" stroke-width="1.5" cx="442.9" cy="-764.52" rx="32.4" ry="27"/>
<text xml:space="preserve" text-anchor="middle" x="442.9" y="-771.72" font-family="Arial" font-size="9.00">GGENROU_3</text>
<text xml:space="preserve" text-anchor="middle" x="442.9" y="-761.22" font-family="Arial" font-size="9.00">M=10.0</text>
<text xml:space="preserve" text-anchor="middle" x="442.9" y="-750.72" font-family="Arial" font-size="9.00">100 MVA</text>
</g>
<!-- 3&#45;&#45;gen_GGENROU_3 -->
<g id="edge3" class="edge">
<title>3&#45;&#45;gen_GGENROU_3</title>
<path fill="none" stroke="#1976d2" stroke-width="1.5" d="M477.67,-659.52C470.45,-681.33 459.33,-714.9 451.62,-738.18"/>
</g>
<!-- load_PQ_2 -->
<g id="node31" class="node">
<title>load_PQ_2</title>
<polygon fill="#ffebee" stroke="#d32f2f" points="399.02,-715.98 376.7,-682.5 421.34,-682.5 399.02,-715.98"/>
<text xml:space="preserve" text-anchor="middle" x="399.02" y="-695.81" font-family="Arial" font-size="8.00">L</text>
<text xml:space="preserve" text-anchor="middle" x="399.02" y="-686.06" font-family="Arial" font-size="8.00">0.5</text>
</g>
<!-- 3&#45;&#45;load_PQ_2 -->
<g id="edge17" class="edge">
<title>3&#45;&#45;load_PQ_2</title>
<path fill="none" stroke="#d32f2f" d="M454.85,-657.29C442.18,-665.54 427.86,-674.87 416.89,-682.01"/>
</g>
<!-- 4&#45;&#45;5 -->
<g id="edge33" class="edge">
<title>4&#45;&#45;5</title>
<path fill="none" stroke="#424242" stroke-width="2.5" d="M494.91,-538.68C488.7,-542.43 482.16,-546.38 475.94,-550.14"/>
<text xml:space="preserve" text-anchor="middle" x="465.55" y="-535.86" font-family="Arial" font-size="9.00">X=0.0421</text>
</g>
<!-- load_PQ_3 -->
<g id="node32" class="node">
<title>load_PQ_3</title>
<polygon fill="#ffebee" stroke="#d32f2f" points="629.04,-533.38 606.72,-499.9 651.36,-499.9 629.04,-533.38"/>
<text xml:space="preserve" text-anchor="middle" x="629.04" y="-513.21" font-family="Arial" font-size="8.00">L</text>
<text xml:space="preserve" text-anchor="middle" x="629.04" y="-503.46" font-family="Arial" font-size="8.00">0.5</text>
</g>
<!-- 4&#45;&#45;load_PQ_3 -->
<g id="edge18" class="edge">
<title>4&#45;&#45;load_PQ_3</title>
<path fill="none" stroke="#d32f2f" d="M554.94,-517.86C574.54,-516.06 599.23,-513.8 614.57,-512.39"/>
</g>
<!-- xfmr_0 -->
<g id="node41" class="node">
<title>xfmr_0</title>
<polygon fill="#f3e5f5" stroke="#7b1fa2" stroke-width="2.5" points="595.37,-457.26 568.37,-430.26 595.37,-403.26 622.37,-430.26 595.37,-457.26"/>
<text xml:space="preserve" text-anchor="middle" x="595.37" y="-442.16" font-family="Arial" font-size="8.00" fill="#4a148c">T</text>
<text xml:space="preserve" text-anchor="middle" x="595.37" y="-432.41" font-family="Arial" font-size="8.00" fill="#4a148c">69/</text>
<text xml:space="preserve" text-anchor="middle" x="595.37" y="-422.66" font-family="Arial" font-size="8.00" fill="#4a148c">138</text>
<text xml:space="preserve" text-anchor="middle" x="595.37" y="-412.91" font-family="Arial" font-size="8.00" fill="#4a148c">X=0.209</text>
</g>
<!-- 4&#45;&#45;xfmr_0 -->
<g id="edge43" class="edge">
<title>4&#45;&#45;xfmr_0</title>
<path fill="none" stroke="#7b1fa2" stroke-width="2.5" d="M541.87,-498.75C554.52,-482.56 571.46,-460.87 582.87,-446.27"/>
</g>
<!-- xfmr_1 -->
<g id="node42" class="node">
<title>xfmr_1</title>
<polygon fill="#f3e5f5" stroke="#7b1fa2" stroke-width="2.5" points="502.12,-445.65 475.12,-418.65 502.12,-391.65 529.12,-418.65 502.12,-445.65"/>
<text xml:space="preserve" text-anchor="middle" x="502.12" y="-430.55" font-family="Arial" font-size="8.00" fill="#4a148c">T</text>
<text xml:space="preserve" text-anchor="middle" x="502.12" y="-420.8" font-family="Arial" font-size="8.00" fill="#4a148c">69/</text>
<text xml:space="preserve" text-anchor="middle" x="502.12" y="-411.05" font-family="Arial" font-size="8.00" fill="#4a148c">138</text>
<text xml:space="preserve" text-anchor="middle" x="502.12" y="-401.3" font-family="Arial" font-size="8.00" fill="#4a148c">X=0.556</text>
</g>
<!-- 4&#45;&#45;xfmr_1 -->
<g id="edge45" class="edge">
<title>4&#45;&#45;xfmr_1</title>
<path fill="none" stroke="#7b1fa2" stroke-width="2.5" d="M519.92,-498.75C516.2,-482.02 511.08,-458.98 507.28,-441.91"/>
</g>
<!-- load_PQ_4 -->
<g id="node33" class="node">
<title>load_PQ_4</title>
<polygon fill="#ffebee" stroke="#d32f2f" points="361.47,-649.59 339.15,-616.11 383.79,-616.11 361.47,-649.59"/>
<text xml:space="preserve" text-anchor="middle" x="361.47" y="-629.42" font-family="Arial" font-size="8.00">L</text>
<text xml:space="preserve" text-anchor="middle" x="361.47" y="-619.67" font-family="Arial" font-size="8.00">0.1</text>
</g>
<!-- 5&#45;&#45;load_PQ_4 -->
<g id="edge19" class="edge">
<title>5&#45;&#45;load_PQ_4</title>
<path fill="none" stroke="#d32f2f" d="M415.81,-589.3C403.13,-598.17 388.83,-608.15 378.09,-615.66"/>
</g>
<!-- 6 -->
<g id="node6" class="node">
<title>6</title>
<path fill="#fff9c4" stroke="#f57f17" stroke-width="2.5" d="M264.11,-449.7C264.11,-449.7 225.56,-449.7 225.56,-449.7 219.56,-449.7 213.56,-443.7 213.56,-437.7 213.56,-437.7 213.56,-420.3 213.56,-420.3 213.56,-414.3 219.56,-408.3 225.56,-408.3 225.56,-408.3 264.11,-408.3 264.11,-408.3 270.11,-408.3 276.11,-414.3 276.11,-420.3 276.11,-420.3 276.11,-437.7 276.11,-437.7 276.11,-443.7 270.11,-449.7 264.11,-449.7"/>
<text xml:space="preserve" text-anchor="middle" x="244.83" y="-432.05" font-family="Arial" font-size="11.00">BUS6</text>
<text xml:space="preserve" text-anchor="middle" x="244.83" y="-418.55" font-family="Arial" font-size="11.00">138 kV</text>
</g>
<!-- 11 -->
<g id="node11" class="node">
<title>11</title>
<path fill="#fff9c4" stroke="#f57f17" stroke-width="2.5" d="M320.94,-335.81C320.94,-335.81 281.64,-335.81 281.64,-335.81 275.64,-335.81 269.64,-329.81 269.64,-323.81 269.64,-323.81 269.64,-306.41 269.64,-306.41 269.64,-300.41 275.64,-294.41 281.64,-294.41 281.64,-294.41 320.94,-294.41 320.94,-294.41 326.94,-294.41 332.94,-300.41 332.94,-306.41 332.94,-306.41 332.94,-323.81 332.94,-323.81 332.94,-329.81 326.94,-335.81 320.94,-335.81"/>
<text xml:space="preserve" text-anchor="middle" x="301.29" y="-318.16" font-family="Arial" font-size="11.00">BUS11</text>
<text xml:space="preserve" text-anchor="middle" x="301.29" y="-304.66" font-family="Arial" font-size="11.00">138 kV</text>
</g>
<!-- 6&#45;&#45;11 -->
<g id="edge34" class="edge">
<title>6&#45;&#45;11</title>
<path fill="none" stroke="#424242" stroke-width="2.5" d="M255.59,-407.31C265.63,-387.05 280.55,-356.96 290.58,-336.72"/>
<text xml:space="preserve" text-anchor="middle" x="253.21" y="-373.96" font-family="Arial" font-size="9.00">X=0.1989</text>
</g>
<!-- 12 -->
<g id="node12" class="node">
<title>12</title>
<path fill="#fff9c4" stroke="#f57f17" stroke-width="2.5" d="M177.46,-396.83C177.46,-396.83 137.41,-396.83 137.41,-396.83 131.41,-396.83 125.41,-390.83 125.41,-384.83 125.41,-384.83 125.41,-367.43 125.41,-367.43 125.41,-361.43 131.41,-355.43 137.41,-355.43 137.41,-355.43 177.46,-355.43 177.46,-355.43 183.46,-355.43 189.46,-361.43 189.46,-367.43 189.46,-367.43 189.46,-384.83 189.46,-384.83 189.46,-390.83 183.46,-396.83 177.46,-396.83"/>
<text xml:space="preserve" text-anchor="middle" x="157.43" y="-379.18" font-family="Arial" font-size="11.00">BUS12</text>
<text xml:space="preserve" text-anchor="middle" x="157.43" y="-365.68" font-family="Arial" font-size="11.00">138 kV</text>
</g>
<!-- 6&#45;&#45;12 -->
<g id="edge35" class="edge">
<title>6&#45;&#45;12</title>
<path fill="none" stroke="#424242" stroke-width="2.5" d="M212.78,-409.61C205.57,-405.25 197.91,-400.61 190.65,-396.22"/>
<text xml:space="preserve" text-anchor="middle" x="181.86" y="-404.88" font-family="Arial" font-size="9.00">X=0.2558</text>
</g>
<!-- 13 -->
<g id="node13" class="node">
<title>13</title>
<path fill="#fff9c4" stroke="#f57f17" stroke-width="2.5" d="M249.58,-359.6C249.58,-359.6 209.53,-359.6 209.53,-359.6 203.53,-359.6 197.53,-353.6 197.53,-347.6 197.53,-347.6 197.53,-330.2 197.53,-330.2 197.53,-324.2 203.53,-318.2 209.53,-318.2 209.53,-318.2 249.58,-318.2 249.58,-318.2 255.58,-318.2 261.58,-324.2 261.58,-330.2 261.58,-330.2 261.58,-347.6 261.58,-347.6 261.58,-353.6 255.58,-359.6 249.58,-359.6"/>
<text xml:space="preserve" text-anchor="middle" x="229.55" y="-341.95" font-family="Arial" font-size="11.00">BUS13</text>
<text xml:space="preserve" text-anchor="middle" x="229.55" y="-328.45" font-family="Arial" font-size="11.00">138 kV</text>
</g>
<!-- 6&#45;&#45;13 -->
<g id="edge36" class="edge">
<title>6&#45;&#45;13</title>
<path fill="none" stroke="#424242" stroke-width="2.5" d="M241.13,-407.19C238.75,-393.13 235.66,-374.91 233.27,-360.82"/>
<text xml:space="preserve" text-anchor="middle" x="217.33" y="-385.96" font-family="Arial" font-size="9.00">X=0.1303</text>
</g>
<!-- gen_GGENROU_4 -->
<g id="node18" class="node">
<title>gen_GGENROU_4</title>
<ellipse fill="#e3f2fd" stroke="#1976d2" stroke-width="1.5" cx="137.67" cy="-470.91" rx="32.4" ry="27"/>
<text xml:space="preserve" text-anchor="middle" x="137.67" y="-478.11" font-family="Arial" font-size="9.00">GGENROU_4</text>
<text xml:space="preserve" text-anchor="middle" x="137.67" y="-467.61" font-family="Arial" font-size="9.00">M=10.0</text>
<text xml:space="preserve" text-anchor="middle" x="137.67" y="-457.11" font-family="Arial" font-size="9.00">100 MVA</text>
</g>
<!-- 6&#45;&#45;gen_GGENROU_4 -->
<g id="edge4" class="edge">
<title>6&#45;&#45;gen_GGENROU_4</title>
<path fill="none" stroke="#1976d2" stroke-width="1.5" d="M212.39,-441.69C198.1,-447.28 181.42,-453.8 167.44,-459.27"/>
</g>
<!-- load_PQ_5 -->
<g id="node34" class="node">
<title>load_PQ_5</title>
<polygon fill="#ffebee" stroke="#d32f2f" points="200.52,-512.6 178.2,-479.12 222.84,-479.12 200.52,-512.6"/>
<text xml:space="preserve" text-anchor="middle" x="200.52" y="-492.43" font-family="Arial" font-size="8.00">L</text>
<text xml:space="preserve" text-anchor="middle" x="200.52" y="-482.68" font-family="Arial" font-size="8.00">0.1</text>
</g>
<!-- 6&#45;&#45;load_PQ_5 -->
<g id="edge20" class="edge">
<title>6&#45;&#45;load_PQ_5</title>
<path fill="none" stroke="#d32f2f" d="M229.08,-450.78C222.22,-460.27 214.45,-471.01 208.75,-478.89"/>
</g>
<!-- xfmr_2 -->
<g id="node43" class="node">
<title>xfmr_2</title>
<polygon fill="#f3e5f5" stroke="#7b1fa2" stroke-width="2.5" points="338.18,-534.89 311.18,-507.89 338.18,-480.89 365.18,-507.89 338.18,-534.89"/>
<text xml:space="preserve" text-anchor="middle" x="338.18" y="-519.79" font-family="Arial" font-size="8.00" fill="#4a148c">T</text>
<text xml:space="preserve" text-anchor="middle" x="338.18" y="-510.04" font-family="Arial" font-size="8.00" fill="#4a148c">138/</text>
<text xml:space="preserve" text-anchor="middle" x="338.18" y="-500.29" font-family="Arial" font-size="8.00" fill="#4a148c">69</text>
<text xml:space="preserve" text-anchor="middle" x="338.18" y="-490.54" font-family="Arial" font-size="8.00" fill="#4a148c">X=0.252</text>
</g>
<!-- 6&#45;&#45;xfmr_2 -->
<g id="edge47" class="edge">
<title>6&#45;&#45;xfmr_2</title>
<path fill="none" stroke="#7b1fa2" stroke-width="2.5" d="M270.34,-450.56C287.07,-464.7 308.41,-482.74 322.65,-494.77"/>
</g>
<!-- 7 -->
<g id="node7" class="node">
<title>7</title>
<path fill="#fff9c4" stroke="#f57f17" stroke-width="2.5" d="M615.45,-338.41C615.45,-338.41 576.9,-338.41 576.9,-338.41 570.9,-338.41 564.9,-332.41 564.9,-326.41 564.9,-326.41 564.9,-309.01 564.9,-309.01 564.9,-303.01 570.9,-297.01 576.9,-297.01 576.9,-297.01 615.45,-297.01 615.45,-297.01 621.45,-297.01 627.45,-303.01 627.45,-309.01 627.45,-309.01 627.45,-326.41 627.45,-326.41 627.45,-332.41 621.45,-338.41 615.45,-338.41"/>
<text xml:space="preserve" text-anchor="middle" x="596.17" y="-320.76" font-family="Arial" font-size="11.00">BUS7</text>
<text xml:space="preserve" text-anchor="middle" x="596.17" y="-307.26" font-family="Arial" font-size="11.00">138 kV</text>
</g>
<!-- 9 -->
<g id="node9" class="node">
<title>9</title>
<path fill="#fff9c4" stroke="#f57f17" stroke-width="2.5" d="M514.02,-324.4C514.02,-324.4 475.47,-324.4 475.47,-324.4 469.47,-324.4 463.47,-318.4 463.47,-312.4 463.47,-312.4 463.47,-295 463.47,-295 463.47,-289 469.47,-283 475.47,-283 475.47,-283 514.02,-283 514.02,-283 520.02,-283 526.02,-289 526.02,-295 526.02,-295 526.02,-312.4 526.02,-312.4 526.02,-318.4 520.02,-324.4 514.02,-324.4"/>
<text xml:space="preserve" text-anchor="middle" x="494.75" y="-306.75" font-family="Arial" font-size="11.00">BUS9</text>
<text xml:space="preserve" text-anchor="middle" x="494.75" y="-293.25" font-family="Arial" font-size="11.00">138 kV</text>
</g>
<!-- 7&#45;&#45;9 -->
<g id="edge37" class="edge">
<title>7&#45;&#45;9</title>
<path fill="none" stroke="#424242" stroke-width="2.5" d="M563.8,-313.24C552.09,-311.62 538.87,-309.79 527.16,-308.17"/>
<text xml:space="preserve" text-anchor="middle" x="545.48" y="-302.16" font-family="Arial" font-size="9.00">X=0.1100</text>
</g>
<!-- 8 -->
<g id="node8" class="node">
<title>8</title>
<path fill="#e3f2fd" stroke="#1565c0" stroke-width="2.5" d="M778.25,-208.37C778.25,-208.37 744.2,-208.37 744.2,-208.37 738.2,-208.37 732.2,-202.37 732.2,-196.37 732.2,-196.37 732.2,-178.97 732.2,-178.97 732.2,-172.97 738.2,-166.97 744.2,-166.97 744.2,-166.97 778.25,-166.97 778.25,-166.97 784.25,-166.97 790.25,-172.97 790.25,-178.97 790.25,-178.97 790.25,-196.37 790.25,-196.37 790.25,-202.37 784.25,-208.37 778.25,-208.37"/>
<text xml:space="preserve" text-anchor="middle" x="761.23" y="-190.72" font-family="Arial" font-size="11.00">BUS8</text>
<text xml:space="preserve" text-anchor="middle" x="761.23" y="-177.22" font-family="Arial" font-size="11.00">69 kV</text>
</g>
<!-- gen_GGENROU_5 -->
<g id="node19" class="node">
<title>gen_GGENROU_5</title>
<ellipse fill="#e3f2fd" stroke="#1976d2" stroke-width="1.5" cx="837.13" cy="-120.36" rx="32.4" ry="27"/>
<text xml:space="preserve" text-anchor="middle" x="837.13" y="-127.56" font-family="Arial" font-size="9.00">GGENROU_5</text>
<text xml:space="preserve" text-anchor="middle" x="837.13" y="-117.06" font-family="Arial" font-size="9.00">M=10.0</text>
<text xml:space="preserve" text-anchor="middle" x="837.13" y="-106.56" font-family="Arial" font-size="9.00">100 MVA</text>
</g>
<!-- 8&#45;&#45;gen_GGENROU_5 -->
<g id="edge5" class="edge">
<title>8&#45;&#45;gen_GGENROU_5</title>
<path fill="none" stroke="#1976d2" stroke-width="1.5" d="M785.66,-166C794.94,-157.77 805.45,-148.45 814.55,-140.39"/>
</g>
<!-- xfmr_3 -->
<g id="node44" class="node">
<title>xfmr_3</title>
<polygon fill="#f3e5f5" stroke="#7b1fa2" stroke-width="2.5" points="684.63,-280.82 657.63,-253.82 684.63,-226.82 711.63,-253.82 684.63,-280.82"/>
<text xml:space="preserve" text-anchor="middle" x="684.63" y="-265.72" font-family="Arial" font-size="8.00" fill="#4a148c">T</text>
<text xml:space="preserve" text-anchor="middle" x="684.63" y="-255.97" font-family="Arial" font-size="8.00" fill="#4a148c">69/</text>
<text xml:space="preserve" text-anchor="middle" x="684.63" y="-246.22" font-family="Arial" font-size="8.00" fill="#4a148c">138</text>
<text xml:space="preserve" text-anchor="middle" x="684.63" y="-236.47" font-family="Arial" font-size="8.00" fill="#4a148c">X=0.176</text>
</g>
<!-- 8&#45;&#45;xfmr_3 -->
<g id="edge49" class="edge">
<title>8&#45;&#45;xfmr_3</title>
<path fill="none" stroke="#7b1fa2" stroke-width="2.5" d="M736.15,-209.33C724.1,-219.73 710.07,-231.84 699.7,-240.8"/>
</g>
<!-- 10 -->
<g id="node10" class="node">
<title>10</title>
<path fill="#fff9c4" stroke="#f57f17" stroke-width="2.5" d="M465.18,-250.21C465.18,-250.21 425.13,-250.21 425.13,-250.21 419.13,-250.21 413.13,-244.21 413.13,-238.21 413.13,-238.21 413.13,-220.81 413.13,-220.81 413.13,-214.81 419.13,-208.81 425.13,-208.81 425.13,-208.81 465.18,-208.81 465.18,-208.81 471.18,-208.81 477.18,-214.81 477.18,-220.81 477.18,-220.81 477.18,-238.21 477.18,-238.21 477.18,-244.21 471.18,-250.21 465.18,-250.21"/>
<text xml:space="preserve" text-anchor="middle" x="445.16" y="-232.56" font-family="Arial" font-size="11.00">BUS10</text>
<text xml:space="preserve" text-anchor="middle" x="445.16" y="-219.06" font-family="Arial" font-size="11.00">138 kV</text>
</g>
<!-- 9&#45;&#45;10 -->
<g id="edge38" class="edge">
<title>9&#45;&#45;10</title>
<path fill="none" stroke="#424242" stroke-width="2.5" d="M480.14,-281.84C473.68,-272.18 466.11,-260.85 459.66,-251.21"/>
<text xml:space="preserve" text-anchor="middle" x="450.02" y="-268.47" font-family="Arial" font-size="9.00">X=0.0845</text>
</g>
<!-- 14 -->
<g id="node14" class="node">
<title>14</title>
<path fill="#fff9c4" stroke="#f57f17" stroke-width="2.5" d="M393.06,-299.42C393.06,-299.42 353.01,-299.42 353.01,-299.42 347.01,-299.42 341.01,-293.42 341.01,-287.42 341.01,-287.42 341.01,-270.02 341.01,-270.02 341.01,-264.02 347.01,-258.02 353.01,-258.02 353.01,-258.02 393.06,-258.02 393.06,-258.02 399.06,-258.02 405.06,-264.02 405.06,-270.02 405.06,-270.02 405.06,-287.42 405.06,-287.42 405.06,-293.42 399.06,-299.42 393.06,-299.42"/>
<text xml:space="preserve" text-anchor="middle" x="373.04" y="-281.77" font-family="Arial" font-size="11.00">BUS14</text>
<text xml:space="preserve" text-anchor="middle" x="373.04" y="-268.27" font-family="Arial" font-size="11.00">138 kV</text>
</g>
<!-- 9&#45;&#45;14 -->
<g id="edge39" class="edge">
<title>9&#45;&#45;14</title>
<path fill="none" stroke="#424242" stroke-width="2.5" d="M462.45,-297.07C444.99,-293.48 423.46,-289.07 405.91,-285.46"/>
<text xml:space="preserve" text-anchor="middle" x="434.21" y="-282.72" font-family="Arial" font-size="9.00">X=0.2704</text>
</g>
<!-- load_PQ_6 -->
<g id="node35" class="node">
<title>load_PQ_6</title>
<polygon fill="#ffebee" stroke="#d32f2f" points="544.48,-233.45 522.16,-199.97 566.8,-199.97 544.48,-233.45"/>
<text xml:space="preserve" text-anchor="middle" x="544.48" y="-213.28" font-family="Arial" font-size="8.00">L</text>
<text xml:space="preserve" text-anchor="middle" x="544.48" y="-203.53" font-family="Arial" font-size="8.00">0.3</text>
</g>
<!-- 9&#45;&#45;load_PQ_6 -->
<g id="edge21" class="edge">
<title>9&#45;&#45;load_PQ_6</title>
<path fill="none" stroke="#d32f2f" d="M506.53,-281.76C516.24,-263.69 529.67,-238.7 537.67,-223.8"/>
</g>
<!-- 10&#45;&#45;11 -->
<g id="edge40" class="edge">
<title>10&#45;&#45;11</title>
<path fill="none" stroke="#424242" stroke-width="2.5" d="M412.15,-249.15C388.76,-263.07 357.5,-281.67 334.15,-295.57"/>
<text xml:space="preserve" text-anchor="middle" x="353.26" y="-263.82" font-family="Arial" font-size="9.00">X=0.1921</text>
</g>
<!-- load_PQ_7 -->
<g id="node36" class="node">
<title>load_PQ_7</title>
<polygon fill="#ffebee" stroke="#d32f2f" points="438,-143.94 415.68,-110.46 460.32,-110.46 438,-143.94"/>
<text xml:space="preserve" text-anchor="middle" x="438" y="-123.77" font-family="Arial" font-size="8.00">L</text>
<text xml:space="preserve" text-anchor="middle" x="438" y="-114.02" font-family="Arial" font-size="8.00">0.1</text>
</g>
<!-- 10&#45;&#45;load_PQ_7 -->
<g id="edge22" class="edge">
<title>10&#45;&#45;load_PQ_7</title>
<path fill="none" stroke="#d32f2f" d="M443.71,-207.68C442.45,-188.72 440.64,-161.43 439.4,-142.69"/>
</g>
<!-- load_PQ_8 -->
<g id="node37" class="node">
<title>load_PQ_8</title>
<polygon fill="#ffebee" stroke="#d32f2f" points="230.71,-229.44 208.39,-195.96 253.03,-195.96 230.71,-229.44"/>
<text xml:space="preserve" text-anchor="middle" x="230.71" y="-209.27" font-family="Arial" font-size="8.00">L</text>
<text xml:space="preserve" text-anchor="middle" x="230.71" y="-199.52" font-family="Arial" font-size="8.00">0.0</text>
</g>
<!-- 11&#45;&#45;load_PQ_8 -->
<g id="edge23" class="edge">
<title>11&#45;&#45;load_PQ_8</title>
<path fill="none" stroke="#d32f2f" d="M287.01,-293.26C272.27,-270.7 249.83,-236.38 238.24,-218.63"/>
</g>
<!-- 12&#45;&#45;13 -->
<g id="edge41" class="edge">
<title>12&#45;&#45;13</title>
<path fill="none" stroke="#424242" stroke-width="2.5" d="M190.54,-359.04C192.46,-358.04 194.4,-357.04 196.33,-356.05"/>
<text xml:space="preserve" text-anchor="middle" x="213.31" y="-359.49" font-family="Arial" font-size="9.00">X=0.1999</text>
</g>
<!-- load_PQ_9 -->
<g id="node38" class="node">
<title>load_PQ_9</title>
<polygon fill="#ffebee" stroke="#d32f2f" points="66.43,-347.44 44.11,-313.96 88.75,-313.96 66.43,-347.44"/>
<text xml:space="preserve" text-anchor="middle" x="66.43" y="-327.27" font-family="Arial" font-size="8.00">L</text>
<text xml:space="preserve" text-anchor="middle" x="66.43" y="-317.52" font-family="Arial" font-size="8.00">0.1</text>
</g>
<!-- 12&#45;&#45;load_PQ_9 -->
<g id="edge24" class="edge">
<title>12&#45;&#45;load_PQ_9</title>
<path fill="none" stroke="#d32f2f" d="M124.32,-357.57C107.86,-348.34 89.05,-337.8 77.45,-331.3"/>
</g>
<!-- 13&#45;&#45;14 -->
<g id="edge42" class="edge">
<title>13&#45;&#45;14</title>
<path fill="none" stroke="#424242" stroke-width="2.5" d="M262.47,-325.09C285.64,-315.38 316.53,-302.42 339.78,-292.67"/>
<text xml:space="preserve" text-anchor="middle" x="281.22" y="-310.84" font-family="Arial" font-size="9.00">X=0.3480</text>
</g>
<!-- load_PQ_10 -->
<g id="node39" class="node">
<title>load_PQ_10</title>
<polygon fill="#ffebee" stroke="#d32f2f" points="160.96,-269.24 138.64,-235.76 183.28,-235.76 160.96,-269.24"/>
<text xml:space="preserve" text-anchor="middle" x="160.96" y="-249.07" font-family="Arial" font-size="8.00">L</text>
<text xml:space="preserve" text-anchor="middle" x="160.96" y="-239.32" font-family="Arial" font-size="8.00">0.1</text>
</g>
<!-- 13&#45;&#45;load_PQ_10 -->
<g id="edge25" class="edge">
<title>13&#45;&#45;load_PQ_10</title>
<path fill="none" stroke="#d32f2f" d="M213.3,-317.1C199.35,-298.4 179.84,-272.24 169.01,-257.72"/>
</g>
<!-- load_PQ_11 -->
<g id="node40" class="node">
<title>load_PQ_11</title>
<polygon fill="#ffebee" stroke="#d32f2f" points="358.17,-170.81 335.85,-137.33 380.49,-137.33 358.17,-170.81"/>
<text xml:space="preserve" text-anchor="middle" x="358.17" y="-150.64" font-family="Arial" font-size="8.00">L</text>
<text xml:space="preserve" text-anchor="middle" x="358.17" y="-140.89" font-family="Arial" font-size="8.00">0.2</text>
</g>
<!-- 14&#45;&#45;load_PQ_11 -->
<g id="edge26" class="edge">
<title>14&#45;&#45;load_PQ_11</title>
<path fill="none" stroke="#d32f2f" d="M370.55,-256.92C367.72,-232.16 363.15,-192.1 360.43,-168.23"/>
</g>
<!-- exc_AVRESST3A_2 -->
<g id="node21" class="node">
<title>exc_AVRESST3A_2</title>
<path fill="#fff3e0" stroke="#ff6f00" stroke-width="1.5" d="M529.39,-925.45C529.39,-925.45 496.99,-925.45 496.99,-925.45 491.59,-925.45 486.19,-920.05 486.19,-914.65 486.19,-914.65 486.19,-903.85 486.19,-903.85 486.19,-898.45 491.59,-893.05 496.99,-893.05 496.99,-893.05 529.39,-893.05 529.39,-893.05 534.79,-893.05 540.19,-898.45 540.19,-903.85 540.19,-903.85 540.19,-914.65 540.19,-914.65 540.19,-920.05 534.79,-925.45 529.39,-925.45"/>
<text xml:space="preserve" text-anchor="middle" x="513.19" y="-906.53" font-family="Arial" font-size="8.00">ESST3A</text>
</g>
<!-- gen_GGENROU_1&#45;&#45;exc_AVRESST3A_2 -->
<g id="edge7" class="edge">
<title>gen_GGENROU_1&#45;&#45;exc_AVRESST3A_2</title>
<path fill="none" stroke="#ff6f00" stroke-width="1.5" stroke-dasharray="5,2" d="M534.43,-827.19C529.14,-847.61 522.04,-875.05 517.54,-892.44"/>
</g>
<!-- gov_GOVTGOV1_1 -->
<g id="node25" class="node">
<title>gov_GOVTGOV1_1</title>
<path fill="#e8f5e9" stroke="#2e7d32" stroke-width="1.5" d="M637.91,-892.56C637.91,-892.56 605.51,-892.56 605.51,-892.56 600.11,-892.56 594.71,-887.16 594.71,-881.76 594.71,-881.76 594.71,-870.96 594.71,-870.96 594.71,-865.56 600.11,-860.16 605.51,-860.16 605.51,-860.16 637.91,-860.16 637.91,-860.16 643.31,-860.16 648.71,-865.56 648.71,-870.96 648.71,-870.96 648.71,-881.76 648.71,-881.76 648.71,-887.16 643.31,-892.56 637.91,-892.56"/>
<text xml:space="preserve" text-anchor="middle" x="621.71" y="-873.63" font-family="Arial" font-size="8.00">TGOV1</text>
</g>
<!-- gen_GGENROU_1&#45;&#45;gov_GOVTGOV1_1 -->
<g id="edge11" class="edge">
<title>gen_GGENROU_1&#45;&#45;gov_GOVTGOV1_1</title>
<path fill="none" stroke="#2e7d32" stroke-width="1.5" stroke-dasharray="5,2" d="M563.35,-821.04C576.07,-833.1 591.89,-848.1 603.85,-859.43"/>
</g>
<!-- exc_AVREXST1_1 -->
<g id="node20" class="node">
<title>exc_AVREXST1_1</title>
<path fill="#fff3e0" stroke="#ff6f00" stroke-width="1.5" d="M787.25,-655.18C787.25,-655.18 754.85,-655.18 754.85,-655.18 749.45,-655.18 744.05,-649.78 744.05,-644.38 744.05,-644.38 744.05,-633.58 744.05,-633.58 744.05,-628.18 749.45,-622.78 754.85,-622.78 754.85,-622.78 787.25,-622.78 787.25,-622.78 792.65,-622.78 798.05,-628.18 798.05,-633.58 798.05,-633.58 798.05,-644.38 798.05,-644.38 798.05,-649.78 792.65,-655.18 787.25,-655.18"/>
<text xml:space="preserve" text-anchor="middle" x="771.05" y="-636.25" font-family="Arial" font-size="8.00">EXST1</text>
</g>
<!-- gen_GGENROU_2&#45;&#45;exc_AVREXST1_1 -->
<g id="edge6" class="edge">
<title>gen_GGENROU_2&#45;&#45;exc_AVREXST1_1</title>
<path fill="none" stroke="#ff6f00" stroke-width="1.5" stroke-dasharray="5,2" d="M692.62,-652.14C708.71,-649.44 727.96,-646.21 743.36,-643.62"/>
</g>
<!-- gov_GOVIEEEG1_4 -->
<g id="node28" class="node">
<title>gov_GOVIEEEG1_4</title>
<path fill="#e8f5e9" stroke="#2e7d32" stroke-width="1.5" d="M752.07,-745.22C752.07,-745.22 719.67,-745.22 719.67,-745.22 714.27,-745.22 708.87,-739.82 708.87,-734.42 708.87,-734.42 708.87,-723.62 708.87,-723.62 708.87,-718.22 714.27,-712.82 719.67,-712.82 719.67,-712.82 752.07,-712.82 752.07,-712.82 757.47,-712.82 762.87,-718.22 762.87,-723.62 762.87,-723.62 762.87,-734.42 762.87,-734.42 762.87,-739.82 757.47,-745.22 752.07,-745.22"/>
<text xml:space="preserve" text-anchor="middle" x="735.87" y="-726.3" font-family="Arial" font-size="8.00">IEEEG1</text>
</g>
<!-- gen_GGENROU_2&#45;&#45;gov_GOVIEEEG1_4 -->
<g id="edge14" class="edge">
<title>gen_GGENROU_2&#45;&#45;gov_GOVIEEEG1_4</title>
<path fill="none" stroke="#2e7d32" stroke-width="1.5" stroke-dasharray="5,2" d="M682.14,-678.23C693.66,-689.11 707.58,-702.28 718.37,-712.48"/>
</g>
<!-- exc_AVRESST3A_3 -->
<g id="node22" class="node">
<title>exc_AVRESST3A_3</title>
<path fill="#fff3e0" stroke="#ff6f00" stroke-width="1.5" d="M462.64,-889.76C462.64,-889.76 430.24,-889.76 430.24,-889.76 424.84,-889.76 419.44,-884.36 419.44,-878.96 419.44,-878.96 419.44,-868.16 419.44,-868.16 419.44,-862.76 424.84,-857.36 430.24,-857.36 430.24,-857.36 462.64,-857.36 462.64,-857.36 468.04,-857.36 473.44,-862.76 473.44,-868.16 473.44,-868.16 473.44,-878.96 473.44,-878.96 473.44,-884.36 468.04,-889.76 462.64,-889.76"/>
<text xml:space="preserve" text-anchor="middle" x="446.44" y="-870.83" font-family="Arial" font-size="8.00">ESST3A</text>
</g>
<!-- gen_GGENROU_3&#45;&#45;exc_AVRESST3A_3 -->
<g id="edge8" class="edge">
<title>gen_GGENROU_3&#45;&#45;exc_AVRESST3A_3</title>
<path fill="none" stroke="#ff6f00" stroke-width="1.5" stroke-dasharray="5,2" d="M443.79,-792.03C444.46,-812.47 445.34,-839.69 445.9,-856.92"/>
</g>
<!-- gov_GOVIEEEG1_5 -->
<g id="node29" class="node">
<title>gov_GOVIEEEG1_5</title>
<path fill="#e8f5e9" stroke="#2e7d32" stroke-width="1.5" d="M363.59,-851.28C363.59,-851.28 331.19,-851.28 331.19,-851.28 325.79,-851.28 320.39,-845.88 320.39,-840.48 320.39,-840.48 320.39,-829.68 320.39,-829.68 320.39,-824.28 325.79,-818.88 331.19,-818.88 331.19,-818.88 363.59,-818.88 363.59,-818.88 368.99,-818.88 374.39,-824.28 374.39,-829.68 374.39,-829.68 374.39,-840.48 374.39,-840.48 374.39,-845.88 368.99,-851.28 363.59,-851.28"/>
<text xml:space="preserve" text-anchor="middle" x="347.39" y="-832.36" font-family="Arial" font-size="8.00">IEEEG1</text>
</g>
<!-- gen_GGENROU_3&#45;&#45;gov_GOVIEEEG1_5 -->
<g id="edge15" class="edge">
<title>gen_GGENROU_3&#45;&#45;gov_GOVIEEEG1_5</title>
<path fill="none" stroke="#2e7d32" stroke-width="1.5" stroke-dasharray="5,2" d="M418.3,-782.69C403.49,-793.63 384.75,-807.48 370.26,-818.18"/>
</g>
<!-- exc_AVRESST3A_4 -->
<g id="node23" class="node">
<title>exc_AVRESST3A_4</title>
<path fill="#fff3e0" stroke="#ff6f00" stroke-width="1.5" d="M43.2,-473.59C43.2,-473.59 10.8,-473.59 10.8,-473.59 5.4,-473.59 0,-468.19 0,-462.79 0,-462.79 0,-451.99 0,-451.99 0,-446.59 5.4,-441.19 10.8,-441.19 10.8,-441.19 43.2,-441.19 43.2,-441.19 48.6,-441.19 54,-446.59 54,-451.99 54,-451.99 54,-462.79 54,-462.79 54,-468.19 48.6,-473.59 43.2,-473.59"/>
<text xml:space="preserve" text-anchor="middle" x="27" y="-454.66" font-family="Arial" font-size="8.00">ESST3A</text>
</g>
<!-- gen_GGENROU_4&#45;&#45;exc_AVRESST3A_4 -->
<g id="edge9" class="edge">
<title>gen_GGENROU_4&#45;&#45;exc_AVRESST3A_4</title>
<path fill="none" stroke="#ff6f00" stroke-width="1.5" stroke-dasharray="5,2" d="M105.06,-466.93C89,-464.97 69.83,-462.62 54.52,-460.75"/>
</g>
<!-- gov_GOVTGOV1_2 -->
<g id="node26" class="node">
<title>gov_GOVTGOV1_2</title>
<path fill="#e8f5e9" stroke="#2e7d32" stroke-width="1.5" d="M77.73,-565.15C77.73,-565.15 45.33,-565.15 45.33,-565.15 39.93,-565.15 34.53,-559.75 34.53,-554.35 34.53,-554.35 34.53,-543.55 34.53,-543.55 34.53,-538.15 39.93,-532.75 45.33,-532.75 45.33,-532.75 77.73,-532.75 77.73,-532.75 83.13,-532.75 88.53,-538.15 88.53,-543.55 88.53,-543.55 88.53,-554.35 88.53,-554.35 88.53,-559.75 83.13,-565.15 77.73,-565.15"/>
<text xml:space="preserve" text-anchor="middle" x="61.53" y="-546.23" font-family="Arial" font-size="8.00">TGOV1</text>
</g>
<!-- gen_GGENROU_4&#45;&#45;gov_GOVTGOV1_2 -->
<g id="edge12" class="edge">
<title>gen_GGENROU_4&#45;&#45;gov_GOVTGOV1_2</title>
<path fill="none" stroke="#2e7d32" stroke-width="1.5" stroke-dasharray="5,2" d="M116.86,-492.24C104.62,-504.78 89.36,-520.43 77.97,-532.1"/>
</g>
<!-- exc_AVRESST3A_5 -->
<g id="node24" class="node">
<title>exc_AVRESST3A_5</title>
<path fill="#fff3e0" stroke="#ff6f00" stroke-width="1.5" d="M869.84,-32.4C869.84,-32.4 837.44,-32.4 837.44,-32.4 832.04,-32.4 826.64,-27 826.64,-21.6 826.64,-21.6 826.64,-10.8 826.64,-10.8 826.64,-5.4 832.04,0 837.44,0 837.44,0 869.84,0 869.84,0 875.24,0 880.64,-5.4 880.64,-10.8 880.64,-10.8 880.64,-21.6 880.64,-21.6 880.64,-27 875.24,-32.4 869.84,-32.4"/>
<text xml:space="preserve" text-anchor="middle" x="853.64" y="-13.47" font-family="Arial" font-size="8.00">ESST3A</text>
</g>
<!-- gen_GGENROU_5&#45;&#45;exc_AVRESST3A_5 -->
<g id="edge10" class="edge">
<title>gen_GGENROU_5&#45;&#45;exc_AVRESST3A_5</title>
<path fill="none" stroke="#ff6f00" stroke-width="1.5" stroke-dasharray="5,2" d="M841.47,-92.99C844.49,-73.94 848.42,-49.16 850.99,-32.97"/>
</g>
<!-- gov_GOVTGOV1_3 -->
<g id="node27" class="node">
<title>gov_GOVTGOV1_3</title>
<path fill="#e8f5e9" stroke="#2e7d32" stroke-width="1.5" d="M957.45,-139.08C957.45,-139.08 925.05,-139.08 925.05,-139.08 919.65,-139.08 914.25,-133.68 914.25,-128.28 914.25,-128.28 914.25,-117.48 914.25,-117.48 914.25,-112.08 919.65,-106.68 925.05,-106.68 925.05,-106.68 957.45,-106.68 957.45,-106.68 962.85,-106.68 968.25,-112.08 968.25,-117.48 968.25,-117.48 968.25,-128.28 968.25,-128.28 968.25,-133.68 962.85,-139.08 957.45,-139.08"/>
<text xml:space="preserve" text-anchor="middle" x="941.25" y="-120.15" font-family="Arial" font-size="8.00">TGOV1</text>
</g>
<!-- gen_GGENROU_5&#45;&#45;gov_GOVTGOV1_3 -->
<g id="edge13" class="edge">
<title>gen_GGENROU_5&#45;&#45;gov_GOVTGOV1_3</title>
<path fill="none" stroke="#2e7d32" stroke-width="1.5" stroke-dasharray="5,2" d="M870.08,-121.16C884.14,-121.5 900.36,-121.89 913.76,-122.21"/>
</g>
<!-- xfmr_0&#45;&#45;7 -->
<g id="edge44" class="edge">
<title>xfmr_0&#45;&#45;7</title>
<path fill="none" stroke="#7b1fa2" stroke-width="2.5" d="M595.58,-401.86C595.71,-382.45 595.89,-357.13 596.02,-339.35"/>
</g>
<!-- xfmr_1&#45;&#45;9 -->
<g id="edge46" class="edge">
<title>xfmr_1&#45;&#45;9</title>
<path fill="none" stroke="#7b1fa2" stroke-width="2.5" d="M500.39,-391.7C499.09,-371.53 497.35,-344.28 496.14,-325.48"/>
</g>
<!-- xfmr_2&#45;&#45;5 -->
<g id="edge48" class="edge">
<title>xfmr_2&#45;&#45;5</title>
<path fill="none" stroke="#7b1fa2" stroke-width="2.5" d="M356.43,-518.15C372.62,-527.25 396.57,-540.72 415.61,-551.42"/>
</g>
<!-- xfmr_3&#45;&#45;7 -->
<g id="edge50" class="edge">
<title>xfmr_3&#45;&#45;7</title>
<path fill="none" stroke="#7b1fa2" stroke-width="2.5" d="M667.99,-265.83C656.28,-274.29 640.27,-285.86 626.34,-295.92"/>
</g>
</g>
</svg>
