<svg width="1800" height="1000" xmlns="http://www.w3.org/2000/svg">
<defs>
<marker id="arrowhead" markerWidth="10" markerHeight="7" refX="9" refY="3.5" orient="auto">
<polygon points="0 0, 10 3.5, 0 7" fill="#666"/>
</marker>
</defs>
<rect width="100%" height="100%" fill="#fafafa"/>
<text x="50" y="35" font-family="Arial" font-size="20" font-weight="bold" fill="#1a237e">Auto-Layout Power System Visualization (hierarchical)</text>
<text x="50" y="55" font-family="Arial" font-size="12" fill="#666">Positions computed from electrical distances (impedance-based)</text>
<rect x="50" y="930" width="1700" height="55" fill="#f5f5f5" stroke="#bdbdbd" rx="5"/>
<text x="70" y="950" font-family="Arial" font-size="12" font-weight="bold">Legend:</text>
<circle cx="170" cy="955" r="12" fill="#e3f2fd" stroke="#1976d2" stroke-width="2"/>
<text x="165" y="960" font-family="Arial" font-size="10" font-weight="bold" fill="#1976d2">G</text>
<text x="190" y="960" font-family="Arial" font-size="11">Generator</text>
<rect x="270" y="945" width="20" height="20" fill="#fff3e0" stroke="#ff6f00" stroke-width="2" rx="3"/>
<text x="300" y="960" font-family="Arial" font-size="11">Exciter</text>
<rect x="380" y="945" width="20" height="20" fill="#e8f5e9" stroke="#2e7d32" stroke-width="2" rx="3"/>
<text x="410" y="960" font-family="Arial" font-size="11">Governor</text>
<circle cx="510" cy="950" r="8" fill="#f3e5f5" stroke="#7b1fa2" stroke-width="2"/>
<circle cx="520" cy="960" r="8" fill="#f3e5f5" stroke="#7b1fa2" stroke-width="2"/>
<text x="540" y="960" font-family="Arial" font-size="11">Transformer</text>
<line x1="640" y1="955" x2="690" y2="955" stroke="#424242" stroke-width="3"/>
<text x="700" y="960" font-family="Arial" font-size="11">Transmission Line</text>
<rect x="830" y="942" width="8" height="26" fill="#212121" rx="2"/>
<text x="850" y="960" font-family="Arial" font-size="11">Bus</text>
<polygon points="920,965 935,945 950,965" fill="#ffebee" stroke="#d32f2f" stroke-width="2"/>
<text x="960" y="960" font-family="Arial" font-size="11">Load</text>
<line x1="150.0" y1="200.0" x2="265.4" y2="200.0" stroke="#424242" stroke-width="2"/>
<text x="207.7" y="185.0" font-family="Arial" font-size="9" fill="#616161" text-anchor="middle" transform="rotate(0.0 207.7 185.0)">X=0.059</text>
<line x1="150.0" y1="200.0" x2="611.5" y2="200.0" stroke="#424242" stroke-width="2"/>
<text x="380.8" y="185.0" font-family="Arial" font-size="9" fill="#616161" text-anchor="middle" transform="rotate(0.0 380.8 185.0)">X=0.223</text>
<line x1="265.4" y1="200.0" x2="380.8" y2="200.0" stroke="#424242" stroke-width="2"/>
<text x="323.1" y="185.0" font-family="Arial" font-size="9" fill="#616161" text-anchor="middle" transform="rotate(0.0 323.1 185.0)">X=0.198</text>
<line x1="265.4" y1="200.0" x2="496.2" y2="200.0" stroke="#424242" stroke-width="2"/>
<text x="380.8" y="185.0" font-family="Arial" font-size="9" fill="#616161" text-anchor="middle" transform="rotate(0.0 380.8 185.0)">X=0.176</text>
<line x1="265.4" y1="200.0" x2="611.5" y2="200.0" stroke="#424242" stroke-width="2"/>
<text x="438.5" y="185.0" font-family="Arial" font-size="9" fill="#616161" text-anchor="middle" transform="rotate(0.0 438.5 185.0)">X=0.174</text>
<line x1="380.8" y1="200.0" x2="496.2" y2="200.0" stroke="#424242" stroke-width="2"/>
<text x="438.5" y="185.0" font-family="Arial" font-size="9" fill="#616161" text-anchor="middle" transform="rotate(0.0 438.5 185.0)">X=0.171</text>
<line x1="496.2" y1="200.0" x2="611.5" y2="200.0" stroke="#424242" stroke-width="2"/>
<text x="553.8" y="185.0" font-family="Arial" font-size="9" fill="#616161" text-anchor="middle" transform="rotate(0.0 553.8 185.0)">X=0.042</text>
<line x1="726.9" y1="200.0" x2="1303.8" y2="200.0" stroke="#424242" stroke-width="2"/>
<text x="1015.4" y="185.0" font-family="Arial" font-size="9" fill="#616161" text-anchor="middle" transform="rotate(0.0 1015.4 185.0)">X=0.199</text>
<line x1="726.9" y1="200.0" x2="1419.2" y2="200.0" stroke="#424242" stroke-width="2"/>
<text x="1073.1" y="185.0" font-family="Arial" font-size="9" fill="#616161" text-anchor="middle" transform="rotate(0.0 1073.1 185.0)">X=0.256</text>
<line x1="726.9" y1="200.0" x2="1534.6" y2="200.0" stroke="#424242" stroke-width="2"/>
<text x="1130.8" y="185.0" font-family="Arial" font-size="9" fill="#616161" text-anchor="middle" transform="rotate(0.0 1130.8 185.0)">X=0.130</text>
<line x1="842.3" y1="200.0" x2="1073.1" y2="200.0" stroke="#424242" stroke-width="2"/>
<text x="957.7" y="185.0" font-family="Arial" font-size="9" fill="#616161" text-anchor="middle" transform="rotate(0.0 957.7 185.0)">X=0.110</text>
<line x1="1073.1" y1="200.0" x2="1188.5" y2="200.0" stroke="#424242" stroke-width="2"/>
<text x="1130.8" y="185.0" font-family="Arial" font-size="9" fill="#616161" text-anchor="middle" transform="rotate(0.0 1130.8 185.0)">X=0.085</text>
<line x1="1073.1" y1="200.0" x2="1650.0" y2="200.0" stroke="#424242" stroke-width="2"/>
<text x="1361.5" y="185.0" font-family="Arial" font-size="9" fill="#616161" text-anchor="middle" transform="rotate(0.0 1361.5 185.0)">X=0.270</text>
<line x1="1188.5" y1="200.0" x2="1303.8" y2="200.0" stroke="#424242" stroke-width="2"/>
<text x="1246.2" y="185.0" font-family="Arial" font-size="9" fill="#616161" text-anchor="middle" transform="rotate(0.0 1246.2 185.0)">X=0.192</text>
<line x1="1419.2" y1="200.0" x2="1534.6" y2="200.0" stroke="#424242" stroke-width="2"/>
<text x="1476.9" y="185.0" font-family="Arial" font-size="9" fill="#616161" text-anchor="middle" transform="rotate(0.0 1476.9 185.0)">X=0.200</text>
<line x1="1534.6" y1="200.0" x2="1650.0" y2="200.0" stroke="#424242" stroke-width="2"/>
<text x="1592.3" y="185.0" font-family="Arial" font-size="9" fill="#616161" text-anchor="middle" transform="rotate(0.0 1592.3 185.0)">X=0.348</text>
<line x1="496.2" y1="200.0" x2="654.2" y2="200.0" stroke="#7b1fa2" stroke-width="3"/>
<line x1="684.2" y1="200.0" x2="842.3" y2="200.0" stroke="#7b1fa2" stroke-width="3"/>
<circle cx="661.2" cy="200.0" r="10" fill="#f3e5f5" stroke="#7b1fa2" stroke-width="2"/>
<circle cx="677.2" cy="200.0" r="10" fill="#f3e5f5" stroke="#7b1fa2" stroke-width="2"/>
<text x="669.2" y="225.0" font-family="Arial" font-size="8" fill="#7b1fa2" text-anchor="middle">X=0.20912</text>
<line x1="496.2" y1="200.0" x2="769.6" y2="200.0" stroke="#7b1fa2" stroke-width="3"/>
<line x1="799.6" y1="200.0" x2="1073.1" y2="200.0" stroke="#7b1fa2" stroke-width="3"/>
<circle cx="776.6" cy="200.0" r="10" fill="#f3e5f5" stroke="#7b1fa2" stroke-width="2"/>
<circle cx="792.6" cy="200.0" r="10" fill="#f3e5f5" stroke="#7b1fa2" stroke-width="2"/>
<text x="784.6" y="225.0" font-family="Arial" font-size="8" fill="#7b1fa2" text-anchor="middle">X=0.55618</text>
<line x1="726.9" y1="200.0" x2="684.2" y2="200.0" stroke="#7b1fa2" stroke-width="3"/>
<line x1="654.2" y1="200.0" x2="611.5" y2="200.0" stroke="#7b1fa2" stroke-width="3"/>
<circle cx="677.2" cy="200.0" r="10" fill="#f3e5f5" stroke="#7b1fa2" stroke-width="2"/>
<circle cx="661.2" cy="200.0" r="10" fill="#f3e5f5" stroke="#7b1fa2" stroke-width="2"/>
<text x="669.2" y="225.0" font-family="Arial" font-size="8" fill="#7b1fa2" text-anchor="middle">X=0.25202</text>
<line x1="957.7" y1="200.0" x2="915.0" y2="200.0" stroke="#7b1fa2" stroke-width="3"/>
<line x1="885.0" y1="200.0" x2="842.3" y2="200.0" stroke="#7b1fa2" stroke-width="3"/>
<circle cx="908.0" cy="200.0" r="10" fill="#f3e5f5" stroke="#7b1fa2" stroke-width="2"/>
<circle cx="892.0" cy="200.0" r="10" fill="#f3e5f5" stroke="#7b1fa2" stroke-width="2"/>
<text x="900.0" y="225.0" font-family="Arial" font-size="8" fill="#7b1fa2" text-anchor="middle">X=0.17615</text>
<line x1="150.0" y1="200.0" x2="15.0" y2="200.0" stroke="#1976d2" stroke-width="2.0"/>
<circle cx="15.0" cy="200.0" r="20.0" fill="#e3f2fd" stroke="#1976d2" stroke-width="3.0"/>
<text x="15.0" y="205.0" font-family="Arial" font-size="12" font-weight="bold" fill="#1976d2" text-anchor="middle">GGENROU_1</text>
<text x="-45.0" y="192.0" font-family="Arial" font-size="8" fill="#1565c0" text-anchor="middle">M=8.0</text>
<text x="-45.0" y="203.0" font-family="Arial" font-size="8" fill="#1565c0" text-anchor="middle">100MVA</text>
<line x1="265.4" y1="200.0" x2="130.4" y2="200.0" stroke="#1976d2" stroke-width="2.0"/>
<circle cx="130.4" cy="200.0" r="20.0" fill="#e3f2fd" stroke="#1976d2" stroke-width="3.0"/>
<text x="130.4" y="205.0" font-family="Arial" font-size="12" font-weight="bold" fill="#1976d2" text-anchor="middle">GGENROU_2</text>
<text x="70.4" y="192.0" font-family="Arial" font-size="8" fill="#1565c0" text-anchor="middle">M=13.0</text>
<text x="70.4" y="203.0" font-family="Arial" font-size="8" fill="#1565c0" text-anchor="middle">100MVA</text>
<line x1="380.8" y1="200.0" x2="245.8" y2="200.0" stroke="#1976d2" stroke-width="2.0"/>
<circle cx="245.8" cy="200.0" r="20.0" fill="#e3f2fd" stroke="#1976d2" stroke-width="3.0"/>
<text x="245.8" y="205.0" font-family="Arial" font-size="12" font-weight="bold" fill="#1976d2" text-anchor="middle">GGENROU_3</text>
<text x="185.8" y="192.0" font-family="Arial" font-size="8" fill="#1565c0" text-anchor="middle">M=10.0</text>
<text x="185.8" y="203.0" font-family="Arial" font-size="8" fill="#1565c0" text-anchor="middle">100MVA</text>
<line x1="726.9" y1="200.0" x2="591.9" y2="200.0" stroke="#1976d2" stroke-width="2.0"/>
<circle cx="591.9" cy="200.0" r="20.0" fill="#e3f2fd" stroke="#1976d2" stroke-width="3.0"/>
<text x="591.9" y="205.0" font-family="Arial" font-size="12" font-weight="bold" fill="#1976d2" text-anchor="middle">GGENROU_4</text>
<text x="531.9" y="192.0" font-family="Arial" font-size="8" fill="#1565c0" text-anchor="middle">M=10.0</text>
<text x="531.9" y="203.0" font-family="Arial" font-size="8" fill="#1565c0" text-anchor="middle">100MVA</text>
<line x1="957.7" y1="200.0" x2="1092.7" y2="200.0" stroke="#1976d2" stroke-width="2.0"/>
<circle cx="1092.7" cy="200.0" r="20.0" fill="#e3f2fd" stroke="#1976d2" stroke-width="3.0"/>
<text x="1092.7" y="205.0" font-family="Arial" font-size="12" font-weight="bold" fill="#1976d2" text-anchor="middle">GGENROU_5</text>
<text x="1152.7" y="192.0" font-family="Arial" font-size="8" fill="#1565c0" text-anchor="middle">M=10.0</text>
<text x="1152.7" y="203.0" font-family="Arial" font-size="8" fill="#1565c0" text-anchor="middle">100MVA</text>
<line x1="130.4" y1="180.0" x2="89.1" y2="281.4" stroke="#ff6f00" stroke-width="1.5" stroke-dasharray="3,2"/>
<rect x="71.1" y="261.4" width="36.0" height="20.0" fill="#fff3e0" stroke="#ff6f00" stroke-width="2.0" rx="3"/>
<text x="89.1" y="275.4" font-family="Arial" font-size="7" font-weight="bold" fill="#e65100" text-anchor="middle">EXST1</text>
<line x1="15.0" y1="180.0" x2="-26.2" y2="281.4" stroke="#ff6f00" stroke-width="1.5" stroke-dasharray="3,2"/>
<rect x="-44.2" y="261.4" width="36.0" height="20.0" fill="#fff3e0" stroke="#ff6f00" stroke-width="2.0" rx="3"/>
<text x="-26.2" y="275.4" font-family="Arial" font-size="7" font-weight="bold" fill="#e65100" text-anchor="middle">ESST3A</text>
<line x1="245.8" y1="180.0" x2="204.5" y2="281.4" stroke="#ff6f00" stroke-width="1.5" stroke-dasharray="3,2"/>
<rect x="186.5" y="261.4" width="36.0" height="20.0" fill="#fff3e0" stroke="#ff6f00" stroke-width="2.0" rx="3"/>
<text x="204.5" y="275.4" font-family="Arial" font-size="7" font-weight="bold" fill="#e65100" text-anchor="middle">ESST3A</text>
<line x1="591.9" y1="180.0" x2="550.7" y2="281.4" stroke="#ff6f00" stroke-width="1.5" stroke-dasharray="3,2"/>
<rect x="532.7" y="261.4" width="36.0" height="20.0" fill="#fff3e0" stroke="#ff6f00" stroke-width="2.0" rx="3"/>
<text x="550.7" y="275.4" font-family="Arial" font-size="7" font-weight="bold" fill="#e65100" text-anchor="middle">ESST3A</text>
<line x1="1092.7" y1="180.0" x2="1133.9" y2="138.6" stroke="#ff6f00" stroke-width="1.5" stroke-dasharray="3,2"/>
<rect x="1115.9" y="118.6" width="36.0" height="20.0" fill="#fff3e0" stroke="#ff6f00" stroke-width="2.0" rx="3"/>
<text x="1133.9" y="132.6" font-family="Arial" font-size="7" font-weight="bold" fill="#e65100" text-anchor="middle">ESST3A</text>
<line x1="15.0" y1="220.0" x2="-26.2" y2="118.6" stroke="#2e7d32" stroke-width="1.5" stroke-dasharray="3,2"/>
<rect x="-44.2" y="118.6" width="36.0" height="20.0" fill="#e8f5e9" stroke="#2e7d32" stroke-width="2.0" rx="3"/>
<text x="-26.2" y="132.6" font-family="Arial" font-size="7" font-weight="bold" fill="#1b5e20" text-anchor="middle">TGOV1</text>
<line x1="591.9" y1="220.0" x2="550.7" y2="118.6" stroke="#2e7d32" stroke-width="1.5" stroke-dasharray="3,2"/>
<rect x="532.7" y="118.6" width="36.0" height="20.0" fill="#e8f5e9" stroke="#2e7d32" stroke-width="2.0" rx="3"/>
<text x="550.7" y="132.6" font-family="Arial" font-size="7" font-weight="bold" fill="#1b5e20" text-anchor="middle">TGOV1</text>
<line x1="1092.7" y1="220.0" x2="1133.9" y2="261.4" stroke="#2e7d32" stroke-width="1.5" stroke-dasharray="3,2"/>
<rect x="1115.9" y="261.4" width="36.0" height="20.0" fill="#e8f5e9" stroke="#2e7d32" stroke-width="2.0" rx="3"/>
<text x="1133.9" y="275.4" font-family="Arial" font-size="7" font-weight="bold" fill="#1b5e20" text-anchor="middle">TGOV1</text>
<line x1="130.4" y1="220.0" x2="89.1" y2="118.6" stroke="#2e7d32" stroke-width="1.5" stroke-dasharray="3,2"/>
<rect x="71.1" y="118.6" width="36.0" height="20.0" fill="#e8f5e9" stroke="#2e7d32" stroke-width="2.0" rx="3"/>
<text x="89.1" y="132.6" font-family="Arial" font-size="7" font-weight="bold" fill="#1b5e20" text-anchor="middle">IEEEG1</text>
<line x1="245.8" y1="220.0" x2="204.5" y2="118.6" stroke="#2e7d32" stroke-width="1.5" stroke-dasharray="3,2"/>
<rect x="186.5" y="118.6" width="36.0" height="20.0" fill="#e8f5e9" stroke="#2e7d32" stroke-width="2.0" rx="3"/>
<text x="204.5" y="132.6" font-family="Arial" font-size="7" font-weight="bold" fill="#1b5e20" text-anchor="middle">IEEEG1</text>
<line x1="265.4" y1="200.0" x2="265.4" y2="338.0" stroke="#d32f2f" stroke-width="2.0"/>
<polygon points="265.4,362.0 253.4,342.0 277.4,342.0" fill="#ffebee" stroke="#d32f2f" stroke-width="2.0"/>
<text x="265.4" y="375.0" font-family="Arial" font-size="8" fill="#c62828" text-anchor="middle">P=0.217</text>
<line x1="380.8" y1="200.0" x2="380.8" y2="338.0" stroke="#d32f2f" stroke-width="2.0"/>
<polygon points="380.8,362.0 368.8,342.0 392.8,342.0" fill="#ffebee" stroke="#d32f2f" stroke-width="2.0"/>
<text x="380.8" y="375.0" font-family="Arial" font-size="8" fill="#c62828" text-anchor="middle">P=0.5</text>
<line x1="496.2" y1="200.0" x2="496.2" y2="278.0" stroke="#d32f2f" stroke-width="2.0"/>
<polygon points="496.2,302.0 484.2,282.0 508.2,282.0" fill="#ffebee" stroke="#d32f2f" stroke-width="2.0"/>
<text x="496.2" y="315.0" font-family="Arial" font-size="8" fill="#c62828" text-anchor="middle">P=0.478</text>
<line x1="611.5" y1="200.0" x2="611.5" y2="278.0" stroke="#d32f2f" stroke-width="2.0"/>
<polygon points="611.5,302.0 599.5,282.0 623.5,282.0" fill="#ffebee" stroke="#d32f2f" stroke-width="2.0"/>
<text x="611.5" y="315.0" font-family="Arial" font-size="8" fill="#c62828" text-anchor="middle">P=0.076</text>
<line x1="726.9" y1="200.0" x2="726.9" y2="338.0" stroke="#d32f2f" stroke-width="2.0"/>
<polygon points="726.9,362.0 714.9,342.0 738.9,342.0" fill="#ffebee" stroke="#d32f2f" stroke-width="2.0"/>
<text x="726.9" y="375.0" font-family="Arial" font-size="8" fill="#c62828" text-anchor="middle">P=0.15</text>
<line x1="1073.1" y1="200.0" x2="1073.1" y2="278.0" stroke="#d32f2f" stroke-width="2.0"/>
<polygon points="1073.1,302.0 1061.1,282.0 1085.1,282.0" fill="#ffebee" stroke="#d32f2f" stroke-width="2.0"/>
<text x="1073.1" y="315.0" font-family="Arial" font-size="8" fill="#c62828" text-anchor="middle">P=0.295</text>
<line x1="1188.5" y1="200.0" x2="1188.5" y2="278.0" stroke="#d32f2f" stroke-width="2.0"/>
<polygon points="1188.5,302.0 1176.5,282.0 1200.5,282.0" fill="#ffebee" stroke="#d32f2f" stroke-width="2.0"/>
<text x="1188.5" y="315.0" font-family="Arial" font-size="8" fill="#c62828" text-anchor="middle">P=0.09</text>
<line x1="1303.8" y1="200.0" x2="1303.8" y2="278.0" stroke="#d32f2f" stroke-width="2.0"/>
<polygon points="1303.8,302.0 1291.8,282.0 1315.8,282.0" fill="#ffebee" stroke="#d32f2f" stroke-width="2.0"/>
<text x="1303.8" y="315.0" font-family="Arial" font-size="8" fill="#c62828" text-anchor="middle">P=0.035</text>
<line x1="1419.2" y1="200.0" x2="1419.2" y2="278.0" stroke="#d32f2f" stroke-width="2.0"/>
<polygon points="1419.2,302.0 1407.2,282.0 1431.2,282.0" fill="#ffebee" stroke="#d32f2f" stroke-width="2.0"/>
<text x="1419.2" y="315.0" font-family="Arial" font-size="8" fill="#c62828" text-anchor="middle">P=0.061</text>
<line x1="1534.6" y1="200.0" x2="1534.6" y2="278.0" stroke="#d32f2f" stroke-width="2.0"/>
<polygon points="1534.6,302.0 1522.6,282.0 1546.6,282.0" fill="#ffebee" stroke="#d32f2f" stroke-width="2.0"/>
<text x="1534.6" y="315.0" font-family="Arial" font-size="8" fill="#c62828" text-anchor="middle">P=0.135</text>
<line x1="1650.0" y1="200.0" x2="1650.0" y2="278.0" stroke="#d32f2f" stroke-width="2.0"/>
<polygon points="1650.0,302.0 1638.0,282.0 1662.0,282.0" fill="#ffebee" stroke="#d32f2f" stroke-width="2.0"/>
<text x="1650.0" y="315.0" font-family="Arial" font-size="8" fill="#c62828" text-anchor="middle">P=0.2</text>
<rect x="146.0" y="175.0" width="8.0" height="50.0" fill="#1565c0" rx="2"/>
<text x="150.0" y="168.0" font-family="Arial" font-size="11" font-weight="bold" text-anchor="middle">BUS1</text>
<text x="150.0" y="240.0" font-family="Arial" font-size="9" fill="#757575" text-anchor="middle">69kV</text>
<rect x="261.4" y="175.0" width="8.0" height="50.0" fill="#1565c0" rx="2"/>
<text x="265.4" y="168.0" font-family="Arial" font-size="11" font-weight="bold" text-anchor="middle">BUS2</text>
<text x="265.4" y="240.0" font-family="Arial" font-size="9" fill="#757575" text-anchor="middle">69kV</text>
<rect x="376.8" y="175.0" width="8.0" height="50.0" fill="#1565c0" rx="2"/>
<text x="380.8" y="168.0" font-family="Arial" font-size="11" font-weight="bold" text-anchor="middle">BUS3</text>
<text x="380.8" y="240.0" font-family="Arial" font-size="9" fill="#757575" text-anchor="middle">69kV</text>
<rect x="492.2" y="175.0" width="8.0" height="50.0" fill="#1565c0" rx="2"/>
<text x="496.2" y="168.0" font-family="Arial" font-size="11" font-weight="bold" text-anchor="middle">BUS4</text>
<text x="496.2" y="240.0" font-family="Arial" font-size="9" fill="#757575" text-anchor="middle">69kV</text>
<rect x="607.5" y="175.0" width="8.0" height="50.0" fill="#1565c0" rx="2"/>
<text x="611.5" y="168.0" font-family="Arial" font-size="11" font-weight="bold" text-anchor="middle">BUS5</text>
<text x="611.5" y="240.0" font-family="Arial" font-size="9" fill="#757575" text-anchor="middle">69kV</text>
<rect x="722.9" y="175.0" width="8.0" height="50.0" fill="#212121" rx="2"/>
<text x="726.9" y="168.0" font-family="Arial" font-size="11" font-weight="bold" text-anchor="middle">BUS6</text>
<text x="726.9" y="240.0" font-family="Arial" font-size="9" fill="#757575" text-anchor="middle">138kV</text>
<rect x="838.3" y="175.0" width="8.0" height="50.0" fill="#212121" rx="2"/>
<text x="842.3" y="168.0" font-family="Arial" font-size="11" font-weight="bold" text-anchor="middle">BUS7</text>
<text x="842.3" y="240.0" font-family="Arial" font-size="9" fill="#757575" text-anchor="middle">138kV</text>
<rect x="953.7" y="175.0" width="8.0" height="50.0" fill="#1565c0" rx="2"/>
<text x="957.7" y="168.0" font-family="Arial" font-size="11" font-weight="bold" text-anchor="middle">BUS8</text>
<text x="957.7" y="240.0" font-family="Arial" font-size="9" fill="#757575" text-anchor="middle">69kV</text>
<rect x="1069.1" y="175.0" width="8.0" height="50.0" fill="#212121" rx="2"/>
<text x="1073.1" y="168.0" font-family="Arial" font-size="11" font-weight="bold" text-anchor="middle">BUS9</text>
<text x="1073.1" y="240.0" font-family="Arial" font-size="9" fill="#757575" text-anchor="middle">138kV</text>
<rect x="1184.5" y="175.0" width="8.0" height="50.0" fill="#212121" rx="2"/>
<text x="1188.5" y="168.0" font-family="Arial" font-size="11" font-weight="bold" text-anchor="middle">BUS10</text>
<text x="1188.5" y="240.0" font-family="Arial" font-size="9" fill="#757575" text-anchor="middle">138kV</text>
<rect x="1299.8" y="175.0" width="8.0" height="50.0" fill="#212121" rx="2"/>
<text x="1303.8" y="168.0" font-family="Arial" font-size="11" font-weight="bold" text-anchor="middle">BUS11</text>
<text x="1303.8" y="240.0" font-family="Arial" font-size="9" fill="#757575" text-anchor="middle">138kV</text>
<rect x="1415.2" y="175.0" width="8.0" height="50.0" fill="#212121" rx="2"/>
<text x="1419.2" y="168.0" font-family="Arial" font-size="11" font-weight="bold" text-anchor="middle">BUS12</text>
<text x="1419.2" y="240.0" font-family="Arial" font-size="9" fill="#757575" text-anchor="middle">138kV</text>
<rect x="1530.6" y="175.0" width="8.0" height="50.0" fill="#212121" rx="2"/>
<text x="1534.6" y="168.0" font-family="Arial" font-size="11" font-weight="bold" text-anchor="middle">BUS13</text>
<text x="1534.6" y="240.0" font-family="Arial" font-size="9" fill="#757575" text-anchor="middle">138kV</text>
<rect x="1646.0" y="175.0" width="8.0" height="50.0" fill="#212121" rx="2"/>
<text x="1650.0" y="168.0" font-family="Arial" font-size="11" font-weight="bold" text-anchor="middle">BUS14</text>
<text x="1650.0" y="240.0" font-family="Arial" font-size="9" fill="#757575" text-anchor="middle">138kV</text>
</svg>