<?xml version="1.0" encoding="UTF-8" standalone="no"?>
<!DOCTYPE svg PUBLIC "-//W3C//DTD SVG 1.1//EN"
 "http://www.w3.org/Graphics/SVG/1.1/DTD/svg11.dtd">
<!-- Generated by graphviz version 14.1.2 (20260124.0452)
 -->
<!-- Title: power_system Pages: 1 -->
<svg width="943pt" height="906pt"
 viewBox="0.00 0.00 943.00 906.00" xmlns="http://www.w3.org/2000/svg" xmlns:xlink="http://www.w3.org/1999/xlink">
<g id="graph0" class="graph" transform="scale(1 1) rotate(0) translate(36 869.81)">
<title>power_system</title>
<polygon fill="#fafafa" stroke="none" points="-36,36 -36,-869.81 907.01,-869.81 907.01,36 -36,36"/>
<!-- 1 -->
<g id="node1" class="node">
<title>1</title>
<polygon fill="#e64a19" stroke="#e64a19" stroke-width="0" points="456.67,-644.86 448.03,-644.86 448.03,-587.26 456.67,-587.26 456.67,-644.86"/>
<text xml:space="preserve" text-anchor="middle" x="452.35" y="-612.76" font-family="Arial" font-size="9.00" fill="white">1</text>
</g>
<!-- 2 -->
<g id="node2" class="node">
<title>2</title>
<polygon fill="#e64a19" stroke="#e64a19" stroke-width="0" points="496.38,-573.99 487.74,-573.99 487.74,-516.39 496.38,-516.39 496.38,-573.99"/>
<text xml:space="preserve" text-anchor="middle" x="492.06" y="-541.89" font-family="Arial" font-size="9.00" fill="white">2</text>
</g>
<!-- 1&#45;&#45;2 -->
<g id="edge27" class="edge">
<title>1&#45;&#45;2</title>
<path fill="none" stroke="#424242" stroke-width="2.5" d="M456.6,-608.48C464.29,-594.77 480.39,-566.02 487.96,-552.51"/>
<text xml:space="preserve" text-anchor="middle" x="492.2" y="-582.37" font-family="Arial" font-size="9.00">X=0.0592</text>
</g>
<!-- 5 -->
<g id="node5" class="node">
<title>5</title>
<polygon fill="#e64a19" stroke="#e64a19" stroke-width="0" points="404.03,-540.86 395.39,-540.86 395.39,-483.26 404.03,-483.26 404.03,-540.86"/>
<text xml:space="preserve" text-anchor="middle" x="399.71" y="-508.76" font-family="Arial" font-size="9.00" fill="white">5</text>
</g>
<!-- 1&#45;&#45;5 -->
<g id="edge28" class="edge">
<title>1&#45;&#45;5</title>
<path fill="none" stroke="#424242" stroke-width="2.5" d="M448.32,-615.54C442.96,-614.63 433.54,-612.25 428.16,-606.38 411.76,-588.47 404.8,-561.41 401.85,-540.86"/>
<text xml:space="preserve" text-anchor="middle" x="393.77" y="-585.68" font-family="Arial" font-size="9.00">X=0.2230</text>
</g>
<!-- gen_GGENROU_1 -->
<g id="node15" class="node">
<title>gen_GGENROU_1</title>
<ellipse fill="#e3f2fd" stroke="#1976d2" stroke-width="1.5" cx="485.38" cy="-718.91" rx="32.4" ry="27"/>
<text xml:space="preserve" text-anchor="middle" x="485.38" y="-726.11" font-family="Arial" font-size="9.00">GGENROU_1</text>
<text xml:space="preserve" text-anchor="middle" x="485.38" y="-715.61" font-family="Arial" font-size="9.00">M=8.0</text>
<text xml:space="preserve" text-anchor="middle" x="485.38" y="-705.11" font-family="Arial" font-size="9.00">100 MVA</text>
</g>
<!-- 1&#45;&#45;gen_GGENROU_1 -->
<g id="edge1" class="edge">
<title>1&#45;&#45;gen_GGENROU_1</title>
<path fill="none" stroke="#1976d2" stroke-width="1.5" d="M456.67,-629.51C461.78,-645.41 470.4,-672.25 476.86,-692.38"/>
</g>
<!-- 3 -->
<g id="node3" class="node">
<title>3</title>
<polygon fill="#e64a19" stroke="#e64a19" stroke-width="0" points="440,-603.18 431.36,-603.18 431.36,-545.58 440,-545.58 440,-603.18"/>
<text xml:space="preserve" text-anchor="middle" x="435.68" y="-571.08" font-family="Arial" font-size="9.00" fill="white">3</text>
</g>
<!-- 2&#45;&#45;3 -->
<g id="edge29" class="edge">
<title>2&#45;&#45;3</title>
<path fill="none" stroke="#424242" stroke-width="2.5" d="M488.01,-547.29C477.6,-552.68 450.06,-566.94 439.7,-572.3"/>
<text xml:space="preserve" text-anchor="middle" x="463.84" y="-551.25" font-family="Arial" font-size="9.00">X=0.1980</text>
</g>
<!-- 4 -->
<g id="node4" class="node">
<title>4</title>
<polygon fill="#e64a19" stroke="#e64a19" stroke-width="0" points="473.37,-498.7 464.73,-498.7 464.73,-441.1 473.37,-441.1 473.37,-498.7"/>
<text xml:space="preserve" text-anchor="middle" x="469.05" y="-466.6" font-family="Arial" font-size="9.00" fill="white">4</text>
</g>
<!-- 2&#45;&#45;4 -->
<g id="edge30" class="edge">
<title>2&#45;&#45;4</title>
<path fill="none" stroke="#424242" stroke-width="2.5" d="M487.84,-531.38C483.71,-517.88 477.46,-497.43 473.32,-483.87"/>
<text xml:space="preserve" text-anchor="middle" x="460.71" y="-509.6" font-family="Arial" font-size="9.00">X=0.1763</text>
</g>
<!-- 2&#45;&#45;5 -->
<g id="edge31" class="edge">
<title>2&#45;&#45;5</title>
<path fill="none" stroke="#424242" stroke-width="2.5" d="M487.85,-543.68C472.47,-538.16 419.37,-519.11 403.94,-513.58"/>
<text xml:space="preserve" text-anchor="middle" x="426.04" y="-530.59" font-family="Arial" font-size="9.00">X=0.1739</text>
</g>
<!-- gen_GGENROU_2 -->
<g id="node16" class="node">
<title>gen_GGENROU_2</title>
<ellipse fill="#e3f2fd" stroke="#1976d2" stroke-width="1.5" cx="593.55" cy="-594.53" rx="32.4" ry="27"/>
<text xml:space="preserve" text-anchor="middle" x="593.55" y="-601.73" font-family="Arial" font-size="9.00">GGENROU_2</text>
<text xml:space="preserve" text-anchor="middle" x="593.55" y="-591.23" font-family="Arial" font-size="9.00">M=13.0</text>
<text xml:space="preserve" text-anchor="middle" x="593.55" y="-580.73" font-family="Arial" font-size="9.00">100 MVA</text>
</g>
<!-- 2&#45;&#45;gen_GGENROU_2 -->
<g id="edge2" class="edge">
<title>2&#45;&#45;gen_GGENROU_2</title>
<path fill="none" stroke="#1976d2" stroke-width="1.5" d="M495.92,-547.07C507.14,-552.52 540.56,-568.77 565.19,-580.74"/>
</g>
<!-- load_PQ_1 -->
<g id="node30" class="node">
<title>load_PQ_1</title>
<polygon fill="#ffebee" stroke="#d32f2f" points="569.64,-559.47 547.32,-525.99 591.96,-525.99 569.64,-559.47"/>
<text xml:space="preserve" text-anchor="middle" x="569.64" y="-539.3" font-family="Arial" font-size="8.00">L</text>
<text xml:space="preserve" text-anchor="middle" x="569.64" y="-529.55" font-family="Arial" font-size="8.00">0.2</text>
</g>
<!-- 2&#45;&#45;load_PQ_1 -->
<g id="edge16" class="edge">
<title>2&#45;&#45;load_PQ_1</title>
<path fill="none" stroke="#d32f2f" d="M496.23,-544.76C507.18,-543.62 537.16,-540.52 555.24,-538.64"/>
</g>
<!-- 3&#45;&#45;4 -->
<g id="edge32" class="edge">
<title>3&#45;&#45;4</title>
<path fill="none" stroke="#424242" stroke-width="2.5" d="M439.91,-561.15C446.29,-541.16 458.33,-503.47 464.75,-483.35"/>
<text xml:space="preserve" text-anchor="middle" x="472.19" y="-524.25" font-family="Arial" font-size="9.00">X=0.1710</text>
</g>
<!-- gen_GGENROU_3 -->
<g id="node17" class="node">
<title>gen_GGENROU_3</title>
<ellipse fill="#e3f2fd" stroke="#1976d2" stroke-width="1.5" cx="396.93" cy="-686.88" rx="32.4" ry="27"/>
<text xml:space="preserve" text-anchor="middle" x="396.93" y="-694.08" font-family="Arial" font-size="9.00">GGENROU_3</text>
<text xml:space="preserve" text-anchor="middle" x="396.93" y="-683.58" font-family="Arial" font-size="9.00">M=10.0</text>
<text xml:space="preserve" text-anchor="middle" x="396.93" y="-673.08" font-family="Arial" font-size="9.00">100 MVA</text>
</g>
<!-- 3&#45;&#45;gen_GGENROU_3 -->
<g id="edge3" class="edge">
<title>3&#45;&#45;gen_GGENROU_3</title>
<path fill="none" stroke="#1976d2" stroke-width="1.5" d="M431.39,-586.85C425.32,-604.47 414.08,-637.09 406.09,-660.28"/>
</g>
<!-- load_PQ_2 -->
<g id="node31" class="node">
<title>load_PQ_2</title>
<polygon fill="#ffebee" stroke="#d32f2f" points="357.87,-645.86 335.55,-612.38 380.19,-612.38 357.87,-645.86"/>
<text xml:space="preserve" text-anchor="middle" x="357.87" y="-625.69" font-family="Arial" font-size="8.00">L</text>
<text xml:space="preserve" text-anchor="middle" x="357.87" y="-615.94" font-family="Arial" font-size="8.00">0.5</text>
</g>
<!-- 3&#45;&#45;load_PQ_2 -->
<g id="edge17" class="edge">
<title>3&#45;&#45;load_PQ_2</title>
<path fill="none" stroke="#d32f2f" d="M431.5,-577.02C421.27,-583.49 394.5,-600.4 376.22,-611.94"/>
</g>
<!-- 4&#45;&#45;5 -->
<g id="edge33" class="edge">
<title>4&#45;&#45;5</title>
<path fill="none" stroke="#424242" stroke-width="2.5" d="M464.92,-472.41C452.56,-479.93 415.95,-502.19 403.73,-509.62"/>
<text xml:space="preserve" text-anchor="middle" x="444.21" y="-482.5" font-family="Arial" font-size="9.00">X=0.0421</text>
</g>
<!-- load_PQ_3 -->
<g id="node32" class="node">
<title>load_PQ_3</title>
<polygon fill="#ffebee" stroke="#d32f2f" points="563.24,-483.55 540.92,-450.07 585.56,-450.07 563.24,-483.55"/>
<text xml:space="preserve" text-anchor="middle" x="563.24" y="-463.38" font-family="Arial" font-size="8.00">L</text>
<text xml:space="preserve" text-anchor="middle" x="563.24" y="-453.63" font-family="Arial" font-size="8.00">0.5</text>
</g>
<!-- 4&#45;&#45;load_PQ_3 -->
<g id="edge18" class="edge">
<title>4&#45;&#45;load_PQ_3</title>
<path fill="none" stroke="#d32f2f" d="M473.34,-469.5C486.51,-468.29 526.79,-464.59 548.69,-462.57"/>
</g>
<!-- xfmr_0 -->
<g id="node41" class="node">
<title>xfmr_0</title>
<polygon fill="#f3e5f5" stroke="#7b1fa2" stroke-width="2.5" points="530.95,-416.55 503.95,-389.55 530.95,-362.55 557.95,-389.55 530.95,-416.55"/>
<text xml:space="preserve" text-anchor="middle" x="530.95" y="-401.45" font-family="Arial" font-size="8.00" fill="#4a148c">T</text>
<text xml:space="preserve" text-anchor="middle" x="530.95" y="-391.7" font-family="Arial" font-size="8.00" fill="#4a148c">69/</text>
<text xml:space="preserve" text-anchor="middle" x="530.95" y="-381.95" font-family="Arial" font-size="8.00" fill="#4a148c">138</text>
<text xml:space="preserve" text-anchor="middle" x="530.95" y="-372.2" font-family="Arial" font-size="8.00" fill="#4a148c">X=0.209</text>
</g>
<!-- 4&#45;&#45;xfmr_0 -->
<g id="edge43" class="edge">
<title>4&#45;&#45;xfmr_0</title>
<path fill="none" stroke="#7b1fa2" stroke-width="2.5" d="M473.3,-464.37C482.48,-452.46 504.44,-423.96 518.45,-405.77"/>
</g>
<!-- xfmr_1 -->
<g id="node42" class="node">
<title>xfmr_1</title>
<polygon fill="#f3e5f5" stroke="#7b1fa2" stroke-width="2.5" points="445.91,-406.59 418.91,-379.59 445.91,-352.59 472.91,-379.59 445.91,-406.59"/>
<text xml:space="preserve" text-anchor="middle" x="445.91" y="-391.49" font-family="Arial" font-size="8.00" fill="#4a148c">T</text>
<text xml:space="preserve" text-anchor="middle" x="445.91" y="-381.74" font-family="Arial" font-size="8.00" fill="#4a148c">69/</text>
<text xml:space="preserve" text-anchor="middle" x="445.91" y="-371.99" font-family="Arial" font-size="8.00" fill="#4a148c">138</text>
<text xml:space="preserve" text-anchor="middle" x="445.91" y="-362.24" font-family="Arial" font-size="8.00" fill="#4a148c">X=0.556</text>
</g>
<!-- 4&#45;&#45;xfmr_1 -->
<g id="edge45" class="edge">
<title>4&#45;&#45;xfmr_1</title>
<path fill="none" stroke="#7b1fa2" stroke-width="2.5" d="M464.8,-453.33C461.12,-438.97 455.77,-418.06 451.7,-402.17"/>
</g>
<!-- load_PQ_4 -->
<g id="node33" class="node">
<title>load_PQ_4</title>
<polygon fill="#ffebee" stroke="#d32f2f" points="324.64,-586.5 302.32,-553.02 346.96,-553.02 324.64,-586.5"/>
<text xml:space="preserve" text-anchor="middle" x="324.64" y="-566.33" font-family="Arial" font-size="8.00">L</text>
<text xml:space="preserve" text-anchor="middle" x="324.64" y="-556.58" font-family="Arial" font-size="8.00">0.1</text>
</g>
<!-- 5&#45;&#45;load_PQ_4 -->
<g id="edge19" class="edge">
<title>5&#45;&#45;load_PQ_4</title>
<path fill="none" stroke="#d32f2f" d="M395.68,-514.86C385.62,-521.84 359.02,-540.31 341.38,-552.56"/>
</g>
<!-- 6 -->
<g id="node6" class="node">
<title>6</title>
<polygon fill="#b71c1c" stroke="#b71c1c" stroke-width="0" points="234.33,-409.65 225.69,-409.65 225.69,-352.05 234.33,-352.05 234.33,-409.65"/>
<text xml:space="preserve" text-anchor="middle" x="230.01" y="-377.55" font-family="Arial" font-size="9.00" fill="white">6</text>
</g>
<!-- 11 -->
<g id="node11" class="node">
<title>11</title>
<polygon fill="#b71c1c" stroke="#b71c1c" stroke-width="0" points="277.24,-309.6 268.6,-309.6 268.6,-252 277.24,-252 277.24,-309.6"/>
<text xml:space="preserve" text-anchor="middle" x="272.92" y="-277.5" font-family="Arial" font-size="9.00" fill="white">11</text>
</g>
<!-- 6&#45;&#45;11 -->
<g id="edge34" class="edge">
<title>6&#45;&#45;11</title>
<path fill="none" stroke="#424242" stroke-width="2.5" d="M234.28,-370.89C242.51,-351.72 260.45,-309.87 268.66,-290.72"/>
<text xml:space="preserve" text-anchor="middle" x="271.35" y="-332.74" font-family="Arial" font-size="9.00">X=0.1989</text>
</g>
<!-- 12 -->
<g id="node12" class="node">
<title>12</title>
<polygon fill="#b71c1c" stroke="#b71c1c" stroke-width="0" points="167.69,-356.71 159.05,-356.71 159.05,-299.11 167.69,-299.11 167.69,-356.71"/>
<text xml:space="preserve" text-anchor="middle" x="163.37" y="-324.61" font-family="Arial" font-size="9.00" fill="white">12</text>
</g>
<!-- 6&#45;&#45;12 -->
<g id="edge35" class="edge">
<title>6&#45;&#45;12</title>
<path fill="none" stroke="#424242" stroke-width="2.5" d="M226.04,-377.7C214.27,-368.35 179.64,-340.84 167.57,-331.25"/>
<text xml:space="preserve" text-anchor="middle" x="196.92" y="-346.02" font-family="Arial" font-size="9.00">X=0.2558</text>
</g>
<!-- 13 -->
<g id="node13" class="node">
<title>13</title>
<polygon fill="#b71c1c" stroke="#b71c1c" stroke-width="0" points="234.22,-323.88 225.58,-323.88 225.58,-266.28 234.22,-266.28 234.22,-323.88"/>
<text xml:space="preserve" text-anchor="middle" x="229.9" y="-291.78" font-family="Arial" font-size="9.00" fill="white">13</text>
</g>
<!-- 6&#45;&#45;13 -->
<g id="edge36" class="edge">
<title>6&#45;&#45;13</title>
<path fill="none" stroke="#424242" stroke-width="2.5" d="M229.97,-352.29C229.96,-343.13 229.95,-332.99 229.94,-323.81"/>
<text xml:space="preserve" text-anchor="middle" x="210.08" y="-329.51" font-family="Arial" font-size="9.00">X=0.1303</text>
</g>
<!-- gen_GGENROU_4 -->
<g id="node18" class="node">
<title>gen_GGENROU_4</title>
<ellipse fill="#e3f2fd" stroke="#1976d2" stroke-width="1.5" cx="120.15" cy="-422.63" rx="32.4" ry="27"/>
<text xml:space="preserve" text-anchor="middle" x="120.15" y="-429.83" font-family="Arial" font-size="9.00">GGENROU_4</text>
<text xml:space="preserve" text-anchor="middle" x="120.15" y="-419.33" font-family="Arial" font-size="9.00">M=10.0</text>
<text xml:space="preserve" text-anchor="middle" x="120.15" y="-408.83" font-family="Arial" font-size="9.00">100 MVA</text>
</g>
<!-- 6&#45;&#45;gen_GGENROU_4 -->
<g id="edge4" class="edge">
<title>6&#45;&#45;gen_GGENROU_4</title>
<path fill="none" stroke="#1976d2" stroke-width="1.5" d="M225.84,-382.44C213.57,-387.11 176.8,-401.09 150.08,-411.25"/>
</g>
<!-- load_PQ_5 -->
<g id="node34" class="node">
<title>load_PQ_5</title>
<polygon fill="#ffebee" stroke="#d32f2f" points="182.87,-464.33 160.55,-430.85 205.19,-430.85 182.87,-464.33"/>
<text xml:space="preserve" text-anchor="middle" x="182.87" y="-444.16" font-family="Arial" font-size="8.00">L</text>
<text xml:space="preserve" text-anchor="middle" x="182.87" y="-434.41" font-family="Arial" font-size="8.00">0.1</text>
</g>
<!-- 6&#45;&#45;load_PQ_5 -->
<g id="edge20" class="edge">
<title>6&#45;&#45;load_PQ_5</title>
<path fill="none" stroke="#d32f2f" d="M225.99,-386.07C218.42,-395.89 201.89,-417.34 191.64,-430.64"/>
</g>
<!-- xfmr_2 -->
<g id="node43" class="node">
<title>xfmr_2</title>
<polygon fill="#f3e5f5" stroke="#7b1fa2" stroke-width="2.5" points="305.5,-482.78 278.5,-455.78 305.5,-428.78 332.5,-455.78 305.5,-482.78"/>
<text xml:space="preserve" text-anchor="middle" x="305.5" y="-467.68" font-family="Arial" font-size="8.00" fill="#4a148c">T</text>
<text xml:space="preserve" text-anchor="middle" x="305.5" y="-457.93" font-family="Arial" font-size="8.00" fill="#4a148c">138/</text>
<text xml:space="preserve" text-anchor="middle" x="305.5" y="-448.18" font-family="Arial" font-size="8.00" fill="#4a148c">69</text>
<text xml:space="preserve" text-anchor="middle" x="305.5" y="-438.43" font-family="Arial" font-size="8.00" fill="#4a148c">X=0.252</text>
</g>
<!-- 6&#45;&#45;xfmr_2 -->
<g id="edge47" class="edge">
<title>6&#45;&#45;xfmr_2</title>
<path fill="none" stroke="#7b1fa2" stroke-width="2.5" d="M234.07,-384.88C244.67,-395.4 273.56,-424.08 291.19,-441.57"/>
</g>
<!-- 7 -->
<g id="node7" class="node">
<title>7</title>
<polygon fill="#b71c1c" stroke="#b71c1c" stroke-width="0" points="530.69,-319.95 522.05,-319.95 522.05,-262.35 530.69,-262.35 530.69,-319.95"/>
<text xml:space="preserve" text-anchor="middle" x="526.37" y="-287.85" font-family="Arial" font-size="9.00" fill="white">7</text>
</g>
<!-- 9 -->
<g id="node9" class="node">
<title>9</title>
<polygon fill="#b71c1c" stroke="#b71c1c" stroke-width="0" points="433.68,-310.91 425.04,-310.91 425.04,-253.31 433.68,-253.31 433.68,-310.91"/>
<text xml:space="preserve" text-anchor="middle" x="429.36" y="-278.81" font-family="Arial" font-size="9.00" fill="white">9</text>
</g>
<!-- 7&#45;&#45;9 -->
<g id="edge37" class="edge">
<title>7&#45;&#45;9</title>
<path fill="none" stroke="#424242" stroke-width="2.5" d="M522.2,-290.76C506.24,-289.27 449.15,-283.95 433.41,-282.49"/>
<text xml:space="preserve" text-anchor="middle" x="458.22" y="-288.57" font-family="Arial" font-size="9.00">X=0.1100</text>
</g>
<!-- 8 -->
<g id="node8" class="node">
<title>8</title>
<polygon fill="#e64a19" stroke="#e64a19" stroke-width="0" points="684.54,-199.76 675.9,-199.76 675.9,-142.16 684.54,-142.16 684.54,-199.76"/>
<text xml:space="preserve" text-anchor="middle" x="680.22" y="-167.66" font-family="Arial" font-size="9.00" fill="white">8</text>
</g>
<!-- gen_GGENROU_5 -->
<g id="node19" class="node">
<title>gen_GGENROU_5</title>
<ellipse fill="#e3f2fd" stroke="#1976d2" stroke-width="1.5" cx="750.24" cy="-109.43" rx="32.4" ry="27"/>
<text xml:space="preserve" text-anchor="middle" x="750.24" y="-116.63" font-family="Arial" font-size="9.00">GGENROU_5</text>
<text xml:space="preserve" text-anchor="middle" x="750.24" y="-106.13" font-family="Arial" font-size="9.00">M=10.0</text>
<text xml:space="preserve" text-anchor="middle" x="750.24" y="-95.63" font-family="Arial" font-size="9.00">100 MVA</text>
</g>
<!-- 8&#45;&#45;gen_GGENROU_5 -->
<g id="edge5" class="edge">
<title>8&#45;&#45;gen_GGENROU_5</title>
<path fill="none" stroke="#1976d2" stroke-width="1.5" d="M684.39,-167.29C692.75,-159.95 712.1,-142.95 727.67,-129.26"/>
</g>
<!-- xfmr_3 -->
<g id="node44" class="node">
<title>xfmr_3</title>
<polygon fill="#f3e5f5" stroke="#7b1fa2" stroke-width="2.5" points="608.53,-259.11 581.53,-232.11 608.53,-205.11 635.53,-232.11 608.53,-259.11"/>
<text xml:space="preserve" text-anchor="middle" x="608.53" y="-244.01" font-family="Arial" font-size="8.00" fill="#4a148c">T</text>
<text xml:space="preserve" text-anchor="middle" x="608.53" y="-234.26" font-family="Arial" font-size="8.00" fill="#4a148c">69/</text>
<text xml:space="preserve" text-anchor="middle" x="608.53" y="-224.51" font-family="Arial" font-size="8.00" fill="#4a148c">138</text>
<text xml:space="preserve" text-anchor="middle" x="608.53" y="-214.76" font-family="Arial" font-size="8.00" fill="#4a148c">X=0.176</text>
</g>
<!-- 8&#45;&#45;xfmr_3 -->
<g id="edge49" class="edge">
<title>8&#45;&#45;xfmr_3</title>
<path fill="none" stroke="#7b1fa2" stroke-width="2.5" d="M675.95,-174.6C665.94,-183.14 640.56,-204.79 623.96,-218.95"/>
</g>
<!-- 10 -->
<g id="node10" class="node">
<title>10</title>
<polygon fill="#b71c1c" stroke="#b71c1c" stroke-width="0" points="370.82,-255.35 362.18,-255.35 362.18,-197.75 370.82,-197.75 370.82,-255.35"/>
<text xml:space="preserve" text-anchor="middle" x="366.5" y="-223.25" font-family="Arial" font-size="9.00" fill="white">10</text>
</g>
<!-- 9&#45;&#45;10 -->
<g id="edge38" class="edge">
<title>9&#45;&#45;10</title>
<path fill="none" stroke="#424242" stroke-width="2.5" d="M425.24,-278.47C413.87,-268.42 382.2,-240.43 370.72,-230.28"/>
<text xml:space="preserve" text-anchor="middle" x="398.02" y="-245.86" font-family="Arial" font-size="9.00">X=0.0845</text>
</g>
<!-- 14 -->
<g id="node14" class="node">
<title>14</title>
<polygon fill="#b71c1c" stroke="#b71c1c" stroke-width="0" points="331.99,-281.83 323.35,-281.83 323.35,-224.23 331.99,-224.23 331.99,-281.83"/>
<text xml:space="preserve" text-anchor="middle" x="327.67" y="-249.73" font-family="Arial" font-size="9.00" fill="white">14</text>
</g>
<!-- 9&#45;&#45;14 -->
<g id="edge39" class="edge">
<title>9&#45;&#45;14</title>
<path fill="none" stroke="#424242" stroke-width="2.5" d="M425.5,-281.01C409.54,-276.44 348.76,-259.06 331.98,-254.26"/>
<text xml:space="preserve" text-anchor="middle" x="359.17" y="-269.67" font-family="Arial" font-size="9.00">X=0.2704</text>
</g>
<!-- load_PQ_6 -->
<g id="node35" class="node">
<title>load_PQ_6</title>
<polygon fill="#ffebee" stroke="#d32f2f" points="472.91,-221.85 450.59,-188.37 495.23,-188.37 472.91,-221.85"/>
<text xml:space="preserve" text-anchor="middle" x="472.91" y="-201.68" font-family="Arial" font-size="8.00">L</text>
<text xml:space="preserve" text-anchor="middle" x="472.91" y="-191.93" font-family="Arial" font-size="8.00">0.3</text>
</g>
<!-- 9&#45;&#45;load_PQ_6 -->
<g id="edge21" class="edge">
<title>9&#45;&#45;load_PQ_6</title>
<path fill="none" stroke="#d32f2f" d="M433.54,-274.19C441.07,-259.9 457.01,-229.68 466.13,-212.39"/>
</g>
<!-- 10&#45;&#45;11 -->
<g id="edge40" class="edge">
<title>10&#45;&#45;11</title>
<path fill="none" stroke="#424242" stroke-width="2.5" d="M362.41,-224.64C354.02,-221.02 334.45,-214.11 320.15,-221.03 298.49,-231.52 283.75,-257.31 277.05,-271.33"/>
<text xml:space="preserve" text-anchor="middle" x="284.92" y="-233.68" font-family="Arial" font-size="9.00">X=0.1921</text>
</g>
<!-- load_PQ_7 -->
<g id="node36" class="node">
<title>load_PQ_7</title>
<polygon fill="#ffebee" stroke="#d32f2f" points="373.61,-143.93 351.29,-110.45 395.93,-110.45 373.61,-143.93"/>
<text xml:space="preserve" text-anchor="middle" x="373.61" y="-123.76" font-family="Arial" font-size="8.00">L</text>
<text xml:space="preserve" text-anchor="middle" x="373.61" y="-114.01" font-family="Arial" font-size="8.00">0.1</text>
</g>
<!-- 10&#45;&#45;load_PQ_7 -->
<g id="edge22" class="edge">
<title>10&#45;&#45;load_PQ_7</title>
<path fill="none" stroke="#d32f2f" d="M368.44,-197.87C369.63,-180.4 371.11,-158.45 372.19,-142.59"/>
</g>
<!-- load_PQ_8 -->
<g id="node37" class="node">
<title>load_PQ_8</title>
<polygon fill="#ffebee" stroke="#d32f2f" points="213.44,-206.06 191.12,-172.58 235.76,-172.58 213.44,-206.06"/>
<text xml:space="preserve" text-anchor="middle" x="213.44" y="-185.89" font-family="Arial" font-size="8.00">L</text>
<text xml:space="preserve" text-anchor="middle" x="213.44" y="-176.14" font-family="Arial" font-size="8.00">0.0</text>
</g>
<!-- 11&#45;&#45;load_PQ_8 -->
<g id="edge23" class="edge">
<title>11&#45;&#45;load_PQ_8</title>
<path fill="none" stroke="#d32f2f" d="M268.64,-273.82C258.57,-257.39 233.28,-216.12 220.74,-195.65"/>
</g>
<!-- 12&#45;&#45;13 -->
<g id="edge41" class="edge">
<title>12&#45;&#45;13</title>
<path fill="none" stroke="#424242" stroke-width="2.5" d="M167.33,-325.96C179.08,-320.16 213.65,-303.1 225.7,-297.16"/>
<text xml:space="preserve" text-anchor="middle" x="206.34" y="-303.06" font-family="Arial" font-size="9.00">X=0.1999</text>
</g>
<!-- load_PQ_9 -->
<g id="node38" class="node">
<title>load_PQ_9</title>
<polygon fill="#ffebee" stroke="#d32f2f" points="72.08,-308.97 49.76,-275.49 94.4,-275.49 72.08,-308.97"/>
<text xml:space="preserve" text-anchor="middle" x="72.08" y="-288.8" font-family="Arial" font-size="8.00">L</text>
<text xml:space="preserve" text-anchor="middle" x="72.08" y="-279.05" font-family="Arial" font-size="8.00">0.1</text>
</g>
<!-- 12&#45;&#45;load_PQ_9 -->
<g id="edge24" class="edge">
<title>12&#45;&#45;load_PQ_9</title>
<path fill="none" stroke="#d32f2f" d="M159.21,-326.03C145.95,-320.04 104.38,-301.25 83.82,-291.96"/>
</g>
<!-- 13&#45;&#45;14 -->
<g id="edge42" class="edge">
<title>13&#45;&#45;14</title>
<path fill="none" stroke="#424242" stroke-width="2.5" d="M234.19,-285.11C239.62,-273.91 250.14,-256.33 265.4,-248.8 285.22,-239.02 313,-247.51 323.46,-251.37"/>
<text xml:space="preserve" text-anchor="middle" x="252.78" y="-248.03" font-family="Arial" font-size="9.00">X=0.3480</text>
</g>
<!-- load_PQ_10 -->
<g id="node39" class="node">
<title>load_PQ_10</title>
<polygon fill="#ffebee" stroke="#d32f2f" points="157.89,-238.68 135.57,-205.2 180.21,-205.2 157.89,-238.68"/>
<text xml:space="preserve" text-anchor="middle" x="157.89" y="-218.51" font-family="Arial" font-size="8.00">L</text>
<text xml:space="preserve" text-anchor="middle" x="157.89" y="-208.76" font-family="Arial" font-size="8.00">0.1</text>
</g>
<!-- 13&#45;&#45;load_PQ_10 -->
<g id="edge25" class="edge">
<title>13&#45;&#45;load_PQ_10</title>
<path fill="none" stroke="#d32f2f" d="M225.61,-290.4C214.1,-277.82 182.37,-243.13 166.77,-226.08"/>
</g>
<!-- load_PQ_11 -->
<g id="node40" class="node">
<title>load_PQ_11</title>
<polygon fill="#ffebee" stroke="#d32f2f" points="306.1,-165.3 283.78,-131.82 328.42,-131.82 306.1,-165.3"/>
<text xml:space="preserve" text-anchor="middle" x="306.1" y="-145.13" font-family="Arial" font-size="8.00">L</text>
<text xml:space="preserve" text-anchor="middle" x="306.1" y="-135.38" font-family="Arial" font-size="8.00">0.2</text>
</g>
<!-- 14&#45;&#45;load_PQ_11 -->
<g id="edge26" class="edge">
<title>14&#45;&#45;load_PQ_11</title>
<path fill="none" stroke="#d32f2f" d="M323.36,-231.03C319.3,-210.33 313.31,-179.73 309.56,-160.6"/>
</g>
<!-- exc_AVRESST3A_2 -->
<g id="node21" class="node">
<title>exc_AVRESST3A_2</title>
<path fill="#fff3e0" stroke="#ff6f00" stroke-width="1.5" d="M477.39,-833.81C477.39,-833.81 444.99,-833.81 444.99,-833.81 439.59,-833.81 434.19,-828.41 434.19,-823.01 434.19,-823.01 434.19,-812.21 434.19,-812.21 434.19,-806.81 439.59,-801.41 444.99,-801.41 444.99,-801.41 477.39,-801.41 477.39,-801.41 482.79,-801.41 488.19,-806.81 488.19,-812.21 488.19,-812.21 488.19,-823.01 488.19,-823.01 488.19,-828.41 482.79,-833.81 477.39,-833.81"/>
<text xml:space="preserve" text-anchor="middle" x="461.19" y="-814.88" font-family="Arial" font-size="8.00">ESST3A</text>
</g>
<!-- gen_GGENROU_1&#45;&#45;exc_AVRESST3A_2 -->
<g id="edge7" class="edge">
<title>gen_GGENROU_1&#45;&#45;exc_AVRESST3A_2</title>
<path fill="none" stroke="#ff6f00" stroke-width="1.5" stroke-dasharray="5,2" d="M478.77,-745.88C474.46,-763.46 468.98,-785.84 465.29,-800.89"/>
</g>
<!-- gov_GOVTGOV1_1 -->
<g id="node25" class="node">
<title>gov_GOVTGOV1_1</title>
<path fill="#e8f5e9" stroke="#2e7d32" stroke-width="1.5" d="M573.78,-803.69C573.78,-803.69 541.38,-803.69 541.38,-803.69 535.98,-803.69 530.58,-798.29 530.58,-792.89 530.58,-792.89 530.58,-782.09 530.58,-782.09 530.58,-776.69 535.98,-771.29 541.38,-771.29 541.38,-771.29 573.78,-771.29 573.78,-771.29 579.18,-771.29 584.58,-776.69 584.58,-782.09 584.58,-782.09 584.58,-792.89 584.58,-792.89 584.58,-798.29 579.18,-803.69 573.78,-803.69"/>
<text xml:space="preserve" text-anchor="middle" x="557.58" y="-784.77" font-family="Arial" font-size="8.00">TGOV1</text>
</g>
<!-- gen_GGENROU_1&#45;&#45;gov_GOVTGOV1_1 -->
<g id="edge11" class="edge">
<title>gen_GGENROU_1&#45;&#45;gov_GOVTGOV1_1</title>
<path fill="none" stroke="#2e7d32" stroke-width="1.5" stroke-dasharray="5,2" d="M507.04,-739.49C517.51,-749.43 529.92,-761.21 539.82,-770.62"/>
</g>
<!-- exc_AVREXST1_1 -->
<g id="node20" class="node">
<title>exc_AVREXST1_1</title>
<path fill="#fff3e0" stroke="#ff6f00" stroke-width="1.5" d="M707.79,-590.93C707.79,-590.93 675.39,-590.93 675.39,-590.93 669.99,-590.93 664.59,-585.53 664.59,-580.13 664.59,-580.13 664.59,-569.33 664.59,-569.33 664.59,-563.93 669.99,-558.53 675.39,-558.53 675.39,-558.53 707.79,-558.53 707.79,-558.53 713.19,-558.53 718.59,-563.93 718.59,-569.33 718.59,-569.33 718.59,-580.13 718.59,-580.13 718.59,-585.53 713.19,-590.93 707.79,-590.93"/>
<text xml:space="preserve" text-anchor="middle" x="691.59" y="-572" font-family="Arial" font-size="8.00">EXST1</text>
</g>
<!-- gen_GGENROU_2&#45;&#45;exc_AVREXST1_1 -->
<g id="edge6" class="edge">
<title>gen_GGENROU_2&#45;&#45;exc_AVREXST1_1</title>
<path fill="none" stroke="#ff6f00" stroke-width="1.5" stroke-dasharray="5,2" d="M625.65,-588.05C638.05,-585.54 652.09,-582.71 664.02,-580.3"/>
</g>
<!-- gov_GOVIEEEG1_4 -->
<g id="node28" class="node">
<title>gov_GOVIEEEG1_4</title>
<path fill="#e8f5e9" stroke="#2e7d32" stroke-width="1.5" d="M676.17,-671.35C676.17,-671.35 643.77,-671.35 643.77,-671.35 638.37,-671.35 632.97,-665.95 632.97,-660.55 632.97,-660.55 632.97,-649.75 632.97,-649.75 632.97,-644.35 638.37,-638.95 643.77,-638.95 643.77,-638.95 676.17,-638.95 676.17,-638.95 681.57,-638.95 686.97,-644.35 686.97,-649.75 686.97,-649.75 686.97,-660.55 686.97,-660.55 686.97,-665.95 681.57,-671.35 676.17,-671.35"/>
<text xml:space="preserve" text-anchor="middle" x="659.97" y="-652.42" font-family="Arial" font-size="8.00">IEEEG1</text>
</g>
<!-- gen_GGENROU_2&#45;&#45;gov_GOVIEEEG1_4 -->
<g id="edge14" class="edge">
<title>gen_GGENROU_2&#45;&#45;gov_GOVIEEEG1_4</title>
<path fill="none" stroke="#2e7d32" stroke-width="1.5" stroke-dasharray="5,2" d="M615.67,-614.71C624.12,-622.43 633.66,-631.13 641.71,-638.48"/>
</g>
<!-- exc_AVRESST3A_3 -->
<g id="node22" class="node">
<title>exc_AVRESST3A_3</title>
<path fill="#fff3e0" stroke="#ff6f00" stroke-width="1.5" d="M415.34,-800.62C415.34,-800.62 382.94,-800.62 382.94,-800.62 377.54,-800.62 372.14,-795.22 372.14,-789.82 372.14,-789.82 372.14,-779.02 372.14,-779.02 372.14,-773.62 377.54,-768.22 382.94,-768.22 382.94,-768.22 415.34,-768.22 415.34,-768.22 420.74,-768.22 426.14,-773.62 426.14,-779.02 426.14,-779.02 426.14,-789.82 426.14,-789.82 426.14,-795.22 420.74,-800.62 415.34,-800.62"/>
<text xml:space="preserve" text-anchor="middle" x="399.14" y="-781.69" font-family="Arial" font-size="8.00">ESST3A</text>
</g>
<!-- gen_GGENROU_3&#45;&#45;exc_AVRESST3A_3 -->
<g id="edge8" class="edge">
<title>gen_GGENROU_3&#45;&#45;exc_AVRESST3A_3</title>
<path fill="none" stroke="#ff6f00" stroke-width="1.5" stroke-dasharray="5,2" d="M397.56,-714.57C397.95,-731.69 398.43,-753.1 398.76,-767.68"/>
</g>
<!-- gov_GOVIEEEG1_5 -->
<g id="node29" class="node">
<title>gov_GOVIEEEG1_5</title>
<path fill="#e8f5e9" stroke="#2e7d32" stroke-width="1.5" d="M327.47,-766.69C327.47,-766.69 295.07,-766.69 295.07,-766.69 289.67,-766.69 284.27,-761.29 284.27,-755.89 284.27,-755.89 284.27,-745.09 284.27,-745.09 284.27,-739.69 289.67,-734.29 295.07,-734.29 295.07,-734.29 327.47,-734.29 327.47,-734.29 332.87,-734.29 338.27,-739.69 338.27,-745.09 338.27,-745.09 338.27,-755.89 338.27,-755.89 338.27,-761.29 332.87,-766.69 327.47,-766.69"/>
<text xml:space="preserve" text-anchor="middle" x="311.27" y="-747.76" font-family="Arial" font-size="8.00">IEEEG1</text>
</g>
<!-- gen_GGENROU_3&#45;&#45;gov_GOVIEEEG1_5 -->
<g id="edge15" class="edge">
<title>gen_GGENROU_3&#45;&#45;gov_GOVIEEEG1_5</title>
<path fill="none" stroke="#2e7d32" stroke-width="1.5" stroke-dasharray="5,2" d="M372.16,-705.27C360.1,-714.23 345.71,-724.92 333.94,-733.65"/>
</g>
<!-- exc_AVRESST3A_4 -->
<g id="node23" class="node">
<title>exc_AVRESST3A_4</title>
<path fill="#fff3e0" stroke="#ff6f00" stroke-width="1.5" d="M43.2,-426.53C43.2,-426.53 10.8,-426.53 10.8,-426.53 5.4,-426.53 0,-421.13 0,-415.73 0,-415.73 0,-404.93 0,-404.93 0,-399.53 5.4,-394.13 10.8,-394.13 10.8,-394.13 43.2,-394.13 43.2,-394.13 48.6,-394.13 54,-399.53 54,-404.93 54,-404.93 54,-415.73 54,-415.73 54,-421.13 48.6,-426.53 43.2,-426.53"/>
<text xml:space="preserve" text-anchor="middle" x="27" y="-407.6" font-family="Arial" font-size="8.00">ESST3A</text>
</g>
<!-- gen_GGENROU_4&#45;&#45;exc_AVRESST3A_4 -->
<g id="edge9" class="edge">
<title>gen_GGENROU_4&#45;&#45;exc_AVRESST3A_4</title>
<path fill="none" stroke="#ff6f00" stroke-width="1.5" stroke-dasharray="5,2" d="M87.57,-418.33C76.76,-416.9 64.85,-415.33 54.46,-413.95"/>
</g>
<!-- gov_GOVTGOV1_2 -->
<g id="node26" class="node">
<title>gov_GOVTGOV1_2</title>
<path fill="#e8f5e9" stroke="#2e7d32" stroke-width="1.5" d="M72.08,-509.72C72.08,-509.72 39.68,-509.72 39.68,-509.72 34.28,-509.72 28.88,-504.32 28.88,-498.92 28.88,-498.92 28.88,-488.12 28.88,-488.12 28.88,-482.72 34.28,-477.32 39.68,-477.32 39.68,-477.32 72.08,-477.32 72.08,-477.32 77.48,-477.32 82.88,-482.72 82.88,-488.12 82.88,-488.12 82.88,-498.92 82.88,-498.92 82.88,-504.32 77.48,-509.72 72.08,-509.72"/>
<text xml:space="preserve" text-anchor="middle" x="55.88" y="-490.8" font-family="Arial" font-size="8.00">TGOV1</text>
</g>
<!-- gen_GGENROU_4&#45;&#45;gov_GOVTGOV1_2 -->
<g id="edge12" class="edge">
<title>gen_GGENROU_4&#45;&#45;gov_GOVTGOV1_2</title>
<path fill="none" stroke="#2e7d32" stroke-width="1.5" stroke-dasharray="5,2" d="M100.16,-444.67C90.73,-455.08 79.66,-467.29 70.94,-476.9"/>
</g>
<!-- exc_AVRESST3A_5 -->
<g id="node24" class="node">
<title>exc_AVRESST3A_5</title>
<path fill="#fff3e0" stroke="#ff6f00" stroke-width="1.5" d="M780.59,-32.4C780.59,-32.4 748.19,-32.4 748.19,-32.4 742.79,-32.4 737.39,-27 737.39,-21.6 737.39,-21.6 737.39,-10.8 737.39,-10.8 737.39,-5.4 742.79,0 748.19,0 748.19,0 780.59,0 780.59,0 785.99,0 791.39,-5.4 791.39,-10.8 791.39,-10.8 791.39,-21.6 791.39,-21.6 791.39,-27 785.99,-32.4 780.59,-32.4"/>
<text xml:space="preserve" text-anchor="middle" x="764.39" y="-13.47" font-family="Arial" font-size="8.00">ESST3A</text>
</g>
<!-- gen_GGENROU_5&#45;&#45;exc_AVRESST3A_5 -->
<g id="edge10" class="edge">
<title>gen_GGENROU_5&#45;&#45;exc_AVRESST3A_5</title>
<path fill="none" stroke="#ff6f00" stroke-width="1.5" stroke-dasharray="5,2" d="M754.41,-81.96C756.82,-66.06 759.78,-46.57 761.85,-32.95"/>
</g>
<!-- gov_GOVTGOV1_3 -->
<g id="node27" class="node">
<title>gov_GOVTGOV1_3</title>
<path fill="#e8f5e9" stroke="#2e7d32" stroke-width="1.5" d="M860.21,-127.77C860.21,-127.77 827.81,-127.77 827.81,-127.77 822.41,-127.77 817.01,-122.37 817.01,-116.97 817.01,-116.97 817.01,-106.17 817.01,-106.17 817.01,-100.77 822.41,-95.37 827.81,-95.37 827.81,-95.37 860.21,-95.37 860.21,-95.37 865.61,-95.37 871.01,-100.77 871.01,-106.17 871.01,-106.17 871.01,-116.97 871.01,-116.97 871.01,-122.37 865.61,-127.77 860.21,-127.77"/>
<text xml:space="preserve" text-anchor="middle" x="844.01" y="-108.84" font-family="Arial" font-size="8.00">TGOV1</text>
</g>
<!-- gen_GGENROU_5&#45;&#45;gov_GOVTGOV1_3 -->
<g id="edge13" class="edge">
<title>gen_GGENROU_5&#45;&#45;gov_GOVTGOV1_3</title>
<path fill="none" stroke="#2e7d32" stroke-width="1.5" stroke-dasharray="5,2" d="M783.3,-110.18C794.16,-110.43 806.11,-110.7 816.52,-110.94"/>
</g>
<!-- xfmr_0&#45;&#45;7 -->
<g id="edge44" class="edge">
<title>xfmr_0&#45;&#45;7</title>
<path fill="none" stroke="#7b1fa2" stroke-width="2.5" d="M529.68,-362.14C529.06,-348.95 528.33,-333.13 527.7,-319.78"/>
</g>
<!-- xfmr_1&#45;&#45;9 -->
<g id="edge46" class="edge">
<title>xfmr_1&#45;&#45;9</title>
<path fill="none" stroke="#7b1fa2" stroke-width="2.5" d="M441.82,-355.49C439.33,-340.83 436.16,-322.14 433.64,-307.29"/>
</g>
<!-- xfmr_2&#45;&#45;5 -->
<g id="edge48" class="edge">
<title>xfmr_2&#45;&#45;5</title>
<path fill="none" stroke="#7b1fa2" stroke-width="2.5" d="M323.22,-466.37C345.82,-479.87 383.45,-502.35 395.71,-509.67"/>
</g>
<!-- xfmr_3&#45;&#45;7 -->
<g id="edge50" class="edge">
<title>xfmr_3&#45;&#45;7</title>
<path fill="none" stroke="#7b1fa2" stroke-width="2.5" d="M591.9,-244.06C572.58,-257.94 541.92,-279.97 530.68,-288.05"/>
</g>
<!-- legend -->
<g id="node45" class="node">
<title>legend</title>
<polygon fill="white" stroke="none" points="751.4,-409.2 751.4,-470.7 843.15,-470.7 843.15,-409.2 751.4,-409.2"/>
<polygon fill="#f0f0f0" stroke="none" points="751.4,-450.2 751.4,-470.7 843.15,-470.7 843.15,-450.2 751.4,-450.2"/>
<polygon fill="none" stroke="black" points="751.4,-450.2 751.4,-470.7 843.15,-470.7 843.15,-450.2 751.4,-450.2"/>
<text xml:space="preserve" text-anchor="start" x="756.4" y="-458.15" font-family="Arial" font-weight="bold" font-size="9.00">Bus Voltage Levels</text>
<polygon fill="#b71c1c" stroke="none" points="751.4,-429.7 751.4,-450.2 793.02,-450.2 793.02,-429.7 751.4,-429.7"/>
<polygon fill="none" stroke="black" points="751.4,-429.7 751.4,-450.2 793.02,-450.2 793.02,-429.7 751.4,-429.7"/>
<text xml:space="preserve" text-anchor="start" x="768.84" y="-436.65" font-family="Arial" font-size="9.00" fill="white"> &#160;&#160;</text>
<polygon fill="none" stroke="black" points="793.02,-429.7 793.02,-450.2 843.15,-450.2 843.15,-429.7 793.02,-429.7"/>
<text xml:space="preserve" text-anchor="start" x="798.02" y="-436.65" font-family="Arial" font-size="9.00">138 kV</text>
<polygon fill="#e64a19" stroke="none" points="751.4,-409.2 751.4,-429.7 793.02,-429.7 793.02,-409.2 751.4,-409.2"/>
<polygon fill="none" stroke="black" points="751.4,-409.2 751.4,-429.7 793.02,-429.7 793.02,-409.2 751.4,-409.2"/>
<text xml:space="preserve" text-anchor="start" x="768.84" y="-416.15" font-family="Arial" font-size="9.00" fill="white"> &#160;&#160;</text>
<polygon fill="none" stroke="black" points="793.02,-409.2 793.02,-429.7 843.15,-429.7 843.15,-409.2 793.02,-409.2"/>
<text xml:space="preserve" text-anchor="start" x="798.02" y="-416.15" font-family="Arial" font-size="9.00">69 kV</text>
</g>
</g>
</svg>
