<svg width="1600" height="1000" xmlns="http://www.w3.org/2000/svg">
<defs>
<marker id="arrowhead" markerWidth="10" markerHeight="7" refX="9" refY="3.5" orient="auto">
<polygon points="0 0, 10 3.5, 0 7" fill="#666"/>
</marker>
</defs>
<rect width="100%" height="100%" fill="#fafafa"/>
<text x="50" y="35" font-family="Arial" font-size="20" font-weight="bold" fill="#1a237e">Auto-Layout Power System Visualization (force_directed)</text>
<text x="50" y="55" font-family="Arial" font-size="12" fill="#666">Positions computed from electrical distances (impedance-based)</text>
<rect x="50" y="930" width="1500" height="55" fill="#f5f5f5" stroke="#bdbdbd" rx="5"/>
<text x="70" y="950" font-family="Arial" font-size="12" font-weight="bold">Legend:</text>
<circle cx="170" cy="955" r="12" fill="#e3f2fd" stroke="#1976d2" stroke-width="2"/>
<text x="165" y="960" font-family="Arial" font-size="10" font-weight="bold" fill="#1976d2">G</text>
<text x="190" y="960" font-family="Arial" font-size="11">Generator</text>
<rect x="270" y="945" width="20" height="20" fill="#fff3e0" stroke="#ff6f00" stroke-width="2" rx="3"/>
<text x="300" y="960" font-family="Arial" font-size="11">Exciter</text>
<rect x="380" y="945" width="20" height="20" fill="#e8f5e9" stroke="#2e7d32" stroke-width="2" rx="3"/>
<text x="410" y="960" font-family="Arial" font-size="11">Governor</text>
<circle cx="510" cy="950" r="8" fill="#f3e5f5" stroke="#7b1fa2" stroke-width="2"/>
<circle cx="520" cy="960" r="8" fill="#f3e5f5" stroke="#7b1fa2" stroke-width="2"/>
<text x="540" y="960" font-family="Arial" font-size="11">Transformer</text>
<line x1="640" y1="955" x2="690" y2="955" stroke="#424242" stroke-width="3"/>
<text x="700" y="960" font-family="Arial" font-size="11">Transmission Line</text>
<rect x="830" y="942" width="8" height="26" fill="#212121" rx="2"/>
<text x="850" y="960" font-family="Arial" font-size="11">Bus</text>
<polygon points="920,965 935,945 950,965" fill="#ffebee" stroke="#d32f2f" stroke-width="2"/>
<text x="960" y="960" font-family="Arial" font-size="11">Load</text>
<line x1="1368.3" y1="486.0" x2="1183.1" y2="529.6" stroke="#424242" stroke-width="2"/>
<text x="1275.7" y="492.8" font-family="Arial" font-size="9" fill="#616161" text-anchor="middle" transform="rotate(-13.3 1275.7 492.8)">X=0.041</text>
<line x1="1368.3" y1="486.0" x2="1449.4" y2="435.1" stroke="#424242" stroke-width="2"/>
<text x="1408.9" y="445.5" font-family="Arial" font-size="9" fill="#616161" text-anchor="middle" transform="rotate(-32.1 1408.9 445.5)">X=0.025</text>
<line x1="1183.1" y1="529.6" x2="1057.9" y2="479.9" stroke="#424242" stroke-width="2"/>
<text x="1120.5" y="489.8" font-family="Arial" font-size="9" fill="#616161" text-anchor="middle" transform="rotate(21.7 1120.5 489.8)">X=0.015</text>
<line x1="1183.1" y1="529.6" x2="1160.3" y2="592.7" stroke="#424242" stroke-width="2"/>
<text x="1171.7" y="586.2" font-family="Arial" font-size="9" fill="#616161" text-anchor="middle" transform="rotate(-70.2 1171.7 586.2)">X=0.009</text>
<line x1="1057.9" y1="479.9" x2="1049.6" y2="392.1" stroke="#424242" stroke-width="2"/>
<text x="1053.7" y="421.0" font-family="Arial" font-size="9" fill="#616161" text-anchor="middle" transform="rotate(84.5 1053.7 421.0)">X=0.021</text>
<line x1="1057.9" y1="479.9" x2="907.7" y2="508.5" stroke="#424242" stroke-width="2"/>
<text x="982.8" y="479.2" font-family="Arial" font-size="9" fill="#616161" text-anchor="middle" transform="rotate(-10.8 982.8 479.2)">X=0.013</text>
<line x1="1049.6" y1="392.1" x2="1168.4" y2="341.0" stroke="#424242" stroke-width="2"/>
<text x="1109.0" y="381.6" font-family="Arial" font-size="9" fill="#616161" text-anchor="middle" transform="rotate(-23.3 1109.0 381.6)">X=0.013</text>
<line x1="1049.6" y1="392.1" x2="890.9" y2="376.6" stroke="#424242" stroke-width="2"/>
<text x="970.2" y="369.4" font-family="Arial" font-size="9" fill="#616161" text-anchor="middle" transform="rotate(5.6 970.2 369.4)">X=0.013</text>
<line x1="1168.4" y1="341.0" x2="1182.8" y2="286.9" stroke="#424242" stroke-width="2"/>
<text x="1175.6" y="339.0" font-family="Arial" font-size="9" fill="#616161" text-anchor="middle" transform="rotate(-75.1 1175.6 339.0)">X=0.003</text>
<line x1="1168.4" y1="341.0" x2="1304.8" y2="343.9" stroke="#424242" stroke-width="2"/>
<text x="1236.6" y="357.5" font-family="Arial" font-size="9" fill="#616161" text-anchor="middle" transform="rotate(1.2 1236.6 357.5)">X=0.011</text>
<line x1="1182.8" y1="286.9" x2="1317.2" y2="289.7" stroke="#424242" stroke-width="2"/>
<text x="1250.0" y="313.3" font-family="Arial" font-size="9" fill="#616161" text-anchor="middle" transform="rotate(1.2 1250.0 313.3)">X=0.009</text>
<line x1="1182.8" y1="286.9" x2="1090.0" y2="247.6" stroke="#424242" stroke-width="2"/>
<text x="1136.4" y="292.3" font-family="Arial" font-size="9" fill="#616161" text-anchor="middle" transform="rotate(23.0 1136.4 292.3)">X=0.008</text>
<line x1="1317.2" y1="289.7" x2="1304.8" y2="343.9" stroke="#424242" stroke-width="2"/>
<text x="1311.0" y="331.8" font-family="Arial" font-size="9" fill="#616161" text-anchor="middle" transform="rotate(-77.1 1311.0 331.8)">X=0.005</text>
<line x1="1304.8" y1="343.9" x2="1430.1" y2="379.1" stroke="#424242" stroke-width="2"/>
<text x="1367.4" y="346.5" font-family="Arial" font-size="9" fill="#616161" text-anchor="middle" transform="rotate(15.7 1367.4 346.5)">X=0.036</text>
<line x1="1430.1" y1="379.1" x2="1449.4" y2="435.1" stroke="#424242" stroke-width="2"/>
<text x="1439.8" y="392.1" font-family="Arial" font-size="9" fill="#616161" text-anchor="middle" transform="rotate(70.9 1439.8 392.1)">X=0.025</text>
<line x1="983.7" y1="280.9" x2="1090.0" y2="247.6" stroke="#424242" stroke-width="2"/>
<text x="1036.8" y="279.2" font-family="Arial" font-size="9" fill="#616161" text-anchor="middle" transform="rotate(-17.4 1036.8 279.2)">X=0.004</text>
<line x1="983.7" y1="280.9" x2="896.2" y2="322.2" stroke="#424242" stroke-width="2"/>
<text x="939.9" y="286.6" font-family="Arial" font-size="9" fill="#616161" text-anchor="middle" transform="rotate(-25.3 939.9 286.6)">X=0.004</text>
<line x1="896.2" y1="322.2" x2="890.9" y2="376.6" stroke="#424242" stroke-width="2"/>
<text x="893.5" y="334.4" font-family="Arial" font-size="9" fill="#616161" text-anchor="middle" transform="rotate(-84.4 893.5 334.4)">X=0.010</text>
<line x1="890.9" y1="376.6" x2="718.1" y2="439.6" stroke="#424242" stroke-width="2"/>
<text x="804.5" y="393.1" font-family="Arial" font-size="9" fill="#616161" text-anchor="middle" transform="rotate(-20.0 804.5 393.1)">X=0.022</text>
<line x1="718.1" y1="439.6" x2="601.2" y2="492.3" stroke="#424242" stroke-width="2"/>
<text x="659.6" y="450.9" font-family="Arial" font-size="9" fill="#616161" text-anchor="middle" transform="rotate(-24.3 659.6 450.9)">X=0.009</text>
<line x1="601.2" y1="492.3" x2="772.3" y2="530.3" stroke="#424242" stroke-width="2"/>
<text x="686.8" y="496.3" font-family="Arial" font-size="9" fill="#616161" text-anchor="middle" transform="rotate(12.5 686.8 496.3)">X=0.009</text>
<line x1="601.2" y1="492.3" x2="427.2" y2="459.2" stroke="#424242" stroke-width="2"/>
<text x="514.2" y="460.8" font-family="Arial" font-size="9" fill="#616161" text-anchor="middle" transform="rotate(10.8 514.2 460.8)">X=0.019</text>
<line x1="601.2" y1="492.3" x2="429.0" y2="513.6" stroke="#424242" stroke-width="2"/>
<text x="515.1" y="488.0" font-family="Arial" font-size="9" fill="#616161" text-anchor="middle" transform="rotate(-7.1 515.1 488.0)">X=0.013</text>
<line x1="601.2" y1="492.3" x2="544.1" y2="541.8" stroke="#424242" stroke-width="2"/>
<text x="572.7" y="502.0" font-family="Arial" font-size="9" fill="#616161" text-anchor="middle" transform="rotate(-40.9 572.7 502.0)">X=0.006</text>
<line x1="772.3" y1="530.3" x2="907.7" y2="508.5" stroke="#424242" stroke-width="2"/>
<text x="840.0" y="504.4" font-family="Arial" font-size="9" fill="#616161" text-anchor="middle" transform="rotate(-9.1 840.0 504.4)">X=0.008</text>
<line x1="772.3" y1="530.3" x2="889.0" y2="595.1" stroke="#424242" stroke-width="2"/>
<text x="830.7" y="587.7" font-family="Arial" font-size="9" fill="#616161" text-anchor="middle" transform="rotate(29.1 830.7 587.7)">X=0.017</text>
<line x1="429.0" y1="513.6" x2="312.4" y2="540.7" stroke="#424242" stroke-width="2"/>
<text x="370.7" y="512.2" font-family="Arial" font-size="9" fill="#616161" text-anchor="middle" transform="rotate(-13.1 370.7 512.2)">X=0.014</text>
<line x1="312.4" y1="540.7" x2="377.5" y2="588.4" stroke="#424242" stroke-width="2"/>
<text x="344.9" y="589.6" font-family="Arial" font-size="9" fill="#616161" text-anchor="middle" transform="rotate(36.2 344.9 589.6)">X=0.010</text>
<line x1="377.5" y1="588.4" x2="544.1" y2="541.8" stroke="#424242" stroke-width="2"/>
<text x="460.8" y="590.1" font-family="Arial" font-size="9" fill="#616161" text-anchor="middle" transform="rotate(-15.6 460.8 590.1)">X=0.035</text>
<line x1="1160.3" y1="592.7" x2="1013.1" y2="639.2" stroke="#424242" stroke-width="2"/>
<text x="1086.7" y="600.9" font-family="Arial" font-size="9" fill="#616161" text-anchor="middle" transform="rotate(-17.5 1086.7 600.9)">X=0.032</text>
<line x1="1013.1" y1="639.2" x2="889.0" y2="595.1" stroke="#424242" stroke-width="2"/>
<text x="951.0" y="602.1" font-family="Arial" font-size="9" fill="#616161" text-anchor="middle" transform="rotate(19.6 951.0 602.1)">X=0.015</text>
<line x1="1013.1" y1="639.2" x2="1026.7" y2="693.3" stroke="#424242" stroke-width="2"/>
<text x="1019.9" y="651.2" font-family="Arial" font-size="9" fill="#616161" text-anchor="middle" transform="rotate(75.8 1019.9 651.2)">X=0.047</text>
<line x1="1013.1" y1="639.2" x2="1060.3" y2="746.0" stroke="#424242" stroke-width="2"/>
<text x="1036.7" y="677.6" font-family="Arial" font-size="9" fill="#616161" text-anchor="middle" transform="rotate(66.1 1036.7 677.6)">X=0.062</text>
<line x1="1026.7" y1="693.3" x2="1060.3" y2="746.0" stroke="#424242" stroke-width="2"/>
<text x="1043.5" y="704.6" font-family="Arial" font-size="9" fill="#616161" text-anchor="middle" transform="rotate(57.5 1043.5 704.6)">X=0.015</text>
<line x1="1183.1" y1="529.6" x2="1229.2" y2="538.4" stroke="#7b1fa2" stroke-width="3"/>
<line x1="1258.7" y1="544.0" x2="1304.8" y2="552.8" stroke="#7b1fa2" stroke-width="3"/>
<circle cx="1236.1" cy="539.7" r="10" fill="#f3e5f5" stroke="#7b1fa2" stroke-width="2"/>
<circle cx="1251.8" cy="542.7" r="10" fill="#f3e5f5" stroke="#7b1fa2" stroke-width="2"/>
<text x="1243.9" y="566.2" font-family="Arial" font-size="8" fill="#7b1fa2" text-anchor="middle">X=0.0181</text>
<line x1="1257.5" y1="237.8" x2="1232.7" y2="254.1" stroke="#7b1fa2" stroke-width="3"/>
<line x1="1207.6" y1="270.6" x2="1182.8" y2="286.9" stroke="#7b1fa2" stroke-width="3"/>
<circle cx="1226.8" cy="258.0" r="10" fill="#f3e5f5" stroke="#7b1fa2" stroke-width="2"/>
<circle cx="1213.5" cy="266.8" r="10" fill="#f3e5f5" stroke="#7b1fa2" stroke-width="2"/>
<text x="1220.2" y="287.4" font-family="Arial" font-size="8" fill="#7b1fa2" text-anchor="middle">X=0.025</text>
<line x1="983.7" y1="280.9" x2="982.3" y2="255.4" stroke="#7b1fa2" stroke-width="3"/>
<line x1="980.7" y1="225.5" x2="979.3" y2="200.0" stroke="#7b1fa2" stroke-width="3"/>
<circle cx="981.9" cy="248.4" r="10" fill="#f3e5f5" stroke="#7b1fa2" stroke-width="2"/>
<circle cx="981.0" cy="232.5" r="10" fill="#f3e5f5" stroke="#7b1fa2" stroke-width="2"/>
<text x="981.5" y="265.5" font-family="Arial" font-size="8" fill="#7b1fa2" text-anchor="middle">X=0.02</text>
<line x1="891.6" y1="241.3" x2="975.8" y2="243.9" stroke="#7b1fa2" stroke-width="3"/>
<line x1="1005.8" y1="244.9" x2="1090.0" y2="247.6" stroke="#7b1fa2" stroke-width="3"/>
<circle cx="982.8" cy="244.2" r="10" fill="#f3e5f5" stroke="#7b1fa2" stroke-width="2"/>
<circle cx="998.8" cy="244.7" r="10" fill="#f3e5f5" stroke="#7b1fa2" stroke-width="2"/>
<text x="990.8" y="269.4" font-family="Arial" font-size="8" fill="#7b1fa2" text-anchor="middle">X=0.0435</text>
<line x1="891.6" y1="241.3" x2="893.0" y2="266.8" stroke="#7b1fa2" stroke-width="3"/>
<line x1="894.7" y1="296.7" x2="896.2" y2="322.2" stroke="#7b1fa2" stroke-width="3"/>
<circle cx="893.4" cy="273.8" r="10" fill="#f3e5f5" stroke="#7b1fa2" stroke-width="2"/>
<circle cx="894.3" cy="289.7" r="10" fill="#f3e5f5" stroke="#7b1fa2" stroke-width="2"/>
<text x="893.9" y="306.7" font-family="Arial" font-size="8" fill="#7b1fa2" text-anchor="middle">X=0.0435</text>
<line x1="427.2" y1="459.2" x2="359.1" y2="452.9" stroke="#7b1fa2" stroke-width="3"/>
<line x1="329.3" y1="450.2" x2="261.2" y2="443.8" stroke="#7b1fa2" stroke-width="3"/>
<circle cx="352.2" cy="452.3" r="10" fill="#f3e5f5" stroke="#7b1fa2" stroke-width="2"/>
<circle cx="336.2" cy="450.8" r="10" fill="#f3e5f5" stroke="#7b1fa2" stroke-width="2"/>
<text x="344.2" y="476.5" font-family="Arial" font-size="8" fill="#7b1fa2" text-anchor="middle">X=0.0138</text>
<line x1="427.2" y1="459.2" x2="409.1" y2="444.3" stroke="#7b1fa2" stroke-width="3"/>
<line x1="385.9" y1="425.3" x2="367.8" y2="410.4" stroke="#7b1fa2" stroke-width="3"/>
<circle cx="403.7" cy="439.9" r="10" fill="#f3e5f5" stroke="#7b1fa2" stroke-width="2"/>
<circle cx="391.4" cy="429.8" r="10" fill="#f3e5f5" stroke="#7b1fa2" stroke-width="2"/>
<text x="397.5" y="459.8" font-family="Arial" font-size="8" fill="#7b1fa2" text-anchor="middle">X=0.0142</text>
<line x1="261.2" y1="443.8" x2="220.0" y2="432.5" stroke="#7b1fa2" stroke-width="3"/>
<line x1="191.1" y1="424.5" x2="150.0" y2="413.2" stroke="#7b1fa2" stroke-width="3"/>
<circle cx="213.3" cy="430.6" r="10" fill="#f3e5f5" stroke="#7b1fa2" stroke-width="2"/>
<circle cx="197.9" cy="426.4" r="10" fill="#f3e5f5" stroke="#7b1fa2" stroke-width="2"/>
<text x="205.6" y="453.5" font-family="Arial" font-size="8" fill="#7b1fa2" text-anchor="middle">X=0.018</text>
<line x1="312.4" y1="540.7" x2="269.2" y2="551.1" stroke="#7b1fa2" stroke-width="3"/>
<line x1="240.0" y1="558.2" x2="196.8" y2="568.6" stroke="#7b1fa2" stroke-width="3"/>
<circle cx="262.4" cy="552.8" r="10" fill="#f3e5f5" stroke="#7b1fa2" stroke-width="2"/>
<circle cx="246.8" cy="556.5" r="10" fill="#f3e5f5" stroke="#7b1fa2" stroke-width="2"/>
<text x="254.6" y="579.7" font-family="Arial" font-size="8" fill="#7b1fa2" text-anchor="middle">X=0.0143</text>
<line x1="377.5" y1="588.4" x2="337.7" y2="600.3" stroke="#7b1fa2" stroke-width="3"/>
<line x1="308.9" y1="608.8" x2="269.1" y2="620.7" stroke="#7b1fa2" stroke-width="3"/>
<circle cx="331.0" cy="602.3" r="10" fill="#f3e5f5" stroke="#7b1fa2" stroke-width="2"/>
<circle cx="315.7" cy="606.8" r="10" fill="#f3e5f5" stroke="#7b1fa2" stroke-width="2"/>
<text x="323.3" y="629.5" font-family="Arial" font-size="8" fill="#7b1fa2" text-anchor="middle">X=0.0272</text>
<line x1="1160.3" y1="592.7" x2="1192.7" y2="606.6" stroke="#7b1fa2" stroke-width="3"/>
<line x1="1220.3" y1="618.4" x2="1252.7" y2="632.2" stroke="#7b1fa2" stroke-width="3"/>
<circle cx="1199.2" cy="609.3" r="10" fill="#f3e5f5" stroke="#7b1fa2" stroke-width="2"/>
<circle cx="1213.9" cy="615.6" r="10" fill="#f3e5f5" stroke="#7b1fa2" stroke-width="2"/>
<text x="1206.5" y="637.5" font-family="Arial" font-size="8" fill="#7b1fa2" text-anchor="middle">X=0.0232</text>
<line x1="1060.3" y1="746.0" x2="1065.0" y2="758.8" stroke="#7b1fa2" stroke-width="3"/>
<line x1="1075.3" y1="787.0" x2="1080.0" y2="799.8" stroke="#7b1fa2" stroke-width="3"/>
<circle cx="1067.4" cy="765.4" r="10" fill="#f3e5f5" stroke="#7b1fa2" stroke-width="2"/>
<circle cx="1072.9" cy="780.4" r="10" fill="#f3e5f5" stroke="#7b1fa2" stroke-width="2"/>
<text x="1070.2" y="797.9" font-family="Arial" font-size="8" fill="#7b1fa2" text-anchor="middle">X=0.0156</text>
<line x1="1304.8" y1="552.8" x2="1394.8" y2="552.8" stroke="#1976d2" stroke-width="2.0"/>
<circle cx="1394.8" cy="552.8" r="20.0" fill="#e3f2fd" stroke="#1976d2" stroke-width="3.0"/>
<text x="1394.8" y="557.8" font-family="Arial" font-size="12" font-weight="bold" fill="#1976d2" text-anchor="middle">GGENROU_1</text>
<text x="1434.8" y="544.8" font-family="Arial" font-size="8" fill="#1565c0" text-anchor="middle">M=8.4</text>
<text x="1434.8" y="555.8" font-family="Arial" font-size="8" fill="#1565c0" text-anchor="middle">1040MVA</text>
<line x1="1257.5" y1="237.8" x2="1347.5" y2="237.8" stroke="#1976d2" stroke-width="2.0"/>
<circle cx="1347.5" cy="237.8" r="20.0" fill="#e3f2fd" stroke="#1976d2" stroke-width="3.0"/>
<text x="1347.5" y="242.8" font-family="Arial" font-size="12" font-weight="bold" fill="#1976d2" text-anchor="middle">GGENROU_2</text>
<text x="1387.5" y="229.8" font-family="Arial" font-size="8" fill="#1565c0" text-anchor="middle">M=6.06</text>
<text x="1387.5" y="240.8" font-family="Arial" font-size="8" fill="#1565c0" text-anchor="middle">836MVA</text>
<line x1="979.3" y1="200.0" x2="1069.3" y2="200.0" stroke="#1976d2" stroke-width="2.0"/>
<circle cx="1069.3" cy="200.0" r="20.0" fill="#e3f2fd" stroke="#1976d2" stroke-width="3.0"/>
<text x="1069.3" y="205.0" font-family="Arial" font-size="12" font-weight="bold" fill="#1976d2" text-anchor="middle">GGENROU_3</text>
<text x="1109.3" y="192.0" font-family="Arial" font-size="8" fill="#1565c0" text-anchor="middle">M=7.16</text>
<text x="1109.3" y="203.0" font-family="Arial" font-size="8" fill="#1565c0" text-anchor="middle">844MVA</text>
<line x1="367.8" y1="410.4" x2="277.8" y2="410.4" stroke="#1976d2" stroke-width="2.0"/>
<circle cx="277.8" cy="410.4" r="20.0" fill="#e3f2fd" stroke="#1976d2" stroke-width="3.0"/>
<text x="277.8" y="415.4" font-family="Arial" font-size="12" font-weight="bold" fill="#1976d2" text-anchor="middle">GGENROU_4</text>
<text x="237.8" y="402.4" font-family="Arial" font-size="8" fill="#1565c0" text-anchor="middle">M=5.72</text>
<text x="237.8" y="413.4" font-family="Arial" font-size="8" fill="#1565c0" text-anchor="middle">1175MVA</text>
<line x1="150.0" y1="413.2" x2="60.0" y2="413.2" stroke="#1976d2" stroke-width="2.0"/>
<circle cx="60.0" cy="413.2" r="20.0" fill="#e3f2fd" stroke="#1976d2" stroke-width="3.0"/>
<text x="60.0" y="418.2" font-family="Arial" font-size="12" font-weight="bold" fill="#1976d2" text-anchor="middle">GGENROU_5</text>
<text x="20.0" y="405.2" font-family="Arial" font-size="8" fill="#1565c0" text-anchor="middle">M=5.2</text>
<text x="20.0" y="416.2" font-family="Arial" font-size="8" fill="#1565c0" text-anchor="middle">1080MVA</text>
<line x1="196.8" y1="568.6" x2="106.8" y2="568.6" stroke="#1976d2" stroke-width="2.0"/>
<circle cx="106.8" cy="568.6" r="20.0" fill="#e3f2fd" stroke="#1976d2" stroke-width="3.0"/>
<text x="106.8" y="573.6" font-family="Arial" font-size="12" font-weight="bold" fill="#1976d2" text-anchor="middle">GGENROU_6</text>
<text x="66.8" y="560.6" font-family="Arial" font-size="8" fill="#1565c0" text-anchor="middle">M=6.96</text>
<text x="66.8" y="571.6" font-family="Arial" font-size="8" fill="#1565c0" text-anchor="middle">1086MVA</text>
<line x1="269.1" y1="620.7" x2="179.1" y2="620.7" stroke="#1976d2" stroke-width="2.0"/>
<circle cx="179.1" cy="620.7" r="20.0" fill="#e3f2fd" stroke="#1976d2" stroke-width="3.0"/>
<text x="179.1" y="625.7" font-family="Arial" font-size="12" font-weight="bold" fill="#1976d2" text-anchor="middle">GGENROU_7</text>
<text x="139.1" y="612.7" font-family="Arial" font-size="8" fill="#1565c0" text-anchor="middle">M=5.28</text>
<text x="139.1" y="623.7" font-family="Arial" font-size="8" fill="#1565c0" text-anchor="middle">1025MVA</text>
<line x1="1252.7" y1="632.2" x2="1342.7" y2="632.2" stroke="#1976d2" stroke-width="2.0"/>
<circle cx="1342.7" cy="632.2" r="20.0" fill="#e3f2fd" stroke="#1976d2" stroke-width="3.0"/>
<text x="1342.7" y="637.2" font-family="Arial" font-size="12" font-weight="bold" fill="#1976d2" text-anchor="middle">GGENROU_8</text>
<text x="1382.7" y="624.2" font-family="Arial" font-size="8" fill="#1565c0" text-anchor="middle">M=4.86</text>
<text x="1382.7" y="635.2" font-family="Arial" font-size="8" fill="#1565c0" text-anchor="middle">970MVA</text>
<line x1="1080.0" y1="799.8" x2="1170.0" y2="799.8" stroke="#1976d2" stroke-width="2.0"/>
<circle cx="1170.0" cy="799.8" r="20.0" fill="#e3f2fd" stroke="#1976d2" stroke-width="3.0"/>
<text x="1170.0" y="804.8" font-family="Arial" font-size="12" font-weight="bold" fill="#1976d2" text-anchor="middle">GGENROU_9</text>
<text x="1210.0" y="791.8" font-family="Arial" font-size="8" fill="#1565c0" text-anchor="middle">M=6.9</text>
<text x="1210.0" y="802.8" font-family="Arial" font-size="8" fill="#1565c0" text-anchor="middle">1684MVA</text>
<line x1="1449.4" y1="435.1" x2="1539.4" y2="435.1" stroke="#1976d2" stroke-width="2.0"/>
<circle cx="1539.4" cy="435.1" r="20.0" fill="#e3f2fd" stroke="#1976d2" stroke-width="3.0"/>
<text x="1539.4" y="440.1" font-family="Arial" font-size="12" font-weight="bold" fill="#1976d2" text-anchor="middle">GGENROU_10</text>
<text x="1579.4" y="427.1" font-family="Arial" font-size="8" fill="#1565c0" text-anchor="middle">M=100.0</text>
<text x="1579.4" y="438.1" font-family="Arial" font-size="8" fill="#1565c0" text-anchor="middle">1199MVA</text>
<line x1="1394.8" y1="532.8" x2="1422.3" y2="515.1" stroke="#ff6f00" stroke-width="1.5" stroke-dasharray="3,2"/>
<rect x="1404.3" y="495.1" width="36.0" height="20.0" fill="#fff3e0" stroke="#ff6f00" stroke-width="2.0" rx="3"/>
<text x="1422.3" y="509.1" font-family="Arial" font-size="7" font-weight="bold" fill="#e65100" text-anchor="middle">IEEEX1</text>
<line x1="1347.5" y1="217.8" x2="1375.0" y2="200.1" stroke="#ff6f00" stroke-width="1.5" stroke-dasharray="3,2"/>
<rect x="1357.0" y="180.1" width="36.0" height="20.0" fill="#fff3e0" stroke="#ff6f00" stroke-width="2.0" rx="3"/>
<text x="1375.0" y="194.1" font-family="Arial" font-size="7" font-weight="bold" fill="#e65100" text-anchor="middle">IEEEX1</text>
<line x1="1069.3" y1="180.0" x2="1096.8" y2="162.4" stroke="#ff6f00" stroke-width="1.5" stroke-dasharray="3,2"/>
<rect x="1078.8" y="142.4" width="36.0" height="20.0" fill="#fff3e0" stroke="#ff6f00" stroke-width="2.0" rx="3"/>
<text x="1096.8" y="156.4" font-family="Arial" font-size="7" font-weight="bold" fill="#e65100" text-anchor="middle">IEEEX1</text>
<line x1="277.8" y1="390.4" x2="250.3" y2="468.1" stroke="#ff6f00" stroke-width="1.5" stroke-dasharray="3,2"/>
<rect x="232.3" y="448.1" width="36.0" height="20.0" fill="#fff3e0" stroke="#ff6f00" stroke-width="2.0" rx="3"/>
<text x="250.3" y="462.1" font-family="Arial" font-size="7" font-weight="bold" fill="#e65100" text-anchor="middle">IEEEX1</text>
<line x1="60.0" y1="393.2" x2="32.5" y2="470.8" stroke="#ff6f00" stroke-width="1.5" stroke-dasharray="3,2"/>
<rect x="14.5" y="450.8" width="36.0" height="20.0" fill="#fff3e0" stroke="#ff6f00" stroke-width="2.0" rx="3"/>
<text x="32.5" y="464.8" font-family="Arial" font-size="7" font-weight="bold" fill="#e65100" text-anchor="middle">IEEEX1</text>
<line x1="106.8" y1="548.6" x2="79.3" y2="626.2" stroke="#ff6f00" stroke-width="1.5" stroke-dasharray="3,2"/>
<rect x="61.3" y="606.2" width="36.0" height="20.0" fill="#fff3e0" stroke="#ff6f00" stroke-width="2.0" rx="3"/>
<text x="79.3" y="620.2" font-family="Arial" font-size="7" font-weight="bold" fill="#e65100" text-anchor="middle">IEEEX1</text>
<line x1="179.1" y1="600.7" x2="151.6" y2="678.3" stroke="#ff6f00" stroke-width="1.5" stroke-dasharray="3,2"/>
<rect x="133.6" y="658.3" width="36.0" height="20.0" fill="#fff3e0" stroke="#ff6f00" stroke-width="2.0" rx="3"/>
<text x="151.6" y="672.3" font-family="Arial" font-size="7" font-weight="bold" fill="#e65100" text-anchor="middle">IEEEX1</text>
<line x1="1342.7" y1="612.2" x2="1310.2" y2="594.6" stroke="#ff6f00" stroke-width="1.5" stroke-dasharray="3,2"/>
<rect x="1292.2" y="574.6" width="36.0" height="20.0" fill="#fff3e0" stroke="#ff6f00" stroke-width="2.0" rx="3"/>
<text x="1310.2" y="588.6" font-family="Arial" font-size="7" font-weight="bold" fill="#e65100" text-anchor="middle">IEEEX1</text>
<line x1="1170.0" y1="779.8" x2="1197.5" y2="762.1" stroke="#ff6f00" stroke-width="1.5" stroke-dasharray="3,2"/>
<rect x="1179.5" y="742.1" width="36.0" height="20.0" fill="#fff3e0" stroke="#ff6f00" stroke-width="2.0" rx="3"/>
<text x="1197.5" y="756.1" font-family="Arial" font-size="7" font-weight="bold" fill="#e65100" text-anchor="middle">IEEEX1</text>
<line x1="1539.4" y1="415.1" x2="1566.9" y2="397.5" stroke="#ff6f00" stroke-width="1.5" stroke-dasharray="3,2"/>
<rect x="1548.9" y="377.5" width="36.0" height="20.0" fill="#fff3e0" stroke="#ff6f00" stroke-width="2.0" rx="3"/>
<text x="1566.9" y="391.5" font-family="Arial" font-size="7" font-weight="bold" fill="#e65100" text-anchor="middle">IEEEX1</text>
<line x1="1394.8" y1="572.8" x2="1422.3" y2="590.4" stroke="#2e7d32" stroke-width="1.5" stroke-dasharray="3,2"/>
<rect x="1404.3" y="590.4" width="36.0" height="20.0" fill="#e8f5e9" stroke="#2e7d32" stroke-width="2.0" rx="3"/>
<text x="1422.3" y="604.4" font-family="Arial" font-size="7" font-weight="bold" fill="#1b5e20" text-anchor="middle">TGOV1</text>
<line x1="1347.5" y1="257.8" x2="1375.0" y2="275.4" stroke="#2e7d32" stroke-width="1.5" stroke-dasharray="3,2"/>
<rect x="1357.0" y="275.4" width="36.0" height="20.0" fill="#e8f5e9" stroke="#2e7d32" stroke-width="2.0" rx="3"/>
<text x="1375.0" y="289.4" font-family="Arial" font-size="7" font-weight="bold" fill="#1b5e20" text-anchor="middle">TGOV1</text>
<line x1="1069.3" y1="220.0" x2="1096.8" y2="237.6" stroke="#2e7d32" stroke-width="1.5" stroke-dasharray="3,2"/>
<rect x="1078.8" y="237.6" width="36.0" height="20.0" fill="#e8f5e9" stroke="#2e7d32" stroke-width="2.0" rx="3"/>
<text x="1096.8" y="251.6" font-family="Arial" font-size="7" font-weight="bold" fill="#1b5e20" text-anchor="middle">TGOV1</text>
<line x1="277.8" y1="430.4" x2="250.3" y2="352.8" stroke="#2e7d32" stroke-width="1.5" stroke-dasharray="3,2"/>
<rect x="232.3" y="352.8" width="36.0" height="20.0" fill="#e8f5e9" stroke="#2e7d32" stroke-width="2.0" rx="3"/>
<text x="250.3" y="366.8" font-family="Arial" font-size="7" font-weight="bold" fill="#1b5e20" text-anchor="middle">TGOV1</text>
<line x1="60.0" y1="433.2" x2="32.5" y2="355.6" stroke="#2e7d32" stroke-width="1.5" stroke-dasharray="3,2"/>
<rect x="14.5" y="355.6" width="36.0" height="20.0" fill="#e8f5e9" stroke="#2e7d32" stroke-width="2.0" rx="3"/>
<text x="32.5" y="369.6" font-family="Arial" font-size="7" font-weight="bold" fill="#1b5e20" text-anchor="middle">TGOV1</text>
<line x1="106.8" y1="588.6" x2="79.3" y2="510.9" stroke="#2e7d32" stroke-width="1.5" stroke-dasharray="3,2"/>
<rect x="61.3" y="510.9" width="36.0" height="20.0" fill="#e8f5e9" stroke="#2e7d32" stroke-width="2.0" rx="3"/>
<text x="79.3" y="524.9" font-family="Arial" font-size="7" font-weight="bold" fill="#1b5e20" text-anchor="middle">TGOV1</text>
<line x1="179.1" y1="640.7" x2="211.6" y2="563.0" stroke="#2e7d32" stroke-width="1.5" stroke-dasharray="3,2"/>
<rect x="193.6" y="563.0" width="36.0" height="20.0" fill="#e8f5e9" stroke="#2e7d32" stroke-width="2.0" rx="3"/>
<text x="211.6" y="577.0" font-family="Arial" font-size="7" font-weight="bold" fill="#1b5e20" text-anchor="middle">TGOV1</text>
<line x1="1342.7" y1="652.2" x2="1370.2" y2="669.9" stroke="#2e7d32" stroke-width="1.5" stroke-dasharray="3,2"/>
<rect x="1352.2" y="669.9" width="36.0" height="20.0" fill="#e8f5e9" stroke="#2e7d32" stroke-width="2.0" rx="3"/>
<text x="1370.2" y="683.9" font-family="Arial" font-size="7" font-weight="bold" fill="#1b5e20" text-anchor="middle">TGOV1</text>
<line x1="1170.0" y1="819.8" x2="1197.5" y2="837.4" stroke="#2e7d32" stroke-width="1.5" stroke-dasharray="3,2"/>
<rect x="1179.5" y="837.4" width="36.0" height="20.0" fill="#e8f5e9" stroke="#2e7d32" stroke-width="2.0" rx="3"/>
<text x="1197.5" y="851.4" font-family="Arial" font-size="7" font-weight="bold" fill="#1b5e20" text-anchor="middle">TGOV1</text>
<line x1="1539.4" y1="455.1" x2="1566.9" y2="472.7" stroke="#2e7d32" stroke-width="1.5" stroke-dasharray="3,2"/>
<rect x="1548.9" y="472.7" width="36.0" height="20.0" fill="#e8f5e9" stroke="#2e7d32" stroke-width="2.0" rx="3"/>
<text x="1566.9" y="486.7" font-family="Arial" font-size="7" font-weight="bold" fill="#1b5e20" text-anchor="middle">TGOV1</text>
<line x1="1057.9" y1="479.9" x2="1057.9" y2="527.9" stroke="#d32f2f" stroke-width="2.0"/>
<polygon points="1057.9,551.9 1045.9,531.9 1069.9,531.9" fill="#ffebee" stroke="#d32f2f" stroke-width="2.0"/>
<text x="1057.9" y="564.9" font-family="Arial" font-size="8" fill="#c62828" text-anchor="middle">P=6.0</text>
<line x1="1049.6" y1="392.1" x2="1049.6" y2="440.1" stroke="#d32f2f" stroke-width="2.0"/>
<polygon points="1049.6,464.1 1037.6,444.1 1061.6,444.1" fill="#ffebee" stroke="#d32f2f" stroke-width="2.0"/>
<text x="1049.6" y="477.1" font-family="Arial" font-size="8" fill="#c62828" text-anchor="middle">P=4.5</text>
<line x1="1317.2" y1="289.7" x2="1317.2" y2="337.7" stroke="#d32f2f" stroke-width="2.0"/>
<polygon points="1317.2,361.7 1305.2,341.7 1329.2,341.7" fill="#ffebee" stroke="#d32f2f" stroke-width="2.0"/>
<text x="1317.2" y="374.7" font-family="Arial" font-size="8" fill="#c62828" text-anchor="middle">P=2.338</text>
<line x1="1304.8" y1="343.9" x2="1304.8" y2="391.9" stroke="#d32f2f" stroke-width="2.0"/>
<polygon points="1304.8,415.9 1292.8,395.9 1316.8,395.9" fill="#ffebee" stroke="#d32f2f" stroke-width="2.0"/>
<text x="1304.8" y="428.9" font-family="Arial" font-size="8" fill="#c62828" text-anchor="middle">P=5.22</text>
<line x1="891.6" y1="241.3" x2="891.6" y2="289.3" stroke="#d32f2f" stroke-width="2.0"/>
<polygon points="891.6,313.3 879.6,293.3 903.6,293.3" fill="#ffebee" stroke="#d32f2f" stroke-width="2.0"/>
<text x="891.6" y="326.3" font-family="Arial" font-size="8" fill="#c62828" text-anchor="middle">P=1.2</text>
<line x1="718.1" y1="439.6" x2="718.1" y2="487.6" stroke="#d32f2f" stroke-width="2.0"/>
<polygon points="718.1,511.6 706.1,491.6 730.1,491.6" fill="#ffebee" stroke="#d32f2f" stroke-width="2.0"/>
<text x="718.1" y="524.6" font-family="Arial" font-size="8" fill="#c62828" text-anchor="middle">P=3.2</text>
<line x1="601.2" y1="492.3" x2="601.2" y2="540.3" stroke="#d32f2f" stroke-width="2.0"/>
<polygon points="601.2,564.3 589.2,544.3 613.2,544.3" fill="#ffebee" stroke="#d32f2f" stroke-width="2.0"/>
<text x="601.2" y="577.3" font-family="Arial" font-size="8" fill="#c62828" text-anchor="middle">P=3.29</text>
<line x1="907.7" y1="508.5" x2="907.7" y2="556.5" stroke="#d32f2f" stroke-width="2.0"/>
<polygon points="907.7,580.5 895.7,560.5 919.7,560.5" fill="#ffebee" stroke="#d32f2f" stroke-width="2.0"/>
<text x="907.7" y="593.5" font-family="Arial" font-size="8" fill="#c62828" text-anchor="middle">P=1.58</text>
<line x1="261.2" y1="443.8" x2="261.2" y2="491.8" stroke="#d32f2f" stroke-width="2.0"/>
<polygon points="261.2,515.8 249.2,495.8 273.2,495.8" fill="#ffebee" stroke="#d32f2f" stroke-width="2.0"/>
<text x="261.2" y="528.8" font-family="Arial" font-size="8" fill="#c62828" text-anchor="middle">P=6.8</text>
<line x1="429.0" y1="513.6" x2="429.0" y2="561.6" stroke="#d32f2f" stroke-width="2.0"/>
<polygon points="429.0,585.6 417.0,565.6 441.0,565.6" fill="#ffebee" stroke="#d32f2f" stroke-width="2.0"/>
<text x="429.0" y="598.6" font-family="Arial" font-size="8" fill="#c62828" text-anchor="middle">P=2.74</text>
<line x1="377.5" y1="588.4" x2="377.5" y2="636.4" stroke="#d32f2f" stroke-width="2.0"/>
<polygon points="377.5,660.4 365.5,640.4 389.5,640.4" fill="#ffebee" stroke="#d32f2f" stroke-width="2.0"/>
<text x="377.5" y="673.4" font-family="Arial" font-size="8" fill="#c62828" text-anchor="middle">P=2.475</text>
<line x1="544.1" y1="541.8" x2="544.1" y2="589.8" stroke="#d32f2f" stroke-width="2.0"/>
<polygon points="544.1,613.8 532.1,593.8 556.1,593.8" fill="#ffebee" stroke="#d32f2f" stroke-width="2.0"/>
<text x="544.1" y="626.8" font-family="Arial" font-size="8" fill="#c62828" text-anchor="middle">P=3.0860000000000003</text>
<line x1="1160.3" y1="592.7" x2="1160.3" y2="640.7" stroke="#d32f2f" stroke-width="2.0"/>
<polygon points="1160.3,664.7 1148.3,644.7 1172.3,644.7" fill="#ffebee" stroke="#d32f2f" stroke-width="2.0"/>
<text x="1160.3" y="677.7" font-family="Arial" font-size="8" fill="#c62828" text-anchor="middle">P=2.24</text>
<line x1="1013.1" y1="639.2" x2="1013.1" y2="687.2" stroke="#d32f2f" stroke-width="2.0"/>
<polygon points="1013.1,711.2 1001.1,691.2 1025.1,691.2" fill="#ffebee" stroke="#d32f2f" stroke-width="2.0"/>
<text x="1013.1" y="724.2" font-family="Arial" font-size="8" fill="#c62828" text-anchor="middle">P=1.39</text>
<line x1="889.0" y1="595.1" x2="889.0" y2="643.1" stroke="#d32f2f" stroke-width="2.0"/>
<polygon points="889.0,667.1 877.0,647.1 901.0,647.1" fill="#ffebee" stroke="#d32f2f" stroke-width="2.0"/>
<text x="889.0" y="680.1" font-family="Arial" font-size="8" fill="#c62828" text-anchor="middle">P=2.81</text>
<line x1="1026.7" y1="693.3" x2="1026.7" y2="741.3" stroke="#d32f2f" stroke-width="2.0"/>
<polygon points="1026.7,765.3 1014.7,745.3 1038.7,745.3" fill="#ffebee" stroke="#d32f2f" stroke-width="2.0"/>
<text x="1026.7" y="778.3" font-family="Arial" font-size="8" fill="#c62828" text-anchor="middle">P=2.06</text>
<line x1="1060.3" y1="746.0" x2="1060.3" y2="794.0" stroke="#d32f2f" stroke-width="2.0"/>
<polygon points="1060.3,818.0 1048.3,798.0 1072.3,798.0" fill="#ffebee" stroke="#d32f2f" stroke-width="2.0"/>
<text x="1060.3" y="831.0" font-family="Arial" font-size="8" fill="#c62828" text-anchor="middle">P=2.835</text>
<line x1="1257.5" y1="237.8" x2="1257.5" y2="325.8" stroke="#d32f2f" stroke-width="2.0"/>
<polygon points="1257.5,349.8 1245.5,329.8 1269.5,329.8" fill="#ffebee" stroke="#d32f2f" stroke-width="2.0"/>
<text x="1257.5" y="362.8" font-family="Arial" font-size="8" fill="#c62828" text-anchor="middle">P=0.8</text>
<line x1="1449.4" y1="435.1" x2="1499.4" y2="523.1" stroke="#d32f2f" stroke-width="2.0"/>
<polygon points="1499.4,547.1 1487.4,527.1 1511.4,527.1" fill="#ffebee" stroke="#d32f2f" stroke-width="2.0"/>
<text x="1499.4" y="560.1" font-family="Arial" font-size="8" fill="#c62828" text-anchor="middle">P=4.0</text>
<rect x="1364.3" y="461.0" width="8.0" height="50.0" fill="#212121" rx="2"/>
<text x="1368.3" y="454.0" font-family="Arial" font-size="11" font-weight="bold" text-anchor="middle">BUS1</text>
<text x="1368.3" y="526.0" font-family="Arial" font-size="9" fill="#757575" text-anchor="middle">345kV</text>
<rect x="1179.1" y="504.6" width="8.0" height="50.0" fill="#212121" rx="2"/>
<text x="1183.1" y="497.6" font-family="Arial" font-size="11" font-weight="bold" text-anchor="middle">BUS2</text>
<text x="1183.1" y="569.6" font-family="Arial" font-size="9" fill="#757575" text-anchor="middle">345kV</text>
<rect x="1053.9" y="454.9" width="8.0" height="50.0" fill="#212121" rx="2"/>
<text x="1057.9" y="447.9" font-family="Arial" font-size="11" font-weight="bold" text-anchor="middle">LOAD3</text>
<text x="1057.9" y="519.9" font-family="Arial" font-size="9" fill="#757575" text-anchor="middle">345kV</text>
<rect x="1045.6" y="367.1" width="8.0" height="50.0" fill="#212121" rx="2"/>
<text x="1049.6" y="360.1" font-family="Arial" font-size="11" font-weight="bold" text-anchor="middle">LOAD4</text>
<text x="1049.6" y="432.1" font-family="Arial" font-size="9" fill="#757575" text-anchor="middle">345kV</text>
<rect x="1164.4" y="316.0" width="8.0" height="50.0" fill="#212121" rx="2"/>
<text x="1168.4" y="309.0" font-family="Arial" font-size="11" font-weight="bold" text-anchor="middle">BUS5</text>
<text x="1168.4" y="381.0" font-family="Arial" font-size="9" fill="#757575" text-anchor="middle">345kV</text>
<rect x="1178.8" y="261.9" width="8.0" height="50.0" fill="#212121" rx="2"/>
<text x="1182.8" y="254.9" font-family="Arial" font-size="11" font-weight="bold" text-anchor="middle">BUS6</text>
<text x="1182.8" y="326.9" font-family="Arial" font-size="9" fill="#757575" text-anchor="middle">345kV</text>
<rect x="1313.2" y="264.7" width="8.0" height="50.0" fill="#212121" rx="2"/>
<text x="1317.2" y="257.7" font-family="Arial" font-size="11" font-weight="bold" text-anchor="middle">LOAD7</text>
<text x="1317.2" y="329.7" font-family="Arial" font-size="9" fill="#757575" text-anchor="middle">345kV</text>
<rect x="1300.8" y="318.9" width="8.0" height="50.0" fill="#212121" rx="2"/>
<text x="1304.8" y="311.9" font-family="Arial" font-size="11" font-weight="bold" text-anchor="middle">LOAD8</text>
<text x="1304.8" y="383.9" font-family="Arial" font-size="9" fill="#757575" text-anchor="middle">345kV</text>
<rect x="1426.1" y="354.1" width="8.0" height="50.0" fill="#212121" rx="2"/>
<text x="1430.1" y="347.1" font-family="Arial" font-size="11" font-weight="bold" text-anchor="middle">BUS9</text>
<text x="1430.1" y="419.1" font-family="Arial" font-size="9" fill="#757575" text-anchor="middle">345kV</text>
<rect x="979.7" y="255.9" width="8.0" height="50.0" fill="#212121" rx="2"/>
<text x="983.7" y="248.9" font-family="Arial" font-size="11" font-weight="bold" text-anchor="middle">BUS10</text>
<text x="983.7" y="320.9" font-family="Arial" font-size="9" fill="#757575" text-anchor="middle">345kV</text>
<rect x="1086.0" y="222.6" width="8.0" height="50.0" fill="#212121" rx="2"/>
<text x="1090.0" y="215.6" font-family="Arial" font-size="11" font-weight="bold" text-anchor="middle">BUS11</text>
<text x="1090.0" y="287.6" font-family="Arial" font-size="9" fill="#757575" text-anchor="middle">345kV</text>
<rect x="887.6" y="216.3" width="8.0" height="50.0" fill="#212121" rx="2"/>
<text x="891.6" y="209.3" font-family="Arial" font-size="11" font-weight="bold" text-anchor="middle">LOAD12</text>
<text x="891.6" y="281.3" font-family="Arial" font-size="9" fill="#757575" text-anchor="middle">138kV</text>
<rect x="892.2" y="297.2" width="8.0" height="50.0" fill="#212121" rx="2"/>
<text x="896.2" y="290.2" font-family="Arial" font-size="11" font-weight="bold" text-anchor="middle">BUS13</text>
<text x="896.2" y="362.2" font-family="Arial" font-size="9" fill="#757575" text-anchor="middle">345kV</text>
<rect x="886.9" y="351.6" width="8.0" height="50.0" fill="#212121" rx="2"/>
<text x="890.9" y="344.6" font-family="Arial" font-size="11" font-weight="bold" text-anchor="middle">BUS14</text>
<text x="890.9" y="416.6" font-family="Arial" font-size="9" fill="#757575" text-anchor="middle">345kV</text>
<rect x="714.1" y="414.6" width="8.0" height="50.0" fill="#212121" rx="2"/>
<text x="718.1" y="407.6" font-family="Arial" font-size="11" font-weight="bold" text-anchor="middle">LOAD15</text>
<text x="718.1" y="479.6" font-family="Arial" font-size="9" fill="#757575" text-anchor="middle">345kV</text>
<rect x="597.2" y="467.3" width="8.0" height="50.0" fill="#212121" rx="2"/>
<text x="601.2" y="460.3" font-family="Arial" font-size="11" font-weight="bold" text-anchor="middle">LOAD16</text>
<text x="601.2" y="532.3" font-family="Arial" font-size="9" fill="#757575" text-anchor="middle">345kV</text>
<rect x="768.3" y="505.3" width="8.0" height="50.0" fill="#212121" rx="2"/>
<text x="772.3" y="498.3" font-family="Arial" font-size="11" font-weight="bold" text-anchor="middle">BUS17</text>
<text x="772.3" y="570.3" font-family="Arial" font-size="9" fill="#757575" text-anchor="middle">345kV</text>
<rect x="903.7" y="483.5" width="8.0" height="50.0" fill="#212121" rx="2"/>
<text x="907.7" y="476.5" font-family="Arial" font-size="11" font-weight="bold" text-anchor="middle">LOAD18</text>
<text x="907.7" y="548.5" font-family="Arial" font-size="9" fill="#757575" text-anchor="middle">345kV</text>
<rect x="423.2" y="434.2" width="8.0" height="50.0" fill="#212121" rx="2"/>
<text x="427.2" y="427.2" font-family="Arial" font-size="11" font-weight="bold" text-anchor="middle">BUS19</text>
<text x="427.2" y="499.2" font-family="Arial" font-size="9" fill="#757575" text-anchor="middle">345kV</text>
<rect x="257.2" y="418.8" width="8.0" height="50.0" fill="#212121" rx="2"/>
<text x="261.2" y="411.8" font-family="Arial" font-size="11" font-weight="bold" text-anchor="middle">LOAD20</text>
<text x="261.2" y="483.8" font-family="Arial" font-size="9" fill="#757575" text-anchor="middle">138kV</text>
<rect x="425.0" y="488.6" width="8.0" height="50.0" fill="#212121" rx="2"/>
<text x="429.0" y="481.6" font-family="Arial" font-size="11" font-weight="bold" text-anchor="middle">LOAD21</text>
<text x="429.0" y="553.6" font-family="Arial" font-size="9" fill="#757575" text-anchor="middle">345kV</text>
<rect x="308.4" y="515.7" width="8.0" height="50.0" fill="#212121" rx="2"/>
<text x="312.4" y="508.7" font-family="Arial" font-size="11" font-weight="bold" text-anchor="middle">BUS22</text>
<text x="312.4" y="580.7" font-family="Arial" font-size="9" fill="#757575" text-anchor="middle">345kV</text>
<rect x="373.5" y="563.4" width="8.0" height="50.0" fill="#212121" rx="2"/>
<text x="377.5" y="556.4" font-family="Arial" font-size="11" font-weight="bold" text-anchor="middle">LOAD23</text>
<text x="377.5" y="628.4" font-family="Arial" font-size="9" fill="#757575" text-anchor="middle">345kV</text>
<rect x="540.1" y="516.8" width="8.0" height="50.0" fill="#212121" rx="2"/>
<text x="544.1" y="509.8" font-family="Arial" font-size="11" font-weight="bold" text-anchor="middle">LOAD24</text>
<text x="544.1" y="581.8" font-family="Arial" font-size="9" fill="#757575" text-anchor="middle">345kV</text>
<rect x="1156.3" y="567.7" width="8.0" height="50.0" fill="#212121" rx="2"/>
<text x="1160.3" y="560.7" font-family="Arial" font-size="11" font-weight="bold" text-anchor="middle">LOAD25</text>
<text x="1160.3" y="632.7" font-family="Arial" font-size="9" fill="#757575" text-anchor="middle">345kV</text>
<rect x="1009.1" y="614.2" width="8.0" height="50.0" fill="#212121" rx="2"/>
<text x="1013.1" y="607.2" font-family="Arial" font-size="11" font-weight="bold" text-anchor="middle">LOAD26</text>
<text x="1013.1" y="679.2" font-family="Arial" font-size="9" fill="#757575" text-anchor="middle">345kV</text>
<rect x="885.0" y="570.1" width="8.0" height="50.0" fill="#212121" rx="2"/>
<text x="889.0" y="563.1" font-family="Arial" font-size="11" font-weight="bold" text-anchor="middle">LOAD27</text>
<text x="889.0" y="635.1" font-family="Arial" font-size="9" fill="#757575" text-anchor="middle">345kV</text>
<rect x="1022.7" y="668.3" width="8.0" height="50.0" fill="#212121" rx="2"/>
<text x="1026.7" y="661.3" font-family="Arial" font-size="11" font-weight="bold" text-anchor="middle">LOAD28</text>
<text x="1026.7" y="733.3" font-family="Arial" font-size="9" fill="#757575" text-anchor="middle">345kV</text>
<rect x="1056.3" y="721.0" width="8.0" height="50.0" fill="#212121" rx="2"/>
<text x="1060.3" y="714.0" font-family="Arial" font-size="11" font-weight="bold" text-anchor="middle">LOAD29</text>
<text x="1060.3" y="786.0" font-family="Arial" font-size="9" fill="#757575" text-anchor="middle">345kV</text>
<rect x="1300.8" y="527.8" width="8.0" height="50.0" fill="#1565c0" rx="2"/>
<text x="1304.8" y="520.8" font-family="Arial" font-size="11" font-weight="bold" text-anchor="middle">GEN30</text>
<text x="1304.8" y="592.8" font-family="Arial" font-size="9" fill="#757575" text-anchor="middle">34kV</text>
<rect x="1253.5" y="212.8" width="8.0" height="50.0" fill="#1565c0" rx="2"/>
<text x="1257.5" y="205.8" font-family="Arial" font-size="11" font-weight="bold" text-anchor="middle">GEN31</text>
<text x="1257.5" y="277.8" font-family="Arial" font-size="9" fill="#757575" text-anchor="middle">34kV</text>
<rect x="975.3" y="175.0" width="8.0" height="50.0" fill="#1565c0" rx="2"/>
<text x="979.3" y="168.0" font-family="Arial" font-size="11" font-weight="bold" text-anchor="middle">GEN32</text>
<text x="979.3" y="240.0" font-family="Arial" font-size="9" fill="#757575" text-anchor="middle">21kV</text>
<rect x="363.8" y="385.4" width="8.0" height="50.0" fill="#1565c0" rx="2"/>
<text x="367.8" y="378.4" font-family="Arial" font-size="11" font-weight="bold" text-anchor="middle">GEN33</text>
<text x="367.8" y="450.4" font-family="Arial" font-size="9" fill="#757575" text-anchor="middle">21kV</text>
<rect x="146.0" y="388.2" width="8.0" height="50.0" fill="#1565c0" rx="2"/>
<text x="150.0" y="381.2" font-family="Arial" font-size="11" font-weight="bold" text-anchor="middle">GEN34</text>
<text x="150.0" y="453.2" font-family="Arial" font-size="9" fill="#757575" text-anchor="middle">16kV</text>
<rect x="192.8" y="543.6" width="8.0" height="50.0" fill="#1565c0" rx="2"/>
<text x="196.8" y="536.6" font-family="Arial" font-size="11" font-weight="bold" text-anchor="middle">GEN35</text>
<text x="196.8" y="608.6" font-family="Arial" font-size="9" fill="#757575" text-anchor="middle">16kV</text>
<rect x="265.1" y="595.7" width="8.0" height="50.0" fill="#1565c0" rx="2"/>
<text x="269.1" y="588.7" font-family="Arial" font-size="11" font-weight="bold" text-anchor="middle">GEN36</text>
<text x="269.1" y="660.7" font-family="Arial" font-size="9" fill="#757575" text-anchor="middle">12kV</text>
<rect x="1248.7" y="607.2" width="8.0" height="50.0" fill="#1565c0" rx="2"/>
<text x="1252.7" y="600.2" font-family="Arial" font-size="11" font-weight="bold" text-anchor="middle">GEN37</text>
<text x="1252.7" y="672.2" font-family="Arial" font-size="9" fill="#757575" text-anchor="middle">12kV</text>
<rect x="1076.0" y="774.8" width="8.0" height="50.0" fill="#1565c0" rx="2"/>
<text x="1080.0" y="767.8" font-family="Arial" font-size="11" font-weight="bold" text-anchor="middle">GEN38</text>
<text x="1080.0" y="839.8" font-family="Arial" font-size="9" fill="#757575" text-anchor="middle">34kV</text>
<rect x="1445.4" y="410.1" width="8.0" height="50.0" fill="#212121" rx="2"/>
<text x="1449.4" y="403.1" font-family="Arial" font-size="11" font-weight="bold" text-anchor="middle">GEN39</text>
<text x="1449.4" y="475.1" font-family="Arial" font-size="9" fill="#757575" text-anchor="middle">345kV</text>
</svg>