<?xml version="1.0" encoding="UTF-8" standalone="no"?>
<!DOCTYPE svg PUBLIC "-//W3C//DTD SVG 1.1//EN"
 "http://www.w3.org/Graphics/SVG/1.1/DTD/svg11.dtd">
<!-- Generated by graphviz version 14.1.2 (20260124.0452)
 -->
<!-- Title: power_system Pages: 1 -->
<svg width="1160pt" height="939pt"
 viewBox="0.00 0.00 1160.00 939.00" xmlns="http://www.w3.org/2000/svg" xmlns:xlink="http://www.w3.org/1999/xlink">
<g id="graph0" class="graph" transform="scale(1 1) rotate(0) translate(36 903.32)">
<title>power_system</title>
<polygon fill="#fafafa" stroke="none" points="-36,36 -36,-903.32 1124.21,-903.32 1124.21,36 -36,36"/>
<!-- 1 -->
<g id="node1" class="node">
<title>1</title>
<path fill="#e3f2fd" stroke="#1565c0" stroke-width="2.5" d="M928.67,-491.37C928.67,-491.37 896.12,-491.37 896.12,-491.37 890.12,-491.37 884.12,-485.37 884.12,-479.37 884.12,-479.37 884.12,-461.97 884.12,-461.97 884.12,-455.97 890.12,-449.97 896.12,-449.97 896.12,-449.97 928.67,-449.97 928.67,-449.97 934.67,-449.97 940.67,-455.97 940.67,-461.97 940.67,-461.97 940.67,-479.37 940.67,-479.37 940.67,-485.37 934.67,-491.37 928.67,-491.37"/>
<text xml:space="preserve" text-anchor="middle" x="912.39" y="-473.72" font-family="Arial" font-size="11.00">1</text>
<text xml:space="preserve" text-anchor="middle" x="912.39" y="-460.22" font-family="Arial" font-size="11.00">20 kV</text>
</g>
<!-- gen_G1 -->
<g id="node11" class="node">
<title>gen_G1</title>
<ellipse fill="#e3f2fd" stroke="#1976d2" stroke-width="1.5" cx="996.68" cy="-462.48" rx="32.4" ry="27"/>
<text xml:space="preserve" text-anchor="middle" x="996.68" y="-469.68" font-family="Arial" font-size="9.00">G1</text>
<text xml:space="preserve" text-anchor="middle" x="996.68" y="-459.18" font-family="Arial" font-size="9.00">M=13.0</text>
<text xml:space="preserve" text-anchor="middle" x="996.68" y="-448.68" font-family="Arial" font-size="9.00">900 MVA</text>
</g>
<!-- 1&#45;&#45;gen_G1 -->
<g id="edge1" class="edge">
<title>1&#45;&#45;gen_G1</title>
<path fill="none" stroke="#1976d2" stroke-width="1.5" d="M941.87,-467.81C948.99,-467.12 956.64,-466.37 963.9,-465.67"/>
</g>
<!-- xfmr_0 -->
<g id="node25" class="node">
<title>xfmr_0</title>
<polygon fill="#f3e5f5" stroke="#7b1fa2" stroke-width="2.5" points="829.69,-512.26 802.69,-485.26 829.69,-458.26 856.69,-485.26 829.69,-512.26"/>
<text xml:space="preserve" text-anchor="middle" x="829.69" y="-497.16" font-family="Arial" font-size="8.00" fill="#4a148c">T</text>
<text xml:space="preserve" text-anchor="middle" x="829.69" y="-487.41" font-family="Arial" font-size="8.00" fill="#4a148c">20/</text>
<text xml:space="preserve" text-anchor="middle" x="829.69" y="-477.66" font-family="Arial" font-size="8.00" fill="#4a148c">230</text>
<text xml:space="preserve" text-anchor="middle" x="829.69" y="-467.91" font-family="Arial" font-size="8.00" fill="#4a148c">X=0.012</text>
</g>
<!-- 1&#45;&#45;xfmr_0 -->
<g id="edge26" class="edge">
<title>1&#45;&#45;xfmr_0</title>
<path fill="none" stroke="#7b1fa2" stroke-width="2.5" d="M883,-475.86C873.53,-477.53 863.14,-479.36 854.07,-480.96"/>
</g>
<!-- 2 -->
<g id="node2" class="node">
<title>2</title>
<path fill="#e3f2fd" stroke="#1565c0" stroke-width="2.5" d="M657.86,-719.17C657.86,-719.17 625.31,-719.17 625.31,-719.17 619.31,-719.17 613.31,-713.17 613.31,-707.17 613.31,-707.17 613.31,-689.77 613.31,-689.77 613.31,-683.77 619.31,-677.77 625.31,-677.77 625.31,-677.77 657.86,-677.77 657.86,-677.77 663.86,-677.77 669.86,-683.77 669.86,-689.77 669.86,-689.77 669.86,-707.17 669.86,-707.17 669.86,-713.17 663.86,-719.17 657.86,-719.17"/>
<text xml:space="preserve" text-anchor="middle" x="641.58" y="-701.52" font-family="Arial" font-size="11.00">2</text>
<text xml:space="preserve" text-anchor="middle" x="641.58" y="-688.02" font-family="Arial" font-size="11.00">20 kV</text>
</g>
<!-- gen_G2 -->
<g id="node12" class="node">
<title>gen_G2</title>
<ellipse fill="#e3f2fd" stroke="#1976d2" stroke-width="1.5" cx="645.52" cy="-784.36" rx="32.4" ry="27"/>
<text xml:space="preserve" text-anchor="middle" x="645.52" y="-791.56" font-family="Arial" font-size="9.00">G2</text>
<text xml:space="preserve" text-anchor="middle" x="645.52" y="-781.06" font-family="Arial" font-size="9.00">M=13.0</text>
<text xml:space="preserve" text-anchor="middle" x="645.52" y="-770.56" font-family="Arial" font-size="9.00">900 MVA</text>
</g>
<!-- 2&#45;&#45;gen_G2 -->
<g id="edge2" class="edge">
<title>2&#45;&#45;gen_G2</title>
<path fill="none" stroke="#1976d2" stroke-width="1.5" d="M642.58,-720.14C643.09,-731.27 643.71,-744.96 644.26,-756.83"/>
</g>
<!-- xfmr_1 -->
<g id="node26" class="node">
<title>xfmr_1</title>
<polygon fill="#f3e5f5" stroke="#7b1fa2" stroke-width="2.5" points="641.94,-639.29 614.94,-612.29 641.94,-585.29 668.94,-612.29 641.94,-639.29"/>
<text xml:space="preserve" text-anchor="middle" x="641.94" y="-624.19" font-family="Arial" font-size="8.00" fill="#4a148c">T</text>
<text xml:space="preserve" text-anchor="middle" x="641.94" y="-614.44" font-family="Arial" font-size="8.00" fill="#4a148c">20/</text>
<text xml:space="preserve" text-anchor="middle" x="641.94" y="-604.69" font-family="Arial" font-size="8.00" fill="#4a148c">230</text>
<text xml:space="preserve" text-anchor="middle" x="641.94" y="-594.94" font-family="Arial" font-size="8.00" fill="#4a148c">X=0.012</text>
</g>
<!-- 2&#45;&#45;xfmr_1 -->
<g id="edge28" class="edge">
<title>2&#45;&#45;xfmr_1</title>
<path fill="none" stroke="#7b1fa2" stroke-width="2.5" d="M641.67,-676.72C641.72,-665.85 641.77,-652.56 641.82,-640.87"/>
</g>
<!-- 3 -->
<g id="node3" class="node">
<title>3</title>
<path fill="#e3f2fd" stroke="#1565c0" stroke-width="2.5" d="M428.2,-195.3C428.2,-195.3 395.65,-195.3 395.65,-195.3 389.65,-195.3 383.65,-189.3 383.65,-183.3 383.65,-183.3 383.65,-165.9 383.65,-165.9 383.65,-159.9 389.65,-153.9 395.65,-153.9 395.65,-153.9 428.2,-153.9 428.2,-153.9 434.2,-153.9 440.2,-159.9 440.2,-165.9 440.2,-165.9 440.2,-183.3 440.2,-183.3 440.2,-189.3 434.2,-195.3 428.2,-195.3"/>
<text xml:space="preserve" text-anchor="middle" x="411.92" y="-177.65" font-family="Arial" font-size="11.00">12</text>
<text xml:space="preserve" text-anchor="middle" x="411.92" y="-164.15" font-family="Arial" font-size="11.00">20 kV</text>
</g>
<!-- gen_G3 -->
<g id="node13" class="node">
<title>gen_G3</title>
<ellipse fill="#e3f2fd" stroke="#1976d2" stroke-width="1.5" cx="402.14" cy="-88.78" rx="32.4" ry="27"/>
<text xml:space="preserve" text-anchor="middle" x="402.14" y="-95.98" font-family="Arial" font-size="9.00">G3</text>
<text xml:space="preserve" text-anchor="middle" x="402.14" y="-85.48" font-family="Arial" font-size="9.00">M=12.3</text>
<text xml:space="preserve" text-anchor="middle" x="402.14" y="-74.98" font-family="Arial" font-size="9.00">900 MVA</text>
</g>
<!-- 3&#45;&#45;gen_G3 -->
<g id="edge3" class="edge">
<title>3&#45;&#45;gen_G3</title>
<path fill="none" stroke="#1976d2" stroke-width="1.5" d="M409.45,-152.95C408.19,-141.82 406.63,-128.15 405.28,-116.29"/>
</g>
<!-- xfmr_2 -->
<g id="node27" class="node">
<title>xfmr_2</title>
<polygon fill="#f3e5f5" stroke="#7b1fa2" stroke-width="2.5" points="418.46,-289.11 391.46,-262.11 418.46,-235.11 445.46,-262.11 418.46,-289.11"/>
<text xml:space="preserve" text-anchor="middle" x="418.46" y="-274.01" font-family="Arial" font-size="8.00" fill="#4a148c">T</text>
<text xml:space="preserve" text-anchor="middle" x="418.46" y="-264.26" font-family="Arial" font-size="8.00" fill="#4a148c">20/</text>
<text xml:space="preserve" text-anchor="middle" x="418.46" y="-254.51" font-family="Arial" font-size="8.00" fill="#4a148c">230</text>
<text xml:space="preserve" text-anchor="middle" x="418.46" y="-244.76" font-family="Arial" font-size="8.00" fill="#4a148c">X=0.012</text>
</g>
<!-- 3&#45;&#45;xfmr_2 -->
<g id="edge30" class="edge">
<title>3&#45;&#45;xfmr_2</title>
<path fill="none" stroke="#7b1fa2" stroke-width="2.5" d="M413.54,-196.24C414.42,-208.08 415.52,-222.86 416.46,-235.41"/>
</g>
<!-- 4 -->
<g id="node4" class="node">
<title>4</title>
<path fill="#e3f2fd" stroke="#1565c0" stroke-width="2.5" d="M198.33,-459.61C198.33,-459.61 165.78,-459.61 165.78,-459.61 159.78,-459.61 153.78,-453.61 153.78,-447.61 153.78,-447.61 153.78,-430.21 153.78,-430.21 153.78,-424.21 159.78,-418.21 165.78,-418.21 165.78,-418.21 198.33,-418.21 198.33,-418.21 204.33,-418.21 210.33,-424.21 210.33,-430.21 210.33,-430.21 210.33,-447.61 210.33,-447.61 210.33,-453.61 204.33,-459.61 198.33,-459.61"/>
<text xml:space="preserve" text-anchor="middle" x="182.05" y="-441.96" font-family="Arial" font-size="11.00">11</text>
<text xml:space="preserve" text-anchor="middle" x="182.05" y="-428.46" font-family="Arial" font-size="11.00">20 kV</text>
</g>
<!-- gen_G4 -->
<g id="node14" class="node">
<title>gen_G4</title>
<ellipse fill="#e3f2fd" stroke="#1976d2" stroke-width="1.5" cx="99.68" cy="-458.57" rx="32.4" ry="27"/>
<text xml:space="preserve" text-anchor="middle" x="99.68" y="-465.77" font-family="Arial" font-size="9.00">G4</text>
<text xml:space="preserve" text-anchor="middle" x="99.68" y="-455.27" font-family="Arial" font-size="9.00">M=12.3</text>
<text xml:space="preserve" text-anchor="middle" x="99.68" y="-444.77" font-family="Arial" font-size="9.00">900 MVA</text>
</g>
<!-- 4&#45;&#45;gen_G4 -->
<g id="edge4" class="edge">
<title>4&#45;&#45;gen_G4</title>
<path fill="none" stroke="#1976d2" stroke-width="1.5" d="M152.78,-445.89C145.84,-447.55 138.41,-449.32 131.37,-451"/>
</g>
<!-- xfmr_3 -->
<g id="node28" class="node">
<title>xfmr_3</title>
<polygon fill="#f3e5f5" stroke="#7b1fa2" stroke-width="2.5" points="263.21,-445.61 236.21,-418.61 263.21,-391.61 290.21,-418.61 263.21,-445.61"/>
<text xml:space="preserve" text-anchor="middle" x="263.21" y="-430.51" font-family="Arial" font-size="8.00" fill="#4a148c">T</text>
<text xml:space="preserve" text-anchor="middle" x="263.21" y="-420.76" font-family="Arial" font-size="8.00" fill="#4a148c">20/</text>
<text xml:space="preserve" text-anchor="middle" x="263.21" y="-411.01" font-family="Arial" font-size="8.00" fill="#4a148c">230</text>
<text xml:space="preserve" text-anchor="middle" x="263.21" y="-401.26" font-family="Arial" font-size="8.00" fill="#4a148c">X=0.012</text>
</g>
<!-- 4&#45;&#45;xfmr_3 -->
<g id="edge32" class="edge">
<title>4&#45;&#45;xfmr_3</title>
<path fill="none" stroke="#7b1fa2" stroke-width="2.5" d="M211.35,-431.58C220.88,-429.19 231.32,-426.58 240.32,-424.33"/>
</g>
<!-- 5 -->
<g id="node5" class="node">
<title>5</title>
<path fill="#fff9c4" stroke="#f57f17" stroke-width="2.5" d="M763.94,-524.16C763.94,-524.16 725.39,-524.16 725.39,-524.16 719.39,-524.16 713.39,-518.16 713.39,-512.16 713.39,-512.16 713.39,-494.76 713.39,-494.76 713.39,-488.76 719.39,-482.76 725.39,-482.76 725.39,-482.76 763.94,-482.76 763.94,-482.76 769.94,-482.76 775.94,-488.76 775.94,-494.76 775.94,-494.76 775.94,-512.16 775.94,-512.16 775.94,-518.16 769.94,-524.16 763.94,-524.16"/>
<text xml:space="preserve" text-anchor="middle" x="744.67" y="-506.51" font-family="Arial" font-size="11.00">101</text>
<text xml:space="preserve" text-anchor="middle" x="744.67" y="-493.01" font-family="Arial" font-size="11.00">230 kV</text>
</g>
<!-- 6 -->
<g id="node6" class="node">
<title>6</title>
<path fill="#fff9c4" stroke="#f57f17" stroke-width="2.5" d="M672.24,-543.44C672.24,-543.44 633.69,-543.44 633.69,-543.44 627.69,-543.44 621.69,-537.44 621.69,-531.44 621.69,-531.44 621.69,-514.04 621.69,-514.04 621.69,-508.04 627.69,-502.04 633.69,-502.04 633.69,-502.04 672.24,-502.04 672.24,-502.04 678.24,-502.04 684.24,-508.04 684.24,-514.04 684.24,-514.04 684.24,-531.44 684.24,-531.44 684.24,-537.44 678.24,-543.44 672.24,-543.44"/>
<text xml:space="preserve" text-anchor="middle" x="652.97" y="-525.79" font-family="Arial" font-size="11.00">102</text>
<text xml:space="preserve" text-anchor="middle" x="652.97" y="-512.29" font-family="Arial" font-size="11.00">230 kV</text>
</g>
<!-- 5&#45;&#45;6 -->
<g id="edge15" class="edge">
<title>5&#45;&#45;6</title>
<path fill="none" stroke="#424242" stroke-width="2.5" d="M712.28,-484.8C694.34,-484.45 673.46,-490.73 661.74,-501.08"/>
<text xml:space="preserve" text-anchor="middle" x="664.8" y="-490.88" font-family="Arial" font-size="9.00">X=0.0500</text>
</g>
<!-- 5&#45;&#45;6 -->
<g id="edge16" class="edge">
<title>5&#45;&#45;6</title>
<path fill="none" stroke="#424242" stroke-width="2.5" d="M735.56,-525.41C723.75,-535.63 702.99,-541.79 685.19,-541.39"/>
<text xml:space="preserve" text-anchor="middle" x="732.5" y="-539.33" font-family="Arial" font-size="9.00">X=0.0500</text>
</g>
<!-- 7 -->
<g id="node7" class="node">
<title>7</title>
<path fill="#fff9c4" stroke="#f57f17" stroke-width="2.5" d="M602.91,-479.52C602.91,-479.52 564.36,-479.52 564.36,-479.52 558.36,-479.52 552.36,-473.52 552.36,-467.52 552.36,-467.52 552.36,-450.12 552.36,-450.12 552.36,-444.12 558.36,-438.12 564.36,-438.12 564.36,-438.12 602.91,-438.12 602.91,-438.12 608.91,-438.12 614.91,-444.12 614.91,-450.12 614.91,-450.12 614.91,-467.52 614.91,-467.52 614.91,-473.52 608.91,-479.52 602.91,-479.52"/>
<text xml:space="preserve" text-anchor="middle" x="583.64" y="-461.87" font-family="Arial" font-size="11.00">3</text>
<text xml:space="preserve" text-anchor="middle" x="583.64" y="-448.37" font-family="Arial" font-size="11.00">230 kV</text>
</g>
<!-- 6&#45;&#45;7 -->
<g id="edge17" class="edge">
<title>6&#45;&#45;7</title>
<path fill="none" stroke="#424242" stroke-width="2.5" d="M656.86,-500.9C652.03,-483.91 633.81,-465.01 615.83,-456.76"/>
<text xml:space="preserve" text-anchor="middle" x="661.15" y="-477.5" font-family="Arial" font-size="9.00">X=0.0200</text>
</g>
<!-- 6&#45;&#45;7 -->
<g id="edge18" class="edge">
<title>6&#45;&#45;7</title>
<path fill="none" stroke="#424242" stroke-width="2.5" d="M620.7,-524.77C602.71,-516.48 584.49,-497.54 579.72,-480.55"/>
<text xml:space="preserve" text-anchor="middle" x="575.38" y="-507.87" font-family="Arial" font-size="9.00">X=0.0200</text>
</g>
<!-- 8 -->
<g id="node8" class="node">
<title>8</title>
<path fill="#fff9c4" stroke="#f57f17" stroke-width="2.5" d="M527.41,-424.28C527.41,-424.28 488.86,-424.28 488.86,-424.28 482.86,-424.28 476.86,-418.28 476.86,-412.28 476.86,-412.28 476.86,-394.88 476.86,-394.88 476.86,-388.88 482.86,-382.88 488.86,-382.88 488.86,-382.88 527.41,-382.88 527.41,-382.88 533.41,-382.88 539.41,-388.88 539.41,-394.88 539.41,-394.88 539.41,-412.28 539.41,-412.28 539.41,-418.28 533.41,-424.28 527.41,-424.28"/>
<text xml:space="preserve" text-anchor="middle" x="508.13" y="-406.63" font-family="Arial" font-size="11.00">13</text>
<text xml:space="preserve" text-anchor="middle" x="508.13" y="-393.13" font-family="Arial" font-size="11.00">230 kV</text>
</g>
<!-- 7&#45;&#45;8 -->
<g id="edge19" class="edge">
<title>7&#45;&#45;8</title>
<path fill="none" stroke="#424242" stroke-width="2.5" d="M594.43,-437.05C604.57,-399.42 569.42,-369.52 535.81,-381.64"/>
<text xml:space="preserve" text-anchor="middle" x="561.65" y="-392.64" font-family="Arial" font-size="9.00">X=0.2200</text>
</g>
<!-- 7&#45;&#45;8 -->
<g id="edge20" class="edge">
<title>7&#45;&#45;8</title>
<path fill="none" stroke="#424242" stroke-width="2.5" d="M556.08,-480.72C522.45,-492.94 487.22,-463.06 497.32,-425.4"/>
<text xml:space="preserve" text-anchor="middle" x="490.43" y="-473.72" font-family="Arial" font-size="9.00">X=0.2200</text>
</g>
<!-- 7&#45;&#45;8 -->
<g id="edge21" class="edge">
<title>7&#45;&#45;8</title>
<path fill="none" stroke="#424242" stroke-width="2.5" d="M553.79,-436.99C548.52,-433.13 543.03,-429.11 537.76,-425.25"/>
<text xml:space="preserve" text-anchor="middle" x="525.9" y="-433.07" font-family="Arial" font-size="9.00">X=0.2200</text>
</g>
<!-- load_PQ_0 -->
<g id="node23" class="node">
<title>load_PQ_0</title>
<polygon fill="#ffebee" stroke="#d32f2f" points="638.59,-419.35 616.27,-385.87 660.91,-385.87 638.59,-419.35"/>
<text xml:space="preserve" text-anchor="middle" x="638.59" y="-399.18" font-family="Arial" font-size="8.00">L</text>
<text xml:space="preserve" text-anchor="middle" x="638.59" y="-389.43" font-family="Arial" font-size="8.00">11.6</text>
</g>
<!-- 7&#45;&#45;load_PQ_0 -->
<g id="edge13" class="edge">
<title>7&#45;&#45;load_PQ_0</title>
<path fill="none" stroke="#d32f2f" d="M602.86,-437.21C612.02,-426.91 622.53,-415.09 629.77,-406.95"/>
</g>
<!-- 9 -->
<g id="node9" class="node">
<title>9</title>
<path fill="#fff9c4" stroke="#f57f17" stroke-width="2.5" d="M445.98,-376.7C445.98,-376.7 407.43,-376.7 407.43,-376.7 401.43,-376.7 395.43,-370.7 395.43,-364.7 395.43,-364.7 395.43,-347.3 395.43,-347.3 395.43,-341.3 401.43,-335.3 407.43,-335.3 407.43,-335.3 445.98,-335.3 445.98,-335.3 451.98,-335.3 457.98,-341.3 457.98,-347.3 457.98,-347.3 457.98,-364.7 457.98,-364.7 457.98,-370.7 451.98,-376.7 445.98,-376.7"/>
<text xml:space="preserve" text-anchor="middle" x="426.71" y="-359.05" font-family="Arial" font-size="11.00">112</text>
<text xml:space="preserve" text-anchor="middle" x="426.71" y="-345.55" font-family="Arial" font-size="11.00">230 kV</text>
</g>
<!-- 8&#45;&#45;9 -->
<g id="edge22" class="edge">
<title>8&#45;&#45;9</title>
<path fill="none" stroke="#424242" stroke-width="2.5" d="M507.46,-381.81C499.45,-366.46 478.22,-352.01 459.07,-347.4"/>
<text xml:space="preserve" text-anchor="middle" x="507.32" y="-362.53" font-family="Arial" font-size="9.00">X=0.0200</text>
</g>
<!-- 8&#45;&#45;9 -->
<g id="edge23" class="edge">
<title>8&#45;&#45;9</title>
<path fill="none" stroke="#424242" stroke-width="2.5" d="M476.06,-412.25C456.85,-407.72 435.46,-393.21 427.4,-377.8"/>
<text xml:space="preserve" text-anchor="middle" x="427.68" y="-401.05" font-family="Arial" font-size="9.00">X=0.0200</text>
</g>
<!-- load_PQ_1 -->
<g id="node24" class="node">
<title>load_PQ_1</title>
<polygon fill="#ffebee" stroke="#d32f2f" points="549.22,-353.98 526.9,-320.5 571.54,-320.5 549.22,-353.98"/>
<text xml:space="preserve" text-anchor="middle" x="549.22" y="-333.81" font-family="Arial" font-size="8.00">L</text>
<text xml:space="preserve" text-anchor="middle" x="549.22" y="-324.06" font-family="Arial" font-size="8.00">15.8</text>
</g>
<!-- 8&#45;&#45;load_PQ_1 -->
<g id="edge14" class="edge">
<title>8&#45;&#45;load_PQ_1</title>
<path fill="none" stroke="#d32f2f" d="M520.46,-382C527.55,-369.59 536.2,-354.44 542.15,-344.02"/>
</g>
<!-- 10 -->
<g id="node10" class="node">
<title>10</title>
<path fill="#fff9c4" stroke="#f57f17" stroke-width="2.5" d="M364.07,-413.81C364.07,-413.81 325.52,-413.81 325.52,-413.81 319.52,-413.81 313.52,-407.81 313.52,-401.81 313.52,-401.81 313.52,-384.41 313.52,-384.41 313.52,-378.41 319.52,-372.41 325.52,-372.41 325.52,-372.41 364.07,-372.41 364.07,-372.41 370.07,-372.41 376.07,-378.41 376.07,-384.41 376.07,-384.41 376.07,-401.81 376.07,-401.81 376.07,-407.81 370.07,-413.81 364.07,-413.81"/>
<text xml:space="preserve" text-anchor="middle" x="344.8" y="-396.16" font-family="Arial" font-size="11.00">111</text>
<text xml:space="preserve" text-anchor="middle" x="344.8" y="-382.66" font-family="Arial" font-size="11.00">230 kV</text>
</g>
<!-- 9&#45;&#45;10 -->
<g id="edge24" class="edge">
<title>9&#45;&#45;10</title>
<path fill="none" stroke="#424242" stroke-width="2.5" d="M394.27,-343.95C376.14,-346.78 355.98,-358.04 347.33,-371.59"/>
<text xml:space="preserve" text-anchor="middle" x="347.37" y="-355.7" font-family="Arial" font-size="9.00">X=0.0500</text>
</g>
<!-- 9&#45;&#45;10 -->
<g id="edge25" class="edge">
<title>9&#45;&#45;10</title>
<path fill="none" stroke="#424242" stroke-width="2.5" d="M424.05,-377.72C415.32,-391.2 395.21,-402.38 377.16,-405.17"/>
<text xml:space="preserve" text-anchor="middle" x="423.97" y="-386.9" font-family="Arial" font-size="9.00">X=0.0500</text>
</g>
<!-- exc_AVR1 -->
<g id="node15" class="node">
<title>exc_AVR1</title>
<path fill="#fff3e0" stroke="#ff6f00" stroke-width="1.5" d="M1077.41,-534.62C1077.41,-534.62 1045.01,-534.62 1045.01,-534.62 1039.61,-534.62 1034.21,-529.22 1034.21,-523.82 1034.21,-523.82 1034.21,-513.02 1034.21,-513.02 1034.21,-507.62 1039.61,-502.22 1045.01,-502.22 1045.01,-502.22 1077.41,-502.22 1077.41,-502.22 1082.81,-502.22 1088.21,-507.62 1088.21,-513.02 1088.21,-513.02 1088.21,-523.82 1088.21,-523.82 1088.21,-529.22 1082.81,-534.62 1077.41,-534.62"/>
<text xml:space="preserve" text-anchor="middle" x="1061.21" y="-515.69" font-family="Arial" font-size="8.00">EXDC2</text>
</g>
<!-- gen_G1&#45;&#45;exc_AVR1 -->
<g id="edge5" class="edge">
<title>gen_G1&#45;&#45;exc_AVR1</title>
<path fill="none" stroke="#ff6f00" stroke-width="1.5" stroke-dasharray="5,2" d="M1019.61,-482.36C1026.86,-488.64 1034.79,-495.52 1041.77,-501.56"/>
</g>
<!-- gov_GOV1 -->
<g id="node19" class="node">
<title>gov_GOV1</title>
<path fill="#e8f5e9" stroke="#2e7d32" stroke-width="1.5" d="M1067.84,-413.52C1067.84,-413.52 1035.44,-413.52 1035.44,-413.52 1030.04,-413.52 1024.64,-408.12 1024.64,-402.72 1024.64,-402.72 1024.64,-391.92 1024.64,-391.92 1024.64,-386.52 1030.04,-381.12 1035.44,-381.12 1035.44,-381.12 1067.84,-381.12 1067.84,-381.12 1073.24,-381.12 1078.64,-386.52 1078.64,-391.92 1078.64,-391.92 1078.64,-402.72 1078.64,-402.72 1078.64,-408.12 1073.24,-413.52 1067.84,-413.52"/>
<text xml:space="preserve" text-anchor="middle" x="1051.64" y="-394.6" font-family="Arial" font-size="8.00">TGOV1</text>
</g>
<!-- gen_G1&#45;&#45;gov_GOV1 -->
<g id="edge9" class="edge">
<title>gen_G1&#45;&#45;gov_GOV1</title>
<path fill="none" stroke="#2e7d32" stroke-width="1.5" stroke-dasharray="5,2" d="M1015.59,-440.06C1022.79,-431.52 1030.87,-421.94 1037.55,-414.03"/>
</g>
<!-- exc_AVR2 -->
<g id="node16" class="node">
<title>exc_AVR2</title>
<path fill="#fff3e0" stroke="#ff6f00" stroke-width="1.5" d="M721.36,-861.76C721.36,-861.76 688.96,-861.76 688.96,-861.76 683.56,-861.76 678.16,-856.36 678.16,-850.96 678.16,-850.96 678.16,-840.16 678.16,-840.16 678.16,-834.76 683.56,-829.36 688.96,-829.36 688.96,-829.36 721.36,-829.36 721.36,-829.36 726.76,-829.36 732.16,-834.76 732.16,-840.16 732.16,-840.16 732.16,-850.96 732.16,-850.96 732.16,-856.36 726.76,-861.76 721.36,-861.76"/>
<text xml:space="preserve" text-anchor="middle" x="705.16" y="-842.84" font-family="Arial" font-size="8.00">EXDC2</text>
</g>
<!-- gen_G2&#45;&#45;exc_AVR2 -->
<g id="edge6" class="edge">
<title>gen_G2&#45;&#45;exc_AVR2</title>
<path fill="none" stroke="#ff6f00" stroke-width="1.5" stroke-dasharray="5,2" d="M666.38,-805.76C673.77,-813.35 681.97,-821.76 688.91,-828.89"/>
</g>
<!-- gov_GOV2 -->
<g id="node20" class="node">
<title>gov_GOV2</title>
<path fill="#e8f5e9" stroke="#2e7d32" stroke-width="1.5" d="M608.79,-867.32C608.79,-867.32 576.39,-867.32 576.39,-867.32 570.99,-867.32 565.59,-861.92 565.59,-856.52 565.59,-856.52 565.59,-845.72 565.59,-845.72 565.59,-840.32 570.99,-834.92 576.39,-834.92 576.39,-834.92 608.79,-834.92 608.79,-834.92 614.19,-834.92 619.59,-840.32 619.59,-845.72 619.59,-845.72 619.59,-856.52 619.59,-856.52 619.59,-861.92 614.19,-867.32 608.79,-867.32"/>
<text xml:space="preserve" text-anchor="middle" x="592.59" y="-848.4" font-family="Arial" font-size="8.00">TGOV1</text>
</g>
<!-- gen_G2&#45;&#45;gov_GOV2 -->
<g id="edge10" class="edge">
<title>gen_G2&#45;&#45;gov_GOV2</title>
<path fill="none" stroke="#2e7d32" stroke-width="1.5" stroke-dasharray="5,2" d="M627.3,-807.33C620.24,-816.24 612.32,-826.23 605.82,-834.43"/>
</g>
<!-- exc_AVR3 -->
<g id="node17" class="node">
<title>exc_AVR3</title>
<path fill="#fff3e0" stroke="#ff6f00" stroke-width="1.5" d="M351.48,-52.01C351.48,-52.01 319.08,-52.01 319.08,-52.01 313.68,-52.01 308.28,-46.61 308.28,-41.21 308.28,-41.21 308.28,-30.41 308.28,-30.41 308.28,-25.01 313.68,-19.61 319.08,-19.61 319.08,-19.61 351.48,-19.61 351.48,-19.61 356.88,-19.61 362.28,-25.01 362.28,-30.41 362.28,-30.41 362.28,-41.21 362.28,-41.21 362.28,-46.61 356.88,-52.01 351.48,-52.01"/>
<text xml:space="preserve" text-anchor="middle" x="335.28" y="-33.08" font-family="Arial" font-size="8.00">EXDC2</text>
</g>
<!-- gen_G3&#45;&#45;exc_AVR3 -->
<g id="edge7" class="edge">
<title>gen_G3&#45;&#45;exc_AVR3</title>
<path fill="none" stroke="#ff6f00" stroke-width="1.5" stroke-dasharray="5,2" d="M378.38,-69.95C371.17,-64.24 363.31,-58.01 356.3,-52.46"/>
</g>
<!-- gov_GOV3 -->
<g id="node21" class="node">
<title>gov_GOV3</title>
<path fill="#e8f5e9" stroke="#2e7d32" stroke-width="1.5" d="M463.87,-32.4C463.87,-32.4 431.47,-32.4 431.47,-32.4 426.07,-32.4 420.67,-27 420.67,-21.6 420.67,-21.6 420.67,-10.8 420.67,-10.8 420.67,-5.4 426.07,0 431.47,0 431.47,0 463.87,0 463.87,0 469.27,0 474.67,-5.4 474.67,-10.8 474.67,-10.8 474.67,-21.6 474.67,-21.6 474.67,-27 469.27,-32.4 463.87,-32.4"/>
<text xml:space="preserve" text-anchor="middle" x="447.67" y="-13.47" font-family="Arial" font-size="8.00">TGOV1</text>
</g>
<!-- gen_G3&#45;&#45;gov_GOV3 -->
<g id="edge11" class="edge">
<title>gen_G3&#45;&#45;gov_GOV3</title>
<path fill="none" stroke="#2e7d32" stroke-width="1.5" stroke-dasharray="5,2" d="M417.3,-64.61C423.82,-54.22 431.28,-42.33 437.17,-32.93"/>
</g>
<!-- exc_AVR4 -->
<g id="node18" class="node">
<title>exc_AVR4</title>
<path fill="#fff3e0" stroke="#ff6f00" stroke-width="1.5" d="M43.2,-430.1C43.2,-430.1 10.8,-430.1 10.8,-430.1 5.4,-430.1 0,-424.7 0,-419.3 0,-419.3 0,-408.5 0,-408.5 0,-403.1 5.4,-397.7 10.8,-397.7 10.8,-397.7 43.2,-397.7 43.2,-397.7 48.6,-397.7 54,-403.1 54,-408.5 54,-408.5 54,-419.3 54,-419.3 54,-424.7 48.6,-430.1 43.2,-430.1"/>
<text xml:space="preserve" text-anchor="middle" x="27" y="-411.17" font-family="Arial" font-size="8.00">EXDC2</text>
</g>
<!-- gen_G4&#45;&#45;exc_AVR4 -->
<g id="edge8" class="edge">
<title>gen_G4&#45;&#45;exc_AVR4</title>
<path fill="none" stroke="#ff6f00" stroke-width="1.5" stroke-dasharray="5,2" d="M73.03,-442.19C66.87,-438.4 60.31,-434.37 54.13,-430.57"/>
</g>
<!-- gov_GOV4 -->
<g id="node22" class="node">
<title>gov_GOV4</title>
<path fill="#e8f5e9" stroke="#2e7d32" stroke-width="1.5" d="M70.84,-547.11C70.84,-547.11 38.44,-547.11 38.44,-547.11 33.04,-547.11 27.64,-541.71 27.64,-536.31 27.64,-536.31 27.64,-525.51 27.64,-525.51 27.64,-520.11 33.04,-514.71 38.44,-514.71 38.44,-514.71 70.84,-514.71 70.84,-514.71 76.24,-514.71 81.64,-520.11 81.64,-525.51 81.64,-525.51 81.64,-536.31 81.64,-536.31 81.64,-541.71 76.24,-547.11 70.84,-547.11"/>
<text xml:space="preserve" text-anchor="middle" x="54.64" y="-528.19" font-family="Arial" font-size="8.00">TGOV1</text>
</g>
<!-- gen_G4&#45;&#45;gov_GOV4 -->
<g id="edge12" class="edge">
<title>gen_G4&#45;&#45;gov_GOV4</title>
<path fill="none" stroke="#2e7d32" stroke-width="1.5" stroke-dasharray="5,2" d="M84.43,-483.06C78.1,-493.23 70.92,-504.77 65.19,-513.97"/>
</g>
<!-- xfmr_0&#45;&#45;5 -->
<g id="edge27" class="edge">
<title>xfmr_0&#45;&#45;5</title>
<path fill="none" stroke="#7b1fa2" stroke-width="2.5" d="M806.01,-490.33C797.06,-492.24 786.73,-494.46 777.12,-496.51"/>
</g>
<!-- xfmr_1&#45;&#45;6 -->
<g id="edge29" class="edge">
<title>xfmr_1&#45;&#45;6</title>
<path fill="none" stroke="#7b1fa2" stroke-width="2.5" d="M645.07,-586.87C646.71,-573.53 648.7,-557.35 650.28,-544.58"/>
</g>
<!-- xfmr_2&#45;&#45;9 -->
<g id="edge31" class="edge">
<title>xfmr_2&#45;&#45;9</title>
<path fill="none" stroke="#7b1fa2" stroke-width="2.5" d="M420.78,-288.51C422.04,-302.94 423.6,-320.59 424.79,-334.22"/>
</g>
<!-- xfmr_3&#45;&#45;10 -->
<g id="edge33" class="edge">
<title>xfmr_3&#45;&#45;10</title>
<path fill="none" stroke="#7b1fa2" stroke-width="2.5" d="M285.07,-411.78C293.47,-409.15 303.25,-406.09 312.44,-403.22"/>
</g>
</g>
</svg>
