<?xml version="1.0" encoding="UTF-8" standalone="no"?>
<!DOCTYPE svg PUBLIC "-//W3C//DTD SVG 1.1//EN"
 "http://www.w3.org/Graphics/SVG/1.1/DTD/svg11.dtd">
<!-- Generated by graphviz version 14.1.2 (20260124.0452)
 -->
<!-- Title: power_system Pages: 1 -->
<svg width="1050pt" height="848pt"
 viewBox="0.00 0.00 1050.00 848.00" xmlns="http://www.w3.org/2000/svg" xmlns:xlink="http://www.w3.org/1999/xlink">
<g id="graph0" class="graph" transform="scale(1 1) rotate(0) translate(36 812.34)">
<title>power_system</title>
<polygon fill="#fafafa" stroke="none" points="-36,36 -36,-812.34 1013.68,-812.34 1013.68,36 -36,36"/>
<!-- 1 -->
<g id="node1" class="node">
<title>1</title>
<polygon fill="#e64a19" stroke="#e64a19" stroke-width="0" points="821.59,-449.95 812.95,-449.95 812.95,-392.35 821.59,-392.35 821.59,-449.95"/>
<text xml:space="preserve" text-anchor="middle" x="817.27" y="-417.85" font-family="Arial" font-size="9.00" fill="white">1</text>
</g>
<!-- gen_G1 -->
<g id="node11" class="node">
<title>gen_G1</title>
<ellipse fill="#e3f2fd" stroke="#1976d2" stroke-width="1.5" cx="891.56" cy="-413.16" rx="32.4" ry="27"/>
<text xml:space="preserve" text-anchor="middle" x="891.56" y="-420.36" font-family="Arial" font-size="9.00">G1</text>
<text xml:space="preserve" text-anchor="middle" x="891.56" y="-409.86" font-family="Arial" font-size="9.00">M=13.0</text>
<text xml:space="preserve" text-anchor="middle" x="891.56" y="-399.36" font-family="Arial" font-size="9.00">900 MVA</text>
</g>
<!-- 1&#45;&#45;gen_G1 -->
<g id="edge1" class="edge">
<title>1&#45;&#45;gen_G1</title>
<path fill="none" stroke="#1976d2" stroke-width="1.5" d="M821.26,-420.72C828.43,-419.95 844.13,-418.26 858.87,-416.67"/>
</g>
<!-- xfmr_0 -->
<g id="node25" class="node">
<title>xfmr_0</title>
<polygon fill="#f3e5f5" stroke="#7b1fa2" stroke-width="2.5" points="743.58,-461.15 716.58,-434.15 743.58,-407.15 770.58,-434.15 743.58,-461.15"/>
<text xml:space="preserve" text-anchor="middle" x="743.58" y="-446.05" font-family="Arial" font-size="8.00" fill="#4a148c">T</text>
<text xml:space="preserve" text-anchor="middle" x="743.58" y="-436.3" font-family="Arial" font-size="8.00" fill="#4a148c">20/</text>
<text xml:space="preserve" text-anchor="middle" x="743.58" y="-426.55" font-family="Arial" font-size="8.00" fill="#4a148c">230</text>
<text xml:space="preserve" text-anchor="middle" x="743.58" y="-416.8" font-family="Arial" font-size="8.00" fill="#4a148c">X=0.012</text>
</g>
<!-- 1&#45;&#45;xfmr_0 -->
<g id="edge26" class="edge">
<title>1&#45;&#45;xfmr_0</title>
<path fill="none" stroke="#7b1fa2" stroke-width="2.5" d="M813.3,-421.85C804.81,-423.35 784.29,-426.97 767.69,-429.89"/>
</g>
<!-- 2 -->
<g id="node2" class="node">
<title>2</title>
<polygon fill="#e64a19" stroke="#e64a19" stroke-width="0" points="580.29,-652.92 571.65,-652.92 571.65,-595.32 580.29,-595.32 580.29,-652.92"/>
<text xml:space="preserve" text-anchor="middle" x="575.97" y="-620.82" font-family="Arial" font-size="9.00" fill="white">2</text>
</g>
<!-- gen_G2 -->
<g id="node12" class="node">
<title>gen_G2</title>
<ellipse fill="#e3f2fd" stroke="#1976d2" stroke-width="1.5" cx="579.47" cy="-700.66" rx="32.4" ry="27"/>
<text xml:space="preserve" text-anchor="middle" x="579.47" y="-707.86" font-family="Arial" font-size="9.00">G2</text>
<text xml:space="preserve" text-anchor="middle" x="579.47" y="-697.36" font-family="Arial" font-size="9.00">M=13.0</text>
<text xml:space="preserve" text-anchor="middle" x="579.47" y="-686.86" font-family="Arial" font-size="9.00">900 MVA</text>
</g>
<!-- 2&#45;&#45;gen_G2 -->
<g id="edge2" class="edge">
<title>2&#45;&#45;gen_G2</title>
<path fill="none" stroke="#1976d2" stroke-width="1.5" d="M577.27,-652.62C577.58,-659.34 577.91,-666.48 578.21,-673.15"/>
</g>
<!-- xfmr_1 -->
<g id="node26" class="node">
<title>xfmr_1</title>
<polygon fill="#f3e5f5" stroke="#7b1fa2" stroke-width="2.5" points="576.28,-574.34 549.28,-547.34 576.28,-520.34 603.28,-547.34 576.28,-574.34"/>
<text xml:space="preserve" text-anchor="middle" x="576.28" y="-559.24" font-family="Arial" font-size="8.00" fill="#4a148c">T</text>
<text xml:space="preserve" text-anchor="middle" x="576.28" y="-549.49" font-family="Arial" font-size="8.00" fill="#4a148c">20/</text>
<text xml:space="preserve" text-anchor="middle" x="576.28" y="-539.74" font-family="Arial" font-size="8.00" fill="#4a148c">230</text>
<text xml:space="preserve" text-anchor="middle" x="576.28" y="-529.99" font-family="Arial" font-size="8.00" fill="#4a148c">X=0.012</text>
</g>
<!-- 2&#45;&#45;xfmr_1 -->
<g id="edge28" class="edge">
<title>2&#45;&#45;xfmr_1</title>
<path fill="none" stroke="#7b1fa2" stroke-width="2.5" d="M576.08,-595.53C576.11,-589.13 576.14,-582.35 576.16,-575.95"/>
</g>
<!-- 3 -->
<g id="node3" class="node">
<title>3</title>
<polygon fill="#e64a19" stroke="#e64a19" stroke-width="0" points="375.65,-186.14 367.01,-186.14 367.01,-128.54 375.65,-128.54 375.65,-186.14"/>
<text xml:space="preserve" text-anchor="middle" x="371.33" y="-154.04" font-family="Arial" font-size="9.00" fill="white">12</text>
</g>
<!-- gen_G3 -->
<g id="node13" class="node">
<title>gen_G3</title>
<ellipse fill="#e3f2fd" stroke="#1976d2" stroke-width="1.5" cx="365.14" cy="-82.86" rx="32.4" ry="27"/>
<text xml:space="preserve" text-anchor="middle" x="365.14" y="-90.06" font-family="Arial" font-size="9.00">G3</text>
<text xml:space="preserve" text-anchor="middle" x="365.14" y="-79.56" font-family="Arial" font-size="9.00">M=12.3</text>
<text xml:space="preserve" text-anchor="middle" x="365.14" y="-69.06" font-family="Arial" font-size="9.00">900 MVA</text>
</g>
<!-- 3&#45;&#45;gen_G3 -->
<g id="edge3" class="edge">
<title>3&#45;&#45;gen_G3</title>
<path fill="none" stroke="#1976d2" stroke-width="1.5" d="M368.95,-128.76C368.45,-122.69 367.92,-116.29 367.42,-110.27"/>
</g>
<!-- xfmr_2 -->
<g id="node27" class="node">
<title>xfmr_2</title>
<polygon fill="#f3e5f5" stroke="#7b1fa2" stroke-width="2.5" points="377.15,-262.32 350.15,-235.32 377.15,-208.32 404.15,-235.32 377.15,-262.32"/>
<text xml:space="preserve" text-anchor="middle" x="377.15" y="-247.22" font-family="Arial" font-size="8.00" fill="#4a148c">T</text>
<text xml:space="preserve" text-anchor="middle" x="377.15" y="-237.47" font-family="Arial" font-size="8.00" fill="#4a148c">20/</text>
<text xml:space="preserve" text-anchor="middle" x="377.15" y="-227.72" font-family="Arial" font-size="8.00" fill="#4a148c">230</text>
<text xml:space="preserve" text-anchor="middle" x="377.15" y="-217.97" font-family="Arial" font-size="8.00" fill="#4a148c">X=0.012</text>
</g>
<!-- 3&#45;&#45;xfmr_2 -->
<g id="edge30" class="edge">
<title>3&#45;&#45;xfmr_2</title>
<path fill="none" stroke="#7b1fa2" stroke-width="2.5" d="M373.47,-185.94C374.02,-193.41 374.62,-201.44 375.17,-208.8"/>
</g>
<!-- 4 -->
<g id="node4" class="node">
<title>4</title>
<polygon fill="#e64a19" stroke="#e64a19" stroke-width="0" points="170.83,-421.64 162.19,-421.64 162.19,-364.04 170.83,-364.04 170.83,-421.64"/>
<text xml:space="preserve" text-anchor="middle" x="166.51" y="-389.54" font-family="Arial" font-size="9.00" fill="white">11</text>
</g>
<!-- gen_G4 -->
<g id="node14" class="node">
<title>gen_G4</title>
<ellipse fill="#e3f2fd" stroke="#1976d2" stroke-width="1.5" cx="94.45" cy="-411.19" rx="32.4" ry="27"/>
<text xml:space="preserve" text-anchor="middle" x="94.45" y="-418.39" font-family="Arial" font-size="9.00">G4</text>
<text xml:space="preserve" text-anchor="middle" x="94.45" y="-407.89" font-family="Arial" font-size="9.00">M=12.3</text>
<text xml:space="preserve" text-anchor="middle" x="94.45" y="-397.39" font-family="Arial" font-size="9.00">900 MVA</text>
</g>
<!-- 4&#45;&#45;gen_G4 -->
<g id="edge4" class="edge">
<title>4&#45;&#45;gen_G4</title>
<path fill="none" stroke="#1976d2" stroke-width="1.5" d="M162.22,-393.94C155.07,-395.76 140.11,-399.57 126.06,-403.14"/>
</g>
<!-- xfmr_3 -->
<g id="node28" class="node">
<title>xfmr_3</title>
<polygon fill="#f3e5f5" stroke="#7b1fa2" stroke-width="2.5" points="238.82,-401.76 211.82,-374.76 238.82,-347.76 265.82,-374.76 238.82,-401.76"/>
<text xml:space="preserve" text-anchor="middle" x="238.82" y="-386.66" font-family="Arial" font-size="8.00" fill="#4a148c">T</text>
<text xml:space="preserve" text-anchor="middle" x="238.82" y="-376.91" font-family="Arial" font-size="8.00" fill="#4a148c">20/</text>
<text xml:space="preserve" text-anchor="middle" x="238.82" y="-367.16" font-family="Arial" font-size="8.00" fill="#4a148c">230</text>
<text xml:space="preserve" text-anchor="middle" x="238.82" y="-357.41" font-family="Arial" font-size="8.00" fill="#4a148c">X=0.012</text>
</g>
<!-- 4&#45;&#45;xfmr_3 -->
<g id="edge32" class="edge">
<title>4&#45;&#45;xfmr_3</title>
<path fill="none" stroke="#7b1fa2" stroke-width="2.5" d="M170.82,-391.77C179.51,-389.59 199.71,-384.54 215.85,-380.5"/>
</g>
<!-- 5 -->
<g id="node5" class="node">
<title>5</title>
<polygon fill="#b71c1c" stroke="#b71c1c" stroke-width="0" points="672.14,-479.17 663.5,-479.17 663.5,-421.57 672.14,-421.57 672.14,-479.17"/>
<text xml:space="preserve" text-anchor="middle" x="667.82" y="-447.07" font-family="Arial" font-size="9.00" fill="white">101</text>
</g>
<!-- 6 -->
<g id="node6" class="node">
<title>6</title>
<polygon fill="#b71c1c" stroke="#b71c1c" stroke-width="0" points="590.43,-496.35 581.79,-496.35 581.79,-438.75 590.43,-438.75 590.43,-496.35"/>
<text xml:space="preserve" text-anchor="middle" x="586.11" y="-464.25" font-family="Arial" font-size="9.00" fill="white">102</text>
</g>
<!-- 5&#45;&#45;6 -->
<g id="edge15" class="edge">
<title>5&#45;&#45;6</title>
<path fill="none" stroke="#424242" stroke-width="2.5" d="M663.68,-441.51C649.11,-423.39 604.67,-430.39 590.22,-449.91"/>
<text xml:space="preserve" text-anchor="middle" x="607.03" y="-423.05" font-family="Arial" font-size="9.00">X=0.0500</text>
</g>
<!-- 5&#45;&#45;6 -->
<g id="edge16" class="edge">
<title>5&#45;&#45;6</title>
<path fill="none" stroke="#424242" stroke-width="2.5" d="M663.67,-468.05C649.13,-487.6 604.51,-494.55 590.11,-476.21"/>
<text xml:space="preserve" text-anchor="middle" x="646.71" y="-488.29" font-family="Arial" font-size="9.00">X=0.0500</text>
</g>
<!-- 7 -->
<g id="node7" class="node">
<title>7</title>
<polygon fill="#b71c1c" stroke="#b71c1c" stroke-width="0" points="528.66,-439.39 520.02,-439.39 520.02,-381.79 528.66,-381.79 528.66,-439.39"/>
<text xml:space="preserve" text-anchor="middle" x="524.34" y="-407.29" font-family="Arial" font-size="9.00" fill="white">3</text>
</g>
<!-- 6&#45;&#45;7 -->
<g id="edge17" class="edge">
<title>6&#45;&#45;7</title>
<path fill="none" stroke="#424242" stroke-width="2.5" d="M588.29,-438.89C577.91,-416.32 546.38,-395.17 528.21,-407.26"/>
<text xml:space="preserve" text-anchor="middle" x="581.05" y="-412.03" font-family="Arial" font-size="9.00">X=0.0200</text>
</g>
<!-- 6&#45;&#45;7 -->
<g id="edge18" class="edge">
<title>6&#45;&#45;7</title>
<path fill="none" stroke="#424242" stroke-width="2.5" d="M581.79,-471.16C557.49,-486.44 510.34,-444.08 520.03,-417.58"/>
<text xml:space="preserve" text-anchor="middle" x="518.29" y="-461.99" font-family="Arial" font-size="9.00">X=0.0200</text>
</g>
<!-- 8 -->
<g id="node8" class="node">
<title>8</title>
<polygon fill="#b71c1c" stroke="#b71c1c" stroke-width="0" points="461.38,-390.17 452.74,-390.17 452.74,-332.57 461.38,-332.57 461.38,-390.17"/>
<text xml:space="preserve" text-anchor="middle" x="457.06" y="-358.07" font-family="Arial" font-size="9.00" fill="white">13</text>
</g>
<!-- 7&#45;&#45;8 -->
<g id="edge19" class="edge">
<title>7&#45;&#45;8</title>
<path fill="none" stroke="#424242" stroke-width="2.5" d="M528.62,-404.16C560.79,-350.81 502.13,-308.32 461.21,-356.12"/>
<text xml:space="preserve" text-anchor="middle" x="502.45" y="-344.16" font-family="Arial" font-size="9.00">X=0.2200</text>
</g>
<!-- 7&#45;&#45;8 -->
<g id="edge20" class="edge">
<title>7&#45;&#45;8</title>
<path fill="none" stroke="#424242" stroke-width="2.5" d="M520.02,-416.03C479.05,-463.59 420.49,-420.97 452.9,-367.58"/>
<text xml:space="preserve" text-anchor="middle" x="439.07" y="-431.61" font-family="Arial" font-size="9.00">X=0.2200</text>
</g>
<!-- 7&#45;&#45;8 -->
<g id="edge21" class="edge">
<title>7&#45;&#45;8</title>
<path fill="none" stroke="#424242" stroke-width="2.5" d="M520.33,-407.66C508.45,-398.97 473.48,-373.38 461.3,-364.47"/>
<text xml:space="preserve" text-anchor="middle" x="490.93" y="-377.6" font-family="Arial" font-size="9.00">X=0.2200</text>
</g>
<!-- load_PQ_0 -->
<g id="node23" class="node">
<title>load_PQ_0</title>
<polygon fill="#ffebee" stroke="#d32f2f" points="573.3,-377.85 550.98,-344.37 595.62,-344.37 573.3,-377.85"/>
<text xml:space="preserve" text-anchor="middle" x="573.3" y="-357.68" font-family="Arial" font-size="8.00">L</text>
<text xml:space="preserve" text-anchor="middle" x="573.3" y="-347.93" font-family="Arial" font-size="8.00">11.6</text>
</g>
<!-- 7&#45;&#45;load_PQ_0 -->
<g id="edge13" class="edge">
<title>7&#45;&#45;load_PQ_0</title>
<path fill="none" stroke="#d32f2f" d="M528.51,-405.9C536.47,-396.95 553.95,-377.29 564.57,-365.35"/>
</g>
<!-- 9 -->
<g id="node9" class="node">
<title>9</title>
<polygon fill="#b71c1c" stroke="#b71c1c" stroke-width="0" points="388.83,-347.77 380.19,-347.77 380.19,-290.17 388.83,-290.17 388.83,-347.77"/>
<text xml:space="preserve" text-anchor="middle" x="384.51" y="-315.67" font-family="Arial" font-size="9.00" fill="white">112</text>
</g>
<!-- 8&#45;&#45;9 -->
<g id="edge22" class="edge">
<title>8&#45;&#45;9</title>
<path fill="none" stroke="#424242" stroke-width="2.5" d="M453.05,-332.91C438.45,-313.59 404.51,-299.89 388.77,-313.76"/>
<text xml:space="preserve" text-anchor="middle" x="441.21" y="-312.84" font-family="Arial" font-size="9.00">X=0.0200</text>
</g>
<!-- 8&#45;&#45;9 -->
<g id="edge23" class="edge">
<title>8&#45;&#45;9</title>
<path fill="none" stroke="#424242" stroke-width="2.5" d="M452.76,-366.61C437.06,-380.38 403.34,-366.83 388.67,-347.62"/>
<text xml:space="preserve" text-anchor="middle" x="400.45" y="-371.43" font-family="Arial" font-size="9.00">X=0.0200</text>
</g>
<!-- load_PQ_1 -->
<g id="node24" class="node">
<title>load_PQ_1</title>
<polygon fill="#ffebee" stroke="#d32f2f" points="493.67,-319.6 471.35,-286.12 515.99,-286.12 493.67,-319.6"/>
<text xml:space="preserve" text-anchor="middle" x="493.67" y="-299.43" font-family="Arial" font-size="8.00">L</text>
<text xml:space="preserve" text-anchor="middle" x="493.67" y="-289.68" font-family="Arial" font-size="8.00">15.8</text>
</g>
<!-- 8&#45;&#45;load_PQ_1 -->
<g id="edge14" class="edge">
<title>8&#45;&#45;load_PQ_1</title>
<path fill="none" stroke="#d32f2f" d="M461.26,-354.02C467.49,-343.1 479.27,-322.49 486.78,-309.34"/>
</g>
<!-- 10 -->
<g id="node10" class="node">
<title>10</title>
<polygon fill="#b71c1c" stroke="#b71c1c" stroke-width="0" points="315.84,-380.84 307.2,-380.84 307.2,-323.24 315.84,-323.24 315.84,-380.84"/>
<text xml:space="preserve" text-anchor="middle" x="311.52" y="-348.74" font-family="Arial" font-size="9.00" fill="white">111</text>
</g>
<!-- 9&#45;&#45;10 -->
<g id="edge24" class="edge">
<title>9&#45;&#45;10</title>
<path fill="none" stroke="#424242" stroke-width="2.5" d="M380.3,-312.73C365.37,-297.34 329.95,-308.36 315.67,-326.92"/>
<text xml:space="preserve" text-anchor="middle" x="327.87" y="-309.04" font-family="Arial" font-size="9.00">X=0.0500</text>
</g>
<!-- 9&#45;&#45;10 -->
<g id="edge25" class="edge">
<title>9&#45;&#45;10</title>
<path fill="none" stroke="#424242" stroke-width="2.5" d="M380.23,-344.25C365.87,-362.72 330.61,-373.62 315.73,-358.28"/>
<text xml:space="preserve" text-anchor="middle" x="368.05" y="-355.39" font-family="Arial" font-size="9.00">X=0.0500</text>
</g>
<!-- exc_AVR1 -->
<g id="node15" class="node">
<title>exc_AVR1</title>
<path fill="#fff3e0" stroke="#ff6f00" stroke-width="1.5" d="M966.88,-480.6C966.88,-480.6 934.48,-480.6 934.48,-480.6 929.08,-480.6 923.68,-475.2 923.68,-469.8 923.68,-469.8 923.68,-459 923.68,-459 923.68,-453.6 929.08,-448.2 934.48,-448.2 934.48,-448.2 966.88,-448.2 966.88,-448.2 972.28,-448.2 977.68,-453.6 977.68,-459 977.68,-459 977.68,-469.8 977.68,-469.8 977.68,-475.2 972.28,-480.6 966.88,-480.6"/>
<text xml:space="preserve" text-anchor="middle" x="950.68" y="-461.67" font-family="Arial" font-size="8.00">EXDC2</text>
</g>
<!-- gen_G1&#45;&#45;exc_AVR1 -->
<g id="edge5" class="edge">
<title>gen_G1&#45;&#45;exc_AVR1</title>
<path fill="none" stroke="#ff6f00" stroke-width="1.5" stroke-dasharray="5,2" d="M914.59,-433.11C920.17,-437.95 926.07,-443.06 931.45,-447.73"/>
</g>
<!-- gov_GOV1 -->
<g id="node19" class="node">
<title>gov_GOV1</title>
<path fill="#e8f5e9" stroke="#2e7d32" stroke-width="1.5" d="M957.54,-371.99C957.54,-371.99 925.14,-371.99 925.14,-371.99 919.74,-371.99 914.34,-366.59 914.34,-361.19 914.34,-361.19 914.34,-350.39 914.34,-350.39 914.34,-344.99 919.74,-339.59 925.14,-339.59 925.14,-339.59 957.54,-339.59 957.54,-339.59 962.94,-339.59 968.34,-344.99 968.34,-350.39 968.34,-350.39 968.34,-361.19 968.34,-361.19 968.34,-366.59 962.94,-371.99 957.54,-371.99"/>
<text xml:space="preserve" text-anchor="middle" x="941.34" y="-353.07" font-family="Arial" font-size="8.00">TGOV1</text>
</g>
<!-- gen_G1&#45;&#45;gov_GOV1 -->
<g id="edge9" class="edge">
<title>gen_G1&#45;&#45;gov_GOV1</title>
<path fill="none" stroke="#2e7d32" stroke-width="1.5" stroke-dasharray="5,2" d="M910.95,-390.81C916.19,-384.78 921.78,-378.34 926.71,-372.66"/>
</g>
<!-- exc_AVR2 -->
<g id="node16" class="node">
<title>exc_AVR2</title>
<path fill="#fff3e0" stroke="#ff6f00" stroke-width="1.5" d="M648.81,-771.39C648.81,-771.39 616.41,-771.39 616.41,-771.39 611.01,-771.39 605.61,-765.99 605.61,-760.59 605.61,-760.59 605.61,-749.79 605.61,-749.79 605.61,-744.39 611.01,-738.99 616.41,-738.99 616.41,-738.99 648.81,-738.99 648.81,-738.99 654.21,-738.99 659.61,-744.39 659.61,-749.79 659.61,-749.79 659.61,-760.59 659.61,-760.59 659.61,-765.99 654.21,-771.39 648.81,-771.39"/>
<text xml:space="preserve" text-anchor="middle" x="632.61" y="-752.47" font-family="Arial" font-size="8.00">EXDC2</text>
</g>
<!-- gen_G2&#45;&#45;exc_AVR2 -->
<g id="edge6" class="edge">
<title>gen_G2&#45;&#45;exc_AVR2</title>
<path fill="none" stroke="#ff6f00" stroke-width="1.5" stroke-dasharray="5,2" d="M600.17,-721.9C605.53,-727.4 611.23,-733.25 616.33,-738.48"/>
</g>
<!-- gov_GOV2 -->
<g id="node20" class="node">
<title>gov_GOV2</title>
<path fill="#e8f5e9" stroke="#2e7d32" stroke-width="1.5" d="M548.51,-776.34C548.51,-776.34 516.11,-776.34 516.11,-776.34 510.71,-776.34 505.31,-770.94 505.31,-765.54 505.31,-765.54 505.31,-754.74 505.31,-754.74 505.31,-749.34 510.71,-743.94 516.11,-743.94 516.11,-743.94 548.51,-743.94 548.51,-743.94 553.91,-743.94 559.31,-749.34 559.31,-754.74 559.31,-754.74 559.31,-765.54 559.31,-765.54 559.31,-770.94 553.91,-776.34 548.51,-776.34"/>
<text xml:space="preserve" text-anchor="middle" x="532.31" y="-757.42" font-family="Arial" font-size="8.00">TGOV1</text>
</g>
<!-- gen_G2&#45;&#45;gov_GOV2 -->
<g id="edge10" class="edge">
<title>gen_G2&#45;&#45;gov_GOV2</title>
<path fill="none" stroke="#2e7d32" stroke-width="1.5" stroke-dasharray="5,2" d="M561.37,-723.49C556.18,-730.04 550.61,-737.07 545.75,-743.2"/>
</g>
<!-- exc_AVR3 -->
<g id="node17" class="node">
<title>exc_AVR3</title>
<path fill="#fff3e0" stroke="#ff6f00" stroke-width="1.5" d="M316.69,-47.85C316.69,-47.85 284.29,-47.85 284.29,-47.85 278.89,-47.85 273.49,-42.45 273.49,-37.05 273.49,-37.05 273.49,-26.25 273.49,-26.25 273.49,-20.85 278.89,-15.45 284.29,-15.45 284.29,-15.45 316.69,-15.45 316.69,-15.45 322.09,-15.45 327.49,-20.85 327.49,-26.25 327.49,-26.25 327.49,-37.05 327.49,-37.05 327.49,-42.45 322.09,-47.85 316.69,-47.85"/>
<text xml:space="preserve" text-anchor="middle" x="300.49" y="-28.92" font-family="Arial" font-size="8.00">EXDC2</text>
</g>
<!-- gen_G3&#45;&#45;exc_AVR3 -->
<g id="edge7" class="edge">
<title>gen_G3&#45;&#45;exc_AVR3</title>
<path fill="none" stroke="#ff6f00" stroke-width="1.5" stroke-dasharray="5,2" d="M341.06,-63.79C334.75,-58.79 327.98,-53.43 321.81,-48.54"/>
</g>
<!-- gov_GOV3 -->
<g id="node21" class="node">
<title>gov_GOV3</title>
<path fill="#e8f5e9" stroke="#2e7d32" stroke-width="1.5" d="M419.38,-32.4C419.38,-32.4 386.98,-32.4 386.98,-32.4 381.58,-32.4 376.18,-27 376.18,-21.6 376.18,-21.6 376.18,-10.8 376.18,-10.8 376.18,-5.4 381.58,0 386.98,0 386.98,0 419.38,0 419.38,0 424.78,0 430.18,-5.4 430.18,-10.8 430.18,-10.8 430.18,-21.6 430.18,-21.6 430.18,-27 424.78,-32.4 419.38,-32.4"/>
<text xml:space="preserve" text-anchor="middle" x="403.18" y="-13.47" font-family="Arial" font-size="8.00">TGOV1</text>
</g>
<!-- gen_G3&#45;&#45;gov_GOV3 -->
<g id="edge11" class="edge">
<title>gen_G3&#45;&#45;gov_GOV3</title>
<path fill="none" stroke="#2e7d32" stroke-width="1.5" stroke-dasharray="5,2" d="M379.3,-58.04C384.12,-49.6 389.38,-40.38 393.74,-32.75"/>
</g>
<!-- exc_AVR4 -->
<g id="node18" class="node">
<title>exc_AVR4</title>
<path fill="#fff3e0" stroke="#ff6f00" stroke-width="1.5" d="M43.2,-385.93C43.2,-385.93 10.8,-385.93 10.8,-385.93 5.4,-385.93 0,-380.53 0,-375.13 0,-375.13 0,-364.33 0,-364.33 0,-358.93 5.4,-353.53 10.8,-353.53 10.8,-353.53 43.2,-353.53 43.2,-353.53 48.6,-353.53 54,-358.93 54,-364.33 54,-364.33 54,-375.13 54,-375.13 54,-380.53 48.6,-385.93 43.2,-385.93"/>
<text xml:space="preserve" text-anchor="middle" x="27" y="-367" font-family="Arial" font-size="8.00">EXDC2</text>
</g>
<!-- gen_G4&#45;&#45;exc_AVR4 -->
<g id="edge8" class="edge">
<title>gen_G4&#45;&#45;exc_AVR4</title>
<path fill="none" stroke="#ff6f00" stroke-width="1.5" stroke-dasharray="5,2" d="M67.79,-394.8C63.37,-392.09 58.78,-389.27 54.35,-386.54"/>
</g>
<!-- gov_GOV4 -->
<g id="node22" class="node">
<title>gov_GOV4</title>
<path fill="#e8f5e9" stroke="#2e7d32" stroke-width="1.5" d="M69.18,-491.03C69.18,-491.03 36.78,-491.03 36.78,-491.03 31.38,-491.03 25.98,-485.63 25.98,-480.23 25.98,-480.23 25.98,-469.43 25.98,-469.43 25.98,-464.03 31.38,-458.63 36.78,-458.63 36.78,-458.63 69.18,-458.63 69.18,-458.63 74.58,-458.63 79.98,-464.03 79.98,-469.43 79.98,-469.43 79.98,-480.23 79.98,-480.23 79.98,-485.63 74.58,-491.03 69.18,-491.03"/>
<text xml:space="preserve" text-anchor="middle" x="52.98" y="-472.1" font-family="Arial" font-size="8.00">TGOV1</text>
</g>
<!-- gen_G4&#45;&#45;gov_GOV4 -->
<g id="edge12" class="edge">
<title>gen_G4&#45;&#45;gov_GOV4</title>
<path fill="none" stroke="#2e7d32" stroke-width="1.5" stroke-dasharray="5,2" d="M78.77,-435.25C73.82,-442.85 68.46,-451.08 63.91,-458.06"/>
</g>
<!-- xfmr_0&#45;&#45;5 -->
<g id="edge27" class="edge">
<title>xfmr_0&#45;&#45;5</title>
<path fill="none" stroke="#7b1fa2" stroke-width="2.5" d="M720.02,-439.19C702.82,-442.87 681,-447.54 672,-449.47"/>
</g>
<!-- xfmr_1&#45;&#45;6 -->
<g id="edge29" class="edge">
<title>xfmr_1&#45;&#45;6</title>
<path fill="none" stroke="#7b1fa2" stroke-width="2.5" d="M579.39,-522.09C580.4,-513.87 581.54,-504.69 582.58,-496.24"/>
</g>
<!-- xfmr_2&#45;&#45;9 -->
<g id="edge31" class="edge">
<title>xfmr_2&#45;&#45;9</title>
<path fill="none" stroke="#7b1fa2" stroke-width="2.5" d="M379.44,-261.33C380.25,-270.53 381.16,-280.94 381.99,-290.36"/>
</g>
<!-- xfmr_3&#45;&#45;10 -->
<g id="edge33" class="edge">
<title>xfmr_3&#45;&#45;10</title>
<path fill="none" stroke="#7b1fa2" stroke-width="2.5" d="M260.63,-367.94C277.2,-362.77 298.58,-356.08 307.42,-353.32"/>
</g>
<!-- legend -->
<g id="node29" class="node">
<title>legend</title>
<polygon fill="white" stroke="none" points="694.4,-211.2 694.4,-272.7 786.15,-272.7 786.15,-211.2 694.4,-211.2"/>
<polygon fill="#f0f0f0" stroke="none" points="694.4,-252.2 694.4,-272.7 786.15,-272.7 786.15,-252.2 694.4,-252.2"/>
<polygon fill="none" stroke="black" points="694.4,-252.2 694.4,-272.7 786.15,-272.7 786.15,-252.2 694.4,-252.2"/>
<text xml:space="preserve" text-anchor="start" x="699.4" y="-260.15" font-family="Arial" font-weight="bold" font-size="9.00">Bus Voltage Levels</text>
<polygon fill="#b71c1c" stroke="none" points="694.4,-231.7 694.4,-252.2 736.02,-252.2 736.02,-231.7 694.4,-231.7"/>
<polygon fill="none" stroke="black" points="694.4,-231.7 694.4,-252.2 736.02,-252.2 736.02,-231.7 694.4,-231.7"/>
<text xml:space="preserve" text-anchor="start" x="711.84" y="-238.65" font-family="Arial" font-size="9.00" fill="white"> &#160;&#160;</text>
<polygon fill="none" stroke="black" points="736.02,-231.7 736.02,-252.2 786.15,-252.2 786.15,-231.7 736.02,-231.7"/>
<text xml:space="preserve" text-anchor="start" x="741.02" y="-238.65" font-family="Arial" font-size="9.00">230 kV</text>
<polygon fill="#e64a19" stroke="none" points="694.4,-211.2 694.4,-231.7 736.02,-231.7 736.02,-211.2 694.4,-211.2"/>
<polygon fill="none" stroke="black" points="694.4,-211.2 694.4,-231.7 736.02,-231.7 736.02,-211.2 694.4,-211.2"/>
<text xml:space="preserve" text-anchor="start" x="711.84" y="-218.15" font-family="Arial" font-size="9.00" fill="white"> &#160;&#160;</text>
<polygon fill="none" stroke="black" points="736.02,-211.2 736.02,-231.7 786.15,-231.7 786.15,-211.2 736.02,-211.2"/>
<text xml:space="preserve" text-anchor="start" x="741.02" y="-218.15" font-family="Arial" font-size="9.00">20 kV</text>
</g>
</g>
</svg>
